<?xml version="1.0" encoding="iso-8859-1"?>
<!-- Generator: Adobe Illustrator 19.0.0, SVG Export Plug-In . SVG Version: 6.00 Build 0)  -->
<svg xmlns="http://www.w3.org/2000/svg" xmlns:xlink="http://www.w3.org/1999/xlink" version="1.1" id="Layer_1" x="0px" y="0px" viewBox="0 0 512.001 512.001" style="enable-background:new 0 0 512.001 512.001;" xml:space="preserve">
<path style="fill:#FFE8A5;" d="M231.089,252.34C170.972,196.745,92.474,124.058,33.361,124.058c0,0-25.291,36.787-25.291,121.09  c0,0,91.2,9.195,142.55,56.712c51.35,47.518,150.215,134.886,342.579,51.35c0,0,24.141-10.537,0-23.758  c-18.676-10.229-108.828-50.582-108.828-50.582s-50.583,62.843-111.127,11.497c-7.124-6.042-14.864-12.964-23.097-20.476"/>
<path style="fill:#F79B00;" d="M59.432,193.703c6.562-33.313,16.213-52.034,19.76-58.116c-16.055-7.253-31.512-11.53-45.83-11.53  c0,0-25.291,36.787-25.291,121.09c0,0,19.237,1.943,45.011,8.64c0.321-11.949,1.107-22.937,2.224-33.002"/>
<path style="fill:#693F23;" d="M8.07,245.148L45.624,387.94h39.469V263.828C45.002,248.875,8.07,245.148,8.07,245.148z"/>
<path style="fill:#F48500;" d="M32.291,249.029c6.144,1.221,13.177,2.782,20.789,4.759c0.013-0.453,0.029-0.895,0.043-1.345  C43.337,250.522,35.936,249.486,32.291,249.029z"/>
<path style="fill:#54321A;" d="M71.054,375.14l-0.45-1.715l-0.002-0.001L36.852,245.089c0,0,3.43-0.582,9.308-0.974  c-18.339-1.154-30.84,0.974-30.84,0.974L49.07,373.423v0.001l0.452,1.715c1.171,3.829,4.897,12.741,14.192,12.741  c0.013,0,0.022,0.002,0.033,0.002h15.68c0.994,0,1.958-0.123,2.89-0.337C75.153,385.918,72.095,378.536,71.054,375.14z"/>
<path style="fill:#F48500;" d="M60.538,126.474c-6.838-1.605-13.499-2.475-19.929-2.475c0,0-25.29,36.786-25.29,121.09  c0,0,8.436,0.853,21.616,3.373C38.212,183.739,52.19,144.375,60.538,126.474z"/>
<path d="M497.075,322.373c-18.745-10.267-105.714-49.217-109.407-50.87c-3.335-1.495-7.27-0.546-9.574,2.293  c-0.208,0.256-21.184,25.709-50.541,28.439c-16.63,1.56-33.161-4.515-49.089-18.024c-6.27-5.318-13.54-11.763-22.877-20.284  c-3.294-3.005-8.398-2.77-11.402,0.521c-3.004,3.293-2.771,8.398,0.521,11.402c9.484,8.655,16.894,15.222,23.317,20.67  c19.411,16.462,39.982,23.785,61.175,21.772c27.873-2.651,48.669-20.858,57.217-29.659c19.625,8.822,87.327,39.364,102.907,47.898  c4.635,2.537,6.059,4.355,6.441,4.972c-0.695,1.191-3.446,3.257-5.78,4.305c-190.566,82.754-287.365-6.822-333.883-49.871  c-27.189-25.159-64.462-39.908-94.717-48.345c0.376-8.881,1.017-17.579,1.942-25.914c0.492-4.429-2.701-8.419-7.131-8.911  c-4.439-0.497-8.419,2.701-8.911,7.131c-0.848,7.638-1.477,15.551-1.884,23.628c-12.435-2.867-22.721-4.564-29.196-5.485  c0.272-15.335,1.414-28.95,3.061-40.914c0.043-0.313,0.09-0.613,0.135-0.924c0.166-1.173,0.331-2.344,0.507-3.484  c0.059-0.385,0.123-0.754,0.182-1.135c0.165-1.048,0.329-2.096,0.501-3.117c0.124-0.737,0.255-1.448,0.382-2.17  c0.113-0.642,0.224-1.298,0.34-1.929c0.125-0.68,0.256-1.334,0.384-2.001c0.125-0.65,0.246-1.313,0.374-1.951  c0.21-1.05,0.425-2.071,0.64-3.088c0.049-0.231,0.097-0.473,0.146-0.704c0.169-0.787,0.343-1.546,0.517-2.314  c0.1-0.443,0.198-0.901,0.298-1.338c0.123-0.529,0.247-1.035,0.371-1.555c0.155-0.649,0.308-1.308,0.464-1.941  c0.151-0.611,0.305-1.198,0.457-1.795c0.132-0.515,0.263-1.045,0.395-1.55c0.151-0.575,0.303-1.123,0.456-1.683  c0.137-0.505,0.273-1.022,0.411-1.516c0.085-0.305,0.171-0.591,0.256-0.891c0.498-1.755,0.999-3.453,1.5-5.064  c0.001-0.002,0.001-0.003,0.002-0.005c3.816-12.253,7.644-20.386,9.926-24.683c1.116,0.076,2.247,0.182,3.392,0.313  c0.056,0.006,0.112,0.014,0.167,0.02c8.145,0.953,17.013,3.294,26.517,7c-4.788,10.072-11.508,27.324-16.472,52.522  c-0.862,4.373,1.985,8.617,6.358,9.478c4.372,0.866,8.616-1.985,9.478-6.358c4.75-24.111,11.202-40.283,15.382-49.039  c47.412,23.758,100.637,72.978,142.556,111.743l0.322,0.298c3.271,3.025,8.377,2.826,11.405-0.447  c3.026-3.272,2.826-8.378-0.447-11.405l-0.322-0.297C174.495,189.011,97.867,118.151,36.169,116.039  c-0.943-0.033-1.879-0.051-2.806-0.051c-2.658,0-5.145,1.308-6.651,3.498C25.62,121.072,0,159.325,0,245.148  c0,0.023,0.003,0.044,0.003,0.067c0,0.072,0.008,0.144,0.011,0.216c0.008,0.231,0.024,0.461,0.052,0.688  c0.011,0.086,0.024,0.171,0.037,0.256c0.037,0.237,0.083,0.469,0.139,0.699c0.011,0.042,0.014,0.085,0.025,0.127l37.553,142.792  c0.932,3.547,4.139,6.018,7.805,6.018h39.469c4.458,0,8.07-3.612,8.07-8.07V275.758c18.604,7.862,37.127,18.285,51.976,32.026  c23.516,21.761,62.874,58.183,121.471,76.596c24.498,7.698,50.3,11.543,77.317,11.542c47.312,0,98.331-11.79,152.501-35.314  c2.509-1.095,15.05-7.131,15.557-18.448C512.321,334.631,507.305,327.976,497.075,322.373z M77.022,379.87H51.847L18.963,254.838  c12.807,2.103,34.648,6.488,58.059,14.698V379.87z"/>
<g>
</g>
<g>
</g>
<g>
</g>
<g>
</g>
<g>
</g>
<g>
</g>
<g>
</g>
<g>
</g>
<g>
</g>
<g>
</g>
<g>
</g>
<g>
</g>
<g>
</g>
<g>
</g>
<g>
</g>
</svg>
