<?xml version="1.0" encoding="iso-8859-1"?>
<!-- Generator: Adobe Illustrator 19.0.0, SVG Export Plug-In . SVG Version: 6.00 Build 0)  -->
<svg xmlns="http://www.w3.org/2000/svg" xmlns:xlink="http://www.w3.org/1999/xlink" version="1.1" id="Layer_1" x="0px" y="0px" viewBox="0 0 512.001 512.001" style="enable-background:new 0 0 512.001 512.001;" xml:space="preserve">
<path style="fill:#49BAED;" d="M360.858,309.837c0.469,1.199,0.913,2.415,1.32,3.65c-166.026-0.168-211.017-160.02-211.017-160.02  s-44.099,27-70.198,7.2c-26.1-19.799-56.699-32.286-56.699,7.256c-0.001,39.544-16.2,171.842-16.2,171.842h26.999h56.699h207.895  c0.367,0,0.734,0.006,1.1,0.021c0.298,0.013,31.895,1.188,67.986-3.499c-1.087,0.141-2.155,0.26-3.233,0.39  C365.952,327.019,364.054,318.011,360.858,309.837z"/>
<path style="fill:#3399CC;" d="M36.191,369.33v-26.999h0.13c0.04-0.32,0.086-0.713,0.141-1.169c0.019-0.143,0.035-0.283,0.055-0.438  c0.013-0.112,0.027-0.226,0.04-0.343c0.013-0.098,0.025-0.202,0.038-0.303c0.048-0.4,0.101-0.831,0.156-1.299  c0.004-0.033,0.009-0.066,0.013-0.1c0.023-0.198,0.048-0.407,0.073-0.616c0.015-0.126,0.031-0.252,0.046-0.382  c0.022-0.183,0.044-0.372,0.068-0.562c0.027-0.219,0.055-0.45,0.082-0.681c0.214-1.789,0.464-3.884,0.743-6.259  c0.011-0.08,0.019-0.159,0.029-0.242c0.048-0.403,0.097-0.814,0.145-1.232c0.004-0.037,0.009-0.074,0.013-0.111  c0.157-1.335,0.324-2.747,0.498-4.229c0.004-0.042,0.011-0.084,0.015-0.126c0.174-1.497,0.357-3.064,0.548-4.695  c0.002-0.024,0.004-0.047,0.009-0.07c0.252-2.186,0.518-4.49,0.796-6.892c0.013-0.111,0.025-0.219,0.038-0.33  c0.275-2.4,0.56-4.899,0.853-7.485c0.002-0.014,0.004-0.027,0.004-0.041c0.22-1.943,0.445-3.934,0.674-5.967  c0.009-0.084,0.019-0.167,0.027-0.251c0.218-1.939,0.439-3.919,0.661-5.93c0.019-0.159,0.035-0.318,0.055-0.477  c0.07-0.636,0.141-1.277,0.212-1.919c0.015-0.13,0.029-0.262,0.044-0.393c0.139-1.269,0.28-2.548,0.423-3.837  c0.013-0.13,0.027-0.258,0.042-0.387c0.059-0.545,0.119-1.093,0.178-1.643c0.038-0.341,0.075-0.683,0.113-1.026  c0.061-0.567,0.124-1.136,0.185-1.707c0.025-0.228,0.051-0.458,0.075-0.687c0.115-1.081,0.233-2.166,0.35-3.257  c0.038-0.339,0.073-0.677,0.11-1.017c0.061-0.569,0.124-1.14,0.185-1.71c0.035-0.331,0.07-0.661,0.105-0.992  c0.101-0.935,0.2-1.874,0.3-2.815c0.046-0.43,0.09-0.861,0.137-1.292c0.055-0.515,0.11-1.031,0.163-1.546  c0.046-0.442,0.092-0.884,0.139-1.326c0.055-0.514,0.11-1.027,0.161-1.541c0.048-0.46,0.097-0.921,0.145-1.382  c0.086-0.824,0.172-1.648,0.258-2.475c0.053-0.506,0.103-1.012,0.156-1.52c0.048-0.466,0.097-0.93,0.145-1.395  c0.057-0.545,0.112-1.09,0.168-1.635c0.044-0.427,0.086-0.856,0.13-1.283c0.092-0.901,0.185-1.802,0.275-2.704  c0.033-0.325,0.066-0.649,0.099-0.973c0.068-0.683,0.137-1.365,0.205-2.048c0.033-0.342,0.068-0.685,0.103-1.027  c0.097-0.967,0.191-1.934,0.288-2.9c0.006-0.067,0.013-0.132,0.019-0.2c0.088-0.889,0.176-1.777,0.262-2.665  c0.035-0.361,0.071-0.724,0.105-1.085c0.069-0.695,0.137-1.389,0.203-2.082c0.027-0.286,0.055-0.571,0.082-0.856  c2.009-20.865,3.677-40.793,4.355-55.314c0.212-4.534,0.33-8.552,0.33-11.897c0-12.469,3.045-19.76,8.03-23.285  c-16.413-6.199-29.561-2.637-29.561,23.285c0,3.344-0.119,7.363-0.33,11.897c-0.681,14.521-2.346,34.45-4.355,55.314  c-0.029,0.285-0.057,0.57-0.084,0.856c-0.068,0.693-0.134,1.387-0.202,2.082c-0.035,0.361-0.071,0.724-0.105,1.085  c-0.088,0.887-0.174,1.775-0.262,2.665c-0.006,0.068-0.013,0.133-0.022,0.2c-0.095,0.965-0.191,1.933-0.288,2.9  c-0.033,0.342-0.068,0.685-0.103,1.027c-0.068,0.684-0.137,1.366-0.205,2.048c-0.031,0.325-0.066,0.649-0.097,0.973  c-0.092,0.902-0.183,1.803-0.275,2.704c-0.044,0.427-0.088,0.856-0.132,1.283c-0.055,0.545-0.112,1.09-0.166,1.635  c-0.048,0.466-0.097,0.93-0.145,1.395c-0.053,0.509-0.105,1.014-0.157,1.52c-0.086,0.826-0.17,1.651-0.256,2.475  c-0.048,0.461-0.097,0.921-0.145,1.382c-0.055,0.513-0.108,1.027-0.161,1.541c-0.046,0.442-0.092,0.884-0.141,1.326  c-0.053,0.515-0.108,1.032-0.161,1.546c-0.046,0.431-0.092,0.862-0.139,1.292c-0.099,0.941-0.2,1.879-0.298,2.815  c-0.035,0.331-0.071,0.661-0.108,0.992c-0.061,0.571-0.121,1.142-0.183,1.71c-0.035,0.34-0.073,0.678-0.11,1.017  c-0.117,1.091-0.235,2.177-0.353,3.257c-0.025,0.229-0.048,0.459-0.073,0.687c-0.063,0.571-0.124,1.141-0.187,1.707  c-0.035,0.343-0.073,0.685-0.112,1.026c-0.061,0.549-0.119,1.099-0.178,1.643c-0.015,0.129-0.029,0.257-0.044,0.387  c-0.141,1.289-0.282,2.569-0.423,3.837c-0.015,0.131-0.029,0.263-0.044,0.393c-0.07,0.643-0.141,1.283-0.212,1.919  c-0.017,0.159-0.035,0.318-0.053,0.477c-0.223,2.012-0.443,3.991-0.661,5.93c-0.011,0.084-0.019,0.167-0.027,0.251  c-0.229,2.033-0.454,4.024-0.674,5.967c-0.002,0.014-0.002,0.027-0.004,0.041c-0.294,2.586-0.579,5.084-0.855,7.485  c-0.013,0.111-0.025,0.219-0.038,0.33c-0.275,2.403-0.542,4.707-0.796,6.892c-0.002,0.023-0.004,0.046-0.009,0.07  c-0.189,1.631-0.372,3.198-0.546,4.695c-0.006,0.042-0.011,0.084-0.017,0.126c-0.172,1.483-0.338,2.893-0.496,4.229  c-0.004,0.037-0.009,0.074-0.013,0.111c-0.051,0.418-0.099,0.829-0.147,1.232c-0.009,0.082-0.019,0.161-0.027,0.242  c-0.282,2.375-0.531,4.47-0.743,6.259c-0.029,0.23-0.057,0.461-0.082,0.681c-0.023,0.191-0.046,0.381-0.068,0.562  c-0.017,0.13-0.031,0.256-0.046,0.382c-0.025,0.209-0.051,0.419-0.073,0.616c-0.004,0.034-0.009,0.066-0.013,0.1  c-0.057,0.468-0.11,0.899-0.158,1.299c-0.011,0.102-0.023,0.205-0.035,0.303c-0.015,0.117-0.027,0.232-0.042,0.343  c-0.019,0.156-0.035,0.295-0.053,0.438c-0.055,0.456-0.103,0.848-0.141,1.169h-0.132v26.999c0,14.911,12.088,26.999,26.999,26.999  h21.533C48.28,396.329,36.191,384.241,36.191,369.33z"/>
<path style="fill:#1D4F56;" d="M224.16,393.764h75.002c1.521,0.053,5.632,0.171,11.706,0.171c13.762,0,37.574-0.611,63.988-3.991  c57.993-7.416,99.119-24.305,122.238-50.198c9.93-11.123,8.964-28.19-2.16-38.121c-11.122-9.929-28.189-8.965-38.121,2.158  c-13.722,15.366-44.996,26.911-88.069,32.505c-36.091,4.686-67.689,3.512-67.986,3.499c-0.367-0.016-0.734-0.021-1.1-0.021H91.763  h-56.7H8.064v26.999c0,14.911,12.088,26.999,26.999,26.999h161.501"/>
<path style="fill:#275D68;" d="M28.46,368.556h161.501h27.596h75.001c1.522,0.053,5.634,0.171,11.707,0.171  c13.762,0,37.574-0.611,63.988-3.991c57.994-7.416,99.119-24.305,122.238-50.198c4.038-4.521,6.261-10.025,6.744-15.633  c-10.868-6.407-25.102-4.479-33.826,5.293c-13.723,15.366-44.996,26.911-88.07,32.505c-36.091,4.686-67.687,3.512-67.985,3.499  c-0.368-0.016-0.735-0.021-1.1-0.021H98.356H41.657H14.658v22.161c0,0.839,0.044,1.669,0.119,2.488  C18.791,367.194,23.464,368.556,28.46,368.556z"/>
<g>
	<path style="fill:#2397B7;" d="M323.057,263.267c0,0-99.899-32.399-129.598-135.897c0,0-15.299-33.299-42.299,26.098   c0,0,44.992,159.852,211.018,160.018C352.109,283.092,323.057,263.267,323.057,263.267z"/>
	<path style="fill:#2397B7;" d="M19.825,232.556C15.03,282.874,8.064,339.766,8.064,339.766h26.999h48.371   C83.359,248.953,19.831,232.557,19.825,232.556z"/>
</g>
<g>
	<path style="fill:#FCF1D4;" d="M365.513,336.678c1.078-0.13,2.146-0.249,3.233-0.39c43.073-5.594,74.348-17.138,88.069-32.505   c2.837-3.177,6.265-5.495,9.962-6.998c0.003-0.005,0.005-0.03,0.005-0.03s-35.727-10.989-143.724-33.488   C323.057,263.267,367.474,293.561,365.513,336.678z"/>
	<path style="fill:#FCF1D4;" d="M133.246,208.89c11.274-2.996,22.857-8.208,34.453-16.373c-11.863-22.472-16.538-39.05-16.538-39.05   s-44.099,27-70.198,7.2c-26.1-19.799-56.699-32.286-56.699,7.256c0,3.344-0.118,7.363-0.33,11.896   c0.001,0.001,36.2,32.091,83.051,32.391"/>
</g>
<path style="fill:#446A72;" d="M374.857,389.944c57.993-7.416,99.119-24.305,122.238-50.198c9.93-11.123,8.964-28.19-2.16-38.121  c-11.122-9.929-28.189-8.965-38.121,2.158c-13.722,15.366-44.996,26.911-88.069,32.505c-9.129,1.187-17.966,1.994-26.086,2.545l0,0  c0,0-49.301,6.332-56.052,54.931h12.555c1.521,0.053,5.632,0.171,11.706,0.171C324.63,393.935,348.442,393.324,374.857,389.944z"/>
<path style="fill:#F2D17E;" d="M52.06,183.461c0.212-4.534,0.33-8.552,0.33-11.897c0-12.469,3.045-19.76,8.03-23.285  c-0.025-0.01-0.051-0.018-0.075-0.027c-0.434-0.163-0.87-0.319-1.3-0.47c-0.128-0.045-0.256-0.087-0.384-0.131  c-0.348-0.117-0.696-0.231-1.042-0.34c-0.121-0.039-0.246-0.078-0.37-0.116c-0.912-0.28-1.813-0.522-2.696-0.73  c-0.112-0.026-0.22-0.049-0.332-0.074c-0.338-0.075-0.674-0.146-1.008-0.211c-0.119-0.023-0.238-0.046-0.357-0.069  c-0.386-0.07-0.769-0.134-1.146-0.189c-0.046-0.006-0.092-0.015-0.137-0.022c-0.428-0.06-0.853-0.11-1.271-0.148  c-0.092-0.01-0.183-0.015-0.273-0.023c-0.326-0.027-0.649-0.048-0.97-0.063c-0.113-0.005-0.227-0.011-0.34-0.014  c-0.332-0.011-0.661-0.013-0.989-0.009c-0.071,0.001-0.143-0.001-0.212,0.001c-0.397,0.01-0.789,0.029-1.176,0.061  c-0.07,0.006-0.139,0.015-0.207,0.021c-0.313,0.029-0.621,0.066-0.928,0.11c-0.105,0.016-0.21,0.032-0.315,0.049  c-0.29,0.047-0.575,0.102-0.859,0.163c-0.082,0.018-0.166,0.033-0.247,0.053c-0.359,0.085-0.716,0.181-1.064,0.29  c-0.042,0.013-0.082,0.028-0.124,0.042c-0.302,0.098-0.599,0.204-0.892,0.321c-0.095,0.038-0.189,0.077-0.284,0.117  c-0.249,0.105-0.496,0.218-0.74,0.338c-0.086,0.042-0.17,0.083-0.254,0.126c-0.321,0.167-0.634,0.342-0.941,0.535  c-0.004,0.001-0.006,0.003-0.009,0.005c-0.3,0.188-0.59,0.392-0.875,0.606c-0.082,0.061-0.161,0.125-0.242,0.188  c-0.214,0.168-0.425,0.343-0.632,0.526c-0.08,0.07-0.157,0.14-0.238,0.212c-0.249,0.233-0.496,0.476-0.735,0.733  c-0.019,0.021-0.04,0.04-0.059,0.061c-0.258,0.281-0.506,0.576-0.747,0.885c-0.066,0.083-0.13,0.171-0.194,0.257  c-0.178,0.234-0.35,0.476-0.518,0.728c-0.069,0.103-0.139,0.206-0.207,0.313c-0.181,0.285-0.357,0.578-0.529,0.882  c-0.038,0.068-0.077,0.13-0.113,0.199c-0.205,0.374-0.401,0.763-0.59,1.166c-0.046,0.102-0.09,0.209-0.137,0.312  c-0.141,0.313-0.275,0.634-0.407,0.964c-0.053,0.137-0.108,0.274-0.157,0.415c-0.128,0.341-0.25,0.693-0.368,1.053  c-0.038,0.113-0.077,0.224-0.113,0.339c-0.147,0.474-0.288,0.963-0.418,1.469c-0.025,0.105-0.051,0.216-0.075,0.324  c-0.101,0.41-0.198,0.829-0.288,1.26c-0.033,0.17-0.069,0.343-0.103,0.518c-0.077,0.406-0.152,0.824-0.218,1.247  c-0.027,0.161-0.055,0.318-0.077,0.481c-0.088,0.581-0.166,1.176-0.233,1.791c-0.011,0.086-0.017,0.177-0.025,0.263  c-0.057,0.535-0.105,1.084-0.147,1.644c-0.015,0.203-0.027,0.411-0.04,0.617c-0.029,0.482-0.055,0.973-0.075,1.473  c-0.006,0.204-0.017,0.407-0.023,0.616c-0.02,0.697-0.033,1.407-0.033,2.139c0,3.344-0.119,7.363-0.33,11.897  c0,0,7.742,6.855,20.681,14.256C51.568,192.568,51.858,187.772,52.06,183.461z"/>
<path style="fill:#1C86A3;" d="M167.927,127.766c-3.483,5.145-7.235,11.913-11.249,20.741c0,0,41.548,160.018,214.558,160.018  c-2.152-6.494-5.336-12.499-9.004-17.938C221.195,274.811,175.633,152.161,167.927,127.766z"/>
<path style="fill:#F2D17E;" d="M371.002,274.169c-11.857-2.578-24.889-5.355-39.202-8.337c0,0,44.417,30.294,42.456,73.411  c1.077-0.13,2.146-0.249,3.232-0.39c6.965-0.904,13.613-1.966,19.936-3.173C397.237,309.374,382.961,287.716,371.002,274.169z"/>
<path style="fill:#1C86A3;" d="M36.191,342.33h0.13c0.04-0.32,0.086-0.713,0.141-1.169c0.019-0.143,0.035-0.283,0.055-0.438  c0.013-0.112,0.027-0.226,0.04-0.343c0.013-0.098,0.025-0.202,0.038-0.303c0.048-0.4,0.101-0.831,0.156-1.299  c0.004-0.033,0.009-0.066,0.013-0.1c0.023-0.198,0.048-0.407,0.073-0.616c0.015-0.126,0.031-0.252,0.046-0.382  c0.022-0.183,0.044-0.372,0.068-0.562c0.027-0.219,0.055-0.45,0.082-0.681c0.214-1.789,0.464-3.884,0.743-6.259  c0.011-0.08,0.019-0.159,0.029-0.242c0.048-0.403,0.097-0.814,0.145-1.232c0.004-0.037,0.009-0.074,0.013-0.111  c0.157-1.335,0.324-2.747,0.498-4.229c0.004-0.042,0.011-0.084,0.015-0.126c0.174-1.497,0.357-3.064,0.548-4.695  c0.002-0.024,0.004-0.047,0.009-0.07c0.252-2.186,0.518-4.49,0.796-6.893c0.013-0.111,0.025-0.219,0.038-0.33  c0.275-2.4,0.56-4.899,0.853-7.485c0.002-0.014,0.004-0.027,0.004-0.041c0.22-1.943,0.445-3.934,0.674-5.967  c0.009-0.084,0.019-0.167,0.027-0.25c0.218-1.939,0.439-3.919,0.661-5.93c0.019-0.159,0.035-0.318,0.055-0.477  c0.07-0.636,0.141-1.277,0.212-1.919c0.015-0.13,0.029-0.262,0.044-0.393c0.139-1.269,0.28-2.548,0.423-3.837  c0.013-0.13,0.027-0.258,0.042-0.387c0.059-0.545,0.119-1.093,0.178-1.643c0.038-0.341,0.075-0.683,0.113-1.026  c0.061-0.567,0.124-1.136,0.185-1.707c0.025-0.228,0.051-0.458,0.075-0.687c0.115-1.08,0.233-2.166,0.35-3.256  c0.038-0.339,0.073-0.677,0.11-1.017c0.061-0.569,0.124-1.14,0.185-1.711c0.035-0.331,0.07-0.661,0.105-0.992  c0.101-0.935,0.2-1.874,0.3-2.815c0.046-0.43,0.09-0.861,0.137-1.292c0.055-0.515,0.11-1.031,0.163-1.546  c0.046-0.442,0.092-0.884,0.139-1.326c0.055-0.514,0.11-1.027,0.161-1.541c0.048-0.46,0.097-0.921,0.145-1.382  c0.086-0.824,0.172-1.648,0.258-2.475c0.053-0.506,0.103-1.012,0.156-1.52c0.048-0.466,0.097-0.93,0.145-1.396  c0.057-0.545,0.112-1.09,0.168-1.635c0.044-0.427,0.086-0.856,0.13-1.283c0.092-0.901,0.185-1.802,0.275-2.704  c0.033-0.325,0.066-0.649,0.099-0.973c0.068-0.683,0.137-1.365,0.205-2.048c0.033-0.342,0.068-0.685,0.103-1.027  c0.069-0.697,0.139-1.394,0.207-2.09C35.585,238.57,26.421,236.2,26.419,236.2c-0.046,0.498-0.095,0.998-0.143,1.497  c-0.033,0.361-0.069,0.72-0.103,1.083c-0.029,0.285-0.057,0.57-0.084,0.856c-0.015,0.156-0.029,0.312-0.044,0.469  c-0.066,0.665-0.13,1.333-0.196,2.001c-0.024,0.232-0.046,0.466-0.068,0.697c-0.053,0.532-0.105,1.065-0.158,1.599  c-0.13,1.316-0.26,2.634-0.392,3.953c-0.006,0.071-0.013,0.142-0.02,0.212c-0.033,0.342-0.068,0.685-0.103,1.027  c-0.002,0.033-0.006,0.069-0.011,0.102c-0.055,0.544-0.109,1.088-0.163,1.631c-0.011,0.106-0.022,0.211-0.031,0.316  c-0.031,0.325-0.066,0.649-0.097,0.973c-0.086,0.85-0.172,1.701-0.26,2.55c-0.004,0.039-0.009,0.078-0.011,0.117  c-0.002,0.012-0.004,0.024-0.004,0.035c-0.04,0.388-0.08,0.779-0.119,1.168c-0.004,0.042-0.009,0.085-0.013,0.127  c-0.057,0.542-0.112,1.083-0.166,1.623c-0.027,0.258-0.055,0.515-0.08,0.774c-0.059,0.562-0.117,1.127-0.174,1.688  c-0.017,0.152-0.031,0.302-0.048,0.454c-0.04,0.396-0.082,0.789-0.121,1.185c-0.006,0.043-0.011,0.086-0.015,0.13  c-0.04,0.386-0.08,0.774-0.119,1.159c-0.025,0.233-0.051,0.467-0.073,0.7c-0.174,1.665-0.348,3.326-0.523,4.979  c-0.004,0.039-0.009,0.076-0.013,0.115c-0.002,0.013-0.002,0.025-0.004,0.038c-0.141,1.333-0.284,2.661-0.425,3.982  c-0.002,0.028-0.006,0.058-0.009,0.087c-0.006,0.063-0.015,0.125-0.02,0.188c-0.025,0.234-0.051,0.468-0.073,0.701  c-0.004,0.034-0.009,0.069-0.013,0.103c-0.006,0.067-0.013,0.131-0.02,0.197c-0.086,0.819-0.174,1.634-0.262,2.446  c-0.002,0.028-0.006,0.057-0.009,0.085c-0.009,0.068-0.015,0.133-0.022,0.201c-0.084,0.765-0.166,1.53-0.247,2.29  c-0.027,0.255-0.057,0.513-0.084,0.767c-0.025,0.229-0.048,0.459-0.073,0.687c-0.053,0.474-0.103,0.946-0.156,1.417  c-0.073,0.676-0.147,1.349-0.22,2.019c-0.033,0.314-0.068,0.628-0.101,0.94c-0.015,0.129-0.029,0.257-0.044,0.387  c-0.019,0.172-0.038,0.341-0.057,0.514c-0.086,0.8-0.174,1.595-0.262,2.388c-0.033,0.311-0.068,0.627-0.103,0.936  c-0.004,0.047-0.011,0.094-0.015,0.141c-0.328,2.962-0.65,5.859-0.965,8.675c-0.006,0.053-0.013,0.104-0.017,0.156  c-0.063,0.547-0.121,1.083-0.183,1.622c-0.304,2.694-0.601,5.308-0.888,7.829c-0.031,0.274-0.061,0.546-0.092,0.819  c-0.082,0.704-0.159,1.401-0.24,2.089c-0.042,0.375-0.086,0.762-0.13,1.133c-0.013,0.111-0.025,0.219-0.038,0.33  c-0.055,0.487-0.109,0.951-0.163,1.43c-0.046,0.401-0.092,0.796-0.139,1.19c-0.168,1.462-0.334,2.897-0.493,4.272  c-0.002,0.023-0.004,0.046-0.009,0.07c-0.048,0.413-0.095,0.81-0.141,1.215c-0.051,0.424-0.099,0.841-0.147,1.256  c-0.088,0.757-0.174,1.501-0.258,2.224c-0.004,0.027-0.006,0.053-0.011,0.078c-0.178,1.518-0.346,2.963-0.509,4.328  c-0.002,0.02-0.004,0.039-0.006,0.059c-0.024,0.197-0.046,0.385-0.07,0.577c-0.095,0.807-0.187,1.588-0.275,2.335  c-0.033,0.271-0.063,0.533-0.095,0.797c-0.015,0.112-0.027,0.22-0.04,0.331c-0.16,1.341-0.306,2.581-0.439,3.693  c-0.029,0.23-0.057,0.461-0.082,0.681c-0.023,0.191-0.046,0.381-0.068,0.562c-0.015,0.126-0.031,0.248-0.046,0.372  c0,0.008,0,0.015-0.002,0.024c-0.025,0.204-0.048,0.411-0.071,0.603c-0.004,0.026-0.006,0.052-0.011,0.076  c-0.086,0.72-0.163,1.36-0.231,1.921c-0.002,0.015-0.004,0.031-0.006,0.047c-0.002,0.015-0.002,0.026-0.004,0.041  c-0.044,0.356-0.082,0.674-0.115,0.96c-0.027,0.221-0.053,0.427-0.073,0.606l0,0c-0.086,0.702-0.132,1.075-0.132,1.075h21.533  v-1.079H36.191z"/>
<path style="fill:#527A84;" d="M296.925,366.577c13.765,0.001,39.539,2.077,65.951-1.303c57.994-7.416,99.119-22.155,122.238-48.047  c5.199-5.822,7.404-13.272,6.739-20.475c0,0-0.002-0.001-0.004-0.002c-0.641-0.377-1.295-0.721-1.957-1.041  c-0.068-0.031-0.132-0.065-0.199-0.097c-0.643-0.303-1.296-0.581-1.957-0.83c-0.075-0.028-0.152-0.056-0.227-0.083  c-0.672-0.247-1.35-0.472-2.037-0.663c-0.031-0.01-0.066-0.017-0.097-0.025c-0.716-0.199-1.439-0.369-2.165-0.506l0,0  c-0.703-0.132-1.412-0.232-2.121-0.309c-0.077-0.009-0.156-0.018-0.235-0.026c-0.681-0.068-1.365-0.108-2.049-0.124  c-0.092-0.002-0.187-0.002-0.282-0.004c-0.689-0.009-1.377,0.005-2.064,0.049c-0.061,0.003-0.119,0.011-0.178,0.015  c-0.71,0.049-1.419,0.123-2.123,0.228c-0.009,0.002-0.017,0.002-0.025,0.004c-0.69,0.104-1.377,0.242-2.06,0.399  c-0.092,0.021-0.185,0.04-0.277,0.062c-0.65,0.158-1.298,0.342-1.938,0.549c-0.108,0.034-0.214,0.071-0.321,0.106  c-0.641,0.215-1.275,0.453-1.901,0.717c-0.08,0.033-0.157,0.07-0.238,0.105c-0.643,0.28-1.278,0.579-1.903,0.912  c-0.013,0.005-0.023,0.011-0.033,0.017c-0.624,0.332-1.231,0.696-1.829,1.079c-0.088,0.056-0.178,0.111-0.264,0.168  c-0.569,0.373-1.126,0.773-1.672,1.192c-0.099,0.077-0.199,0.156-0.298,0.235c-0.542,0.429-1.071,0.88-1.584,1.358  c-0.077,0.07-0.152,0.145-0.227,0.217c-0.533,0.509-1.056,1.035-1.556,1.594c-13.723,15.366-44.996,26.911-88.07,32.505  c-9.128,1.186-17.966,1.994-26.086,2.545C343.877,337.097,313.193,341.045,296.925,366.577z"/>
<path d="M500.305,295.61c-0.426-0.38-0.86-0.746-1.301-1.103c-0.168-0.135-0.34-0.263-0.51-0.396  c-0.274-0.213-0.547-0.427-0.827-0.632c-0.211-0.154-0.425-0.301-0.638-0.449c-0.245-0.171-0.489-0.343-0.738-0.507  c-0.23-0.153-0.463-0.299-0.696-0.445c-0.239-0.151-0.478-0.299-0.72-0.443c-0.239-0.142-0.478-0.28-0.719-0.415  c-0.248-0.14-0.497-0.276-0.748-0.41c-0.233-0.124-0.467-0.245-0.701-0.363c-0.276-0.139-0.555-0.273-0.835-0.405  c-0.21-0.099-0.419-0.197-0.63-0.291c-0.33-0.147-0.663-0.287-0.998-0.424c-0.163-0.067-0.326-0.135-0.489-0.2  c-0.425-0.167-0.852-0.323-1.283-0.472c-0.075-0.026-0.151-0.055-0.226-0.081c-3.603-1.226-7.41-1.871-11.284-1.871  c-2.911,0-5.781,0.373-8.556,1.072c-0.041,0.011-0.083,0.019-0.125,0.03c-0.434,0.111-0.865,0.233-1.294,0.36  c-0.139,0.041-0.277,0.08-0.415,0.121c-9.875-2.845-49.087-13.574-141.398-32.815c-1.726-0.599-9.291-3.342-19.983-8.8l4.713-9.565  c1.969-3.995,0.326-8.829-3.668-10.797c-3.996-1.969-8.829-0.327-10.797,3.668l-4.354,8.836c-4.314-2.609-8.865-5.563-13.546-8.87  l6.039-6.843c2.946-3.338,2.628-8.434-0.712-11.381c-3.338-2.946-8.434-2.628-11.381,0.712l-6.803,7.71  c-4.496-3.696-9.023-7.721-13.5-12.094l6.567-5.441c3.428-2.843,3.906-7.925,1.064-11.354c-2.843-3.43-7.926-3.906-11.354-1.064  l-7.385,6.119c-3.383-3.88-6.691-7.982-9.886-12.313l8.387-4.528c3.919-2.116,5.38-7.008,3.264-10.926  c-2.117-3.919-7.009-5.38-10.926-3.264l-9.768,5.274c-8.105-13.253-15.034-28.323-19.936-45.404  c-0.112-0.391-0.254-0.773-0.424-1.143c-0.659-1.433-6.803-14-19.62-14c-12.646,0-24.195,12.005-36.236,37.723  c-6.784,3.679-29.39,14.86-47.495,11.474c-0.202-0.039-0.412-0.065-0.612-0.106c-0.449-0.092-0.889-0.215-1.332-0.327  c-0.367-0.094-0.742-0.175-1.1-0.281c-0.374-0.11-0.74-0.245-1.108-0.369c-0.404-0.137-0.815-0.263-1.207-0.416  c-0.358-0.139-0.705-0.304-1.058-0.458c-0.38-0.167-0.767-0.323-1.135-0.505c-0.406-0.201-0.799-0.433-1.196-0.656  c-0.292-0.164-0.596-0.316-0.881-0.491c-0.672-0.415-1.331-0.861-1.971-1.347c-1.013-0.768-2.012-1.506-3.005-2.231  c-0.196-0.143-0.391-0.284-0.586-0.425c-2.049-1.483-4.056-2.873-6.024-4.169c-0.054-0.035-0.108-0.07-0.16-0.105  c-19.323-12.705-34.631-16.397-45.59-10.955c-8.358,4.15-13.073,12.916-14.068,26.08c-0.018,0.232-0.027,0.478-0.042,0.714  c-0.041,0.635-0.084,1.269-0.109,1.923c-0.034,0.922-0.054,1.871-0.054,2.848c0,0.506-0.004,1.039-0.01,1.576  c-0.002,0.212-0.004,0.425-0.008,0.644c-0.004,0.297-0.01,0.603-0.015,0.908c-0.046,2.448-0.142,5.251-0.288,8.393  c0,0.01,0,0.019,0,0.029c-2.052,43.87-13.381,139.109-15.483,156.541c-0.022,0.178-0.042,0.345-0.061,0.507  c-0.015,0.126-0.03,0.253-0.045,0.369c-0.01,0.084-0.02,0.171-0.03,0.251c-0.017,0.142-0.032,0.263-0.047,0.387  c-0.018,0.151-0.035,0.288-0.051,0.413c-0.008,0.058-0.014,0.113-0.02,0.166c-0.033,0.273-0.056,0.464-0.07,0.572  c-0.005,0.043-0.011,0.092-0.013,0.106c-0.002,0.022-0.002,0.043-0.004,0.066c-0.019,0.168-0.027,0.339-0.034,0.511  c-0.005,0.114-0.016,0.228-0.017,0.341c0,0.021-0.003,0.042-0.003,0.063v26.999c0,19.334,15.729,35.062,35.062,35.062h161.501  c4.454,0,8.063-3.609,8.063-8.063c0-4.454-3.609-8.063-8.063-8.063h-161.5c-10.441,0-18.936-8.494-18.936-18.936v-18.936h67.307  h173.19c0.013,0,0.026,0.002,0.039,0.002c0.011,0,0.02-0.002,0.031-0.002h42.963c0.25,0,0.503,0.004,0.76,0.015  c0.018,0.001,1.011,0.04,2.837,0.076c-11.87,9.697-19.793,22.527-23.328,37.78H224.16c-4.454,0-8.063,3.609-8.063,8.063  c0,4.454,3.609,8.063,8.063,8.063h62.447h12.417c1.641,0.056,5.81,0.171,11.843,0.171c15.197,0,38.812-0.703,65.012-4.055  c59.975-7.67,102.782-25.443,127.231-52.826C515.985,330.694,514.728,308.487,500.305,295.61z M449.031,300.238  c-0.139,0.134-0.276,0.27-0.418,0.404c-0.178,0.169-0.357,0.336-0.541,0.504c-0.26,0.238-0.53,0.473-0.802,0.707  c-0.186,0.161-0.37,0.323-0.561,0.484c-0.295,0.246-0.599,0.49-0.905,0.734c-0.183,0.145-0.36,0.291-0.546,0.436  c-0.36,0.28-0.734,0.556-1.111,0.833c-0.145,0.106-0.285,0.215-0.433,0.321c-0.531,0.383-1.077,0.762-1.64,1.14  c-0.084,0.056-0.173,0.112-0.258,0.168c-0.48,0.318-0.967,0.635-1.467,0.949c-0.204,0.128-0.418,0.255-0.626,0.382  c-0.392,0.241-0.786,0.481-1.19,0.718c-0.244,0.143-0.496,0.285-0.744,0.427c-0.383,0.219-0.768,0.439-1.162,0.656  c-0.267,0.147-0.54,0.294-0.812,0.44c-0.39,0.21-0.783,0.418-1.182,0.626c-0.284,0.147-0.571,0.293-0.86,0.44  c-0.403,0.204-0.81,0.406-1.222,0.607c-0.297,0.145-0.595,0.289-0.897,0.433c-0.421,0.201-0.848,0.4-1.279,0.599  c-0.303,0.14-0.605,0.28-0.913,0.417c-0.45,0.203-0.91,0.403-1.37,0.603c-0.299,0.13-0.596,0.26-0.899,0.389  c-0.498,0.212-1.005,0.42-1.514,0.629c-0.278,0.114-0.554,0.23-0.836,0.343c-0.601,0.242-1.214,0.48-1.829,0.717  c-0.201,0.077-0.396,0.156-0.598,0.233c-0.828,0.315-1.669,0.626-2.522,0.933c-0.124,0.045-0.253,0.088-0.377,0.132  c-0.727,0.259-1.459,0.516-2.204,0.77c-0.288,0.098-0.583,0.194-0.874,0.291c-0.591,0.198-1.184,0.396-1.786,0.589  c-0.344,0.111-0.693,0.219-1.041,0.329c-0.56,0.177-1.122,0.354-1.691,0.528c-0.373,0.114-0.75,0.227-1.128,0.339  c-0.56,0.168-1.124,0.334-1.692,0.499c-0.386,0.112-0.776,0.223-1.165,0.333c-0.571,0.161-1.145,0.321-1.724,0.479  c-0.399,0.109-0.799,0.218-1.202,0.326c-0.587,0.157-1.18,0.312-1.776,0.467c-0.4,0.103-0.8,0.207-1.204,0.31  c-0.622,0.157-1.251,0.312-1.884,0.467c-0.386,0.095-0.771,0.189-1.16,0.283c-0.682,0.162-1.371,0.323-2.062,0.481  c-0.349,0.081-0.696,0.162-1.048,0.242c-0.842,0.19-1.694,0.375-2.55,0.56c-0.209,0.045-0.413,0.091-0.621,0.135  c-1.078,0.229-2.167,0.454-3.267,0.674c-0.202,0.041-0.409,0.078-0.611,0.119c-0.029,0.005-0.058,0.011-0.087,0.017  c-0.863,0.171-1.73,0.34-2.607,0.504c-0.371,0.07-0.747,0.137-1.12,0.205c-0.742,0.137-1.486,0.273-2.236,0.405  c-0.438,0.077-0.88,0.152-1.321,0.228c-0.701,0.12-1.403,0.241-2.112,0.357c-0.468,0.077-0.94,0.153-1.411,0.228  c-0.688,0.111-1.378,0.219-2.073,0.327c-0.492,0.076-0.988,0.151-1.484,0.225c-0.34,0.051-0.683,0.1-1.025,0.149  c-0.041-0.448-0.109-0.886-0.158-1.332c-0.054-0.478-0.106-0.956-0.17-1.434c-2.548-19.467-12.814-35.76-22.965-47.524  C401.341,288.234,432.466,295.904,449.031,300.238z M181.167,126.13c1.779,0,3.848,2.578,4.757,4.207  c5.252,18.045,12.593,33.941,21.029,47.875l-10.011,5.406c-3.919,2.116-5.38,7.008-3.264,10.926  c1.458,2.701,4.234,4.234,7.102,4.234c1.293,0,2.606-0.312,3.824-0.969l11.267-6.083c3.812,5.299,7.762,10.248,11.776,14.882  l-9.915,8.216c-3.428,2.842-3.906,7.925-1.064,11.353c1.594,1.924,3.895,2.919,6.213,2.919c1.813,0,3.636-0.607,5.14-1.855  l10.647-8.821c5.147,5.123,10.289,9.749,15.284,13.886l-8.01,9.077c-2.946,3.338-2.628,8.434,0.712,11.381  c1.533,1.352,3.435,2.017,5.331,2.017c2.233,0,4.456-0.922,6.05-2.729l8.719-9.88c5.959,4.271,11.732,7.998,17.149,11.225  l-5.527,11.217c-1.969,3.995-0.326,8.829,3.668,10.797c1.146,0.564,2.361,0.832,3.559,0.832c2.975,0,5.836-1.652,7.239-4.501  l5.199-10.55c10.544,5.349,18.341,8.283,21.283,9.32c3.867,2.848,20.497,15.788,30.487,34.579c-0.255-0.013-0.512-0.02-0.767-0.034  c-0.85-0.046-1.695-0.105-2.543-0.16c-1.056-0.069-2.11-0.138-3.16-0.22c-0.848-0.067-1.692-0.146-2.536-0.223  c-1.036-0.094-2.072-0.187-3.102-0.294c-0.845-0.088-1.685-0.187-2.527-0.284c-1.018-0.117-2.036-0.235-3.048-0.367  c-0.841-0.109-1.676-0.228-2.511-0.346c-1.003-0.142-2.005-0.285-3.002-0.44c-0.834-0.13-1.663-0.269-2.492-0.409  c-0.987-0.166-1.974-0.333-2.954-0.512c-0.828-0.151-1.651-0.311-2.474-0.471c-0.972-0.189-1.943-0.382-2.909-0.584  c-0.82-0.172-1.636-0.353-2.452-0.533c-0.959-0.213-1.917-0.43-2.869-0.657c-0.811-0.192-1.618-0.392-2.424-0.595  c-0.946-0.238-1.89-0.478-2.83-0.729c-0.803-0.214-1.603-0.434-2.402-0.658c-0.932-0.261-1.862-0.527-2.788-0.801  c-0.793-0.234-1.585-0.475-2.374-0.719c-0.92-0.285-1.838-0.576-2.753-0.874c-0.785-0.256-1.566-0.516-2.346-0.782  c-0.907-0.309-1.812-0.624-2.711-0.945c-0.775-0.277-1.549-0.558-2.32-0.845c-0.895-0.332-1.785-0.672-2.673-1.017  c-0.767-0.298-1.532-0.6-2.294-0.907c-0.881-0.356-1.758-0.719-2.632-1.088c-0.758-0.319-1.515-0.642-2.268-0.971  c-0.869-0.38-1.733-0.768-2.594-1.16c-0.747-0.34-1.493-0.682-2.236-1.031c-0.857-0.403-1.709-0.816-2.56-1.233  c-0.738-0.361-1.474-0.722-2.207-1.093c-0.844-0.427-1.683-0.864-2.52-1.303c-0.728-0.382-1.456-0.764-2.179-1.156  c-0.832-0.45-1.658-0.913-2.483-1.375c-0.717-0.402-1.434-0.804-2.146-1.216c-0.821-0.475-1.636-0.962-2.452-1.45  c-0.705-0.423-1.412-0.843-2.111-1.275c-0.811-0.5-1.615-1.013-2.419-1.524c-0.693-0.442-1.388-0.882-2.076-1.333  c-0.799-0.524-1.591-1.062-2.385-1.599c-0.683-0.462-1.368-0.922-2.046-1.394c-0.786-0.547-1.565-1.108-2.345-1.669  c-0.673-0.484-1.348-0.963-2.017-1.457c-0.775-0.572-1.543-1.159-2.311-1.744c-0.66-0.503-1.323-1.001-1.979-1.513  c-0.768-0.6-1.528-1.215-2.289-1.828c-0.645-0.519-1.293-1.033-1.933-1.561c-0.759-0.627-1.509-1.27-2.262-1.909  c-0.631-0.536-1.266-1.068-1.893-1.614c-0.75-0.654-1.492-1.326-2.236-1.993c-0.617-0.554-1.237-1.1-1.849-1.662  c-0.746-0.685-1.482-1.389-2.22-2.088c-0.599-0.567-1.201-1.125-1.795-1.7c-0.743-0.719-1.476-1.459-2.213-2.192  c-0.578-0.576-1.161-1.144-1.735-1.728c-0.748-0.762-1.486-1.545-2.227-2.322c-0.549-0.576-1.104-1.144-1.649-1.728  c-0.772-0.827-1.532-1.676-2.294-2.519c-0.503-0.556-1.012-1.101-1.512-1.663c-0.85-0.958-1.688-1.938-2.527-2.916  c-0.402-0.468-0.81-0.925-1.208-1.397c-1.234-1.461-2.457-2.943-3.667-4.448c-0.896-1.114-1.771-2.228-2.634-3.34  c-0.286-0.37-0.564-0.739-0.847-1.108c-0.572-0.747-1.141-1.494-1.699-2.242c-0.321-0.43-0.636-0.859-0.953-1.288  c-0.51-0.691-1.013-1.382-1.509-2.072c-0.317-0.44-0.632-0.879-0.944-1.319c-0.495-0.696-0.98-1.39-1.462-2.084  c-0.288-0.415-0.579-0.831-0.863-1.245c-0.544-0.793-1.076-1.585-1.604-2.374c-0.202-0.302-0.411-0.606-0.611-0.908  c-0.715-1.078-1.414-2.152-2.099-3.221c-0.196-0.305-0.383-0.607-0.576-0.912c-0.491-0.774-0.979-1.547-1.456-2.315  c-0.255-0.412-0.503-0.82-0.754-1.229c-0.404-0.661-0.806-1.321-1.199-1.976c-0.256-0.427-0.509-0.851-0.76-1.276  c-0.378-0.64-0.751-1.276-1.119-1.909c-0.241-0.415-0.482-0.83-0.718-1.242c-0.38-0.663-0.75-1.32-1.118-1.975  c-0.205-0.364-0.414-0.732-0.615-1.094c-0.49-0.883-0.969-1.757-1.436-2.623c-0.075-0.139-0.153-0.278-0.227-0.417  c-0.519-0.964-1.022-1.917-1.515-2.86c-0.178-0.342-0.349-0.677-0.525-1.016c-0.324-0.626-0.644-1.248-0.956-1.863  c-0.191-0.377-0.377-0.749-0.564-1.122c-0.286-0.571-0.568-1.139-0.844-1.7c-0.182-0.369-0.361-0.736-0.538-1.1  c-0.277-0.571-0.548-1.135-0.815-1.695c-0.157-0.33-0.316-0.661-0.47-0.987c-0.3-0.636-0.59-1.261-0.876-1.881  c-0.108-0.232-0.219-0.471-0.325-0.701c-0.386-0.842-0.759-1.669-1.119-2.478c-0.083-0.186-0.159-0.363-0.241-0.547  c-0.276-0.626-0.548-1.245-0.811-1.85c-0.117-0.272-0.23-0.536-0.345-0.804c-0.218-0.509-0.432-1.013-0.64-1.505  c-0.113-0.27-0.225-0.535-0.334-0.801c-0.199-0.478-0.392-0.948-0.582-1.409c-0.101-0.248-0.203-0.498-0.302-0.741  c-0.198-0.49-0.389-0.968-0.575-1.437c-0.073-0.185-0.149-0.375-0.221-0.557c-0.515-1.308-0.98-2.53-1.4-3.654  c-0.044-0.118-0.084-0.229-0.127-0.345c-0.162-0.441-0.32-0.87-0.469-1.278c-0.049-0.137-0.096-0.267-0.144-0.4  c-0.135-0.377-0.267-0.744-0.389-1.092c-0.042-0.118-0.083-0.235-0.124-0.35c-0.126-0.359-0.244-0.702-0.355-1.026  c-0.026-0.076-0.054-0.157-0.08-0.232c-0.147-0.434-0.281-0.831-0.401-1.198C172.572,126.937,180.302,126.13,181.167,126.13z   M17.159,331.701c1.964-16.458,6.169-52.468,9.654-87.602c5.43,2.765,12.653,7.307,19.804,14.411  c17.561,17.445,27.155,42.039,28.57,73.191H17.159z M83.507,288.293c8.737,0.418,17.281-0.717,25.507-3.415  c1.275-0.418,2.549-0.842,3.825-1.266c25.777-8.57,48.04-15.97,81.432,18.973c9.952,10.417,21.86,20.619,33.713,29.116H91.32  C90.612,314.766,87.728,300.424,83.507,288.293z M299.658,331.701h-41.073c-16.662-8.392-37.129-24.008-52.654-40.257  c-40.445-42.325-71.116-32.129-98.177-23.136c-1.255,0.418-2.508,0.834-3.763,1.245c-8.876,2.911-18.288,3.461-27.983,1.652  c-14.778-27.299-36.384-39.389-47.565-44.058c1.05-11.357,1.97-22.253,2.649-31.949c15.308,10.21,42.975,24.864,75.842,25.075  c0.018,0,0.034,0,0.053,0c4.428,0,8.034-3.576,8.062-8.012c0.028-4.453-3.559-8.086-8.012-8.115  c-35.935-0.23-65.742-20.956-74.877-28.033c0.004-0.115,0.006-0.219,0.011-0.332c0.018-0.513,0.034-1.017,0.049-1.514  c0.008-0.233,0.014-0.467,0.02-0.696c0.012-0.44,0.023-0.869,0.032-1.294c0.005-0.246,0.012-0.496,0.016-0.736  c0.009-0.424,0.014-0.834,0.019-1.243c0.003-0.207,0.006-0.424,0.009-0.627c0.006-0.6,0.01-1.185,0.01-1.748  c0-6.335,0.872-11.164,2.502-14.152c1.034-1.833,2.263-2.758,3.437-3.226c2.982-1.06,8.458-0.433,16.389,3.19  c0.463,0.213,0.929,0.43,1.403,0.66c0.233,0.113,0.473,0.234,0.711,0.353c0.541,0.27,1.084,0.545,1.637,0.836  c0.077,0.041,0.154,0.08,0.232,0.121c4.485,2.382,9.38,5.483,14.524,9.216c0.163,0.119,0.327,0.237,0.491,0.357  c0.807,0.59,1.618,1.191,2.436,1.813c0.625,0.474,1.265,0.922,1.915,1.359c0.178,0.12,0.358,0.238,0.539,0.355  c0.531,0.345,1.07,0.679,1.616,1c0.131,0.076,0.26,0.159,0.391,0.234c0.644,0.369,1.299,0.718,1.963,1.053  c0.196,0.099,0.393,0.19,0.59,0.286c0.501,0.243,1.007,0.475,1.52,0.699c0.209,0.091,0.417,0.184,0.627,0.271  c1.383,0.577,2.806,1.085,4.269,1.526c0.155,0.046,0.311,0.089,0.466,0.134c0.627,0.182,1.261,0.35,1.902,0.506  c0.108,0.026,0.215,0.054,0.323,0.078c3.897,0.922,8.05,1.393,12.449,1.393c6.395,0,12.778-1,18.758-2.483  c0.042-0.011,0.084-0.021,0.127-0.032c1.906-0.475,3.768-0.999,5.579-1.557c0.423-0.13,0.846-0.26,1.262-0.393  c0.319-0.102,0.632-0.206,0.947-0.311c0.557-0.184,1.106-0.37,1.65-0.558c0.204-0.071,0.409-0.142,0.611-0.214  c4.982-1.758,9.406-3.684,12.941-5.382c0.02,0.056,0.043,0.117,0.065,0.173c0.062,0.169,0.128,0.344,0.191,0.517  c0.154,0.416,0.313,0.842,0.478,1.279c0.076,0.201,0.152,0.401,0.23,0.606c0.22,0.577,0.447,1.168,0.686,1.779  c0.045,0.115,0.091,0.232,0.137,0.347c0.226,0.576,0.462,1.169,0.705,1.774c0.096,0.237,0.192,0.477,0.29,0.718  c0.205,0.506,0.417,1.021,0.634,1.546c0.096,0.23,0.188,0.456,0.285,0.689c0.3,0.719,0.611,1.454,0.933,2.206  c0.091,0.214,0.188,0.435,0.282,0.652c0.251,0.581,0.507,1.17,0.772,1.769c0.125,0.283,0.251,0.566,0.377,0.853  c0.286,0.643,0.581,1.296,0.882,1.958c0.089,0.195,0.173,0.385,0.263,0.582c0.378,0.826,0.77,1.667,1.172,2.52  c0.134,0.285,0.272,0.574,0.41,0.862c0.3,0.631,0.606,1.27,0.918,1.915c0.147,0.304,0.294,0.607,0.444,0.915  c0.172,0.35,0.347,0.705,0.522,1.059c-8.386,5.153-17.117,8.952-26.036,11.323c-4.304,1.143-6.866,5.56-5.721,9.864  c1.143,4.304,5.558,6.865,9.864,5.721c10.132-2.692,20.007-6.957,29.468-12.666c0.076,0.133,0.155,0.268,0.231,0.401  c0.195,0.341,0.39,0.682,0.588,1.023c0.522,0.904,1.056,1.815,1.6,2.732c0.088,0.148,0.172,0.293,0.26,0.442  c0.62,1.04,1.258,2.089,1.905,3.143c0.205,0.333,0.414,0.668,0.621,1.002c0.497,0.8,1.001,1.603,1.514,2.41  c0.203,0.319,0.403,0.638,0.609,0.958c0.691,1.078,1.394,2.161,2.115,3.25c0.137,0.206,0.277,0.414,0.415,0.62  c0.605,0.91,1.221,1.821,1.847,2.737c0.239,0.348,0.478,0.698,0.72,1.047c0.616,0.892,1.243,1.787,1.878,2.683  c0.172,0.242,0.34,0.484,0.513,0.726c0.794,1.113,1.606,2.228,2.431,3.346c0.216,0.292,0.438,0.586,0.656,0.879  c0.65,0.873,1.309,1.746,1.978,2.62c0.254,0.332,0.506,0.663,0.763,0.996c0.881,1.14,1.771,2.279,2.683,3.42  c19.253,24.055,41.861,43.247,67.195,57.042c1.931,1.051,3.879,2.069,5.841,3.056c0.639,0.321,1.288,0.621,1.93,0.936  c1.33,0.653,2.659,1.306,4.003,1.93c0.783,0.363,1.575,0.704,2.363,1.057c1.218,0.547,2.434,1.098,3.664,1.62  c0.851,0.362,1.713,0.704,2.569,1.056c1.18,0.484,2.359,0.97,3.549,1.433c0.897,0.348,1.802,0.677,2.704,1.014  c1.164,0.434,2.329,0.869,3.502,1.283c0.932,0.329,1.872,0.641,2.809,0.956c1.159,0.39,2.318,0.779,3.485,1.15  c0.959,0.304,1.924,0.595,2.889,0.886c1.162,0.352,2.325,0.699,3.496,1.031c0.98,0.278,1.966,0.544,2.953,0.809  c1.17,0.314,2.342,0.622,3.52,0.917c0.999,0.251,2.003,0.491,3.008,0.728c1.178,0.277,2.361,0.547,3.548,0.806  c1.016,0.221,2.036,0.436,3.058,0.644c1.192,0.243,2.388,0.475,3.588,0.699c1.029,0.192,2.059,0.38,3.093,0.558  c1.208,0.209,2.422,0.403,3.638,0.593c1.04,0.162,2.079,0.323,3.124,0.471c1.226,0.174,2.459,0.332,3.692,0.488  c1.047,0.131,2.093,0.264,3.146,0.382c1.249,0.14,2.506,0.262,3.763,0.384c1.049,0.101,2.099,0.205,3.153,0.294  c1.278,0.106,2.565,0.191,3.851,0.278c1.045,0.07,2.087,0.147,3.137,0.204c1.319,0.072,2.647,0.12,3.975,0.172  c1.03,0.04,2.057,0.089,3.092,0.117c0.203,0.005,0.404,0.018,0.607,0.023c0.618,2.676,1.042,5.353,1.264,8.014  c-0.44,0.045-0.872,0.095-1.314,0.139c-0.521,0.052-1.043,0.103-1.56,0.153c-1.643,0.157-3.298,0.306-4.966,0.446  c-0.642,0.054-1.277,0.104-1.912,0.155c-1.523,0.121-3.054,0.238-4.594,0.345c-13.688,0.95-25.265,1.14-32.321,1.14  c-5.978,0-9.542-0.132-9.553-0.132C300.623,331.71,300.14,331.701,299.658,331.701z M491.08,334.376  c-21.788,24.402-61.236,40.408-117.248,47.57c-25.357,3.245-48.237,3.925-62.965,3.925c-5.963,0-9.977-0.116-11.427-0.166  c-0.092-0.003-0.186-0.005-0.278-0.005h-2.581c9.818-32.593,43.66-38.363,46.911-38.842c0.343-0.024,0.681-0.053,1.022-0.077  c0.086-0.006,0.172-0.012,0.258-0.018c0.263-0.018,0.527-0.038,0.791-0.057c0.578-0.042,1.159-0.085,1.744-0.129  c0.155-0.012,0.312-0.025,0.468-0.037c0.696-0.054,1.39-0.106,2.094-0.165c0.37-0.03,0.735-0.063,1.103-0.094  c0.023-0.002,0.045-0.004,0.069-0.005c0.338-0.028,0.675-0.057,1.014-0.086c0.535-0.046,1.072-0.094,1.612-0.142  c0.476-0.043,0.955-0.088,1.434-0.132c0.509-0.047,1.016-0.095,1.528-0.144c0.252-0.025,0.5-0.051,0.751-0.075  c0.496-0.049,0.993-0.099,1.492-0.149c0.427-0.044,0.855-0.088,1.284-0.133c0.804-0.085,1.611-0.172,2.421-0.262  c0.225-0.025,0.448-0.049,0.673-0.075c0.162-0.018,0.324-0.038,0.486-0.056c0.701-0.08,1.403-0.162,2.108-0.246  c0.318-0.038,0.635-0.076,0.955-0.115c0.969-0.118,1.939-0.239,2.916-0.366c0.024-0.003,0.047-0.005,0.071-0.009  c7.957-1.033,16.548-2.399,25.26-4.203c26.136-5.412,53.355-14.768,67.786-30.928c0.462-0.518,0.954-1.004,1.465-1.464  c0.063-0.058,0.133-0.106,0.198-0.163c0.06-0.053,0.125-0.099,0.185-0.151c0.41-0.348,0.827-0.69,1.265-1.001  c0.056-0.04,0.115-0.075,0.172-0.115c0.047-0.033,0.097-0.061,0.144-0.094c0.498-0.338,1.006-0.661,1.538-0.953  c0.032-0.018,0.065-0.034,0.097-0.052c0.008-0.004,0.014-0.008,0.021-0.011c0.611-0.328,1.242-0.629,1.896-0.896  c0,0,0.001,0,0.001-0.001c0.327-0.133,0.653-0.266,0.986-0.381c0.3-0.102,0.604-0.189,0.908-0.276  c0.289-0.084,0.579-0.166,0.873-0.237c0.35-0.083,0.704-0.152,1.058-0.214c0.254-0.045,0.509-0.087,0.764-0.123  c0.383-0.052,0.765-0.091,1.15-0.12c0.238-0.017,0.475-0.029,0.714-0.038c0.419-0.015,0.839-0.024,1.258-0.012  c0.139,0.004,0.276,0.012,0.415,0.019c0.454,0.024,0.907,0.062,1.359,0.117c0.154,0.019,0.306,0.041,0.459,0.063  c0.427,0.063,0.853,0.143,1.276,0.235c0.176,0.039,0.353,0.078,0.527,0.123c0.39,0.097,0.776,0.211,1.16,0.332  c0.2,0.065,0.4,0.127,0.598,0.198c0.353,0.126,0.701,0.268,1.048,0.415c0.214,0.091,0.429,0.18,0.64,0.278  c0.33,0.155,0.654,0.329,0.976,0.504c0.21,0.114,0.423,0.221,0.629,0.344c0.339,0.201,0.668,0.424,0.996,0.648  c0.174,0.118,0.354,0.228,0.524,0.353c0.491,0.359,0.971,0.742,1.434,1.156C497.354,314.593,498.033,326.588,491.08,334.376z"/>
<g>
</g>
<g>
</g>
<g>
</g>
<g>
</g>
<g>
</g>
<g>
</g>
<g>
</g>
<g>
</g>
<g>
</g>
<g>
</g>
<g>
</g>
<g>
</g>
<g>
</g>
<g>
</g>
<g>
</g>
</svg>
