<?xml version="1.0" encoding="iso-8859-1"?>
<!-- Generator: Adobe Illustrator 19.0.0, SVG Export Plug-In . SVG Version: 6.00 Build 0)  -->
<svg xmlns="http://www.w3.org/2000/svg" xmlns:xlink="http://www.w3.org/1999/xlink" version="1.1" id="Layer_1" x="0px" y="0px" viewBox="0 0 512 512" style="enable-background:new 0 0 512 512;" xml:space="preserve">
<path style="fill:#F79B00;" d="M180.538,349.444c44.48-55.323,125.356-41.051,125.356-41.051l23.698-41.077  c0,0-113.025-56.999-130.339-136.659c-18.714-86.103-84.524,18.17-137.452,2.369C8.877,117.225,8.087,168.571,8.087,168.571V339.2  h138.239L180.538,349.444z"/>
<path style="fill:#F47F00;" d="M38.742,402.602v-15.985v-46.622v-1.078v-92.134v-70.108v-7.308c0,0,0.472-30.313,24.698-37.187  c-46.566-9.908-47.296,37.187-47.296,37.187v7.308v70.108v92.134v1.078v46.622v15.985c0,7.146,5.794,12.94,12.94,12.94h22.598  C44.535,415.542,38.742,409.748,38.742,402.602z"/>
<path style="fill:#98632B;" d="M152.851,164.516c47.468-29.451,47.468-29.451,47.468-29.451l0.002-0.002  c-0.385-1.462-0.749-2.93-1.07-4.408c-18.714-86.103-84.524,18.17-137.452,2.369C8.877,117.225,8.087,168.571,8.087,168.571v7.308  c0,0,49.963,35.832,121.478,1.759"/>
<path style="fill:#824716;" d="M38.742,173.425v-7.308c0,0,0.472-30.313,24.698-37.187c-0.002,0-0.004-0.001-0.006-0.001  c-0.712-0.152-1.416-0.29-2.106-0.415c-0.019-0.003-0.036-0.006-0.055-0.011c-0.685-0.123-1.359-0.233-2.022-0.332  c-0.023-0.003-0.046-0.006-0.069-0.011c-0.659-0.097-1.31-0.181-1.951-0.253c-0.023-0.003-0.049-0.006-0.071-0.009  c-0.643-0.072-1.272-0.133-1.894-0.181c-0.019-0.002-0.038-0.003-0.057-0.004c-0.625-0.049-1.242-0.085-1.847-0.111  c-0.013-0.001-0.023-0.001-0.036-0.002c-27.247-1.113-34.533,20.821-36.477,32.071c-0.002,0.013-0.004,0.026-0.006,0.039  c-0.042,0.238-0.08,0.47-0.115,0.698c-0.004,0.022-0.009,0.042-0.011,0.064c-0.036,0.219-0.068,0.433-0.099,0.644  c-0.002,0.027-0.008,0.055-0.011,0.082c-0.029,0.203-0.057,0.4-0.082,0.593c-0.004,0.03-0.009,0.061-0.013,0.093  c-0.025,0.187-0.049,0.368-0.069,0.545c-0.004,0.033-0.009,0.067-0.013,0.1c-0.019,0.17-0.04,0.336-0.057,0.497  c-0.004,0.033-0.006,0.067-0.011,0.099c-0.017,0.155-0.031,0.304-0.046,0.449c-0.004,0.038-0.009,0.074-0.011,0.112  c-0.015,0.138-0.027,0.272-0.038,0.399c-0.002,0.031-0.004,0.063-0.009,0.093c-0.011,0.126-0.02,0.25-0.029,0.364  c-0.002,0.029-0.004,0.057-0.006,0.085c-0.009,0.111-0.017,0.217-0.023,0.316c-0.002,0.032-0.004,0.064-0.006,0.095  c-0.004,0.086-0.011,0.17-0.015,0.248c-0.002,0.037-0.004,0.068-0.006,0.104c-0.004,0.068-0.006,0.138-0.011,0.197  c-0.001,0.016-0.001,0.028-0.002,0.043c-0.002,0.068-0.006,0.134-0.009,0.189c0,0.015,0,0.025,0,0.04  c-0.002,0.044-0.004,0.086-0.004,0.12c-0.002,0.033-0.002,0.057-0.004,0.079c0,0.008,0,0.022,0,0.028c0,0.019,0,0.033,0,0.033v7.308  c0,0,8.159,5.849,22.598,10.574v-10.574H38.742z"/>
<path style="fill:#693F23;" d="M124.316,415.826h33.071v-27.649l101.473,27.649h143.974h69.737h12.042  c10.579,0,19.155-8.576,19.155-19.157c0-10.579-8.575-19.155-19.155-19.155H472.57h-69.737H274.296L146.326,339.2H8.087v76.626  h89.63"/>
<path style="fill:#98632B;" d="M8.087,245.987V339.2h65.565C73.652,250.727,8.087,245.987,8.087,245.987z"/>
<path style="fill:#824716;" d="M38.741,338.121v-85.048c-12.374-6.343-22.598-7.087-22.598-7.087v92.134v1.078h22.598V338.121z"/>
<path style="fill:#54321A;" d="M38.74,402.886v-15.985v-46.622v-1.078H16.141v1.078v46.622v15.985c0,7.146,5.794,12.94,12.94,12.94  h22.598C44.533,415.826,38.74,410.032,38.74,402.886z"/>
<path style="fill:#98632B;" d="M399.107,279.954c-35.06-3.134-69.516-12.639-69.516-12.639l-23.698,41.077  c0,0-80.876-14.27-125.356,41.051l93.758,28.07h128.537h69.737h12.042c5.861,0,11.101,2.639,14.614,6.788  c0.002-0.003,0.002-0.005,0.002-0.008C524.699,285.158,440.926,283.692,399.107,279.954z"/>
<path style="fill:#54321A;" d="M492.274,396.36h-12.043h-69.737H266.522l0,0l-14.556-3.753l-91.535-25.189  c-0.004-0.001-0.006-0.002-0.011-0.003c-9.02-2.482-10.717,2.963-10.998,4.342l0.038,5.409v2.502c0,0.498-0.036,0.988-0.091,1.472  v4.316l102.596,28.235H395.94h69.737h12.043c10.152,0,18.438-7.904,19.09-17.892C495.353,396.152,493.84,396.36,492.274,396.36z"/>
<g style="opacity:0.15;">
	<path style="fill:#FFFFFF;" d="M165.641,143.211c0.238,1.09,0.504,2.174,0.773,3.257c0.126,0.501,0.25,1.002,0.382,1.502   c22.358,84.99,141.992,145.329,141.992,145.329s37.842,10.439,76.348,13.881c35.302,3.155,97.804,4.857,112.14,54.912   c4.109-71.842-67.138-73.39-104.651-76.744c-35.06-3.134-69.516-12.639-69.516-12.639s-108.93-54.941-129.288-132.328   c-0.12-0.455-0.234-0.911-0.349-1.367c-0.245-0.986-0.486-1.972-0.701-2.965c-8.414-38.71-26.348-38.939-48.349-28.902   C153.645,111.054,160.976,121.746,165.641,143.211z"/>
</g>
<g>
	<path style="opacity:0.1;fill:#FFFFFF;enable-background:new    ;" d="M191.918,132.406c-0.247-0.995-0.504-1.957-0.765-2.897   c-0.046-0.161-0.091-0.324-0.135-0.482c-0.261-0.918-0.528-1.808-0.802-2.672c-0.049-0.149-0.095-0.294-0.143-0.443   c-0.28-0.868-0.566-1.713-0.862-2.528c-0.036-0.101-0.073-0.198-0.11-0.3c-0.312-0.848-0.628-1.674-0.952-2.463   c0-0.003-0.002-0.005-0.002-0.009c-0.327-0.79-0.661-1.548-1.001-2.283c-0.042-0.09-0.082-0.181-0.124-0.271   c-0.325-0.694-0.657-1.36-0.996-2.002c-0.057-0.108-0.111-0.215-0.168-0.32c-0.338-0.629-0.678-1.235-1.025-1.815   c-0.059-0.097-0.118-0.192-0.175-0.287c-0.358-0.583-0.718-1.146-1.087-1.682c-0.042-0.06-0.084-0.118-0.126-0.178   c-0.389-0.559-0.784-1.096-1.186-1.602c-0.002,0-0.002-0.001-0.002-0.001c-0.402-0.507-0.813-0.983-1.228-1.441   c-0.049-0.052-0.095-0.106-0.141-0.156c-0.398-0.431-0.802-0.837-1.211-1.225c-0.066-0.06-0.128-0.121-0.194-0.181   c-0.407-0.376-0.82-0.733-1.236-1.068c-0.064-0.051-0.128-0.099-0.192-0.15c-0.43-0.336-0.862-0.653-1.302-0.948   c-0.042-0.027-0.082-0.052-0.122-0.079c-0.926-0.608-1.876-1.128-2.852-1.561c-0.046-0.022-0.095-0.044-0.141-0.066   c-0.468-0.203-0.941-0.385-1.419-0.552c-0.066-0.023-0.13-0.045-0.196-0.068c-0.476-0.16-0.956-0.301-1.443-0.425   c-0.061-0.016-0.124-0.03-0.185-0.045c-0.499-0.122-1.003-0.229-1.512-0.314c-0.031-0.005-0.066-0.01-0.097-0.015   c-1.063-0.174-2.152-0.27-3.26-0.293c-0.042-0.001-0.086-0.003-0.128-0.004c-0.533-0.01-1.072,0-1.613,0.023   c-0.061,0.003-0.124,0.005-0.185,0.009c-0.539,0.026-1.085,0.068-1.635,0.124c-0.055,0.006-0.112,0.013-0.166,0.018   c-0.564,0.063-1.135,0.136-1.71,0.229c-0.019,0.002-0.036,0.006-0.055,0.009c-1.194,0.193-2.409,0.45-3.644,0.765   c-0.031,0.008-0.064,0.016-0.095,0.023c-0.596,0.154-1.196,0.321-1.803,0.5c-0.051,0.016-0.101,0.03-0.154,0.046   c-0.603,0.18-1.209,0.373-1.818,0.577c-0.044,0.015-0.086,0.029-0.13,0.044c-1.923,0.65-3.886,1.415-5.887,2.275   c-0.019,0.009-0.038,0.016-0.057,0.025c-0.652,0.281-1.308,0.573-1.969,0.873c-0.019,0.009-0.04,0.018-0.059,0.026   c9.225,3.908,16.556,14.599,21.221,36.063c0.238,1.09,0.504,2.174,0.773,3.257c0.126,0.501,0.25,1.002,0.382,1.502   c0.691,2.627,1.478,5.232,2.349,7.81c24.686-15.315,24.693-15.32,24.693-15.32l0.002-0.002c-0.068-0.251-0.128-0.506-0.194-0.757   c-0.057-0.229-0.115-0.457-0.175-0.686c0-0.006-0.002-0.013-0.004-0.019c-0.247-0.979-0.484-1.959-0.698-2.946   c-0.245-1.119-0.497-2.198-0.756-3.253C191.982,132.667,191.951,132.534,191.918,132.406z"/>
	<path style="opacity:0.1;fill:#FFFFFF;enable-background:new    ;" d="M385.135,307.179c35.302,3.155,97.804,4.857,112.14,54.912   c3.964-69.285-62.157-73.191-100.519-76.389c-0.038-0.003-0.078-0.007-0.115-0.01c-0.556-0.047-1.103-0.093-1.647-0.139   c-0.148-0.013-0.294-0.025-0.44-0.038c-0.652-0.056-1.297-0.112-1.929-0.168c-35.06-3.134-69.516-12.639-69.516-12.639   l-12.204,21.153C319.343,296.07,351.981,304.215,385.135,307.179z"/>
</g>
<path d="M499.774,308.317c-21.297-29.923-64.628-33.495-93.301-35.856c-2.311-0.191-4.532-0.374-6.646-0.563  c-31.039-2.775-62.043-10.77-67.293-12.167c-2.18-1.142-9.326-4.966-19.221-11.087l1.248-1.633  c2.712-3.549,2.035-8.624-1.514-11.337c-3.549-2.714-8.624-2.033-11.337,1.514l-2.021,2.644c-4.357-2.943-8.962-6.182-13.697-9.684  l1.351-1.5c2.99-3.318,2.724-8.431-0.594-11.422c-3.316-2.989-8.43-2.726-11.422,0.594l-2.158,2.395  c-3.688-2.997-7.394-6.138-11.069-9.414l2.09-1.774c3.405-2.891,3.823-7.995,0.932-11.399c-2.891-3.405-7.995-3.824-11.399-0.932  l-3.448,2.928c-3.925-3.938-7.747-8.028-11.397-12.26l3.491-2.748c3.509-2.763,4.114-7.847,1.351-11.357  c-2.763-3.509-7.848-4.116-11.357-1.351l-3.54,2.786c-9.363-12.918-16.779-26.909-20.678-41.69c0-0.001,0-0.002-0.001-0.003  c-0.096-0.367-0.187-0.715-0.273-1.054c-0.252-1.001-0.496-2.004-0.715-3.011c-1.873-8.62-7.025-32.257-25.176-39.007  c-0.078-0.029-0.155-0.054-0.232-0.082c-0.47-0.17-0.941-0.338-1.429-0.484c-0.598-0.183-1.2-0.344-1.805-0.487  c-0.066-0.015-0.135-0.027-0.202-0.042c-0.684-0.156-1.372-0.283-2.064-0.389c-0.011-0.002-0.023-0.003-0.033-0.005  c-5.046-0.77-10.295-0.243-15.708,1.184c-0.038,0.01-0.075,0.02-0.113,0.03c-1.77,0.47-3.556,1.034-5.36,1.68  c-0.164,0.058-0.329,0.119-0.493,0.178c-0.851,0.312-1.704,0.635-2.562,0.98c-0.087,0.035-0.175,0.073-0.262,0.108  c-0.76,0.308-1.524,0.632-2.289,0.965c-0.246,0.107-0.492,0.214-0.738,0.322c-0.801,0.355-1.605,0.719-2.411,1.098  c-0.23,0.108-0.459,0.22-0.689,0.329c-0.645,0.306-1.291,0.62-1.939,0.94c-0.275,0.136-0.549,0.27-0.825,0.408  c-0.797,0.399-1.596,0.805-2.397,1.222c-0.268,0.139-0.537,0.281-0.805,0.422c-0.655,0.343-1.31,0.691-1.968,1.043  c-0.239,0.128-0.478,0.254-0.717,0.384c-0.835,0.451-1.671,0.908-2.51,1.372c-0.251,0.139-0.504,0.279-0.756,0.418  c-0.757,0.419-1.515,0.842-2.275,1.27c-0.137,0.077-0.273,0.152-0.409,0.23c-0.905,0.509-1.812,1.023-2.722,1.54  c-0.234,0.133-0.469,0.266-0.704,0.4c-0.869,0.495-1.739,0.991-2.613,1.489c-0.947,0.54-1.896,1.08-2.845,1.622  c-0.188,0.107-0.374,0.214-0.562,0.319c-0.975,0.554-1.952,1.106-2.929,1.657c-0.138,0.078-0.277,0.155-0.415,0.233  c-2.065,1.16-4.134,2.305-6.204,3.419c-0.071,0.039-0.143,0.078-0.215,0.115c-1.062,0.57-2.123,1.133-3.185,1.684  c-0.015,0.008-0.03,0.015-0.044,0.023c-11.971,6.213-23.866,11.029-34.915,11.068c-0.077,0-0.154,0.002-0.231,0.001  c-0.791-0.002-1.57-0.026-2.335-0.078c-0.043-0.003-0.086-0.009-0.129-0.012c-0.66-0.047-1.308-0.118-1.951-0.203  c-0.257-0.033-0.511-0.074-0.767-0.114c-0.463-0.072-0.922-0.154-1.378-0.247c-0.24-0.049-0.481-0.095-0.72-0.149  c-0.676-0.153-1.347-0.321-2.012-0.52c-1.061-0.317-2.111-0.606-3.154-0.878c-0.376-0.098-0.748-0.187-1.121-0.279  c-0.651-0.162-1.299-0.316-1.943-0.459c-0.452-0.101-0.903-0.197-1.35-0.29c-0.553-0.113-1.1-0.218-1.647-0.318  c-0.477-0.087-0.955-0.179-1.427-0.256c-0.525-0.086-1.042-0.156-1.56-0.23c-0.898-0.127-1.786-0.235-2.666-0.325  c-0.415-0.042-0.832-0.09-1.242-0.123c-0.547-0.045-1.085-0.074-1.624-0.105c-0.368-0.02-0.735-0.04-1.099-0.053  c-0.565-0.02-1.126-0.033-1.682-0.037c-0.102-0.001-0.207-0.006-0.309-0.006c-0.115,0-0.225,0.01-0.34,0.011  c-0.93,0.005-1.847,0.033-2.753,0.085c-0.067,0.004-0.134,0.009-0.201,0.013c-8.243,0.512-15.46,2.99-21.57,7.467  c-4.129,3.027-7.323,6.688-9.808,10.534c-0.154,0.237-0.308,0.476-0.46,0.717c-0.385,0.62-0.753,1.244-1.102,1.871  c-0.221,0.395-0.433,0.799-0.645,1.204c-0.167,0.321-0.327,0.642-0.485,0.963c-0.182,0.369-0.378,0.722-0.553,1.099  c-2.626,5.658-3.967,11.3-4.653,15.53c-0.019,0.118-0.038,0.232-0.056,0.347c-0.032,0.205-0.063,0.403-0.092,0.601  c-0.045,0.306-0.087,0.602-0.125,0.891c-0.006,0.049-0.013,0.098-0.019,0.147c-0.347,2.655-0.413,4.463-0.424,4.941  c-0.001,0.045-0.002,0.08-0.002,0.099c0,0.001,0,0.006,0,0.008C0,168.488,0,168.53,0,168.571v7.308v70.108V339.2v76.626  c0,4.467,3.62,8.087,8.087,8.087h89.63c4.467,0,8.087-3.62,8.087-8.087c0-4.467-3.62-8.087-8.087-8.087H16.175v-60.451h57.477  h71.489l33.076,9.904l93.758,28.07c0.753,0.225,1.534,0.34,2.319,0.34h210.316c0.396,0,0.788,0.023,1.178,0.065  c0.094,0.01,0.185,0.03,0.278,0.043c0.294,0.039,0.589,0.083,0.878,0.146c0.104,0.023,0.204,0.054,0.306,0.079  c0.274,0.068,0.546,0.139,0.813,0.228c0.107,0.036,0.21,0.078,0.316,0.115c0.257,0.094,0.511,0.192,0.76,0.305  c0.106,0.047,0.209,0.1,0.314,0.151c0.242,0.119,0.479,0.244,0.712,0.378c0.1,0.059,0.199,0.12,0.299,0.181  c0.233,0.146,0.459,0.301,0.681,0.464c0.086,0.064,0.173,0.126,0.257,0.192c0.236,0.184,0.465,0.38,0.686,0.584  c0.059,0.055,0.121,0.107,0.179,0.163c0.267,0.258,0.525,0.528,0.769,0.814c1.644,1.932,2.643,4.43,2.643,7.159  c0,6.103-4.965,11.07-11.068,11.07h-224.67l-100.429-27.364c-2.428-0.66-5.034-0.154-7.035,1.376  c-2.002,1.53-3.178,3.907-3.178,6.427v19.562h-24.983c-4.467,0-8.087,3.62-8.087,8.087s3.62,8.087,8.087,8.087h33.071  c4.467,0,8.087-3.62,8.087-8.087v-17.062l91.259,24.866c0.693,0.189,1.408,0.285,2.126,0.285h225.753  c15.022,0,27.243-12.222,27.243-27.245c0-5.125-1.424-9.923-3.896-14.021C515.345,351.334,512.601,326.337,499.774,308.317z   M16.175,331.112v-75.273c15.519,4.577,46.414,20.538,49.188,75.273H16.175z M81.546,331.112  c-2.023-43.735-20.331-66.592-35.838-78.176c-11.189-8.358-22.416-12.099-29.535-13.751v-49.647  c11.101,5.072,28.935,10.987,51.767,10.986c18.68-0.002,40.706-3.964,65.102-15.587c4.032-1.92,5.744-6.747,3.823-10.779  c-1.92-4.034-6.749-5.745-10.779-3.823c-27.715,13.204-55.163,17.061-81.582,11.465c-13.639-2.891-23.491-7.699-28.329-10.432  v-2.691c0.001-0.018,0.002-0.053,0.003-0.082c0.001-0.02,0.002-0.042,0.003-0.068c0.002-0.053,0.006-0.121,0.01-0.195  c0.001-0.017,0.002-0.037,0.003-0.056c0.022-0.364,0.063-0.938,0.14-1.68c0.002-0.019,0.004-0.04,0.006-0.06  c0.057-0.537,0.135-1.161,0.236-1.851c0.009-0.06,0.017-0.12,0.027-0.181c0.03-0.201,0.064-0.409,0.098-0.62  c0.017-0.104,0.036-0.21,0.054-0.316c0.035-0.204,0.07-0.408,0.109-0.62c0.054-0.294,0.112-0.595,0.175-0.904  c0.029-0.145,0.063-0.294,0.094-0.442c0.05-0.234,0.101-0.469,0.156-0.71c0.031-0.137,0.064-0.276,0.097-0.415  c0.077-0.322,0.157-0.648,0.245-0.98c0.015-0.059,0.029-0.118,0.045-0.177c0.113-0.424,0.234-0.855,0.364-1.292  c0.01-0.033,0.02-0.067,0.03-0.1c0.126-0.418,0.26-0.841,0.402-1.267c0.012-0.036,0.024-0.07,0.036-0.105  c0.472-1.397,1.038-2.831,1.719-4.252c0.281-0.589,0.576-1.157,0.88-1.709c0.014-0.025,0.028-0.05,0.042-0.074  c0.284-0.51,0.578-1.004,0.881-1.483c0.027-0.042,0.051-0.084,0.078-0.126c0.291-0.454,0.594-0.89,0.904-1.316  c0.092-0.126,0.188-0.251,0.283-0.376c0.237-0.314,0.481-0.619,0.728-0.917c0.096-0.115,0.19-0.234,0.288-0.348  c0.325-0.376,0.659-0.738,1.001-1.086c0.1-0.102,0.205-0.201,0.307-0.301c0.281-0.276,0.568-0.546,0.863-0.803  c0.1-0.088,0.201-0.178,0.303-0.265c1.592-1.35,3.352-2.44,5.282-3.282c0.118-0.052,0.231-0.111,0.349-0.16  c0.234-0.097,0.479-0.178,0.717-0.267c0.311-0.116,0.616-0.24,0.935-0.345c0.04-0.013,0.082-0.023,0.122-0.036  c2.178-0.701,4.555-1.125,7.128-1.267c0.451-0.025,0.914-0.03,1.377-0.038c0.203-0.003,0.4-0.016,0.606-0.016  c0.198,0,0.405,0.011,0.607,0.014c0.438,0.006,0.876,0.014,1.324,0.036c0.338,0.016,0.685,0.044,1.028,0.069  c0.32,0.023,0.639,0.044,0.965,0.073c0.377,0.035,0.761,0.08,1.146,0.124c0.306,0.036,0.614,0.071,0.924,0.113  c0.391,0.053,0.787,0.112,1.186,0.175c0.325,0.051,0.651,0.106,0.98,0.163c0.386,0.068,0.775,0.138,1.167,0.215  c0.373,0.073,0.752,0.153,1.13,0.234c0.357,0.077,0.714,0.151,1.076,0.235c0.472,0.109,0.951,0.23,1.432,0.35  c0.284,0.071,0.564,0.138,0.85,0.214c0.782,0.207,1.571,0.428,2.374,0.667c0.678,0.203,1.365,0.384,2.055,0.556  c0.239,0.059,0.478,0.115,0.717,0.17c0.449,0.105,0.899,0.202,1.353,0.293c0.279,0.057,0.56,0.115,0.839,0.167  c0.52,0.095,1.043,0.18,1.568,0.258c0.45,0.068,0.9,0.125,1.351,0.18c0.332,0.04,0.664,0.081,1,0.114  c0.374,0.038,0.748,0.07,1.123,0.099c0.328,0.026,0.656,0.046,0.984,0.066c0.36,0.02,0.72,0.043,1.082,0.056  c0.437,0.016,0.876,0.023,1.314,0.028c0.541,0.006,1.083,0.003,1.623-0.006c0.361-0.006,0.724-0.011,1.085-0.025  c0.391-0.015,0.784-0.039,1.175-0.063c0.308-0.018,0.616-0.037,0.924-0.06c0.424-0.032,0.849-0.069,1.272-0.11  c0.247-0.024,0.495-0.051,0.742-0.079c0.479-0.053,0.958-0.107,1.436-0.17c0.082-0.011,0.163-0.024,0.245-0.036  c17.791-2.438,35.453-12.505,51.588-21.712c1.072-0.611,2.139-1.221,3.203-1.825c0.617-0.35,1.231-0.699,1.844-1.045  c0.276-0.156,0.55-0.311,0.825-0.465c0.644-0.362,1.284-0.722,1.923-1.078c0.165-0.092,0.329-0.183,0.493-0.275  c0.725-0.403,1.445-0.799,2.162-1.192c0.171-0.094,0.343-0.188,0.513-0.28c0.77-0.418,1.534-0.831,2.295-1.235  c0.102-0.055,0.205-0.108,0.307-0.162c1.66-0.878,3.294-1.717,4.898-2.501c0.014-0.006,0.028-0.014,0.042-0.02  c7.502-3.664,14.334-6.156,19.963-6.156c0.173,0,0.362,0.001,0.56,0.003c1.807,0.065,3.475,0.405,4.982,1.077  c0.329,0.147,0.652,0.319,0.974,0.5c0.135,0.079,0.271,0.16,0.408,0.246c0.083,0.051,0.164,0.109,0.247,0.162  c3.52,2.343,7.527,7.459,10.838,18.61c0.054,0.183,0.109,0.366,0.163,0.552c0.144,0.498,0.287,1.014,0.428,1.536  c0.085,0.315,0.169,0.632,0.253,0.953c0.116,0.449,0.233,0.908,0.347,1.374c0.1,0.409,0.199,0.823,0.297,1.241  c0.057,0.245,0.114,0.496,0.17,0.746l-42.509,26.373c-3.796,2.355-4.963,7.341-2.608,11.136c2.356,3.797,7.339,4.962,11.136,2.608  l38.621-23.961c4.815,13.238,11.895,25.726,20.322,37.317l-11.54,9.085c-3.509,2.763-4.114,7.847-1.351,11.357  c1.595,2.026,3.966,3.084,6.359,3.084c1.751,0,3.515-0.565,4.998-1.733l11.565-9.104c3.768,4.416,7.695,8.676,11.723,12.772  l-11.106,9.427c-3.405,2.891-3.823,7.995-0.932,11.399c1.599,1.885,3.878,2.853,6.17,2.853c1.849,0,3.708-0.631,5.23-1.922  l12.373-10.503c4.206,3.816,8.452,7.454,12.675,10.907l-10.616,11.781c-2.99,3.318-2.724,8.431,0.594,11.421  c1.546,1.393,3.482,2.08,5.411,2.08c2.211,0,4.414-0.901,6.009-2.673l11.383-12.632c5.098,3.8,10.059,7.302,14.757,10.48  l-9.571,12.522c-2.712,3.549-2.035,8.624,1.514,11.337c1.465,1.12,3.193,1.662,4.905,1.662c2.434,0,4.839-1.095,6.432-3.176  l10.338-13.525c6.017,3.729,11.171,6.706,15.038,8.858l-16.822,29.158c-4.374-0.48-11.03-1.008-19.181-1.008  c-0.817,0-1.657,0.005-2.517,0.018c-0.286,0.004-0.586,0.013-0.877,0.018c-0.582,0.011-1.164,0.022-1.763,0.038  c-0.364,0.011-0.744,0.027-1.115,0.039c-0.542,0.018-1.08,0.036-1.636,0.06c-0.412,0.018-0.837,0.042-1.256,0.064  c-0.533,0.027-1.062,0.052-1.607,0.084c-0.446,0.027-0.904,0.059-1.358,0.09c-0.532,0.036-1.06,0.069-1.601,0.11  c-0.477,0.037-0.964,0.079-1.448,0.12c-0.534,0.044-1.064,0.088-1.607,0.138c-0.502,0.046-1.014,0.1-1.523,0.152  c-0.537,0.055-1.073,0.108-1.617,0.168c-0.524,0.058-1.056,0.123-1.586,0.187c-0.543,0.065-1.085,0.129-1.635,0.201  c-0.542,0.07-1.091,0.148-1.639,0.223c-0.55,0.077-1.1,0.153-1.655,0.236c-0.56,0.083-1.125,0.174-1.69,0.264  c-0.554,0.088-1.107,0.177-1.667,0.272c-0.577,0.098-1.158,0.203-1.74,0.307c-0.559,0.101-1.117,0.203-1.679,0.311  c-0.589,0.112-1.18,0.231-1.772,0.352c-0.566,0.115-1.133,0.232-1.703,0.354c-0.598,0.128-1.199,0.262-1.801,0.398  c-0.569,0.129-1.14,0.261-1.713,0.398c-0.608,0.145-1.217,0.294-1.829,0.448c-0.575,0.145-1.151,0.293-1.729,0.445  c-0.616,0.162-1.231,0.328-1.849,0.499c-0.577,0.16-1.155,0.326-1.734,0.493c-0.622,0.18-1.245,0.364-1.87,0.554  c-0.58,0.177-1.161,0.36-1.744,0.546c-0.625,0.199-1.252,0.401-1.878,0.61c-0.584,0.195-1.169,0.398-1.754,0.602  c-0.626,0.218-1.253,0.438-1.88,0.666c-0.588,0.215-1.175,0.438-1.763,0.661c-0.626,0.238-1.253,0.477-1.881,0.726  c-0.589,0.234-1.178,0.479-1.766,0.722c-0.625,0.259-1.251,0.517-1.876,0.787c-0.591,0.256-1.18,0.523-1.77,0.788  c-0.622,0.279-1.243,0.557-1.863,0.849c-0.594,0.279-1.187,0.573-1.78,0.862c-0.614,0.3-1.226,0.595-1.839,0.907  c-0.6,0.305-1.196,0.626-1.793,0.944c-0.602,0.319-1.204,0.632-1.804,0.963c-0.606,0.334-1.209,0.687-1.813,1.034  c-0.587,0.336-1.174,0.666-1.758,1.015c-0.618,0.369-1.231,0.759-1.846,1.142c-0.563,0.35-1.129,0.691-1.689,1.054  c-0.646,0.417-1.285,0.858-1.926,1.291c-0.522,0.353-1.047,0.693-1.567,1.056c-0.734,0.513-1.46,1.053-2.188,1.588  c-0.418,0.307-0.841,0.601-1.256,0.915c-1.133,0.857-2.257,1.741-3.371,2.653c-0.322,0.264-0.637,0.547-0.958,0.815  c-0.795,0.665-1.588,1.33-2.371,2.024c-0.414,0.368-0.82,0.757-1.23,1.133c-0.678,0.62-1.359,1.235-2.028,1.877  c-0.437,0.419-0.863,0.862-1.295,1.29c-0.632,0.628-1.265,1.25-1.887,1.898c-0.441,0.459-0.871,0.941-1.307,1.411  c-0.511,0.552-1.03,1.089-1.533,1.656l-29.139-8.725c-0.753-0.225-1.534-0.34-2.319-0.34H81.546V331.112z M275.481,369.426  l-80.262-24.03c0.877-0.836,1.762-1.652,2.658-2.445c0.264-0.233,0.534-0.452,0.799-0.681c0.673-0.581,1.347-1.16,2.03-1.718  c0.381-0.311,0.768-0.607,1.151-0.91c0.576-0.455,1.152-0.911,1.734-1.351c0.422-0.318,0.846-0.624,1.271-0.934  c0.555-0.404,1.11-0.809,1.67-1.199c0.44-0.307,0.883-0.606,1.326-0.905c0.552-0.372,1.105-0.741,1.662-1.1  c0.452-0.292,0.906-0.579,1.36-0.862c0.555-0.346,1.113-0.686,1.671-1.019c0.457-0.273,0.915-0.545,1.376-0.81  c0.566-0.327,1.135-0.644,1.705-0.959c0.454-0.25,0.908-0.503,1.364-0.746c0.589-0.314,1.18-0.616,1.771-0.917  c0.44-0.224,0.88-0.453,1.321-0.67c0.636-0.313,1.273-0.611,1.912-0.91c0.399-0.187,0.797-0.381,1.197-0.563  c0.842-0.383,1.686-0.749,2.532-1.109c0.277-0.118,0.553-0.238,0.83-0.354c0.948-0.395,1.896-0.776,2.845-1.143  c0.4-0.154,0.799-0.298,1.199-0.446c0.647-0.242,1.293-0.484,1.94-0.714c0.446-0.159,0.892-0.307,1.338-0.459  c0.6-0.205,1.198-0.41,1.796-0.604c0.464-0.151,0.925-0.294,1.388-0.439c0.58-0.181,1.16-0.361,1.739-0.533  c0.469-0.139,0.937-0.274,1.404-0.408c0.57-0.163,1.141-0.322,1.709-0.477c0.468-0.127,0.935-0.251,1.401-0.372  c0.569-0.148,1.135-0.29,1.703-0.429c0.458-0.113,0.917-0.225,1.374-0.333c0.577-0.136,1.149-0.264,1.723-0.391  c0.44-0.097,0.88-0.197,1.317-0.29c0.603-0.127,1.2-0.247,1.798-0.366c0.401-0.08,0.803-0.163,1.202-0.239  c0.691-0.132,1.375-0.252,2.06-0.372c0.3-0.053,0.603-0.11,0.9-0.161c0.97-0.164,1.932-0.318,2.887-0.46  c0.285-0.043,0.564-0.079,0.848-0.12c0.677-0.097,1.353-0.194,2.021-0.281c0.373-0.049,0.741-0.092,1.111-0.137  c0.568-0.07,1.138-0.14,1.698-0.204c0.393-0.044,0.779-0.084,1.167-0.124c0.532-0.056,1.063-0.111,1.586-0.161  c0.388-0.037,0.773-0.071,1.157-0.105c0.511-0.045,1.019-0.088,1.521-0.127c0.383-0.03,0.763-0.058,1.141-0.085  c0.495-0.036,0.986-0.068,1.472-0.099c0.366-0.023,0.73-0.045,1.09-0.066c0.492-0.028,0.977-0.052,1.459-0.074  c0.34-0.016,0.681-0.032,1.016-0.046c0.495-0.021,0.98-0.037,1.463-0.053c0.307-0.01,0.619-0.022,0.922-0.029  c0.525-0.014,1.037-0.024,1.547-0.032c0.243-0.004,0.493-0.011,0.732-0.014c0.743-0.01,1.473-0.015,2.181-0.015  c12.308,0,20.871,1.333,21.958,1.511c0.072,0.012,0.112,0.018,0.116,0.019c3.349,0.59,6.711-0.977,8.411-3.923l20.621-35.743  c11.555,2.886,37.847,8.904,64.867,11.319c2.149,0.192,4.409,0.379,6.759,0.572c27.226,2.243,64.513,5.316,81.452,29.116  c9.001,12.645,11.437,30.558,7.279,53.353c-0.016-0.005-0.033-0.01-0.05-0.015c-0.683-0.246-1.378-0.463-2.084-0.655  c-0.05-0.014-0.099-0.029-0.149-0.042c-0.686-0.182-1.383-0.333-2.089-0.463c-0.101-0.018-0.202-0.037-0.304-0.054  c-0.687-0.118-1.382-0.21-2.087-0.275c-0.106-0.01-0.211-0.016-0.317-0.024c-0.721-0.057-1.448-0.096-2.185-0.096h-209.13V369.426z"/>
<g>
</g>
<g>
</g>
<g>
</g>
<g>
</g>
<g>
</g>
<g>
</g>
<g>
</g>
<g>
</g>
<g>
</g>
<g>
</g>
<g>
</g>
<g>
</g>
<g>
</g>
<g>
</g>
<g>
</g>
</svg>
