<?xml version="1.0" encoding="iso-8859-1"?>
<!-- Generator: Adobe Illustrator 19.0.0, SVG Export Plug-In . SVG Version: 6.00 Build 0)  -->
<svg xmlns="http://www.w3.org/2000/svg" xmlns:xlink="http://www.w3.org/1999/xlink" version="1.1" id="Layer_1" x="0px" y="0px" viewBox="0 0 512 512" style="enable-background:new 0 0 512 512;" xml:space="preserve">
<path style="fill:#CC251D;" d="M202.918,151.838c-34.617-16.924-31.185,35.677-31.185,35.677  c15.334-1.933,30.416,5.606,30.416,5.606l116.223,52.92l32.34,14.724l0.007,0.017c-0.005,0.013-0.007,0.025-0.012,0.035  c6.072-18.589,14.525-21.54,14.525-21.54S237.533,168.76,202.918,151.838z"/>
<path style="fill:#FF633E;" d="M264.284,221.412l-62.136-28.293c0,0-26.667-13.332-45.13,0  c-18.462,13.335-66.668,54.817-110.772,6.382c0,0-38.207-38.69-38.207,23.363c0,48.207,0,86.478,0,86.478h26.924h27.693h237.787  c0.441,0-0.443-0.021,0,0c13.948,0.67,27.521,0.791,44.205-0.354c-1.336,0.092,0,0,0,0l0,0c0-22.496,2.663-37.798,6.068-48.209  l-0.007-0.017l-62.093-28.271"/>
<path style="fill:#F7502F;" d="M37.929,336.571v-25.85c0,0,0-0.373,0-1.072c0-6.321,0-40.152,0-82.176c0-1.073,0-2.146,0-3.23  c0-16.575,2.726-25.958,6.723-30.815c-11.314-7.047-28.755-11.113-28.755,30.815c0,1.084,0,2.157,0,3.23c0,42.024,0,75.855,0,82.176  c0,0.699,0,1.072,0,1.072v25.85c0,14.87,12.053,26.925,26.924,26.925h22.033C49.982,363.497,37.929,351.442,37.929,336.571z"/>
<path style="fill:#275D68;" d="M105.954,363.191h193.887c2.045,0.088,8.062,0.306,16.816,0.306c14.437,0,36.318-0.595,60.081-3.365  c59.147-6.895,99.937-23.763,121.236-50.133c9.345-11.569,7.541-28.52-4.027-37.863c-11.568-9.345-28.52-7.542-37.861,4.027  c-21.793,26.979-103.373,35.659-154.318,33.212c-0.442-0.021-0.883-0.031-1.324-0.031H62.657H34.964H8.04v26.922  c0,14.87,12.053,26.925,26.924,26.925H80.94"/>
<path style="fill:#E03C2F;" d="M34.964,309.344h27.693h16.4C78.608,256.317,8.04,226.095,8.04,226.095c0,46.673,0,83.248,0,83.248  H34.964z"/>
<path style="fill:#FCF1D4;" d="M456.087,276.162c2.865-3.548,6.452-6.166,10.372-7.837l0.001-0.009l-101.228-29.04  c0,0-20.581,7.113-20.581,69.712l0,0C390.018,306.286,439.783,296.347,456.087,276.162z"/>
<path style="fill:#527A84;" d="M493.948,272.136c-11.569-9.345-28.52-7.542-37.861,4.027  c-16.304,20.185-66.069,30.125-111.438,32.827c-0.013,0.004-34.028,10.013-31.727,54.495c1.182,0.009,2.423,0.013,3.735,0.013  c14.437,0,36.318-0.595,60.081-3.365c59.147-6.895,99.937-23.763,121.236-50.133C507.319,298.43,505.515,281.479,493.948,272.136z"/>
<path style="fill:#F2D17E;" d="M388.817,247.078l-15.982-4.584c0,0-20.582,7.113-20.582,69.712c7.173-0.427,14.456-1.038,21.7-1.839  C374.212,270.801,382.818,253.992,388.817,247.078z"/>
<path style="fill:#CC251D;" d="M37.929,295.767c0-12.764,0-32.739,0-56.141c-12.277-7.973-22.033-12.153-22.033-12.153  c0,42.024,0,75.855,0,82.176c0,0.699,0,1.072,0,1.072h14.3h7.733h11.384C38.652,310.721,37.963,298.173,37.929,295.767z"/>
<g>
	<path style="fill:#204C5B;" d="M494.741,267.112c-0.685,4.583-2.555,9.05-5.679,12.917c-8.065,9.985-18.932,18.605-32.526,25.841   c-21.896,11.989-51.085,20.194-87.304,24.504c-23.282,2.77-44.716,3.365-58.858,3.365c-0.554,0-1.095-0.001-1.626-0.003   c-0.695-0.002-1.375-0.004-2.034-0.01v-0.001c-6.588-0.049-11.11-0.218-12.814-0.292H103.962H79.457h-45.04   c-1.105,0-2.193-0.077-3.263-0.212h-5.102c-6.927,0-13.24-2.617-18.01-6.914v4.263c0,14.87,12.053,26.925,26.924,26.925h45.976   h25.014h193.887c2.045,0.088,8.062,0.306,16.816,0.306c14.437,0,36.318-0.595,60.081-3.365   c59.147-6.895,99.938-23.763,121.236-50.133C507.103,293.005,505.591,276.577,494.741,267.112z"/>
	<path style="fill:#204C5B;" d="M494.741,272.472c-0.685,4.583-2.555,9.05-5.679,12.917c-8.065,9.985-18.932,18.605-32.526,25.841   c-21.896,11.989-51.085,20.194-87.304,24.504c-23.282,2.77-44.716,3.365-58.858,3.365c-0.554,0-1.095-0.001-1.626-0.003   c-0.695-0.002-1.375-0.004-2.034-0.01v-0.001c-6.588-0.049-11.11-0.218-12.814-0.292H103.962H79.457h-45.04   c-1.105,0-2.193-0.077-3.263-0.212h-5.102c-6.927,0-13.24-2.617-18.01-6.914v4.262c0,14.87,12.053,26.925,26.924,26.925h45.976   h25.014h193.887c2.045,0.088,8.062,0.306,16.816,0.306c14.437,0,36.318-0.595,60.081-3.365   c59.147-6.895,99.938-23.763,121.236-50.133C507.103,298.366,505.591,281.938,494.741,272.472z"/>
</g>
<path style="fill:#426972;" d="M493.949,265.367c-0.081-0.068-0.167-0.128-0.251-0.194c-0.525,4.959-2.399,9.827-5.698,13.997  c-20.867,26.37-60.826,43.238-118.767,50.133c-20.494,2.438-39.553,3.191-53.471,3.335c-2.151,6.607-3.331,14.544-2.839,24.077  c1.182,0.009,2.423,0.013,3.735,0.013c14.437,0,36.318-0.595,60.081-3.365c59.147-6.895,99.938-23.763,121.236-50.133  C507.32,291.662,505.517,274.71,493.949,265.367z"/>
<path d="M511.8,289.382c-0.988-9.286-5.534-17.632-12.798-23.5c-0.414-0.334-0.836-0.657-1.264-0.971  c-0.23-0.169-0.465-0.33-0.698-0.493c-0.182-0.126-0.363-0.256-0.547-0.38c-0.332-0.223-0.668-0.437-1.007-0.649  c-0.068-0.042-0.134-0.085-0.203-0.127c-5.38-3.308-11.498-5.075-17.826-5.139c-0.137-0.002-0.273-0.009-0.411-0.009  c-0.017,0-0.033,0.001-0.049,0.001c-0.64,0.002-1.281,0.017-1.924,0.054c-0.085,0.004-0.168,0.015-0.252,0.02  c-0.495,0.032-0.991,0.069-1.488,0.121c-0.024,0.002-0.046,0.006-0.069,0.009c-0.334,0.035-0.666,0.086-0.998,0.131  c-0.271,0.038-0.544,0.071-0.813,0.114c-0.339,0.055-0.674,0.119-1.011,0.183c-0.269,0.051-0.538,0.102-0.805,0.159  c-0.315,0.068-0.628,0.143-0.94,0.219c-0.296,0.072-0.591,0.147-0.884,0.226c-0.279,0.076-0.557,0.154-0.834,0.237  c-0.286,0.085-0.57,0.175-0.853,0.267l-97.8-28.057c-3.422-1.889-15.687-8.654-32.194-17.706l1.856-3.093  c2.286-3.808,1.052-8.746-2.757-11.03c-3.806-2.285-8.746-1.051-11.03,2.757l-2.182,3.635c-3.35-1.833-6.796-3.716-10.316-5.638  l1.743-2.904c2.286-3.808,1.051-8.746-2.757-11.03c-3.806-2.286-8.746-1.05-11.03,2.757l-2.085,3.475  c-3.42-1.861-6.87-3.737-10.329-5.614l1.661-2.767c2.286-3.808,1.052-8.746-2.757-11.03c-3.806-2.286-8.746-1.05-11.03,2.757  l-2.024,3.374c-3.481-1.881-6.938-3.747-10.35-5.583l1.619-2.698c2.285-3.808,1.05-8.746-2.758-11.031  c-3.808-2.285-8.747-1.05-11.031,2.758l-2.015,3.36c-3.57-1.908-7.037-3.754-10.382-5.529l1.642-2.738  c2.285-3.808,1.05-8.746-2.757-11.03c-3.809-2.288-8.746-1.05-11.031,2.757l-2.104,3.508c-7.017-3.659-12.998-6.715-17.47-8.902  c-13.901-6.796-23.13-3.992-28.423-0.444c-11.913,7.986-14.143,26.534-14.415,36.876c-3.869,1.171-7.69,2.948-11.3,5.555  c-1.226,0.886-2.579,1.892-4.052,2.987c-20.874,15.52-59.726,44.405-96.067,4.499c-0.073-0.079-0.148-0.159-0.224-0.236  c-1.973-1.998-19.73-19.329-35.516-12.853C5.381,185.544,0,199.238,0,222.865v3.23v83.248v26.922  c0,19.28,15.685,34.965,34.964,34.965H80.94c4.44,0,8.04-3.599,8.04-8.04c0-4.442-3.6-8.04-8.04-8.04H34.964  c-10.412,0-18.883-8.471-18.883-18.884v-18.882h62.977h221.196c6.424,0.307,12.391,0.467,18.2,0.496  c-6.917,8.255-12.826,20.266-13.595,37.433c-2.339-0.06-3.945-0.123-4.673-0.154c-0.115-0.005-0.23-0.007-0.345-0.007H105.954  c-4.44,0-8.04,3.599-8.04,8.04c0,4.441,3.6,8.04,8.04,8.04h193.716c1.966,0.083,6.549,0.243,13.167,0.292  c0.01,0,0.019,0.001,0.029,0.001c0.206,0.001,0.425,0.002,0.635,0.003c0.038,0,0.077,0,0.116,0.001  c0.448,0.002,0.901,0.004,1.366,0.006c0.547,0.002,1.104,0.003,1.676,0.003c14.453,0,36.772-0.594,61.012-3.419  c61.311-7.146,103.89-25.001,126.56-53.067C510.098,307.786,512.787,298.669,511.8,289.382z M448.917,272.159  c-0.191,0.212-0.385,0.423-0.586,0.634c-0.235,0.244-0.481,0.487-0.731,0.729c-0.213,0.207-0.426,0.414-0.649,0.619  c-0.265,0.242-0.542,0.483-0.822,0.724c-0.233,0.201-0.462,0.402-0.705,0.6c-0.298,0.244-0.613,0.486-0.926,0.728  c-0.248,0.191-0.489,0.383-0.745,0.572c-0.342,0.252-0.702,0.501-1.061,0.75c-0.252,0.175-0.494,0.352-0.754,0.525  c-0.427,0.286-0.876,0.567-1.324,0.849c-0.212,0.133-0.413,0.269-0.629,0.401c-0.669,0.408-1.36,0.814-2.073,1.214  c-0.232,0.13-0.479,0.257-0.716,0.386c-0.498,0.272-0.996,0.545-1.515,0.813c-0.315,0.163-0.648,0.323-0.97,0.485  c-0.461,0.23-0.919,0.461-1.395,0.688c-0.356,0.169-0.726,0.337-1.089,0.505c-0.464,0.214-0.927,0.429-1.405,0.64  c-0.387,0.17-0.785,0.339-1.18,0.508c-0.477,0.204-0.954,0.407-1.443,0.609c-0.411,0.168-0.831,0.336-1.25,0.502  c-0.494,0.196-0.992,0.392-1.499,0.586c-0.434,0.166-0.875,0.33-1.318,0.493c-0.513,0.19-1.031,0.378-1.556,0.565  c-0.452,0.161-0.91,0.321-1.371,0.48c-0.535,0.184-1.077,0.368-1.624,0.549c-0.471,0.157-0.944,0.312-1.424,0.465  c-0.56,0.18-1.127,0.357-1.697,0.534c-0.483,0.15-0.967,0.299-1.458,0.446c-0.59,0.177-1.189,0.351-1.79,0.524  c-0.491,0.142-0.981,0.284-1.479,0.423c-0.625,0.175-1.262,0.346-1.898,0.518c-0.493,0.133-0.983,0.267-1.483,0.398  c-0.669,0.175-1.352,0.345-2.033,0.516c-0.486,0.122-0.966,0.245-1.458,0.366c-0.755,0.183-1.524,0.362-2.293,0.541  c-0.434,0.101-0.86,0.205-1.298,0.304c-1.206,0.273-2.428,0.542-3.667,0.804c-0.204,0.043-0.414,0.084-0.619,0.127  c-1.051,0.22-2.108,0.436-3.182,0.648c-0.47,0.092-0.951,0.18-1.425,0.271c-0.82,0.157-1.639,0.314-2.472,0.465  c-0.545,0.1-1.099,0.194-1.649,0.292c-0.777,0.137-1.555,0.274-2.342,0.407c-0.589,0.1-1.186,0.195-1.78,0.292  c-0.763,0.124-1.527,0.249-2.3,0.369c-0.62,0.096-1.247,0.19-1.873,0.283c-0.763,0.115-1.529,0.228-2.301,0.339  c-0.644,0.092-1.295,0.181-1.945,0.27c-0.767,0.105-1.536,0.209-2.311,0.31c-0.666,0.087-1.336,0.172-2.008,0.256  c-0.777,0.098-1.558,0.192-2.342,0.285c-0.68,0.08-1.361,0.16-2.048,0.238c-0.79,0.09-1.586,0.177-2.383,0.262  c-0.696,0.075-1.392,0.149-2.093,0.22c-0.803,0.081-1.611,0.16-2.421,0.238c-0.706,0.068-1.412,0.136-2.123,0.201  c-0.823,0.075-1.653,0.146-2.484,0.215c-0.711,0.06-1.42,0.122-2.137,0.179c-0.174,0.014-0.349,0.026-0.524,0.04  c0.011-0.312,0.02-0.626,0.031-0.936c0.018-0.469,0.036-0.933,0.057-1.394c0.029-0.664,0.061-1.324,0.095-1.978  c0.02-0.383,0.042-0.762,0.063-1.14c0.042-0.721,0.087-1.437,0.136-2.145c0.02-0.288,0.041-0.576,0.061-0.861  c0.059-0.798,0.121-1.588,0.189-2.368c0.015-0.176,0.03-0.351,0.046-0.524c0.08-0.902,0.166-1.792,0.258-2.672  c0.004-0.045,0.01-0.09,0.014-0.135c0.934-8.81,2.46-16.48,4.57-22.929c2.939-8.981,6.304-13.31,8.284-15.233l82.629,23.704  C449.156,271.887,449.041,272.023,448.917,272.159z M22.553,195.878c3.964-1.633,13.042,4.364,17.875,9.177  c19.847,21.721,42.996,29.559,68.806,23.298c20.544-4.984,38.118-18.051,48.619-25.858c1.408-1.047,2.702-2.01,3.872-2.856  c3.326-2.401,7.099-3.64,10.931-4.14c0.027-0.003,0.055-0.002,0.081-0.006c8.185-1.035,16.56,1.277,21.47,3.044  c0.093,0.033,0.188,0.068,0.278,0.101c0.155,0.057,0.307,0.113,0.455,0.168c0.118,0.044,0.234,0.088,0.346,0.131  c0.122,0.047,0.247,0.094,0.362,0.139c0.21,0.081,0.414,0.162,0.604,0.238c0.087,0.034,0.164,0.066,0.245,0.101  c0.119,0.048,0.237,0.096,0.346,0.143c0.086,0.036,0.168,0.071,0.249,0.104c0.092,0.039,0.181,0.077,0.265,0.113  c0.074,0.032,0.15,0.064,0.217,0.093c0.059,0.026,0.11,0.048,0.165,0.073c0.509,0.225,0.799,0.366,0.815,0.373  c0.004,0.002,0.009,0.003,0.013,0.005c0.083,0.042,0.166,0.081,0.25,0.12l62.135,28.293c4.043,1.84,8.811,0.055,10.651-3.986  c1.84-4.043,0.056-8.81-3.986-10.651l-62.029-28.243c-0.013-0.006-0.035-0.017-0.049-0.024c-0.038-0.018-0.081-0.039-0.128-0.061  c-0.095-0.045-0.207-0.099-0.339-0.16c-0.023-0.011-0.043-0.02-0.066-0.031c-1.895-0.88-7.168-3.152-14.122-4.743  c-0.123-0.028-0.247-0.056-0.371-0.084c-0.468-0.105-0.942-0.205-1.425-0.302c-0.256-0.051-0.511-0.104-0.771-0.153  c-0.255-0.048-0.512-0.095-0.771-0.142c-0.374-0.066-0.752-0.131-1.132-0.193c-0.224-0.036-0.448-0.072-0.675-0.105  c-0.449-0.068-0.904-0.131-1.36-0.191c-0.162-0.02-0.323-0.042-0.486-0.061c-0.571-0.07-1.147-0.133-1.73-0.187  c-0.078-0.008-0.158-0.013-0.236-0.02c-0.592-0.053-1.188-0.098-1.789-0.133c-0.048-0.003-0.095-0.006-0.144-0.01  c-0.076-0.004-0.152-0.011-0.228-0.015c0.512-8.761,2.681-18.67,7.217-21.711c2.593-1.739,6.768-1.223,12.406,1.535  c4.161,2.034,9.713,4.868,16.244,8.271l-1.145,1.907c-2.285,3.808-1.05,8.746,2.757,11.03c1.295,0.777,2.721,1.147,4.13,1.147  c2.732,0,5.395-1.393,6.902-3.905l1.608-2.681c3.336,1.769,6.806,3.617,10.383,5.527l-1.236,2.059  c-2.285,3.808-1.051,8.746,2.758,11.031c1.295,0.777,2.721,1.146,4.128,1.146c2.732,0,5.395-1.393,6.902-3.905l1.634-2.723  c3.408,1.834,6.867,3.7,10.35,5.582l-1.229,2.048c-2.286,3.808-1.051,8.746,2.757,11.03c1.295,0.778,2.721,1.147,4.13,1.147  c2.731,0,5.395-1.393,6.902-3.905l1.593-2.654c3.457,1.876,6.908,3.751,10.33,5.613l-1.169,1.948  c-2.286,3.808-1.051,8.746,2.757,11.03c1.295,0.778,2.721,1.147,4.13,1.147c2.73,0,5.395-1.393,6.902-3.905l1.512-2.519  c3.517,1.92,6.966,3.804,10.317,5.637l-1.074,1.789c-2.286,3.808-1.051,8.746,2.757,11.03c1.295,0.778,2.721,1.147,4.13,1.147  c2.73,0,5.395-1.393,6.902-3.905l1.4-2.334c9.596,5.261,17.79,9.765,23.669,13.002c-1.751,2.372-3.536,5.328-5.235,9.013  l-54.332-24.738c-4.043-1.836-8.809-0.055-10.65,3.987c-1.84,4.042-0.056,8.809,3.987,10.65l29.746,13.543  c0.002,0.001,0.004,0.002,0.006,0.003l26.035,11.854c-0.641,2.599-1.233,5.388-1.76,8.398c-23.226,0.073-47.498-8.51-73.115-17.572  c-41.5-14.681-84.414-29.861-125.381-7.076c-46.381,25.801-69.197,13.844-73.031,11.401c-17.269-20.963-41.385-34.302-51.691-39.379  C16.395,199.073,21.908,196.145,22.553,195.878z M16.081,301.303v-62.092c17.305,9.733,49.065,31.465,54.222,62.092H16.081z   M86.564,301.303c-0.912-7.246-2.957-14.035-5.8-20.368c15.104,1.689,37.538-1.045,67.872-17.918  c34.626-19.263,72.308-5.932,112.202,8.182c25.137,8.893,51.052,18.036,76.491,18.455c-0.164,2.078-0.299,4.238-0.41,6.466  c-0.005,0.104-0.011,0.208-0.015,0.313c-0.074,1.541-0.134,3.119-0.18,4.733c-0.002,0.08-0.006,0.158-0.009,0.239  c-0.926,0.045-1.845,0.08-2.766,0.118c-10.831,0.366-21.565,0.312-31.798-0.178c-0.406-0.019-0.812-0.024-1.217-0.029  c-0.1-0.005-0.198-0.015-0.3-0.017c-0.205-0.005-0.41-0.003-0.61,0.005H86.564V301.303z M491.72,304.946  c-18.687,23.134-54.13,38.537-105.439,45.846c-3.421,0.487-6.912,0.938-10.473,1.354c-1.402,0.163-2.798,0.318-4.186,0.466  c-0.45,0.048-0.896,0.092-1.345,0.138c-0.936,0.098-1.872,0.194-2.8,0.284c-0.523,0.051-1.041,0.099-1.561,0.148  c-0.85,0.08-1.699,0.16-2.542,0.235c-0.539,0.048-1.075,0.093-1.611,0.139c-0.815,0.07-1.626,0.138-2.432,0.203  c-0.536,0.043-1.068,0.085-1.599,0.125c-0.804,0.062-1.604,0.122-2.399,0.18c-0.519,0.038-1.037,0.075-1.552,0.11  c-0.795,0.055-1.586,0.107-2.371,0.159c-0.496,0.032-0.994,0.064-1.487,0.095c-0.818,0.05-1.627,0.098-2.434,0.144  c-0.44,0.025-0.882,0.051-1.318,0.075c-0.881,0.048-1.75,0.092-2.615,0.135c-0.349,0.017-0.705,0.036-1.053,0.054  c-1.146,0.055-2.276,0.105-3.39,0.151c-0.055,0.002-0.112,0.005-0.166,0.007c-1.193,0.049-2.367,0.093-3.522,0.133  c-0.235,0.009-0.46,0.014-0.693,0.023c-0.888,0.03-1.769,0.058-2.632,0.083c-0.376,0.011-0.742,0.019-1.114,0.03  c-0.71,0.019-1.418,0.038-2.11,0.053c-0.401,0.009-0.793,0.017-1.188,0.025c-0.635,0.013-1.266,0.026-1.884,0.036  c-0.415,0.007-0.822,0.013-1.229,0.019c-0.578,0.009-1.15,0.016-1.711,0.023c-0.407,0.004-0.81,0.009-1.208,0.013  c-0.236,0.002-0.463,0.003-0.696,0.005c1.642-28.194,21.117-36.942,25.252-38.488c0.058-0.003,0.119-0.007,0.178-0.012  c0.128-0.007,0.258-0.016,0.387-0.025c0.323-0.02,0.646-0.041,0.978-0.063c0.158-0.011,0.319-0.021,0.479-0.032  c0.316-0.021,0.632-0.043,0.957-0.064c0.164-0.012,0.331-0.024,0.497-0.035c0.325-0.022,0.65-0.046,0.982-0.07  c0.178-0.013,0.36-0.027,0.541-0.04c0.329-0.025,0.659-0.048,0.995-0.074c0.175-0.013,0.354-0.028,0.531-0.041  c0.357-0.028,0.714-0.056,1.078-0.085c0.155-0.013,0.313-0.026,0.469-0.038c0.385-0.031,0.771-0.062,1.163-0.095  c0.162-0.014,0.327-0.028,0.49-0.042c0.39-0.033,0.782-0.066,1.179-0.101c0.175-0.015,0.353-0.031,0.53-0.047  c0.389-0.034,0.779-0.07,1.175-0.105c0.193-0.017,0.388-0.035,0.583-0.054c0.387-0.035,0.774-0.072,1.167-0.109  c0.203-0.019,0.406-0.04,0.611-0.059c0.392-0.038,0.786-0.076,1.185-0.116c0.203-0.02,0.406-0.041,0.61-0.061  c0.41-0.041,0.82-0.083,1.235-0.126c0.196-0.02,0.395-0.042,0.592-0.062c0.419-0.044,0.838-0.089,1.263-0.134  c0.21-0.022,0.422-0.046,0.634-0.07c0.421-0.046,0.844-0.093,1.269-0.14c0.205-0.024,0.412-0.047,0.617-0.071  c0.437-0.05,0.876-0.101,1.318-0.152c0.208-0.025,0.416-0.049,0.625-0.074c0.438-0.053,0.879-0.105,1.323-0.16  c0.217-0.027,0.433-0.054,0.651-0.08c0.444-0.055,0.889-0.11,1.337-0.167c0.219-0.028,0.438-0.056,0.658-0.085  c0.445-0.058,0.891-0.116,1.339-0.175c0.229-0.03,0.459-0.061,0.689-0.092c0.446-0.06,0.893-0.12,1.342-0.182  c0.228-0.031,0.457-0.063,0.686-0.095c0.458-0.064,0.918-0.129,1.379-0.195c0.224-0.032,0.448-0.064,0.672-0.098  c0.465-0.068,0.932-0.136,1.399-0.206c0.226-0.033,0.453-0.068,0.68-0.102c0.464-0.07,0.929-0.141,1.397-0.213  c0.235-0.036,0.471-0.074,0.706-0.11c0.466-0.073,0.934-0.148,1.403-0.223c0.234-0.038,0.469-0.076,0.703-0.115  c0.467-0.076,0.936-0.154,1.404-0.233c0.241-0.041,0.482-0.081,0.724-0.122c0.465-0.079,0.931-0.159,1.397-0.24  c0.247-0.043,0.494-0.087,0.742-0.13c0.468-0.083,0.937-0.166,1.407-0.252c0.241-0.044,0.482-0.088,0.724-0.132  c0.473-0.087,0.946-0.175,1.418-0.264c0.244-0.046,0.488-0.092,0.732-0.139c0.474-0.091,0.949-0.182,1.424-0.276  c0.241-0.047,0.482-0.094,0.725-0.143c0.475-0.094,0.949-0.19,1.424-0.286c0.247-0.05,0.493-0.101,0.74-0.151  c0.474-0.098,0.947-0.197,1.42-0.297c0.243-0.051,0.487-0.103,0.73-0.155c0.476-0.102,0.952-0.206,1.428-0.311  c0.242-0.054,0.485-0.107,0.727-0.161c0.481-0.107,0.962-0.217,1.442-0.327c0.234-0.054,0.469-0.107,0.702-0.162  c0.483-0.113,0.966-0.226,1.448-0.341c0.235-0.056,0.469-0.111,0.703-0.168c0.48-0.116,0.961-0.234,1.441-0.354  c0.236-0.059,0.471-0.117,0.706-0.176c0.476-0.12,0.951-0.241,1.426-0.363c0.237-0.061,0.474-0.122,0.711-0.184  c0.475-0.124,0.949-0.251,1.422-0.377c0.234-0.063,0.469-0.125,0.701-0.19c0.473-0.129,0.944-0.259,1.415-0.391  c0.232-0.065,0.464-0.13,0.696-0.195c0.473-0.134,0.944-0.271,1.415-0.408c0.228-0.066,0.456-0.133,0.683-0.199  c0.467-0.138,0.933-0.279,1.397-0.42c0.229-0.07,0.459-0.139,0.688-0.21c0.464-0.143,0.926-0.288,1.387-0.434  c0.225-0.072,0.451-0.143,0.676-0.214c0.461-0.148,0.92-0.299,1.378-0.45c0.222-0.073,0.444-0.146,0.666-0.22  c0.46-0.154,0.917-0.311,1.372-0.469c0.217-0.075,0.433-0.149,0.649-0.224c0.457-0.16,0.911-0.323,1.365-0.486  c0.211-0.076,0.423-0.152,0.634-0.228c0.451-0.165,0.899-0.332,1.347-0.502c0.21-0.079,0.42-0.158,0.629-0.237  c0.445-0.17,0.887-0.343,1.327-0.517c0.207-0.081,0.414-0.162,0.62-0.243c0.441-0.176,0.878-0.355,1.313-0.535  c0.201-0.083,0.402-0.164,0.601-0.248c0.437-0.183,0.872-0.369,1.304-0.556c0.194-0.084,0.388-0.166,0.581-0.251  c0.431-0.189,0.857-0.381,1.282-0.574c0.191-0.086,0.383-0.172,0.572-0.258c0.425-0.195,0.845-0.393,1.264-0.593  c0.184-0.087,0.37-0.174,0.552-0.262c0.42-0.203,0.835-0.408,1.249-0.615c0.177-0.088,0.355-0.175,0.531-0.264  c0.412-0.209,0.818-0.421,1.223-0.634c0.174-0.091,0.348-0.18,0.521-0.272c0.399-0.212,0.792-0.429,1.185-0.645  c0.173-0.095,0.347-0.19,0.519-0.285c0.393-0.221,0.78-0.446,1.167-0.671c0.162-0.094,0.327-0.188,0.488-0.283  c0.388-0.229,0.769-0.463,1.149-0.697c0.154-0.095,0.312-0.189,0.465-0.285c0.382-0.238,0.755-0.481,1.128-0.724  c0.146-0.094,0.294-0.188,0.438-0.283c0.375-0.249,0.743-0.502,1.111-0.755c0.135-0.093,0.274-0.185,0.408-0.28  c0.371-0.261,0.733-0.525,1.095-0.79c0.123-0.091,0.251-0.18,0.374-0.271c0.363-0.271,0.718-0.547,1.072-0.823  c0.114-0.089,0.232-0.176,0.344-0.266c0.362-0.287,0.715-0.58,1.067-0.873c0.098-0.081,0.198-0.161,0.295-0.242  c0.36-0.306,0.711-0.615,1.059-0.927c0.081-0.073,0.166-0.145,0.248-0.218c0.367-0.332,0.723-0.67,1.074-1.009  c0.057-0.055,0.117-0.108,0.174-0.164c0.269-0.263,0.529-0.53,0.789-0.797c0.043-0.044,0.088-0.088,0.131-0.132  c0.069-0.071,0.14-0.14,0.209-0.212c0.019-0.02,0.041-0.041,0.06-0.061c0.274-0.288,0.538-0.582,0.802-0.875  c0.076-0.085,0.157-0.168,0.232-0.254c0.399-0.451,0.789-0.907,1.162-1.37c0.03-0.036,0.064-0.068,0.094-0.104  c0.42-0.514,0.865-0.998,1.329-1.458c0.119-0.118,0.247-0.225,0.368-0.34c0.101-0.094,0.206-0.181,0.309-0.272  c0.311-0.28,0.623-0.559,0.952-0.816c0.111-0.088,0.226-0.172,0.34-0.257c0.125-0.094,0.256-0.179,0.384-0.269  c0.407-0.287,0.817-0.571,1.248-0.827c0.018-0.011,0.035-0.021,0.053-0.032c0.152-0.09,0.311-0.169,0.466-0.255  c0.508-0.28,1.025-0.545,1.563-0.78c0.303-0.133,0.608-0.261,0.918-0.377c0.235-0.088,0.468-0.18,0.706-0.258  c0.393-0.13,0.794-0.237,1.196-0.342c0.247-0.063,0.489-0.136,0.739-0.191c0.449-0.098,0.907-0.165,1.365-0.23  c0.204-0.029,0.404-0.073,0.61-0.095c0.665-0.072,1.338-0.11,2.017-0.113c0.569-0.002,1.135,0.02,1.698,0.069  c0.157,0.014,0.31,0.042,0.465,0.059c0.431,0.048,0.861,0.102,1.285,0.18c0.17,0.031,0.338,0.073,0.508,0.109  c0.411,0.087,0.818,0.181,1.221,0.296c0.162,0.045,0.321,0.098,0.481,0.148c0.406,0.128,0.808,0.266,1.206,0.421  c0.152,0.059,0.303,0.12,0.455,0.183c0.397,0.166,0.787,0.349,1.173,0.545c0.145,0.073,0.292,0.144,0.435,0.221  c0.39,0.209,0.771,0.438,1.147,0.676c0.128,0.081,0.259,0.154,0.386,0.239c0.492,0.327,0.972,0.674,1.438,1.05  c3.924,3.169,6.379,7.676,6.913,12.692C496.342,296.098,494.889,301.022,491.72,304.946z"/>
<g>
</g>
<g>
</g>
<g>
</g>
<g>
</g>
<g>
</g>
<g>
</g>
<g>
</g>
<g>
</g>
<g>
</g>
<g>
</g>
<g>
</g>
<g>
</g>
<g>
</g>
<g>
</g>
<g>
</g>
</svg>
