<?xml version="1.0" encoding="iso-8859-1"?>
<!-- Generator: Adobe Illustrator 19.0.0, SVG Export Plug-In . SVG Version: 6.00 Build 0)  -->
<svg xmlns="http://www.w3.org/2000/svg" xmlns:xlink="http://www.w3.org/1999/xlink" version="1.1" id="Layer_1" x="0px" y="0px" viewBox="0 0 512 512" style="enable-background:new 0 0 512 512;" xml:space="preserve">
<path style="fill:#00EED1;" d="M401.16,458.549H110.84c-13.053,0-23.631-10.578-23.631-23.631v23.631v21.38  c0,13.053,10.578,23.631,23.631,23.631H401.16c13.053,0,23.631-10.578,23.631-23.631v-21.38v-23.631  C424.791,447.972,414.214,458.549,401.16,458.549"/>
<path style="fill:#49BAED;" d="M424.791,109.714v325.204c0,13.053-10.578,23.631-23.631,23.631H110.84  c-13.053,0-23.631-10.578-23.631-23.631V109.714H424.791z"/>
<path style="fill:#00EED1;" d="M402.286,222.242V256c0,24.857-20.154,45.011-45.011,45.011c-24.857,0-45.011-20.154-45.011-45.011  v-33.758H402.286z"/>
<rect x="312.264" y="188.484" style="fill:#FF633E;" width="90.022" height="33.758"/>
<path style="fill:#00D3B3;" d="M327.105,289.387c-9.115-8.226-14.841-20.142-14.841-33.387v-33.758h11.253v49.512  C323.517,278.01,324.799,283.974,327.105,289.387"/>
<path style="fill:#FF5132;" d="M402.286,188.484v15.754h-66.954c-6.525,0-11.815,5.29-11.815,11.815v6.189h-11.253v-33.758H402.286z  "/>
<path style="fill:#FF633E;" d="M424.791,88.334v21.38H87.209v-21.38c0-13.053,10.578-23.631,23.631-23.631H401.16  C414.214,64.703,424.791,75.281,424.791,88.334"/>
<path style="fill:#FF5132;" d="M424.757,87.243c-0.36-0.023-0.72-0.034-1.092-0.034H133.345c-12.671,0-23.012,9.97-23.596,22.506  h-22.54v-21.38c0-13.053,10.578-23.631,23.631-23.631H401.16C413.842,64.703,424.195,74.697,424.757,87.243"/>
<path style="fill:#00AEDD;" d="M109.714,457.424c0,0.371,0.011,0.731,0.033,1.092c-12.546-0.563-22.538-10.915-22.538-23.597  V109.714h22.538c-0.021,0.371-0.033,0.743-0.033,1.125V457.424z"/>
<g>
	<polygon style="fill:#9BFCFF;" points="323.517,42.198 323.517,143.473 278.505,105.967 256,87.209  "/>
	<polygon style="fill:#9BFCFF;" points="256,87.209 233.495,105.967 188.484,143.473 188.484,42.198  "/>
</g>
<path style="fill:#00D3B3;" d="M424.791,434.919v23.631c0,13.053-10.578,23.631-23.631,23.631H110.84  c-13.053,0-23.631-10.578-23.631-23.631v-23.631c0,13.053,10.578,23.631,23.631,23.631H401.16  C414.214,458.549,424.791,447.972,424.791,434.919"/>
<polyline style="fill:#FF633E;" points="278.505,259.376 278.505,458.549 233.495,458.549 233.495,105.967 256,87.209   278.505,105.967 278.505,201.987 "/>
<polygon style="fill:#FF5132;" points="256,87.209 256,458.549 233.495,458.549 233.495,105.967 "/>
<path style="fill:#00EED1;" d="M267.253,143.473c0,6.212-5.041,11.253-11.253,11.253V132.22  C262.212,132.22,267.253,137.261,267.253,143.473"/>
<path style="fill:#00D3B3;" d="M256,132.22v22.505c-6.212,0-11.253-5.041-11.253-11.253S249.788,132.22,256,132.22"/>
<path style="fill:#00EED1;" d="M267.253,222.242c0,6.212-5.041,11.253-11.253,11.253v-22.506  C262.212,210.989,267.253,216.03,267.253,222.242"/>
<path style="fill:#00D3B3;" d="M256,210.989v22.506c-6.212,0-11.253-5.041-11.253-11.253  C244.747,216.03,249.788,210.989,256,210.989"/>
<path style="fill:#00EED1;" d="M267.253,301.011c0,6.211-5.041,11.253-11.253,11.253v-22.505  C262.212,289.758,267.253,294.799,267.253,301.011"/>
<path style="fill:#00D3B3;" d="M256,289.758v22.505c-6.212,0-11.253-5.041-11.253-11.253  C244.747,294.799,249.788,289.758,256,289.758"/>
<path style="fill:#00EED1;" d="M267.253,379.78c0,6.211-5.041,11.253-11.253,11.253v-22.505  C262.212,368.527,267.253,373.569,267.253,379.78"/>
<path style="fill:#00D3B3;" d="M256,368.527v22.505c-6.212,0-11.253-5.041-11.253-11.253  C244.747,373.569,249.788,368.527,256,368.527"/>
<path style="fill:#53E8E8;" d="M211.339,57.434c-0.237,1.508-0.35,3.071-0.35,4.647v62.644l-22.505,18.747V42.198L211.339,57.434z"/>
<path style="fill:#0099E4;" d="M323.517,39.576v2.622L256,87.209l-67.516-45.011v-2.622c0-17.194,13.943-31.136,31.136-31.136h72.76  C309.574,8.44,323.517,22.382,323.517,39.576"/>
<path style="fill:#008ACE;" d="M322.56,31.902c-2.454-0.63-5.031-0.956-7.674-0.956h-72.76c-15.619,0-28.548,11.501-30.786,26.489  l-22.855-15.236v-2.622c0-17.193,13.942-31.136,31.136-31.136h72.76C306.93,8.44,319.15,18.421,322.56,31.902"/>
<path d="M401.16,56.264h-69.204V42.198v-2.622C331.956,17.753,314.203,0,292.38,0h-72.76c-21.822,0-39.576,17.753-39.576,39.576  v2.622v14.066H110.84c-17.684,0-32.07,14.387-32.07,32.07v21.38v325.204v45.011c0,17.684,14.387,32.07,32.07,32.07H401.16  c17.684,0,32.07-14.387,32.07-32.07v-45.011V109.714v-21.38C433.231,70.65,418.844,56.264,401.16,56.264 M241.934,450.11V109.919  L256,98.196l14.066,11.723V450.11H241.934z M110.84,450.11c-8.375,0-15.191-6.815-15.191-15.191V118.154h84.396v25.319  c0,3.275,1.895,6.255,4.859,7.643c0.338,0.158,0.681,0.284,1.029,0.395c0.107,0.033,0.212,0.06,0.318,0.088  c0.251,0.071,0.504,0.127,0.761,0.173c0.115,0.02,0.228,0.04,0.343,0.056c0.286,0.038,0.573,0.061,0.862,0.07  c0.071,0.003,0.143,0.012,0.213,0.014c0.018,0,0.035,0.002,0.054,0.002c0.073,0,0.145-0.018,0.218-0.02  c0.358-0.009,0.716-0.036,1.07-0.092c0.147-0.023,0.293-0.057,0.441-0.087c0.294-0.063,0.584-0.137,0.871-0.23  c0.152-0.05,0.302-0.101,0.45-0.159c0.289-0.114,0.569-0.246,0.846-0.39c0.127-0.066,0.255-0.124,0.38-0.198  c0.392-0.231,0.77-0.485,1.125-0.781l31.17-25.974V450.11H110.84z M315.077,64.703v45.011v15.738l-44.992-37.491l44.992-29.994  V64.703z M241.914,87.962l-44.991,37.491v-15.738V64.703v-6.736L241.914,87.962z M286.945,123.983l31.169,25.974  c0.354,0.297,0.734,0.55,1.125,0.781c0.124,0.073,0.253,0.132,0.38,0.197c0.277,0.145,0.557,0.278,0.847,0.392  c0.149,0.057,0.297,0.109,0.449,0.159c0.288,0.092,0.578,0.167,0.872,0.23c0.147,0.032,0.291,0.065,0.44,0.087  c0.354,0.056,0.712,0.083,1.071,0.092c0.073,0.002,0.145,0.02,0.217,0.02c0.018,0,0.036-0.002,0.054-0.002  c0.072-0.001,0.142-0.01,0.214-0.014c0.288-0.009,0.575-0.03,0.861-0.07c0.117-0.016,0.231-0.036,0.345-0.056  c0.255-0.046,0.505-0.104,0.757-0.171c0.108-0.03,0.214-0.057,0.321-0.09c0.348-0.111,0.692-0.237,1.027-0.395  c2.966-1.387,4.86-4.368,4.86-7.643v-25.319h84.396v316.765c0,8.377-6.815,15.191-15.191,15.191H286.945V123.983z M401.16,73.143  c8.377,0,15.191,6.816,15.191,15.191v12.941h-84.396V73.143H401.16z M219.62,16.879h72.76c11.894,0,21.681,9.196,22.621,20.85  L256,77.066l-59.003-39.336C197.938,26.075,207.726,16.879,219.62,16.879 M95.648,88.334c0-8.375,6.816-15.191,15.191-15.191h69.204  v28.132H95.648V88.334z M416.352,479.93c0,8.377-6.815,15.191-15.191,15.191H110.84c-8.375,0-15.191-6.815-15.191-15.191v-16.772  c0.077,0.042,0.159,0.078,0.236,0.119c0.43,0.227,0.865,0.446,1.306,0.655c0.18,0.086,0.362,0.164,0.545,0.246  c0.367,0.165,0.734,0.324,1.106,0.476c0.197,0.078,0.393,0.158,0.592,0.232c0.39,0.15,0.784,0.289,1.184,0.423  c0.172,0.059,0.342,0.12,0.515,0.176c0.569,0.181,1.143,0.35,1.725,0.499c0.059,0.016,0.12,0.026,0.178,0.041  c0.527,0.132,1.056,0.251,1.589,0.354c0.194,0.039,0.392,0.071,0.586,0.106c0.412,0.073,0.825,0.14,1.242,0.197  c0.214,0.029,0.429,0.059,0.646,0.082c0.424,0.05,0.853,0.089,1.282,0.122c0.196,0.015,0.389,0.032,0.584,0.045  c0.62,0.034,1.245,0.059,1.874,0.059h122.655h45.011h122.655c0.629,0,1.254-0.024,1.874-0.059c0.195-0.013,0.388-0.03,0.583-0.045  c0.43-0.033,0.859-0.072,1.283-0.122c0.216-0.024,0.432-0.053,0.646-0.082c0.417-0.057,0.83-0.123,1.242-0.197  c0.195-0.034,0.392-0.066,0.586-0.106c0.535-0.105,1.062-0.223,1.588-0.354c0.06-0.015,0.12-0.025,0.179-0.041  c0.583-0.15,1.156-0.317,1.725-0.499c0.173-0.055,0.343-0.117,0.515-0.176c0.397-0.134,0.793-0.273,1.184-0.423  c0.199-0.074,0.396-0.154,0.592-0.232c0.372-0.152,0.74-0.309,1.105-0.476c0.182-0.081,0.366-0.161,0.546-0.246  c0.442-0.209,0.877-0.428,1.306-0.655c0.078-0.042,0.159-0.078,0.236-0.119v16.772H416.352z"/>
<path d="M410.324,262.613c0.266-2.157,0.402-4.382,0.402-6.613v-33.758v-33.758c0-4.662-3.779-8.44-8.44-8.44h-90.022  c-4.661,0-8.44,3.778-8.44,8.44v33.758V256c0,29.472,23.978,53.451,53.451,53.451c11.572,0,22.59-3.643,31.861-10.533  c3.739-2.781,4.519-8.067,1.739-11.807c-2.781-3.739-8.067-4.52-11.808-1.74c-6.339,4.71-13.874,7.201-21.792,7.201  c-20.165,0-36.571-16.406-36.571-36.571v-25.319h73.143V256c0,1.544-0.092,3.074-0.275,4.548c-0.569,4.626,2.718,8.839,7.345,9.41  c0.349,0.043,0.698,0.064,1.042,0.064C406.159,270.022,409.797,266.889,410.324,262.613 M320.703,196.923h73.143v16.879h-73.143  V196.923z"/>
<g>
</g>
<g>
</g>
<g>
</g>
<g>
</g>
<g>
</g>
<g>
</g>
<g>
</g>
<g>
</g>
<g>
</g>
<g>
</g>
<g>
</g>
<g>
</g>
<g>
</g>
<g>
</g>
<g>
</g>
</svg>
