<?xml version="1.0" encoding="iso-8859-1"?>
<!-- Generator: Adobe Illustrator 19.0.0, SVG Export Plug-In . SVG Version: 6.00 Build 0)  -->
<svg xmlns="http://www.w3.org/2000/svg" xmlns:xlink="http://www.w3.org/1999/xlink" version="1.1" id="Layer_1" x="0px" y="0px" viewBox="0 0 512.002 512.002" style="enable-background:new 0 0 512.002 512.002;" xml:space="preserve">
<path style="fill:#FFC373;" d="M450.986,108.757c-50.571-6.807-119.28-10.994-194.99-10.994c-75.708,0-144.419,4.187-194.988,10.994  l5.165-34.434c50.031-6.402,116.67-10.319,189.823-10.319c73.157,0,139.795,3.916,189.825,10.319L450.986,108.757z"/>
<path style="fill:#FFA24C;" d="M447.261,83.957c-48.229-5.435-109.568-8.698-176.32-8.698c-67.722,0-129.858,3.353-178.404,8.934  c-6.74,0.776-12.108,5.976-13.121,12.683l-1.462,9.779c-5.853,0.664-11.502,1.373-16.948,2.103l5.165-34.434  c50.029-6.402,116.67-10.319,189.823-10.319s139.795,3.916,189.825,10.319L447.261,83.957z"/>
<path style="fill:#B7DFF7;" d="M442.163,49.928l-6.12-40.792h-342.3H75.95l-9.778,65.188c50.029-6.402,116.67-10.319,189.823-10.319  s139.795,3.916,189.823,10.319L442.163,49.928z"/>
<path style="fill:#6BC6F3;" d="M445.82,74.324c-50.029-6.402-116.669-10.319-189.823-10.319S116.203,67.921,66.173,74.324  l9.778-65.188h17.792l-4.556,30.397c-0.991,6.614,4.455,12.433,11.117,11.851c63.975-5.583,233.054-8.237,343.539,9.734  L445.82,74.324z"/>
<path style="fill:#EE3560;" d="M380.916,492.019c-41.322,7.236-83.115,10.848-124.92,10.848  c-83.799,0-167.599-14.539-247.563-43.616c0,0,45.011-35.154,146.287-12.648C255.974,469.108,290.937,503.249,380.916,492.019"/>
<path style="fill:#FF738D;" d="M500.352,437.892c-39.036,13.997-78.984,24.531-119.381,31.609c-0.022,0-0.033,0-0.057,0.011  c-89.977,11.229-124.939-22.911-226.193-45.417c-84.519-18.78-129.858,2.601-142.54,10.185l40.488-269.911l4.951-33.05l3.387-22.562  c50.569-6.808,119.28-10.995,194.988-10.995c75.71,0,144.419,4.187,194.99,10.995l3.387,22.562l4.949,33.05L500.352,437.892z"/>
<path style="fill:#FB5E80;" d="M500.352,437.892c-4.563,1.635-9.138,3.223-13.725,4.763c-17.688,5.939-36.549-5.168-40.109-23.484  l-43.72-224.931l21.308,266.333c-4.402,1.051-10.202,2.302-16.132,3.533c-14.938,3.102-29.458-6.859-31.95-21.912l-41.26-249.161  l11.132,278.665c-11.161-0.06-21.528-0.9-31.464-2.354c-13.782-2.017-24.567-12.895-26.343-26.708l-31.824-247.73v259.502  c-12.442-4.132-25.411-8.687-39.684-13.3c-11.924-3.853-20.376-14.481-21.387-26.971l-17.97-221.853l-9.554,234.837  c-4.197-1.035-8.508-2.038-12.952-3.027c-3.877-0.861-7.672-1.637-11.387-2.334c-14.204-2.669-24.747-14.688-25.365-29.129  l-8.585-200.717L91.401,416.581c-7.842-0.019-15.097,0.349-21.777,0.998c-20.004,1.944-36.459-15.533-33.477-35.409l33.401-222.66  l4.951-33.05l2.958-19.749c-5.67,0.653-11.163,1.339-16.451,2.048l-3.387,22.562l-4.951,33.05L8.433,459.25  c0,0,0.021-0.022,0.046-0.034c0.011-0.011,0.033-0.022,0.044-0.033c0.033-0.024,0.068-0.057,0.113-0.079  c0.021-0.024,0.057-0.045,0.09-0.068c0.069-0.057,0.159-0.114,0.259-0.192c0.044-0.033,0.113-0.078,0.169-0.113  c0.055-0.045,0.134-0.09,0.203-0.146c0.079-0.056,0.159-0.113,0.249-0.169c0.055-0.045,0.134-0.09,0.203-0.135  c0.191-0.123,0.394-0.258,0.618-0.404c0.069-0.045,0.125-0.09,0.191-0.124c0.159-0.101,0.316-0.203,0.473-0.304  c0.046-0.034,0.101-0.057,0.147-0.09c0.574-0.36,1.238-0.754,1.992-1.194c0.023-0.011,0.046-0.022,0.069-0.033  c9.779-5.604,34.534-16.847,76.307-17.048c18.362-0.101,40.014,1.935,65.119,7.517c4.119,0.913,8.136,1.847,12.039,2.802  c92.151,22.404,127.835,53.384,214.154,42.615c0.024-0.011,0.035-0.011,0.057-0.011c41.499-7.269,82.528-18.185,122.587-32.757  L500.352,437.892z"/>
<path style="fill:#D82054;" d="M380.913,492.019c-37.82,6.628-76.035,10.205-114.295,10.758  c-31.024-9.812-64.062-23.035-111.897-33.669c-55.759-12.389-94.467-7.303-117.996-0.236c-9.475-3.005-18.917-6.213-28.291-9.621  c0,0,45.011-35.154,146.287-12.648C255.974,469.108,290.937,503.249,380.913,492.019"/>
<path d="M459.331,107.505L459.331,107.505l-5.165-34.435l-9.778-65.188c-0.62-4.131-4.169-7.187-8.347-7.187H75.95  c-4.176,0-7.725,3.056-8.345,7.187l-9.78,65.188v0.002l-5.163,34.429l-0.002,0.002l-8.338,55.613L0.088,457.998  c-0.009,0.048-0.005,0.093-0.011,0.141c-0.035,0.273-0.051,0.549-0.06,0.826C0.014,459.088,0,459.213,0,459.337  c0.005,0.385,0.033,0.772,0.092,1.158c0,0.007,0,0.013,0,0.013c0.002,0.024,0.002,0.044,0.005,0.063  c0.482,3.03,2.569,5.562,5.453,6.611c80.515,29.278,164.78,44.124,250.447,44.124c42.27,0,84.79-3.692,126.375-10.974  c0.018-0.003,0.035-0.009,0.051-0.012c0.028-0.006,0.057-0.008,0.086-0.015c0.035-0.006,0.072-0.013,0.108-0.019  c0.002,0,0.005,0,0.005-0.001c0,0,0.002,0,0.004,0c42.062-7.38,83.717-18.517,123.821-33.104c3.774-1.373,6.057-5.213,5.462-9.185  L459.331,107.505z M435.828,64.609c-0.758-0.088-1.531-0.173-2.297-0.26c-0.715-0.081-1.422-0.162-2.14-0.242  c-1.013-0.111-2.036-0.219-3.057-0.331c-0.662-0.071-1.319-0.144-1.985-0.214c-1.328-0.141-2.666-0.279-4.009-0.415  c-0.63-0.064-1.259-0.127-1.895-0.191c-1.437-0.145-2.882-0.288-4.337-0.426c-0.692-0.068-1.395-0.132-2.092-0.199  c-1.051-0.099-2.101-0.199-3.161-0.296c-0.787-0.072-1.582-0.142-2.375-0.213c-0.985-0.09-1.969-0.178-2.961-0.263  c-0.824-0.073-1.655-0.143-2.481-0.215c-0.971-0.082-1.941-0.165-2.919-0.246c-0.217-0.019-0.431-0.037-0.65-0.055V17.576h29.304  L435.828,64.609z M377.849,59.431c-0.892-0.061-1.785-0.119-2.682-0.178c-1.01-0.068-2.029-0.131-3.046-0.196  c-0.899-0.055-1.798-0.113-2.701-0.168c-1.026-0.063-2.059-0.125-3.092-0.186c-0.895-0.053-1.789-0.108-2.686-0.159  c-1.072-0.063-2.149-0.122-3.224-0.182c-0.872-0.048-1.741-0.099-2.615-0.145c-1.112-0.06-2.228-0.117-3.345-0.176V17.576h28.132  v42.178c-0.581-0.039-1.165-0.081-1.748-0.12C379.848,59.565,378.85,59.499,377.849,59.431 M331.533,57.003  c-1.192-0.046-2.38-0.092-3.576-0.136c-0.877-0.033-1.759-0.062-2.64-0.093c-1.162-0.041-2.325-0.082-3.492-0.122  c-0.899-0.03-1.803-0.059-2.703-0.088c-1.148-0.037-2.297-0.073-3.448-0.108c-0.927-0.028-1.859-0.054-2.79-0.081  c-1.132-0.033-2.262-0.064-3.396-0.096c-0.013,0-0.028,0-0.042-0.001V17.576h28.132v39.672c-1.18-0.05-2.359-0.1-3.542-0.147  C333.202,57.067,332.365,57.035,331.533,57.003 M287.82,55.818c-1.174-0.02-2.347-0.037-3.523-0.053  c-0.93-0.014-1.859-0.026-2.793-0.037c-1.213-0.017-2.428-0.028-3.646-0.042c-0.901-0.011-1.803-0.021-2.705-0.029  c-1.259-0.012-2.523-0.021-3.784-0.029c-0.864-0.008-1.725-0.015-2.592-0.02c-1.404-0.009-2.813-0.016-4.222-0.023  c-0.039,0-0.079,0-0.118,0V17.576h28.132v38.32c-0.635-0.011-1.275-0.021-1.912-0.032C289.71,55.848,288.765,55.831,287.82,55.818   M243.216,55.607c-0.864,0.006-1.727,0.012-2.592,0.02c-1.261,0.009-2.523,0.018-3.784,0.029c-0.904,0.009-1.803,0.019-2.705,0.029  c-1.218,0.014-2.431,0.025-3.646,0.042c-0.932,0.011-1.863,0.024-2.793,0.037c-1.176,0.016-2.35,0.033-3.521,0.053  c-0.947,0.014-1.893,0.029-2.837,0.046c-0.637,0.011-1.275,0.021-1.912,0.032V17.576h28.132v38.009c-0.039,0-0.077,0-0.117,0  C246.031,55.592,244.622,55.598,243.216,55.607 M199.107,56.374c-0.929,0.027-1.859,0.053-2.79,0.081  c-1.151,0.035-2.299,0.071-3.448,0.108c-0.901,0.029-1.805,0.057-2.703,0.088c-1.167,0.039-2.329,0.081-3.493,0.122  c-0.881,0.032-1.76,0.061-2.64,0.093c-1.196,0.044-2.384,0.09-3.574,0.136c-0.835,0.033-1.672,0.064-2.504,0.098  c-1.187,0.047-2.365,0.098-3.545,0.147V17.576h28.132v38.701c-0.014,0.001-0.026,0.001-0.042,0.001  C201.371,56.311,200.239,56.341,199.107,56.374 M151.575,58.363c-1.077,0.061-2.154,0.119-3.224,0.182  c-0.899,0.051-1.791,0.106-2.688,0.159c-1.033,0.061-2.066,0.123-3.092,0.186c-0.904,0.055-1.8,0.114-2.698,0.168  c-1.017,0.065-2.036,0.128-3.048,0.196c-0.897,0.059-1.789,0.117-2.682,0.178c-1,0.068-1.997,0.134-2.991,0.203  c-0.583,0.039-1.169,0.081-1.75,0.12V17.576h28.132v40.466c-1.116,0.059-2.233,0.117-3.345,0.176  C153.313,58.264,152.446,58.315,151.575,58.363 M83.218,17.576h29.304v43.465c-0.217,0.018-0.433,0.036-0.65,0.055  c-0.976,0.08-1.947,0.164-2.917,0.246c-0.828,0.071-1.66,0.142-2.481,0.215c-0.994,0.086-1.978,0.173-2.963,0.263  c-0.791,0.071-1.587,0.141-2.373,0.213c-1.061,0.097-2.11,0.197-3.163,0.296c-0.697,0.068-1.398,0.131-2.09,0.199  c-1.455,0.138-2.899,0.281-4.338,0.426c-0.634,0.064-1.264,0.127-1.895,0.191c-1.34,0.136-2.682,0.275-4.009,0.415  c-0.666,0.071-1.323,0.143-1.985,0.214c-1.022,0.111-2.044,0.219-3.057,0.331c-0.717,0.08-1.427,0.161-2.14,0.242  c-0.765,0.087-1.538,0.172-2.297,0.26L83.218,17.576z M255.996,494.427c-77.161,0-153.151-12.327-226.187-36.666  c18.793-7.265,54.304-15.369,108.477-5.826c0.681,0.119,1.358,0.237,2.046,0.362c0.782,0.144,1.573,0.296,2.365,0.446  c1.04,0.198,2.086,0.403,3.136,0.613c0.616,0.123,1.229,0.245,1.851,0.372c1.718,0.356,3.448,0.721,5.204,1.111  c4.345,0.966,8.569,1.955,12.683,2.962c28.803,7.049,52.178,14.984,73.109,22.092c2.068,0.702,4.116,1.396,6.15,2.085  c0.648,0.218,1.294,0.435,1.941,0.653c1.446,0.488,2.887,0.972,4.319,1.45c0.782,0.262,1.565,0.522,2.345,0.779  c1.299,0.432,2.596,0.86,3.883,1.282c0.805,0.262,1.609,0.526,2.407,0.783c1.301,0.421,2.598,0.835,3.888,1.245  c0.752,0.239,1.506,0.479,2.253,0.713c1.512,0.473,3.02,0.934,4.525,1.39c0.51,0.155,1.024,0.314,1.534,0.467  c1.993,0.598,3.987,1.179,5.98,1.743c0.508,0.144,1.015,0.278,1.521,0.42c1.218,0.339,2.435,0.681,3.655,1.007  C274.051,494.253,265.018,494.427,255.996,494.427 M433.491,472.062l-22.795-284.948c-0.371-4.646-4.439-8.112-9.086-7.741  s-8.112,4.439-7.741,9.086l23.013,287.649c-12.348,2.85-24.763,5.375-37.213,7.56c-0.874,0.109-1.73,0.203-2.596,0.303  c-0.855,0.099-1.723,0.206-2.569,0.296c-0.874,0.095-1.73,0.172-2.594,0.257c-0.839,0.082-1.69,0.172-2.518,0.246  c-0.86,0.078-1.699,0.138-2.545,0.207c-0.818,0.066-1.642,0.138-2.449,0.197c-0.824,0.059-1.631,0.101-2.444,0.152  c-0.811,0.051-1.628,0.108-2.428,0.15c-0.796,0.043-1.571,0.068-2.356,0.102c-0.681,0.029-1.367,0.065-2.041,0.087l-11.93-298.213  c-0.185-4.656-4.128-8.265-8.769-8.095c-4.658,0.186-8.283,4.113-8.096,8.77l11.901,297.511c-0.512-0.019-1.031-0.03-1.54-0.055  c-0.657-0.029-1.303-0.072-1.956-0.109c-0.782-0.044-1.57-0.081-2.345-0.133c-0.659-0.044-1.31-0.1-1.967-0.15  c-0.754-0.057-1.515-0.109-2.262-0.173c-0.659-0.057-1.308-0.125-1.96-0.189c-0.734-0.069-1.475-0.135-2.207-0.213  c-0.65-0.07-1.29-0.151-1.937-0.225c-0.726-0.084-1.453-0.163-2.172-0.254c-0.627-0.078-1.243-0.169-1.866-0.254  c-0.731-0.098-1.466-0.192-2.193-0.299c-0.609-0.089-1.211-0.188-1.817-0.282c-0.729-0.114-1.464-0.221-2.191-0.342  c-0.622-0.102-1.24-0.215-1.859-0.324c-0.706-0.122-1.411-0.24-2.112-0.368c-0.611-0.113-1.218-0.234-1.829-0.352  c-0.703-0.136-1.409-0.266-2.112-0.407c-0.644-0.129-1.286-0.269-1.93-0.404c-0.659-0.14-1.321-0.272-1.981-0.416  c-0.683-0.151-1.367-0.311-2.05-0.466c-0.616-0.14-1.233-0.275-1.849-0.419c-0.694-0.163-1.389-0.336-2.084-0.506  c-0.6-0.145-1.2-0.286-1.798-0.435c-0.715-0.179-1.427-0.367-2.14-0.551c-0.581-0.15-1.16-0.294-1.741-0.447  c-0.731-0.195-1.466-0.397-2.198-0.595c-0.56-0.153-1.121-0.3-1.681-0.456c-0.857-0.239-1.718-0.486-2.58-0.73  c-0.433-0.124-0.868-0.245-1.303-0.37c-1.022-0.296-2.046-0.6-3.071-0.906c-0.277-0.082-0.551-0.161-0.828-0.245  c-0.985-0.295-1.976-0.6-2.965-0.904c-0.323-0.099-0.641-0.195-0.964-0.295c-1.158-0.358-2.321-0.726-3.488-1.095  c-0.154-0.048-0.305-0.096-0.459-0.144c-1.497-0.475-3-0.96-4.512-1.453c0.095-0.505,0.15-1.025,0.15-1.559V187.788  c0-4.662-3.778-8.44-8.44-8.44c-4.662,0-8.44,3.778-8.44,8.44v277.294c-1.143-0.387-2.288-0.775-3.448-1.17  c-19.844-6.737-41.853-14.208-68.638-21.033l10.189-254.753c0.187-4.658-3.438-8.585-8.094-8.77  c-4.662-0.185-8.585,3.438-8.772,8.095l-10.058,251.412c-0.729-0.165-1.446-0.333-2.184-0.497c-1.992-0.441-3.954-0.856-5.901-1.255  c-0.556-0.115-1.107-0.224-1.662-0.335c-1.485-0.298-2.961-0.583-4.42-0.856c-0.498-0.093-1-0.19-1.497-0.28  c-1.886-0.344-3.756-0.673-5.603-0.978c-0.266-0.044-0.528-0.082-0.793-0.125c-1.596-0.259-3.176-0.504-4.741-0.736  c-0.528-0.078-1.051-0.154-1.571-0.228c-1.437-0.205-2.859-0.398-4.27-0.581c-0.385-0.05-0.774-0.104-1.158-0.152  c-1.754-0.218-3.486-0.421-5.2-0.607c-0.374-0.038-0.74-0.073-1.112-0.113c-1.367-0.143-2.721-0.273-4.063-0.394  c-0.486-0.043-0.973-0.087-1.457-0.127c-1.43-0.122-2.848-0.232-4.25-0.329c-0.237-0.017-0.482-0.037-0.719-0.053  c-1.624-0.11-3.224-0.199-4.806-0.277c-0.411-0.02-0.817-0.037-1.227-0.055c-1.13-0.051-2.253-0.093-3.36-0.128l19.383-242.295  c0.371-4.646-3.095-8.714-7.741-9.086c-4.649-0.363-8.712,3.095-9.086,7.741L81.8,430.784c-1.123,0.043-2.235,0.092-3.334,0.15  c-0.209,0.01-0.411,0.025-0.62,0.036c-1.156,0.063-2.299,0.134-3.429,0.214c-0.399,0.028-0.798,0.057-1.196,0.088  c-1.017,0.078-2.024,0.161-3.018,0.251c-0.305,0.028-0.618,0.054-0.92,0.081c-1.257,0.12-2.497,0.248-3.719,0.385  c-0.286,0.033-0.565,0.069-0.848,0.101c-0.961,0.114-1.912,0.231-2.85,0.354c-0.36,0.047-0.721,0.096-1.079,0.145  c-0.991,0.135-1.967,0.277-2.93,0.424c-0.194,0.029-0.394,0.057-0.585,0.087c-1.137,0.178-2.253,0.363-3.352,0.555  c-0.302,0.053-0.593,0.107-0.89,0.161c-0.835,0.15-1.66,0.304-2.47,0.46c-0.309,0.061-0.622,0.12-0.932,0.182  c-1.022,0.204-2.033,0.411-3.02,0.627c-0.03,0.008-0.062,0.013-0.092,0.02c-1.024,0.223-2.024,0.452-3.009,0.686  c-0.277,0.066-0.545,0.132-0.818,0.198c-0.756,0.183-1.501,0.369-2.233,0.558c-0.237,0.062-0.482,0.122-0.719,0.183  c-0.941,0.248-1.863,0.497-2.769,0.751c-0.086,0.025-0.169,0.051-0.258,0.074c-0.82,0.232-1.62,0.467-2.409,0.704  c-0.226,0.07-0.45,0.137-0.675,0.206c-0.715,0.218-1.416,0.44-2.103,0.662c-0.147,0.047-0.295,0.093-0.44,0.141  c-0.837,0.271-1.653,0.546-2.449,0.82c-0.11,0.038-0.213,0.075-0.321,0.115c-0.688,0.24-1.358,0.479-2.015,0.72  c-0.169,0.062-0.336,0.122-0.501,0.185c-0.712,0.262-1.409,0.527-2.086,0.791c-0.024,0.009-0.048,0.018-0.072,0.026  c-0.738,0.289-1.453,0.577-2.152,0.864c-0.083,0.034-0.165,0.069-0.249,0.105c-0.611,0.252-1.206,0.504-1.785,0.755  c-0.051,0.022-0.11,0.045-0.161,0.068l49.111-327.411c28.62-3.62,62.741-6.413,99.192-8.108c4.658-0.217,8.255-4.167,8.038-8.824  c-0.215-4.656-4.167-8.283-8.822-8.038c-5.082,0.236-10.112,0.496-15.097,0.774c-0.028,0.002-0.057,0-0.083,0.002  c-1.25,0.07-2.484,0.143-3.726,0.214c-0.231,0.012-0.464,0.025-0.694,0.039c-27.816,1.625-53.375,3.841-76.201,6.609  c-0.002,0-0.005,0-0.005,0l2.558-17.06c0.694-0.083,1.391-0.167,2.09-0.251c0.666-0.077,1.33-0.158,2-0.235  c0.978-0.114,1.967-0.224,2.954-0.334c0.679-0.077,1.351-0.155,2.033-0.231c0.996-0.11,1.997-0.216,3-0.325  c0.688-0.073,1.374-0.147,2.066-0.221c1.033-0.111,2.077-0.216,3.118-0.323c0.671-0.07,1.338-0.138,2.011-0.208  c1.063-0.106,2.134-0.21,3.207-0.314c0.675-0.066,1.345-0.133,2.022-0.198c1.156-0.11,2.321-0.218,3.486-0.327  c0.595-0.055,1.187-0.113,1.787-0.165c1.413-0.128,2.837-0.257,4.266-0.38c0.369-0.032,0.731-0.068,1.102-0.098  c1.787-0.156,3.587-0.307,5.398-0.457c0.622-0.051,1.248-0.1,1.87-0.15c1.197-0.097,2.391-0.195,3.6-0.289  c0.809-0.063,1.628-0.124,2.444-0.187c1.031-0.079,2.057-0.158,3.095-0.234c0.855-0.064,1.718-0.125,2.578-0.187  c1.015-0.072,2.027-0.147,3.048-0.219c0.879-0.061,1.764-0.122,2.649-0.18c1-0.069,1.995-0.138,3.002-0.205  c0.918-0.062,1.847-0.118,2.769-0.179c0.989-0.064,1.978-0.126,2.972-0.19c0.918-0.056,1.847-0.113,2.769-0.169  c1.007-0.061,2.013-0.12,3.025-0.18c0.934-0.055,1.872-0.108,2.809-0.162c1.007-0.056,2.015-0.114,3.026-0.17  c0.954-0.051,1.91-0.101,2.866-0.152c1.007-0.055,2.011-0.108,3.023-0.16c0.969-0.05,1.946-0.098,2.919-0.146  c1.005-0.051,2.009-0.101,3.016-0.147c0.985-0.048,1.974-0.095,2.963-0.138c1.007-0.046,2.018-0.092,3.028-0.137  c0.987-0.043,1.976-0.086,2.967-0.128c1.031-0.044,2.062-0.087,3.097-0.127c0.987-0.042,1.976-0.081,2.967-0.119  c1.033-0.039,2.071-0.08,3.108-0.118c0.994-0.036,1.987-0.073,2.982-0.109c1.056-0.038,2.114-0.074,3.171-0.11  c0.987-0.033,1.974-0.068,2.963-0.099c1.066-0.034,2.134-0.069,3.203-0.099c0.994-0.03,1.99-0.062,2.984-0.09  c1.075-0.032,2.154-0.062,3.233-0.09c0.994-0.027,1.985-0.055,2.98-0.08c1.09-0.028,2.182-0.054,3.277-0.081  c0.989-0.024,1.974-0.047,2.965-0.07c1.119-0.025,2.242-0.048,3.365-0.071c0.971-0.022,1.941-0.042,2.914-0.061  c1.146-0.021,2.294-0.042,3.445-0.063c0.952-0.017,1.899-0.033,2.853-0.048c1.178-0.019,2.365-0.035,3.547-0.053  c0.934-0.014,1.868-0.026,2.806-0.037c1.194-0.017,2.391-0.028,3.587-0.042c0.929-0.011,1.857-0.023,2.787-0.03  c1.268-0.014,2.541-0.022,3.811-0.03c0.855-0.007,1.708-0.015,2.565-0.02c1.411-0.009,2.829-0.016,4.243-0.02  c0.726-0.005,1.448-0.01,2.176-0.012c2.138-0.007,4.279-0.01,6.424-0.01s4.286,0.003,6.426,0.01  c0.726,0.002,1.451,0.008,2.176,0.012c1.413,0.005,2.831,0.011,4.243,0.02c0.855,0.006,1.708,0.014,2.562,0.02  c1.273,0.009,2.543,0.018,3.814,0.03c0.93,0.009,1.857,0.02,2.785,0.03c1.197,0.014,2.393,0.026,3.589,0.042  c0.936,0.011,1.87,0.024,2.806,0.037c1.183,0.018,2.368,0.034,3.547,0.053c0.952,0.016,1.901,0.032,2.85,0.048  c1.15,0.021,2.299,0.042,3.447,0.063c0.973,0.019,1.943,0.038,2.914,0.061c1.123,0.023,2.244,0.045,3.362,0.071  c0.991,0.022,1.978,0.046,2.965,0.07c1.095,0.027,2.186,0.053,3.279,0.081c0.996,0.025,1.987,0.053,2.977,0.08  c1.079,0.028,2.158,0.059,3.233,0.09c0.998,0.028,1.993,0.06,2.986,0.09c1.068,0.03,2.134,0.065,3.2,0.099  c0.989,0.032,1.976,0.066,2.963,0.099c1.059,0.035,2.117,0.071,3.171,0.11c0.996,0.035,1.99,0.072,2.982,0.109  c1.04,0.038,2.075,0.079,3.11,0.118c0.991,0.038,1.978,0.078,2.965,0.119c1.035,0.041,2.066,0.083,3.097,0.127  c0.991,0.043,1.98,0.086,2.967,0.128c1.013,0.045,2.022,0.091,3.03,0.137c0.987,0.044,1.976,0.09,2.961,0.138  c1.007,0.046,2.011,0.097,3.016,0.147c0.976,0.048,1.949,0.097,2.921,0.146c1.008,0.052,2.015,0.105,3.02,0.16  c0.959,0.051,1.914,0.101,2.868,0.152c1.011,0.057,2.018,0.115,3.027,0.17c0.936,0.054,1.875,0.107,2.806,0.162  c1.011,0.06,2.018,0.119,3.025,0.18c0.925,0.057,1.851,0.114,2.769,0.169c0.996,0.064,1.983,0.126,2.972,0.19  c0.925,0.061,1.851,0.117,2.772,0.179c1.005,0.066,2,0.136,3.002,0.205c0.881,0.06,1.769,0.119,2.647,0.18  c1.022,0.072,2.036,0.147,3.048,0.219c0.862,0.062,1.723,0.123,2.578,0.187c1.038,0.077,2.064,0.155,3.095,0.234  c0.816,0.063,1.635,0.124,2.446,0.187c1.206,0.095,2.402,0.192,3.598,0.289c0.622,0.05,1.25,0.099,1.87,0.15  c1.811,0.15,3.611,0.3,5.398,0.457c0.369,0.03,0.734,0.066,1.101,0.098c1.429,0.124,2.855,0.252,4.268,0.38  c0.598,0.054,1.189,0.111,1.787,0.165c1.165,0.109,2.327,0.217,3.484,0.327c0.68,0.065,1.347,0.132,2.022,0.198  c1.072,0.105,2.145,0.209,3.207,0.314c0.675,0.07,1.34,0.138,2.013,0.208c1.042,0.107,2.084,0.212,3.117,0.323  c0.694,0.073,1.378,0.147,2.066,0.221c1.003,0.109,2.006,0.215,3,0.325c0.681,0.075,1.356,0.154,2.033,0.231  c0.987,0.11,1.976,0.221,2.954,0.334c0.671,0.078,1.335,0.159,2,0.235c0.699,0.083,1.398,0.167,2.092,0.251l2.558,17.059  c-0.731-0.089-1.477-0.176-2.216-0.263c-0.793-0.093-1.58-0.189-2.378-0.281c-0.936-0.109-1.886-0.215-2.833-0.321  c-0.765-0.088-1.525-0.176-2.294-0.26c-1.31-0.146-2.635-0.289-3.961-0.43c-1.093-0.117-2.191-0.231-3.293-0.347  c-1.031-0.106-2.055-0.214-3.095-0.317c-0.846-0.086-1.706-0.168-2.558-0.253c-0.939-0.092-1.872-0.186-2.815-0.276  c-0.872-0.084-1.754-0.167-2.633-0.248c-0.932-0.088-1.861-0.176-2.8-0.261c-0.901-0.081-1.808-0.162-2.714-0.243  c-0.932-0.082-1.863-0.165-2.8-0.246c-0.916-0.08-1.84-0.158-2.763-0.235c-0.941-0.08-1.879-0.16-2.827-0.237  c-0.927-0.077-1.861-0.153-2.795-0.226c-0.948-0.075-1.896-0.152-2.85-0.226c-0.952-0.073-1.905-0.147-2.864-0.218  c-0.95-0.072-1.902-0.143-2.855-0.214c-0.96-0.071-1.923-0.141-2.887-0.21c-0.967-0.071-1.937-0.138-2.91-0.207  c-0.967-0.069-1.932-0.134-2.903-0.199c-0.982-0.068-1.967-0.132-2.952-0.197c-0.98-0.065-1.958-0.128-2.94-0.191  c-0.991-0.064-1.987-0.124-2.982-0.187c-0.978-0.061-1.956-0.12-2.936-0.18c-1.035-0.062-2.077-0.122-3.117-0.181  c-0.957-0.056-1.91-0.111-2.871-0.165c-1.099-0.061-2.204-0.12-3.307-0.18c-0.913-0.048-1.822-0.099-2.739-0.147  c-1.241-0.065-2.495-0.127-3.745-0.19c-0.787-0.038-1.57-0.08-2.361-0.12c-2.004-0.097-4.017-0.191-6.037-0.284  c-0.82-0.035-1.646-0.071-2.468-0.106c-1.246-0.055-2.49-0.111-3.743-0.162c-0.917-0.039-1.838-0.073-2.756-0.111  c-1.169-0.048-2.338-0.095-3.514-0.141c-0.936-0.034-1.879-0.069-2.82-0.101c-1.165-0.044-2.329-0.086-3.501-0.127  c-0.96-0.033-1.928-0.064-2.89-0.097c-1.149-0.037-2.299-0.075-3.45-0.11c-0.978-0.033-1.958-0.061-2.936-0.09  c-1.158-0.035-2.319-0.069-3.482-0.1c-0.978-0.027-1.958-0.054-2.94-0.08c-1.165-0.029-2.332-0.06-3.501-0.088  c-0.985-0.024-1.969-0.048-2.958-0.071c-1.165-0.026-2.334-0.052-3.503-0.077c-1.004-0.02-2.011-0.042-3.018-0.062  c-1.169-0.022-2.341-0.044-3.512-0.065c-0.989-0.017-1.976-0.035-2.967-0.051c-1.224-0.021-2.451-0.038-3.677-0.056  c-0.957-0.015-1.91-0.027-2.868-0.042c-1.255-0.016-2.514-0.029-3.774-0.043c-0.934-0.012-1.868-0.021-2.804-0.03  c-1.312-0.014-2.626-0.024-3.941-0.034c-0.888-0.007-1.776-0.015-2.666-0.02c-1.455-0.011-2.914-0.016-4.376-0.023  c-0.747-0.004-1.494-0.009-2.244-0.011c-2.213-0.008-4.427-0.011-6.646-0.011c-4.296,0-8.611,0.016-12.91,0.042  c-0.136,0-0.27,0.002-0.406,0.003c-3.987,0.025-7.96,0.063-11.894,0.111c-0.013,0-0.026,0.002-0.037,0.002  c-0.244,0.002-0.491,0.005-0.734,0.007c-4.66,0.061-8.389,3.886-8.332,8.548c0.062,4.661,3.906,8.387,8.548,8.332  c2.853-0.037,5.739-0.06,8.62-0.083c1.473-0.011,2.931-0.032,4.409-0.041c4.243-0.025,8.502-0.041,12.738-0.041  c2.23,0,4.457,0.003,6.68,0.011c0.719,0.002,1.432,0.009,2.152,0.011c1.499,0.007,3,0.011,4.494,0.023  c0.89,0.006,1.776,0.015,2.664,0.022c1.319,0.009,2.64,0.02,3.954,0.032c0.941,0.01,1.877,0.021,2.815,0.033  c1.266,0.015,2.534,0.027,3.798,0.043c0.952,0.014,1.899,0.028,2.848,0.042c1.24,0.019,2.479,0.037,3.717,0.057  c0.969,0.016,1.934,0.033,2.901,0.051c1.215,0.023,2.431,0.044,3.641,0.069c0.969,0.019,1.934,0.039,2.901,0.06  c1.202,0.027,2.405,0.053,3.602,0.079c0.971,0.024,1.939,0.048,2.905,0.071c1.189,0.029,2.375,0.059,3.558,0.09  c0.976,0.025,1.947,0.054,2.921,0.08c1.169,0.033,2.338,0.068,3.503,0.101c0.973,0.028,1.943,0.061,2.912,0.09  c1.162,0.037,2.327,0.073,3.486,0.114c0.961,0.032,1.916,0.065,2.873,0.098c1.16,0.042,2.317,0.082,3.473,0.125  c0.959,0.035,1.914,0.071,2.868,0.108c1.141,0.045,2.279,0.09,3.415,0.136c0.959,0.037,1.914,0.077,2.871,0.118  c1.137,0.046,2.271,0.097,3.399,0.145c0.939,0.042,1.872,0.083,2.806,0.126c1.134,0.052,2.266,0.105,3.398,0.16  c0.932,0.044,1.863,0.088,2.793,0.134c1.119,0.055,2.23,0.114,3.343,0.169c0.927,0.048,1.852,0.096,2.774,0.145  c1.121,0.06,2.235,0.122,3.348,0.181c0.906,0.051,1.813,0.1,2.714,0.153c1.116,0.062,2.226,0.127,3.339,0.194  c0.888,0.053,1.778,0.106,2.661,0.16c1.13,0.068,2.251,0.138,3.374,0.21c0.853,0.053,1.708,0.106,2.558,0.162  c1.146,0.073,2.283,0.151,3.42,0.227c0.82,0.055,1.644,0.109,2.46,0.164c1.146,0.079,2.281,0.161,3.42,0.241  c0.807,0.059,1.614,0.114,2.416,0.172c1.169,0.086,2.329,0.173,3.492,0.261c0.745,0.055,1.497,0.111,2.239,0.168  c1.224,0.095,2.435,0.191,3.648,0.288c0.681,0.056,1.367,0.109,2.046,0.164c1.301,0.107,2.592,0.215,3.881,0.323  c0.576,0.051,1.158,0.097,1.732,0.147c1.736,0.149,3.461,0.3,5.176,0.457c0.118,0.009,0.237,0.02,0.356,0.029  c1.849,0.168,3.683,0.34,5.506,0.512c0.348,0.034,0.685,0.068,1.033,0.101c1.453,0.14,2.903,0.28,4.338,0.425  c0.62,0.062,1.231,0.126,1.849,0.189c1.151,0.117,2.306,0.235,3.447,0.354c0.699,0.073,1.386,0.149,2.08,0.223  c1.051,0.114,2.101,0.226,3.141,0.341c0.731,0.081,1.451,0.164,2.179,0.245c0.985,0.111,1.969,0.222,2.945,0.335  c0.749,0.087,1.485,0.174,2.228,0.263c0.945,0.113,1.895,0.224,2.831,0.338c0.743,0.09,1.477,0.182,2.213,0.275  c0.688,0.086,1.374,0.17,2.055,0.258l7.393,49.314l43.208,288.022C474.279,460.667,453.997,466.812,433.491,472.062"/>
<g>
</g>
<g>
</g>
<g>
</g>
<g>
</g>
<g>
</g>
<g>
</g>
<g>
</g>
<g>
</g>
<g>
</g>
<g>
</g>
<g>
</g>
<g>
</g>
<g>
</g>
<g>
</g>
<g>
</g>
</svg>
