<?xml version="1.0" encoding="iso-8859-1"?>
<!-- Generator: Adobe Illustrator 19.0.0, SVG Export Plug-In . SVG Version: 6.00 Build 0)  -->
<svg xmlns="http://www.w3.org/2000/svg" xmlns:xlink="http://www.w3.org/1999/xlink" version="1.1" id="Layer_1" x="0px" y="0px" viewBox="0 0 512 512" style="enable-background:new 0 0 512 512;" xml:space="preserve">
<path style="fill:#E79275;" d="M445.7,503.56H66.3c-34.889,0-61.841-30.658-57.374-65.267L40.45,193.931  c3.721-28.855,28.286-50.458,57.374-50.458h316.352c29.088,0,53.654,21.603,57.374,50.458l31.526,244.362  C507.54,472.902,480.589,503.56,445.7,503.56"/>
<path style="fill:#D37F66;" d="M464.76,173.236c-8.35-4.636-17.937-7.258-28.074-7.258H120.324  c-29.088,0-53.653,21.605-57.365,50.457L38.36,407.057c-7.664-3.432-15.888-5.84-24.486-7.078l-4.951,38.316l31.53-244.365  c3.713-28.852,28.278-50.457,57.365-50.457H414.18C435.74,143.473,454.812,155.345,464.76,173.236"/>
<g>
	<path style="fill:#FFD89A;" d="M210.05,267.253h-65.64c-12.947,0-23.444-10.497-23.444-23.443v-20.631   c0-12.946,10.497-23.443,23.444-23.443h65.64c12.947,0,23.444,10.497,23.444,23.443v20.631   C233.494,256.756,222.998,267.253,210.05,267.253"/>
	<path style="fill:#FFD89A;" d="M367.589,267.253h-65.64c-12.949,0-23.445-10.497-23.445-23.443v-20.631   c0-12.946,10.497-23.443,23.445-23.443h65.64c12.949,0,23.443,10.497,23.443,23.443v20.631   C391.031,256.756,380.537,267.253,367.589,267.253"/>
	<path style="fill:#FFD89A;" d="M93.411,491.944c0,3.938-0.244,7.807-0.72,11.616H66.294c-34.888,0-61.829-30.654-57.37-65.269   l4.946-38.309C58.85,406.453,93.411,445.168,93.411,491.944"/>
</g>
<path style="fill:#F5C282;" d="M38.236,496.315c-0.563-0.315-1.114-0.631-1.655-0.958c-0.551-0.326-1.092-0.664-1.631-1.012h-0.012  c-0.529-0.35-1.047-0.698-1.564-1.058c-0.53-0.36-1.047-0.731-1.554-1.114c-0.484-0.359-0.956-0.72-1.418-1.08  c-0.023-0.022-0.055-0.045-0.09-0.078c-0.493-0.396-0.988-0.801-1.461-1.206c-0.485-0.416-0.969-0.833-1.43-1.26  c-0.958-0.855-1.868-1.755-2.757-2.678c-0.428-0.44-0.844-0.889-1.26-1.35c-1.574-1.733-3.049-3.578-4.399-5.491  c-0.27-0.383-0.53-0.765-0.789-1.149c-2.599-3.881-4.736-8.079-6.347-12.512c-0.113-0.315-0.225-0.641-0.338-0.958  c-0.484-1.429-0.923-2.869-1.294-4.332c-0.123-0.461-0.235-0.923-0.338-1.384c-0.113-0.461-0.214-0.922-0.305-1.395  c-0.113-0.529-0.213-1.068-0.303-1.609c-0.113-0.619-0.213-1.238-0.293-1.868c-0.056-0.359-0.101-0.709-0.135-1.068  c-0.056-0.371-0.09-0.755-0.135-1.125c-0.044-0.485-0.09-0.968-0.123-1.452c-0.034-0.45-0.069-0.913-0.09-1.384v-0.135  c-0.034-0.428-0.046-0.866-0.057-1.293c-0.078-2.982,0.068-6.01,0.461-9.071l4.951-38.316c8.598,1.238,16.822,3.646,24.486,7.078  L31.427,460.8C29.774,473.639,32.441,485.927,38.236,496.315"/>
<path style="fill:#B0DBFF;" d="M278.505,143.473h-45.011V132.22c0-12.43,10.076-22.505,22.505-22.505s22.506,10.076,22.506,22.505  V143.473z"/>
<path style="fill:#FFD89A;" d="M445.705,503.56h-26.397c-0.477-3.81-0.721-7.678-0.721-11.616c0-46.775,34.563-85.492,79.541-91.961  l4.947,38.309C507.536,472.907,480.592,503.56,445.705,503.56"/>
<path style="fill:#B0DBFF;" d="M374.559,413.538H137.44c-8.788,0-15.624-7.639-14.653-16.373l7.976-71.786  c0.83-7.466,7.141-13.116,14.654-13.116h221.165c7.515,0,13.825,5.651,14.654,13.116l7.976,71.786  C390.184,405.899,383.347,413.538,374.559,413.538"/>
<path style="fill:#90C8EE;" d="M382.312,335.028c-0.889-0.169-1.812-0.259-2.746-0.259H158.393c-7.506,0-13.817,5.649-14.651,13.121  l-7.292,65.615c-8.305-0.55-14.606-7.933-13.661-16.339l7.967-71.781c0.832-7.473,7.145-13.121,14.662-13.121h221.16  c7.518,0,13.83,5.649,14.662,13.121L382.312,335.028z"/>
<g>
	<path style="fill:#F5C282;" d="M233.472,222.264c-0.305-0.011-0.609-0.023-0.913-0.023h-65.649   c-12.941,0-23.439,10.499-23.439,23.439v20.638c0,0.305,0.011,0.608,0.022,0.913c-12.523-0.474-22.528-10.78-22.528-23.418v-20.638   c0-12.941,10.499-23.439,23.439-23.439h65.649C222.692,199.736,232.999,209.741,233.472,222.264"/>
	<path style="fill:#F5C282;" d="M391.01,222.264c-0.304-0.011-0.608-0.023-0.913-0.023h-65.649   c-12.941,0-23.439,10.499-23.439,23.439v20.638c0,0.305,0.011,0.608,0.022,0.913c-12.524-0.474-22.528-10.78-22.528-23.418v-20.638   c0-12.941,10.499-23.439,23.439-23.439h65.649C380.23,199.736,390.536,209.741,391.01,222.264"/>
</g>
<path style="fill:#FFB76D;" d="M334.769,244.747c-12.43,0-22.505-10.076-22.505-22.505V109.714c0-31.024-25.24-56.264-56.264-56.264  s-56.264,25.24-56.264,56.264v112.527c0,12.43-10.076,22.505-22.505,22.505c-12.43,0-22.505-10.076-22.505-22.505V109.714  C154.725,53.871,200.157,8.44,256,8.44s101.275,45.432,101.275,101.275v112.527C357.274,234.672,347.199,244.747,334.769,244.747"/>
<path style="fill:#F79C59;" d="M337.941,50.277c-16.699-12.163-37.247-19.332-59.436-19.332  c-78.769,0-101.275,33.758-101.275,101.275v112.527c-12.435,0-22.505-10.07-22.505-22.505V109.714  C154.725,53.867,200.151,8.44,256,8.44C289.657,8.44,319.533,24.936,337.941,50.277"/>
<path d="M32.082,192.85L0.553,437.214c-2.441,18.905,3.378,37.954,15.961,52.268c6.293,7.154,13.976,12.784,22.468,16.625  C47.469,509.949,56.769,512,66.294,512h0.007h26.391h326.616h26.391h0.007c10.715,0,21.143-2.596,30.456-7.413  c7.246-3.749,13.817-8.842,19.324-15.105c12.583-14.313,18.402-33.363,15.962-52.268l-31.531-244.362  c-4.243-32.962-32.504-57.819-65.736-57.819h-48.466v-25.319C365.714,49.217,316.496,0,256,0S146.285,49.217,146.285,109.714v25.319  H97.82C64.586,135.033,36.326,159.89,32.082,192.85 M270.066,135.033h-28.132v-2.813c0-7.757,6.309-14.066,14.066-14.066  c7.757,0,14.066,6.309,14.066,14.066V135.033z M256,101.275c-17.064,0-30.945,13.881-30.945,30.945v2.813h-16.879v-25.319  c0-26.372,21.452-47.824,47.824-47.824c26.371,0,47.824,21.452,47.824,47.824v25.319h-16.879v-2.813  C286.945,115.156,273.063,101.275,256,101.275 M177.23,253.187c17.064,0,30.945-13.881,30.945-30.945v-14.066h1.879  c8.271,0,15,6.729,15,15v20.638c0,8.271-6.729,15-15,15h-65.649c-8.271,0-15-6.729-15-15v-20.638c0-8.271,6.729-15,15-15h1.879  v14.066C146.285,239.305,160.167,253.187,177.23,253.187 M334.769,253.187c17.064,0,30.945-13.881,30.945-30.945v-14.066h1.879  c8.271,0,15,6.729,15,15v20.638c0,8.271-6.729,15-15,15h-65.649c-8.271,0-15-6.729-15-15v-20.638c0-8.271,6.729-15,15-15h1.879  v14.066C303.824,239.305,317.705,253.187,334.769,253.187 M163.164,109.714c0-51.19,41.645-92.835,92.835-92.835  s92.835,41.645,92.835,92.835v33.758v56.264v22.506c0,7.757-6.309,14.066-14.066,14.066s-14.066-6.309-14.066-14.066v-22.506  v-56.264v-33.758c0-35.678-29.025-64.703-64.703-64.703s-64.703,29.025-64.703,64.703v33.758v56.264v22.506  c0,7.757-6.309,14.066-14.066,14.066c-7.757,0-14.066-6.309-14.066-14.066v-22.506v-56.264V109.714z M146.285,191.297h-1.879  c-17.578,0-31.879,14.301-31.879,31.879v20.638c0,17.578,14.301,31.879,31.879,31.879h65.649c17.578,0,31.879-14.301,31.879-31.879  v-20.638c0-17.578-14.301-31.879-31.879-31.879h-1.879v-39.385h25.319h45.011h25.319v39.385h-1.879  c-17.578,0-31.879,14.301-31.879,31.879v20.638c0,17.578,14.301,31.879,31.879,31.879h65.649c17.578,0,31.879-14.301,31.879-31.879  v-20.638c0-17.578-14.301-31.879-31.879-31.879h-1.879v-39.385h48.466c24.771,0,45.832,18.527,48.996,43.098l25.57,198.161  c-9.474,2.168-18.556,5.671-27.08,10.492c-4.057,2.294-5.486,7.444-3.191,11.501c2.296,4.057,7.444,5.485,11.501,3.191  c6.614-3.74,13.627-6.542,20.936-8.368l3.794,29.383c1.816,14.099-2.524,28.304-11.908,38.974  c-4.102,4.664-8.995,8.459-14.393,11.25c-6.943,3.591-14.716,5.526-22.706,5.526h-18.612c-0.039-1.059-0.06-2.119-0.06-3.177  c0-19.542,6.825-38.597,19.22-53.655c2.962-3.599,2.446-8.917-1.153-11.88c-3.598-2.964-8.918-2.446-11.878,1.152  c-14.876,18.072-23.067,40.936-23.067,64.381c0,1.058,0.017,2.118,0.049,3.177H101.801c0.033-1.059,0.051-2.119,0.051-3.177  c0-23.306-8.105-46.063-22.822-64.083c-2.949-3.61-8.264-4.145-11.875-1.198c-3.611,2.948-4.148,8.266-1.2,11.875  c12.263,15.015,19.017,33.981,19.017,53.407c0,1.058-0.021,2.118-0.061,3.177H66.301c-7.989,0-15.763-1.935-22.706-5.526  c-5.398-2.791-10.293-6.586-14.393-11.25c-9.193-10.453-13.529-24.299-11.995-38.111c0.03-0.287,0.051-0.573,0.088-0.859  l0.303-2.348l3.491-27.039c7.201,1.799,14.118,4.545,20.645,8.204c4.066,2.28,9.209,0.83,11.489-3.236  c2.279-4.064,0.83-9.209-3.236-11.488c-8.422-4.722-17.387-8.158-26.731-10.297l25.568-198.163  c3.163-24.568,24.226-43.095,48.996-43.095h48.467V191.297z"/>
<path d="M154.725,365.714h171.604v14.066c0,4.661,3.779,8.44,8.44,8.44s8.44-3.779,8.44-8.44v-14.066h14.066  c4.661,0,8.44-3.779,8.44-8.44s-3.779-8.44-8.44-8.44H154.725c-4.662,0-8.44,3.779-8.44,8.44S150.063,365.714,154.725,365.714"/>
<path d="M137.44,421.978h237.118c6.587,0,12.883-2.814,17.276-7.722s6.494-11.477,5.768-18.022l-7.977-71.786  c-1.306-11.757-11.212-20.624-23.043-20.624H145.417c-11.83,0-21.736,8.867-23.043,20.624l-7.977,71.786  c-0.727,6.545,1.375,13.114,5.767,18.022C124.557,419.164,130.854,421.978,137.44,421.978 M131.173,398.096l7.976-71.785  c0.356-3.198,3.051-5.608,6.268-5.608h221.165c3.217,0,5.911,2.411,6.267,5.608l7.976,71.785c0.271,2.437-0.866,4.117-1.568,4.902  c-0.702,0.784-2.246,2.1-4.699,2.1H137.44c-2.452,0-3.996-1.315-4.698-2.1C132.039,402.215,130.903,400.534,131.173,398.096"/>
<g>
</g>
<g>
</g>
<g>
</g>
<g>
</g>
<g>
</g>
<g>
</g>
<g>
</g>
<g>
</g>
<g>
</g>
<g>
</g>
<g>
</g>
<g>
</g>
<g>
</g>
<g>
</g>
<g>
</g>
</svg>
