<?xml version="1.0" encoding="iso-8859-1"?>
<!-- Generator: Adobe Illustrator 19.0.0, SVG Export Plug-In . SVG Version: 6.00 Build 0)  -->
<svg xmlns="http://www.w3.org/2000/svg" xmlns:xlink="http://www.w3.org/1999/xlink" version="1.1" id="Layer_1" x="0px" y="0px" viewBox="0 0 512 512" style="enable-background:new 0 0 512 512;" xml:space="preserve">
<path style="fill:#FF127F;" d="M373.817,170.682c-18.86-19.815-30.63-45.201-32.983-72.22H227.43  c-2.353,27.019-14.122,52.404-32.983,72.22c-21.133,22.202-34.096,52.249-34.096,85.318c0,33.073,12.963,63.117,34.096,85.318  c18.861,19.817,30.63,45.202,32.983,72.22h113.405c2.353-27.018,14.123-52.402,32.983-72.22  c21.133-22.202,34.096-52.246,34.096-85.318C407.913,222.929,394.95,192.883,373.817,170.682 M340.396,326.275  c-15.405,12.356-34.974,19.747-56.264,19.747s-40.859-7.391-56.264-19.747c-20.581-16.497-33.758-41.85-33.758-70.275  s13.177-53.776,33.758-70.272c15.405-12.356,34.974-19.75,56.264-19.75s40.859,7.393,56.264,19.75  c20.581,16.497,33.758,41.848,33.758,70.272C374.154,284.426,360.977,309.778,340.396,326.275"/>
<path style="fill:#E70C6A;" d="M407.913,256c0,33.073-12.963,63.117-34.096,85.318c-18.86,19.815-30.63,45.202-32.983,72.22h-22.505  c2.353-27.018,14.123-52.404,32.983-72.22c21.133-22.202,34.096-52.246,34.096-85.318c0-33.072-12.963-63.117-34.096-85.318  c-18.86-19.815-30.63-45.201-32.983-72.22h22.505c2.353,27.019,14.123,52.404,32.983,72.22  C394.95,192.883,407.913,222.927,407.913,256"/>
<path style="fill:#FF127F;" d="M440.962,250.374c-2.498-9.71-11.309-16.879-21.797-16.879h-11.759h-1.542  c1.024,5.504,1.665,11.14,1.913,16.879c0.09,1.868,0.135,3.747,0.135,5.626c0,3.793-0.169,7.552-0.506,11.253  c-0.338,3.805-0.855,7.563-1.542,11.253h13.301c12.434,0,22.505-10.07,22.505-22.505  C441.671,254.066,441.423,252.174,440.962,250.374"/>
<path style="fill:#E70C6A;" d="M441.671,256c0,12.435-10.071,22.505-22.505,22.505h-13.301c0.686-3.69,1.204-7.448,1.542-11.253  c0.124-1.384,0.225-2.767,0.304-4.174h11.455c9.722,0,18.004-6.156,21.155-14.787c0.248,0.675,0.461,1.374,0.641,2.082  C441.423,252.174,441.671,254.066,441.671,256"/>
<path style="fill:#7984EA;" d="M340.396,145.712c-16.879-8.631-35.998-13.492-56.264-13.492s-39.385,4.861-56.264,13.492  c-40.082,20.492-67.516,62.183-67.516,110.288s27.434,89.798,67.516,110.289c16.879,8.632,35.998,13.491,56.264,13.491  s39.385-4.859,56.264-13.491c40.082-20.491,67.516-62.184,67.516-110.289S380.478,166.204,340.396,145.712 M340.396,326.275  c-15.405,12.356-34.974,19.747-56.264,19.747s-40.859-7.391-56.264-19.747c-20.581-16.497-33.758-41.85-33.758-70.275  s13.177-53.776,33.758-70.272c15.405-12.356,34.974-19.75,56.264-19.75s40.859,7.393,56.264,19.75  c20.581,16.497,33.758,41.848,33.758,70.272C374.154,284.426,360.977,309.778,340.396,326.275"/>
<path style="fill:#6577D6;" d="M407.913,256c0,37.033-16.249,70.251-42.018,92.925c19.152-21.795,30.765-50.379,30.765-81.672  c0-48.105-27.434-89.796-67.516-110.288c-16.879-8.631-35.998-13.492-56.264-13.492s-39.385,4.861-56.264,13.492  c-9.227,4.725-17.792,10.567-25.499,17.363c10.286-11.703,22.742-21.449,36.751-28.616c16.879-8.631,35.998-13.492,56.264-13.492  s39.385,4.861,56.264,13.492C380.478,166.204,407.913,207.895,407.913,256"/>
<path style="fill:#FFB76D;" d="M182.858,424.791c0,21.459,8.586,40.916,22.506,55.127c-0.18,0.191-0.371,0.383-0.563,0.574  c-14.315,14.303-34.108,23.136-55.971,23.068c-43.582-0.145-78.499-36.345-78.499-79.938V88.2c0-43.438,34.737-79.433,78.174-79.761  c22.279-0.169,42.433,8.912,56.859,23.643c-13.92,14.212-22.506,33.667-22.506,55.126v97.606  c-14.189,20.132-22.505,44.686-22.505,71.185c0,26.501,8.317,51.055,22.505,71.186V424.791z"/>
<path style="fill:#FFA861;" d="M160.386,502.751c-3.771,0.551-7.629,0.821-11.558,0.809c-43.581-0.145-78.499-36.345-78.499-79.938  V88.2c0-43.436,34.737-79.433,78.172-79.761c4.042-0.035,8.013,0.246,11.896,0.809C122.049,14.787,92.836,48.364,92.836,88.2  v335.422C92.836,463.491,122.049,497.18,160.386,502.751"/>
<path style="fill:#FFE8A5;" d="M227.869,87.209v1.204c0,3.365-0.146,6.719-0.439,10.049h113.405  c-0.293-3.33-0.439-6.683-0.439-10.049v-1.204c0-43.503-35.266-78.769-78.769-78.769H149.099  C192.603,8.44,227.869,43.706,227.869,87.209 M227.869,423.589v1.202c0,21.752-8.822,41.444-23.068,55.701  c-14.257,14.246-33.95,23.068-55.701,23.068h112.527c43.503,0,78.769-35.266,78.769-78.769v-1.202c0-3.365,0.146-6.719,0.439-10.051  H227.43C227.722,416.87,227.869,420.224,227.869,423.589"/>
<g>
	<path style="fill:#F2D187;" d="M340.835,413.538c-0.293,3.332-0.439,6.685-0.439,10.049v1.204   c0,43.503-35.266,78.769-78.769,78.769H149.099c14.854,0,28.74-15.371,40.6-22.505h60.675c43.503,0,67.516-24.013,67.516-67.516   H340.835z"/>
	<path style="fill:#F2D187;" d="M340.835,98.462c-0.293-3.33-0.439-6.683-0.439-10.049v-1.204c0-43.503-35.266-78.769-78.769-78.769   H149.099c14.854,0,28.74,15.371,40.6,22.505h60.675c43.503,0,67.516,24.013,67.516,67.516H340.835z"/>
</g>
<path id="SVGCleanerId_0" style="fill:#74DBF6;" d="M374.154,256c0,28.426-13.177,53.778-33.758,70.275  c-15.405,12.353-34.974,19.747-56.264,19.747s-40.859-7.393-56.264-19.747c-20.581-16.497-33.758-41.85-33.758-70.275  s13.177-53.776,33.758-70.272c15.405-12.356,34.974-19.75,56.264-19.75s40.859,7.393,56.264,19.75  C360.977,202.224,374.154,227.576,374.154,256"/>
<g>
	<path id="SVGCleanerId_0_1_" style="fill:#74DBF6;" d="M374.154,256c0,28.426-13.177,53.778-33.758,70.275   c-15.405,12.353-34.974,19.747-56.264,19.747s-40.859-7.393-56.264-19.747c-20.581-16.497-33.758-41.85-33.758-70.275   s13.177-53.776,33.758-70.272c15.405-12.356,34.974-19.75,56.264-19.75s40.859,7.393,56.264,19.75   C360.977,202.224,374.154,227.576,374.154,256"/>
</g>
<g>
	<g>
		<path style="opacity:0.15;fill:#041012;enable-background:new    ;" d="M348.656,318.746c-2.577,2.678-5.345,5.188-8.26,7.528    c-15.405,12.353-34.974,19.747-56.264,19.747s-40.86-7.393-56.264-19.747c-20.581-16.497-33.758-41.85-33.758-70.275    s13.177-53.776,33.758-70.272c4.422-3.545,9.193-6.685,14.246-9.352c-15.788,16.215-25.499,38.349-25.499,62.745    c0,28.426,13.177,53.778,33.758,70.275c15.404,12.353,34.974,19.747,56.264,19.747    C321.818,329.143,336.108,325.384,348.656,318.746"/>
	</g>
</g>
<path d="M419.165,225.055h-6.453c-0.164-0.69-0.352-1.374-0.53-2.059l0,0c-5.549-21.631-16.524-41.609-32.252-58.131  c-17.634-18.529-28.531-42.372-30.686-67.135l-0.001-0.002v-0.005c-0.269-3.067-0.406-6.2-0.406-9.309v-1.205  C348.836,39.121,309.714,0,261.627,0H149.099c-0.056,0-0.11,0.007-0.164,0.009c-0.165,0-0.33-0.009-0.494-0.009  c-47.725,0.358-86.551,39.925-86.551,88.2v335.422c0,48.571,38.987,88.217,86.912,88.378c0.092,0,0.185,0,0.277,0  c0.009,0,0.017,0,0.023,0h112.525c48.087,0,87.209-39.121,87.209-87.209v-1.204c0-3.108,0.137-6.24,0.406-9.307v-0.004l0.001-0.005  c2.155-24.763,13.053-48.604,30.686-67.132c15.728-16.526,26.704-36.503,32.252-58.132v-0.002c0.177-0.685,0.365-1.369,0.53-2.059  h6.453c17.064,0,30.945-13.881,30.945-30.945S436.229,225.055,419.165,225.055 M399.363,260.881  c-0.01,0.213-0.016,0.426-0.025,0.639c-0.071,1.519-0.178,3.033-0.308,4.543c-0.028,0.316-0.055,0.634-0.084,0.947  c-0.136,1.444-0.302,2.882-0.493,4.314c-0.048,0.365-0.101,0.727-0.153,1.093c-0.204,1.427-0.429,2.846-0.684,4.252  c-0.063,0.343-0.131,0.681-0.197,1.024c-0.152,0.798-0.312,1.596-0.482,2.389c-0.116,0.542-0.232,1.086-0.354,1.624  c-0.122,0.539-0.257,1.075-0.387,1.614c-0.321,1.319-0.661,2.631-1.027,3.932c-0.036,0.129-0.071,0.259-0.108,0.389  c-13.786,48.265-58.296,83.699-110.927,83.699c-56.556,0-103.735-40.918-113.488-94.705c-0.055-0.297-0.104-0.593-0.156-0.89  c-0.12-0.697-0.24-1.393-0.348-2.094c-0.011-0.062-0.02-0.123-0.028-0.182c-0.066-0.435-0.123-0.87-0.182-1.305  c-0.092-0.655-0.182-1.312-0.266-1.971c-0.07-0.567-0.133-1.137-0.194-1.708c-0.106-0.962-0.199-1.93-0.279-2.899  c-0.002-0.024-0.002-0.051-0.005-0.074c-0.024-0.279-0.048-0.56-0.071-0.839c-0.003-0.046-0.006-0.092-0.009-0.138  c-0.084-1.169-0.152-2.341-0.2-3.514c-0.017-0.358-0.029-0.717-0.042-1.077c-0.044-1.31-0.074-2.624-0.074-3.941  c0-1.317,0.03-2.629,0.074-3.938c0.012-0.36,0.025-0.721,0.042-1.079c0.048-1.174,0.116-2.345,0.2-3.512  c0.003-0.046,0.006-0.092,0.009-0.138c0.02-0.281,0.046-0.56,0.071-0.839c0.002-0.026,0.005-0.051,0.007-0.077  c0.078-0.969,0.173-1.937,0.277-2.901c0.061-0.569,0.124-1.139,0.194-1.706c0.083-0.657,0.173-1.314,0.266-1.971  c0.06-0.433,0.117-0.87,0.182-1.303c0.009-0.062,0.018-0.12,0.028-0.185c0.108-0.701,0.226-1.395,0.348-2.092  c0.053-0.299,0.101-0.595,0.156-0.892c9.754-53.789,56.932-94.708,113.488-94.708c52.63,0,97.14,35.435,110.927,83.701  c0.037,0.129,0.073,0.261,0.109,0.392c0.366,1.299,0.704,2.608,1.026,3.925c0.131,0.54,0.264,1.077,0.387,1.618  c0.124,0.539,0.239,1.081,0.354,1.622c0.169,0.796,0.33,1.593,0.482,2.393c0.066,0.339,0.134,0.68,0.196,1.02  c0.258,1.409,0.483,2.829,0.685,4.255c0.052,0.362,0.105,0.727,0.153,1.093c0.191,1.43,0.356,2.868,0.493,4.312  c0.029,0.316,0.057,0.631,0.084,0.947c0.131,1.51,0.237,3.026,0.308,4.545c0.01,0.213,0.016,0.426,0.025,0.639  c0.068,1.622,0.11,3.251,0.11,4.879C399.473,257.631,399.43,259.258,399.363,260.881 M341.893,137.081  c-17.463-8.514-37.061-13.301-57.76-13.301c-20.661,0-40.229,4.767-57.666,13.255c4.061-9.662,6.916-19.769,8.465-30.134h98.414  C334.91,117.257,337.811,127.393,341.893,137.081 M261.627,16.879c38.779,0,70.33,31.552,70.33,70.33v1.204  c0,0.537,0.003,1.072,0.01,1.609h-95.669c0.007-0.537,0.01-1.072,0.01-1.609v-1.204c0-1.273-0.037-2.536-0.091-3.798  c-0.014-0.295-0.025-0.591-0.041-0.886c-0.064-1.2-0.149-2.393-0.259-3.578c-0.029-0.314-0.069-0.627-0.101-0.938  c-0.096-0.915-0.207-1.822-0.331-2.73c-0.056-0.406-0.108-0.818-0.168-1.224c-0.153-1.005-0.325-2.002-0.512-2.995  c-0.113-0.6-0.234-1.197-0.359-1.796c-0.098-0.466-0.203-0.932-0.307-1.395c-0.287-1.266-0.601-2.525-0.943-3.774  c-0.039-0.145-0.078-0.29-0.119-0.433c-3.904-13.985-11.264-26.846-21.684-37.486c-3.35-3.42-6.936-6.514-10.706-9.297h60.939  V16.879z M194.464,66.294c0.214-0.69,0.437-1.376,0.672-2.057c0.122-0.358,0.251-0.712,0.38-1.068  c0.235-0.646,0.478-1.288,0.73-1.925c0.138-0.348,0.277-0.697,0.42-1.042c0.284-0.681,0.582-1.354,0.886-2.024  c0.128-0.284,0.252-0.572,0.383-0.853c0.446-0.947,0.91-1.888,1.398-2.818c0.024-0.044,0.051-0.088,0.073-0.129  c0.465-0.879,0.951-1.75,1.455-2.608c0.165-0.286,0.344-0.567,0.515-0.851c0.374-0.618,0.753-1.233,1.148-1.84  c0.207-0.318,0.417-0.635,0.63-0.952c0.386-0.576,0.781-1.148,1.186-1.712c0.218-0.305,0.438-0.611,0.659-0.915  c0.115-0.154,0.237-0.304,0.352-0.457c6.78,9.02,11.442,19.716,13.246,31.347c0.023,0.147,0.042,0.295,0.064,0.443  c0.135,0.915,0.252,1.835,0.35,2.758c0.033,0.304,0.064,0.604,0.092,0.91c0.077,0.811,0.137,1.628,0.187,2.451  c0.019,0.312,0.042,0.622,0.056,0.936c0.051,1.099,0.083,2.208,0.083,3.32v1.204c0,1.609-0.041,3.215-0.111,4.815  c-0.035,0.763-0.1,1.517-0.151,2.274c-0.054,0.818-0.098,1.637-0.17,2.451c-0.09,1.017-0.212,2.031-0.332,3.044  c-0.064,0.539-0.118,1.079-0.188,1.618c-0.167,1.24-0.361,2.477-0.572,3.71c-0.045,0.27-0.084,0.54-0.132,0.811  c-0.261,1.468-0.549,2.931-0.872,4.391c0,0-0.001,0.007-0.002,0.009c-3.886,17.578-12.182,34.226-24.085,48.301  c-0.455,0.537-0.896,1.081-1.36,1.609c-0.052,0.057-0.106,0.115-0.156,0.171V87.209c0-1.07,0.028-2.138,0.077-3.203  c0.016-0.339,0.042-0.677,0.062-1.015c0.043-0.727,0.093-1.455,0.159-2.179c0.034-0.389,0.075-0.775,0.117-1.165  c0.073-0.683,0.155-1.367,0.248-2.046c0.053-0.383,0.106-0.765,0.163-1.148c0.111-0.721,0.235-1.437,0.369-2.156  c0.06-0.318,0.113-0.641,0.176-0.962c0.205-1.031,0.429-2.055,0.68-3.074c0.008-0.024,0.016-0.051,0.021-0.074  c0.248-0.991,0.516-1.974,0.806-2.949C194.265,66.921,194.368,66.608,194.464,66.294 M191.025,481.272  c-0.236,0.176-0.479,0.343-0.718,0.514c-0.643,0.466-1.287,0.927-1.943,1.372c-0.323,0.215-0.65,0.424-0.976,0.635  c-0.585,0.383-1.174,0.761-1.768,1.121c-0.353,0.217-0.711,0.426-1.068,0.635c-0.584,0.341-1.17,0.675-1.763,1  c-0.365,0.2-0.73,0.397-1.101,0.591c-0.604,0.316-1.214,0.62-1.827,0.918c-0.36,0.176-0.719,0.353-1.083,0.523  c-0.662,0.307-1.331,0.6-2.001,0.888c-0.318,0.136-0.637,0.281-0.96,0.413c-0.893,0.367-1.797,0.712-2.704,1.042  c-0.102,0.037-0.203,0.081-0.305,0.116c-1.013,0.362-2.036,0.699-3.064,1.013c-0.318,0.097-0.639,0.18-0.956,0.27  c-0.715,0.209-1.43,0.411-2.153,0.595c-0.403,0.104-0.81,0.196-1.218,0.29c-0.643,0.154-1.292,0.302-1.94,0.438  c-0.438,0.088-0.877,0.171-1.317,0.255c-0.632,0.118-1.264,0.228-1.901,0.327c-0.447,0.072-0.895,0.141-1.344,0.203  c-0.648,0.09-1.299,0.167-1.95,0.24c-0.434,0.048-0.866,0.099-1.303,0.138c-0.718,0.069-1.438,0.116-2.161,0.161  c-0.371,0.022-0.739,0.053-1.111,0.071c-1.094,0.048-2.191,0.079-3.293,0.079c-0.002,0-0.003,0-0.006,0h-0.012  c-0.074,0-0.15,0-0.224,0c-38.648-0.128-70.089-32.203-70.089-71.498V88.2c0-39.038,31.311-71.031,69.795-71.321  c0.165,0,0.33,0,0.494-0.002c0.013,0,0.026,0.002,0.039,0.002c1.171,0,2.336,0.03,3.493,0.09c0.164,0.007,0.327,0.021,0.491,0.028  c1.015,0.06,2.029,0.132,3.033,0.233c0.136,0.014,0.27,0.028,0.406,0.044c13.943,1.468,26.684,7.031,36.998,15.457  c-0.808,1.007-1.589,2.031-2.347,3.066c-0.219,0.302-0.424,0.609-0.639,0.91c-0.556,0.78-1.106,1.564-1.635,2.359  c-0.271,0.408-0.53,0.824-0.792,1.236c-0.453,0.706-0.9,1.416-1.331,2.134c-0.269,0.449-0.531,0.901-0.791,1.354  c-0.403,0.701-0.798,1.407-1.18,2.117c-0.252,0.464-0.497,0.929-0.738,1.395c-0.376,0.727-0.736,1.462-1.09,2.198  c-0.218,0.455-0.441,0.91-0.653,1.369c-0.365,0.8-0.712,1.607-1.056,2.415c-0.169,0.404-0.349,0.805-0.514,1.213  c-0.443,1.095-0.862,2.2-1.259,3.314c-0.044,0.123-0.097,0.246-0.141,0.374c-0.438,1.24-0.842,2.495-1.223,3.756  c-0.116,0.383-0.214,0.77-0.325,1.152c-0.253,0.883-0.5,1.771-0.727,2.664c-0.12,0.484-0.23,0.969-0.343,1.453  c-0.189,0.805-0.371,1.614-0.537,2.424c-0.106,0.519-0.205,1.042-0.302,1.565c-0.145,0.791-0.281,1.587-0.406,2.384  c-0.083,0.528-0.162,1.057-0.236,1.587c-0.114,0.818-0.208,1.637-0.298,2.46c-0.055,0.51-0.115,1.017-0.163,1.529  c-0.081,0.899-0.142,1.803-0.196,2.705c-0.026,0.438-0.064,0.87-0.083,1.31c-0.057,1.34-0.093,2.687-0.093,4.036v94.954  c-2.76,4.09-5.275,8.319-7.545,12.666c-0.002,0.002-0.003,0.005-0.003,0.005c-0.727,1.391-1.428,2.793-2.101,4.204  c-0.075,0.156-0.147,0.312-0.221,0.468c-0.587,1.243-1.158,2.497-1.708,3.761c-0.077,0.176-0.156,0.348-0.232,0.523  c-0.541,1.264-1.06,2.536-1.564,3.816c-0.163,0.411-0.32,0.824-0.477,1.238c-0.397,1.035-0.779,2.077-1.149,3.123  c-0.181,0.514-0.357,1.026-0.532,1.54c-0.333,0.982-0.654,1.967-0.962,2.958c-0.174,0.554-0.345,1.112-0.511,1.67  c-0.309,1.038-0.607,2.082-0.892,3.129c-0.173,0.644-0.34,1.29-0.505,1.939c-0.21,0.826-0.413,1.658-0.609,2.486  c-0.136,0.585-0.272,1.165-0.399,1.75c-0.133,0.6-0.249,1.204-0.372,1.806c-0.019,0.09-0.036,0.18-0.055,0.27  c-0.102,0.498-0.213,0.996-0.308,1.494c-0.1,0.529-0.191,1.056-0.285,1.584c-0.163,0.916-0.317,1.833-0.46,2.754  c-0.021,0.134-0.042,0.268-0.064,0.399c-0.012,0.081-0.024,0.163-0.037,0.244c-0.042,0.272-0.088,0.545-0.127,0.818  c-0.055,0.389-0.099,0.778-0.15,1.165c-0.095,0.692-0.187,1.383-0.27,2.075c-0.026,0.209-0.057,0.415-0.08,0.627  c-0.048,0.42-0.092,0.842-0.136,1.261c-0.145,1.369-0.273,2.745-0.376,4.128c-0.007,0.083-0.015,0.163-0.021,0.246  c-0.015,0.189-0.019,0.38-0.03,0.569c-0.08,1.156-0.143,2.319-0.194,3.482c-0.002,0.06-0.007,0.115-0.009,0.173  c-0.015,0.36-0.026,0.721-0.039,1.081v0.009c-0.046,1.453-0.079,2.912-0.079,4.376c0,1.466,0.033,2.923,0.079,4.376v0.011  c0.014,0.36,0.026,0.721,0.039,1.081c0.002,0.057,0.007,0.115,0.009,0.171c0.051,1.165,0.114,2.325,0.194,3.484  c0.012,0.189,0.017,0.38,0.03,0.569c0.007,0.081,0.015,0.163,0.021,0.244c0.102,1.383,0.231,2.758,0.376,4.128  c0.044,0.422,0.088,0.842,0.136,1.264c0.023,0.209,0.055,0.415,0.08,0.625c0.083,0.694,0.176,1.384,0.27,2.075  c0.051,0.389,0.095,0.778,0.15,1.165c0.039,0.272,0.086,0.547,0.127,0.82c0.014,0.079,0.025,0.161,0.037,0.242  c0.023,0.134,0.043,0.268,0.064,0.402c0.143,0.918,0.298,1.838,0.46,2.751c0.093,0.528,0.185,1.059,0.285,1.584  c0.097,0.501,0.207,0.998,0.308,1.497c0.019,0.088,0.036,0.178,0.055,0.268c0.124,0.602,0.24,1.206,0.372,1.808  c0.127,0.585,0.263,1.165,0.399,1.748c0.196,0.83,0.398,1.66,0.609,2.486c0.165,0.648,0.332,1.294,0.505,1.941  c0.286,1.047,0.583,2.09,0.892,3.129c0.165,0.558,0.336,1.114,0.511,1.67c0.308,0.989,0.629,1.971,0.961,2.953  c0.176,0.515,0.353,1.032,0.535,1.548c0.369,1.044,0.751,2.084,1.146,3.119c0.16,0.413,0.316,0.826,0.479,1.241  c0.503,1.278,1.02,2.551,1.564,3.812c0.075,0.176,0.158,0.352,0.233,0.528c0.548,1.259,1.117,2.509,1.707,3.754  c0.073,0.159,0.145,0.316,0.222,0.475c0.673,1.409,1.374,2.809,2.099,4.195c0.001,0.004,0.004,0.009,0.007,0.013  c2.271,4.345,4.784,8.573,7.543,12.662v94.951c0,1.351,0.036,2.697,0.097,4.038c0.02,0.438,0.057,0.87,0.083,1.308  c0.054,0.904,0.115,1.808,0.196,2.707c0.047,0.51,0.108,1.017,0.163,1.525c0.09,0.824,0.185,1.644,0.298,2.464  c0.073,0.528,0.153,1.057,0.236,1.584c0.125,0.798,0.261,1.596,0.406,2.389c0.097,0.521,0.196,1.042,0.302,1.561  c0.164,0.811,0.348,1.618,0.537,2.424c0.114,0.486,0.222,0.971,0.343,1.455c0.226,0.892,0.474,1.776,0.726,2.657  c0.11,0.385,0.212,0.774,0.326,1.156c0.381,1.261,0.785,2.516,1.222,3.756c0.047,0.132,0.102,0.261,0.149,0.394  c0.396,1.105,0.811,2.204,1.251,3.295c0.167,0.409,0.349,0.814,0.52,1.222c0.341,0.807,0.685,1.609,1.051,2.405  c0.21,0.461,0.434,0.918,0.655,1.376c0.352,0.734,0.712,1.466,1.086,2.189c0.243,0.47,0.491,0.938,0.74,1.404  c0.383,0.708,0.775,1.409,1.176,2.105c0.262,0.457,0.527,0.911,0.798,1.365c0.429,0.715,0.871,1.418,1.321,2.12  c0.268,0.416,0.528,0.834,0.802,1.247c0.522,0.787,1.066,1.561,1.616,2.332c0.221,0.309,0.433,0.629,0.662,0.939  c0.766,1.049,1.554,2.082,2.37,3.099C192.72,479.98,191.878,480.637,191.025,481.272 M199.333,457.491  c-0.488-0.927-0.952-1.866-1.395-2.815c-0.133-0.281-0.258-0.568-0.385-0.853c-0.304-0.671-0.602-1.342-0.883-2.022  c-0.145-0.348-0.284-0.697-0.422-1.044c-0.253-0.637-0.495-1.277-0.729-1.923c-0.129-0.356-0.259-0.712-0.383-1.068  c-0.234-0.683-0.456-1.369-0.671-2.057c-0.097-0.314-0.2-0.627-0.293-0.943c-0.289-0.978-0.558-1.96-0.806-2.949  c-0.006-0.026-0.014-0.051-0.021-0.077c-0.251-1.017-0.475-2.044-0.68-3.074c-0.064-0.318-0.117-0.641-0.176-0.962  c-0.134-0.717-0.258-1.435-0.369-2.156c-0.057-0.383-0.11-0.765-0.163-1.148c-0.092-0.68-0.173-1.36-0.248-2.046  c-0.042-0.387-0.083-0.775-0.117-1.165c-0.065-0.724-0.116-1.451-0.159-2.176c-0.02-0.341-0.046-0.677-0.062-1.017  c-0.047-1.066-0.075-2.131-0.075-3.204v-74.409c0.05,0.055,0.102,0.11,0.151,0.167c0.485,0.549,0.944,1.116,1.417,1.673  c11.877,14.063,20.156,30.689,24.035,48.243c0.001,0.002,0.001,0.004,0.001,0.004c0.324,1.462,0.612,2.926,0.873,4.395  c0.047,0.27,0.087,0.54,0.132,0.809c0.21,1.236,0.404,2.47,0.572,3.71c0.071,0.539,0.124,1.079,0.188,1.619  c0.119,1.013,0.242,2.027,0.332,3.042c0.072,0.817,0.117,1.635,0.17,2.451c0.051,0.758,0.116,1.512,0.151,2.274  c0.07,1.602,0.111,3.207,0.111,4.815v1.204c0,1.079-0.03,2.154-0.079,3.224c-0.016,0.356-0.043,0.71-0.064,1.063  c-0.043,0.717-0.092,1.429-0.156,2.138c-0.038,0.42-0.081,0.837-0.126,1.255c-0.071,0.648-0.151,1.292-0.239,1.939  c-0.059,0.431-0.117,0.864-0.183,1.292c-0.1,0.65-0.216,1.294-0.335,1.941c-0.074,0.404-0.141,0.811-0.222,1.213  c-0.196,0.971-0.412,1.937-0.648,2.894c-0.114,0.461-0.245,0.916-0.368,1.374c-0.146,0.542-0.291,1.086-0.448,1.626  c-0.153,0.517-0.317,1.031-0.483,1.543c-0.15,0.47-0.304,0.941-0.464,1.407c-0.182,0.53-0.369,1.06-0.565,1.584  c-0.163,0.44-0.334,0.872-0.504,1.308c-0.212,0.537-0.421,1.072-0.646,1.602c-0.17,0.404-0.352,0.8-0.531,1.2  c-0.466,1.046-0.96,2.082-1.477,3.106c-0.173,0.343-0.339,0.688-0.518,1.026c-0.276,0.523-0.568,1.038-0.856,1.554  c-0.221,0.394-0.44,0.787-0.668,1.176c-0.29,0.499-0.593,0.994-0.899,1.483c-0.248,0.402-0.498,0.8-0.756,1.196  c-0.307,0.475-0.619,0.95-0.938,1.418c-0.281,0.413-0.574,0.818-0.864,1.227c-0.316,0.442-0.629,0.886-0.956,1.321  c-0.02,0.03-0.044,0.057-0.065,0.086c-0.122-0.163-0.249-0.321-0.368-0.482c-0.226-0.307-0.448-0.616-0.668-0.925  c-0.402-0.563-0.794-1.13-1.178-1.701c-0.213-0.318-0.426-0.637-0.635-0.96c-0.393-0.604-0.771-1.215-1.143-1.833  c-0.171-0.286-0.352-0.567-0.519-0.857c-0.501-0.855-0.985-1.718-1.447-2.592C199.387,457.587,199.359,457.54,199.333,457.491   M331.957,423.587v1.204c0,38.78-31.55,70.33-70.33,70.33h-60.929c0.044-0.033,0.086-0.066,0.129-0.099  c0.212-0.156,0.415-0.321,0.625-0.479c0.83-0.625,1.651-1.264,2.46-1.919c0.334-0.272,0.665-0.549,0.995-0.824  c0.711-0.593,1.412-1.197,2.104-1.815c0.306-0.27,0.611-0.538,0.913-0.816c0.961-0.879,1.912-1.776,2.838-2.701l0.008-0.009h0.002  v-0.001h0.002c0.205-0.206,0.404-0.412,0.601-0.617c0.006-0.005,0.015-0.011,0.019-0.018c0.016-0.013,0.026-0.028,0.042-0.042  c0.024-0.026,0.048-0.051,0.072-0.074c0.015-0.013,0.023-0.028,0.036-0.042c0.277-0.286,0.539-0.583,0.812-0.87  c0.59-0.625,1.186-1.243,1.755-1.881c0.361-0.402,0.706-0.817,1.058-1.227c0.589-0.681,1.178-1.363,1.743-2.057  c0.303-0.374,0.589-0.754,0.882-1.132c0.59-0.752,1.179-1.503,1.743-2.271c0.24-0.327,0.465-0.662,0.699-0.991  c0.593-0.833,1.184-1.668,1.745-2.518c0.18-0.275,0.349-0.554,0.525-0.83c0.591-0.916,1.176-1.838,1.73-2.774  c0.132-0.222,0.252-0.448,0.381-0.671c0.581-1,1.149-2.005,1.688-3.027c0.087-0.164,0.165-0.334,0.252-0.499  c0.563-1.084,1.111-2.176,1.626-3.279c0.054-0.116,0.101-0.235,0.155-0.35c0.533-1.158,1.048-2.323,1.529-3.503  c0.034-0.083,0.064-0.169,0.098-0.255c0.491-1.211,0.959-2.433,1.393-3.666c0.026-0.069,0.045-0.138,0.07-0.209  c0.438-1.248,0.851-2.508,1.231-3.778c0.023-0.074,0.039-0.15,0.062-0.224c0.375-1.266,0.726-2.539,1.043-3.823  c0.027-0.115,0.05-0.231,0.077-0.345c0.302-1.246,0.585-2.497,0.83-3.758c0.041-0.207,0.069-0.415,0.108-0.622  c0.221-1.174,0.431-2.35,0.603-3.534c0.054-0.365,0.087-0.731,0.135-1.097c0.137-1.035,0.277-2.073,0.378-3.115  c0.061-0.629,0.091-1.261,0.138-1.893c0.06-0.789,0.134-1.573,0.172-2.366c0.069-1.432,0.105-2.868,0.105-4.312v-1.204  c0-0.535-0.003-1.072-0.01-1.609h95.669C331.96,422.515,331.957,423.053,331.957,423.587 M234.931,405.099  c-1.549-10.365-4.403-20.472-8.465-30.134c17.438,8.488,37.006,13.255,57.667,13.255c20.699,0,40.297-4.785,57.76-13.301  c-4.081,9.69-6.982,19.826-8.548,30.18H234.931z M419.165,270.066h-3.555c0.012-0.115,0.024-0.231,0.033-0.345  c0.055-0.54,0.1-1.081,0.15-1.624c0.024-0.249,0.048-0.496,0.071-0.747c0.012-0.147,0.022-0.295,0.036-0.442  c0.07-0.837,0.126-1.677,0.179-2.518c0.009-0.15,0.021-0.299,0.029-0.45c0.006-0.086,0.01-0.169,0.015-0.255  c0.06-1.024,0.106-2.055,0.141-3.086c0.002-0.066,0.006-0.132,0.008-0.196c0.001-0.035,0.002-0.071,0.005-0.106  c0.045-1.429,0.077-2.857,0.077-4.296c0-1.437-0.032-2.868-0.077-4.296c-0.002-0.035-0.003-0.069-0.005-0.106  c-0.002-0.064-0.006-0.129-0.008-0.194c-0.035-1.033-0.081-2.062-0.141-3.088c-0.005-0.083-0.009-0.169-0.015-0.255  c-0.009-0.15-0.021-0.299-0.029-0.45c-0.053-0.839-0.11-1.679-0.179-2.516c-0.013-0.147-0.024-0.297-0.036-0.444  c-0.022-0.251-0.047-0.498-0.071-0.747c-0.05-0.54-0.095-1.084-0.15-1.622c-0.01-0.117-0.021-0.231-0.033-0.348h3.555  c7.757,0,14.066,6.309,14.066,14.066S426.922,270.066,419.165,270.066"/>
<path d="M365.715,256c0,24.89-11.153,48.103-30.598,63.691c-14.595,11.705-32.224,17.892-50.984,17.892s-36.389-6.187-50.985-17.894  C213.703,304.103,202.55,280.89,202.55,256c0-24.888,11.153-48.103,30.598-63.691c14.595-11.703,32.224-17.892,50.984-17.892  c14.91,0,29.492,4.057,42.171,11.73c3.988,2.415,9.177,1.139,11.59-2.848c2.413-3.987,1.139-9.178-2.849-11.591  c-15.316-9.27-32.92-14.169-50.912-14.169c-22.318,0-44.174,7.672-61.542,21.604c-23.463,18.804-36.919,46.82-36.919,76.857  c0,30.039,13.456,58.053,36.918,76.857c17.37,13.932,39.226,21.604,61.544,21.604c22.318,0,44.174-7.672,61.542-21.602  c23.463-18.807,36.919-46.82,36.919-76.86c0-1.25-0.025-2.495-0.071-3.734c-0.172-4.658-4.071-8.297-8.747-8.119  c-4.659,0.173-8.293,4.09-8.119,8.749C365.696,253.925,365.715,254.96,365.715,256"/>
<path d="M284.132,202.549c-4.661,0-8.44,3.778-8.44,8.44v56.264c0,4.662,3.779,8.44,8.44,8.44h33.758c4.661,0,8.44-3.778,8.44-8.44  c0-4.66-3.779-8.44-8.44-8.44h-25.319v-47.824C292.572,206.327,288.793,202.549,284.132,202.549"/>
<g>
</g>
<g>
</g>
<g>
</g>
<g>
</g>
<g>
</g>
<g>
</g>
<g>
</g>
<g>
</g>
<g>
</g>
<g>
</g>
<g>
</g>
<g>
</g>
<g>
</g>
<g>
</g>
<g>
</g>
</svg>
