<?xml version="1.0" encoding="iso-8859-1"?>
<!-- Generator: Adobe Illustrator 19.0.0, SVG Export Plug-In . SVG Version: 6.00 Build 0)  -->
<svg xmlns="http://www.w3.org/2000/svg" xmlns:xlink="http://www.w3.org/1999/xlink" version="1.1" id="Layer_1" x="0px" y="0px" viewBox="0 0 512 512" style="enable-background:new 0 0 512 512;" xml:space="preserve">
<path style="fill:#FFDD46;" d="M340.913,317.703h162.673c0,18.59-15.067,33.656-33.656,33.656H30.432  c-5.112,0-9.256-4.144-9.256-9.256v-24.401H237.7H340.913z"/>
<path style="fill:#F5CA32;" d="M503.586,317.703c0,18.59-15.067,33.656-33.656,33.656H30.432c-5.112,0-9.256-4.144-9.256-9.256  v-24.401H40.95v4.768c0,9.139,7.408,16.548,16.548,16.548h407.07c13.653,0,20.833-8.829,25.545-21.316H503.586z"/>
<path style="fill:#B6FA4C;" d="M278.462,317.703H21.176c0,0-10.713-21.428-12.507-48.577c9.681-11.892,25.88-25.499,46.163-18.735  c32.466,10.826,55.533,11.208,69.892-11.611c24.852-1.538,45.866-7.696,63.04-22.976c3.703-3.287,7.226-7.001,10.568-11.185  l148.189,56.992c0,0,51.25,20.497,65.563-7.08c13.61,3.545,27.286,6.832,41.016,9.885c25.242,5.609,50.485,19.633,50.485,53.289  H320.344"/>
<g>
	<path style="fill:#A7E531;" d="M503.586,317.703H489.08c-4.98-25.657-24.962-37.134-47.198-42.071   c-12.352-2.749-28.529-6.686-41.553-10.029c4.869-2.233,8.997-5.756,11.757-11.074c13.607,3.545,27.282,6.832,41.015,9.885   C478.343,270.023,503.586,284.046,503.586,317.703"/>
	<path style="fill:#A7E531;" d="M43.614,317.703H21.176c0,0-10.713-21.428-12.509-48.577c5.566-6.833,13.283-14.237,22.697-18.006   c-0.618,6.159-0.639,12.217-0.259,18.006C32.901,296.275,43.614,317.703,43.614,317.703"/>
</g>
<path style="fill:#FF127F;" d="M124.726,238.778c-14.361,22.819-37.427,22.438-69.894,11.611  c-20.284-6.765-36.484,6.843-46.165,18.734c-1.701-25.641,4.556-56.379,35.3-79.003c3.651-2.687,8.697,0.296,8.237,4.805  c-2.752,26.971,19.348,44.245,58.724,44.245C115.65,239.171,120.25,239.047,124.726,238.778"/>
<path style="fill:#E70C6A;" d="M52.139,202.99c-13.384,14.933-19.148,31.905-20.776,48.129  c-9.414,3.768-17.131,11.173-22.697,18.006c-1.701-25.642,4.556-56.382,35.302-79.006c3.653-2.687,8.699,0.298,8.239,4.81  C51.92,197.722,51.9,200.412,52.139,202.99"/>
<g>
	<polygon style="fill:#FF127F;" points="273.6,233.561 189.459,317.703 155.802,317.703 249.289,224.216  "/>
	<polygon style="fill:#FF127F;" points="318.161,250.703 251.162,317.703 217.506,317.703 293.85,241.357  "/>
	<path style="fill:#FF127F;" d="M211.896,183.077c-4.139,8.279-8.662,15.415-13.564,21.54c-3.343,4.185-6.865,7.898-10.568,11.185   c-7.853-4.556-39.187-25.5-9.525-55.163L211.896,183.077z"/>
</g>
<path style="fill:#008778;" d="M412.084,254.528c-14.315,27.576-65.563,7.08-65.563,7.08l-28.36-10.906l-24.311-9.345l-20.251-7.796  l-24.311-9.345l-50.956-19.6c4.902-6.124,9.424-13.26,13.564-21.539c12.768,4.252,43.293,16.58,76.277,30.246  C328.46,230.016,369.926,243.524,412.084,254.528"/>
<path d="M454.926,256.2c-13.798-3.067-27.497-6.369-40.714-9.812h-0.002c-43.503-11.357-84.824-25.098-122.816-40.839  c-38.507-15.954-63.978-26.069-75.755-30.09l-32.732-21.821c-3.335-2.224-7.781-1.786-10.616,1.052  c-11.311,11.311-16.261,23.063-14.711,34.93c1.522,11.655,9.039,20.548,16.049,26.476c-12.897,8.513-28.597,12.996-49.42,14.284  h-0.002c-4.157,0.25-8.625,0.377-13.279,0.377c-20.297,0-35.955-4.961-44.091-13.971c-5.011-5.545-7.119-12.614-6.26-21.006  c0.547-5.39-2.129-10.607-6.826-13.291c-4.726-2.699-10.386-2.373-14.771,0.856c-27.712,20.392-41.098,50.24-38.707,86.322v0.013  c1.598,24.15,9.748,43.863,12.49,49.901v22.522c0,9.744,7.926,17.67,17.67,17.67h439.497c23.198,0,42.071-18.872,42.071-42.071  C512,285.764,492.264,264.496,454.926,256.2 M395.083,258.673c-0.039,0.016-0.076,0.03-0.117,0.044  c-0.455,0.164-0.92,0.32-1.393,0.46c-0.076,0.024-0.156,0.045-0.234,0.068c-0.451,0.128-0.91,0.249-1.377,0.357  c-0.057,0.013-0.112,0.028-0.171,0.042c-0.501,0.114-1.014,0.214-1.531,0.306c-0.092,0.017-0.186,0.031-0.28,0.048  c-1.065,0.177-2.156,0.31-3.267,0.398c-0.076,0.007-0.154,0.013-0.228,0.02c-0.556,0.042-1.115,0.072-1.678,0.094  c-0.057,0.002-0.114,0.002-0.171,0.004c-0.57,0.021-1.14,0.033-1.713,0.033h-0.041c-0.585,0-1.175-0.01-1.766-0.028  c-0.068-0.002-0.136-0.004-0.206-0.007c-1.195-0.039-2.393-0.116-3.591-0.22c-0.039-0.003-0.081-0.008-0.122-0.01  c-0.602-0.055-1.207-0.117-1.81-0.184c-0.024-0.004-0.051-0.007-0.074-0.009c-1.223-0.14-2.439-0.309-3.637-0.498  c-0.03-0.004-0.062-0.01-0.092-0.015c-3.055-0.486-6.004-1.108-8.697-1.766l-0.016-0.004c-5.408-1.322-9.784-2.781-11.918-3.536  c-0.004-0.001-0.011-0.003-0.018-0.006c-0.418-0.15-0.752-0.27-0.986-0.356c-0.002-0.002-0.004-0.003-0.007-0.003  c-0.112-0.04-0.2-0.075-0.265-0.1c-0.009-0.003-0.018-0.007-0.026-0.01c-0.053-0.019-0.094-0.036-0.105-0.04l-138.014-53.08  c0.136-0.208,0.265-0.425,0.398-0.635c0.462-0.721,0.92-1.451,1.377-2.19c0.232-0.378,0.467-0.756,0.697-1.141  c0.531-0.882,1.053-1.779,1.571-2.687c0.116-0.202,0.237-0.396,0.352-0.599c13.108,4.816,36.251,14.094,69.026,27.672  C319.29,235.323,356.275,247.939,395.083,258.673 M179.67,171.705l21.199,14.132c-0.099,0.174-0.197,0.347-0.298,0.517  c-0.517,0.891-1.039,1.768-1.568,2.63c-0.145,0.237-0.287,0.478-0.434,0.712c-0.657,1.052-1.324,2.081-1.998,3.087  c-0.14,0.211-0.285,0.414-0.425,0.622c-0.554,0.814-1.115,1.61-1.681,2.391c-0.193,0.266-0.386,0.534-0.581,0.794  c-0.692,0.937-1.391,1.858-2.104,2.746c-0.007,0.008-0.011,0.016-0.018,0.024l-0.002,0.004l-0.002,0.002  c-0.773,0.967-1.565,1.913-2.368,2.834c-0.269,0.312-0.55,0.607-0.826,0.912c-0.537,0.6-1.074,1.2-1.623,1.779  c-0.055,0.058-0.114,0.112-0.168,0.171c-6.102-4.602-11.626-10.9-12.504-17.624C173.622,182.519,175.439,177.245,179.67,171.705   M43.594,201.157c0.388,10.278,4.041,19.478,10.752,26.908c10.207,11.301,26.709,17.886,48.03,19.254  c-0.129,0.044-0.26,0.085-0.388,0.129c-0.427,0.146-0.857,0.286-1.297,0.414c-0.219,0.064-0.443,0.122-0.664,0.183  c-0.416,0.11-0.837,0.213-1.264,0.307c-0.223,0.048-0.449,0.099-0.678,0.145c-0.488,0.099-0.988,0.184-1.494,0.259  c-0.167,0.025-0.329,0.058-0.497,0.08c-0.675,0.094-1.365,0.171-2.069,0.228c-0.163,0.015-0.331,0.02-0.495,0.03  c-0.552,0.039-1.111,0.071-1.681,0.088c-0.25,0.009-0.501,0.011-0.754,0.016c-0.51,0.007-1.03,0.007-1.556-0.002  c-0.26-0.002-0.526-0.007-0.793-0.017c-0.577-0.018-1.163-0.048-1.757-0.086c-0.212-0.013-0.421-0.021-0.635-0.037  c-0.813-0.061-1.641-0.136-2.487-0.23c-0.147-0.017-0.298-0.038-0.447-0.057c-0.706-0.083-1.42-0.177-2.147-0.283  c-0.289-0.044-0.583-0.092-0.874-0.138c-0.614-0.096-1.234-0.202-1.862-0.313c-0.317-0.057-0.637-0.117-0.959-0.177  c-0.662-0.126-1.336-0.263-2.018-0.406c-0.278-0.059-0.554-0.113-0.837-0.174c-0.961-0.211-1.94-0.436-2.94-0.68  c-0.118-0.029-0.243-0.065-0.363-0.093c-0.887-0.22-1.791-0.453-2.708-0.699c-0.34-0.091-0.685-0.188-1.03-0.283  c-0.724-0.2-1.453-0.405-2.193-0.62c-0.384-0.112-0.768-0.224-1.157-0.34c-0.763-0.228-1.536-0.462-2.32-0.707  c-0.351-0.109-0.699-0.213-1.052-0.325c-1.138-0.361-2.285-0.731-3.462-1.124c-0.581-0.193-1.159-0.372-1.74-0.541  c-0.195-0.055-0.388-0.103-0.583-0.156c-0.386-0.108-0.773-0.212-1.159-0.307c-0.232-0.058-0.467-0.107-0.697-0.159  c-0.349-0.079-0.699-0.159-1.046-0.23c-0.25-0.05-0.499-0.092-0.749-0.138c-0.331-0.063-0.664-0.121-0.997-0.174  c-0.257-0.042-0.513-0.076-0.77-0.111c-0.324-0.046-0.651-0.09-0.975-0.127c-0.263-0.03-0.526-0.057-0.789-0.082  c-0.315-0.03-0.633-0.058-0.951-0.081c-0.269-0.019-0.537-0.034-0.804-0.049c-0.313-0.017-0.627-0.028-0.94-0.037  c-0.269-0.009-0.537-0.015-0.809-0.018c-0.125-0.001-0.25-0.008-0.375-0.008c-0.184,0-0.366,0.009-0.55,0.011  c-0.278,0.004-0.556,0.009-0.832,0.019c-0.306,0.009-0.611,0.026-0.915,0.044c-0.28,0.016-0.559,0.03-0.837,0.053  c-0.306,0.024-0.611,0.055-0.915,0.085c-0.276,0.027-0.552,0.053-0.828,0.086c-0.309,0.037-0.614,0.083-0.92,0.127  c-0.276,0.038-0.55,0.075-0.823,0.121c-0.306,0.048-0.614,0.11-0.92,0.166c-0.271,0.052-0.547,0.098-0.82,0.156  c-0.315,0.066-0.632,0.142-0.947,0.214c-0.26,0.061-0.522,0.117-0.782,0.181c-0.37,0.093-0.738,0.199-1.108,0.302  c-0.43,0.121-0.86,0.248-1.288,0.384c-0.335,0.105-0.673,0.208-1.007,0.32c-0.274,0.094-0.547,0.197-0.821,0.294  c-0.296,0.109-0.593,0.211-0.89,0.324c-0.28,0.109-0.559,0.226-0.837,0.339c-0.289,0.117-0.579,0.231-0.866,0.356  c-0.283,0.119-0.563,0.248-0.844,0.375c-0.285,0.128-0.57,0.256-0.855,0.39c-0.28,0.131-0.559,0.274-0.839,0.412  c-0.283,0.14-0.565,0.28-0.848,0.427c-0.278,0.145-0.556,0.296-0.832,0.447c-0.283,0.154-0.565,0.306-0.848,0.467  c-0.274,0.156-0.547,0.316-0.821,0.48c-0.283,0.164-0.563,0.333-0.846,0.506c-0.274,0.167-0.545,0.338-0.819,0.513  c-0.28,0.178-0.561,0.36-0.839,0.545c-0.271,0.178-0.539,0.359-0.809,0.543c-0.131,0.09-0.263,0.175-0.395,0.265  C20.149,229.9,28.843,213.83,43.594,201.157 M469.929,342.945H30.432c-0.464,0-0.841-0.377-0.841-0.841v-15.987H237.7h40.762  c4.648,0,8.414-3.767,8.414-8.414c0-4.647-3.766-8.414-8.414-8.414H237.7H26.653c-2.823-6.9-7.735-20.828-9.319-37.373  c0.024-0.026,0.048-0.057,0.071-0.083c0.214-0.241,0.427-0.459,0.639-0.692c0.524-0.577,1.046-1.148,1.568-1.69  c0.28-0.289,0.561-0.553,0.841-0.831c0.458-0.455,0.915-0.913,1.377-1.342c0.306-0.287,0.616-0.552,0.924-0.828  c0.432-0.386,0.866-0.774,1.299-1.139c0.322-0.268,0.644-0.519,0.966-0.775c0.423-0.335,0.844-0.671,1.267-0.984  c0.329-0.243,0.66-0.471,0.991-0.703c0.416-0.289,0.83-0.577,1.246-0.844c0.338-0.217,0.673-0.421,1.01-0.625  c0.409-0.247,0.821-0.489,1.234-0.716c0.34-0.187,0.681-0.365,1.023-0.537c0.407-0.208,0.818-0.405,1.227-0.591  c0.342-0.156,0.685-0.305,1.03-0.448c0.407-0.167,0.818-0.325,1.225-0.473c0.347-0.123,0.69-0.245,1.032-0.353  c0.412-0.131,0.822-0.247,1.232-0.356c0.344-0.092,0.688-0.183,1.032-0.26c0.414-0.093,0.826-0.167,1.239-0.24  c0.342-0.058,0.683-0.12,1.025-0.166c0.418-0.053,0.837-0.087,1.253-0.12c0.338-0.026,0.675-0.062,1.012-0.072  c0.427-0.017,0.855-0.009,1.282-0.002c0.329,0.004,0.657,0,0.986,0.018c0.444,0.024,0.892,0.076,1.338,0.127  c0.311,0.033,0.62,0.055,0.929,0.099c0.493,0.073,0.991,0.18,1.485,0.283c0.26,0.055,0.522,0.092,0.782,0.156  c0.756,0.182,1.512,0.397,2.267,0.648c0.881,0.293,1.764,0.581,2.647,0.867c0.263,0.083,0.528,0.165,0.791,0.25  c0.62,0.197,1.239,0.394,1.858,0.585c0.344,0.108,0.69,0.209,1.034,0.313c0.545,0.166,1.092,0.332,1.637,0.492  c0.372,0.11,0.743,0.213,1.115,0.32c0.519,0.151,1.041,0.301,1.565,0.447c0.388,0.108,0.775,0.211,1.163,0.315  c0.508,0.138,1.016,0.276,1.525,0.407c0.398,0.105,0.8,0.204,1.2,0.304c0.493,0.125,0.988,0.249,1.483,0.368  c0.412,0.1,0.828,0.194,1.24,0.289c0.485,0.112,0.968,0.221,1.451,0.329c0.421,0.092,0.841,0.178,1.262,0.267  c0.476,0.099,0.951,0.197,1.426,0.291c0.425,0.082,0.848,0.162,1.271,0.239c0.473,0.088,0.947,0.172,1.42,0.254  c0.425,0.073,0.848,0.14,1.273,0.209c0.469,0.074,0.938,0.146,1.405,0.212c0.43,0.062,0.855,0.118,1.282,0.173  c0.464,0.062,0.927,0.117,1.389,0.168c0.43,0.05,0.855,0.094,1.282,0.136c0.46,0.046,0.92,0.088,1.377,0.127  c0.43,0.034,0.857,0.066,1.282,0.094c0.455,0.03,0.91,0.055,1.365,0.076c0.425,0.022,0.85,0.039,1.273,0.052  c0.453,0.015,0.905,0.021,1.356,0.027c0.421,0.006,0.841,0.009,1.262,0.006c0.451-0.003,0.899-0.015,1.345-0.027  c0.418-0.011,0.837-0.022,1.253-0.042c0.445-0.022,0.892-0.053,1.334-0.083c0.412-0.029,0.826-0.057,1.236-0.094  c0.445-0.042,0.887-0.092,1.331-0.142c0.405-0.048,0.813-0.092,1.214-0.147c0.444-0.063,0.883-0.136,1.324-0.209  c0.398-0.066,0.798-0.127,1.193-0.202c0.443-0.083,0.881-0.182,1.322-0.278c0.388-0.082,0.775-0.162,1.159-0.255  c0.449-0.109,0.89-0.234,1.334-0.357c0.37-0.101,0.743-0.193,1.108-0.304c0.458-0.138,0.912-0.296,1.365-0.447  c0.349-0.117,0.699-0.226,1.046-0.351c0.491-0.178,0.977-0.38,1.464-0.579c0.301-0.12,0.602-0.23,0.901-0.358  c0.71-0.305,1.411-0.636,2.108-0.984c0.168-0.084,0.338-0.173,0.508-0.259c0.662-0.341,1.319-0.692,1.97-1.071  c0.269-0.159,0.535-0.338,0.802-0.501c0.478-0.292,0.954-0.581,1.423-0.894c0.303-0.203,0.596-0.425,0.894-0.635  c0.43-0.303,0.859-0.601,1.281-0.924c0.307-0.234,0.607-0.491,0.912-0.734c0.405-0.326,0.811-0.648,1.207-0.994  c0.309-0.266,0.609-0.551,0.913-0.829c0.384-0.351,0.77-0.701,1.148-1.071c0.304-0.297,0.602-0.614,0.903-0.923  c0.366-0.38,0.736-0.76,1.098-1.157c0.298-0.329,0.591-0.675,0.885-1.015c0.352-0.412,0.708-0.821,1.053-1.251  c0.292-0.359,0.574-0.735,0.862-1.107c0.228-0.3,0.464-0.581,0.69-0.889c27.18-2.288,47.586-10.211,63.963-24.782  c0.91-0.807,1.805-1.648,2.695-2.503c0.2-0.191,0.397-0.38,0.593-0.573c0.867-0.85,1.729-1.718,2.575-2.611  c0.12-0.126,0.237-0.256,0.355-0.383c0.439-0.467,0.876-0.933,1.308-1.411l142.518,54.81c0.039,0.017,0.096,0.038,0.164,0.065  c0.018,0.007,0.039,0.017,0.062,0.022c0.051,0.021,0.103,0.042,0.166,0.067c0.044,0.018,0.094,0.035,0.145,0.055  c0.053,0.02,0.105,0.042,0.163,0.063c0.066,0.025,0.131,0.049,0.204,0.077c0.068,0.024,0.138,0.05,0.211,0.079  c0.073,0.026,0.14,0.053,0.216,0.08c0.114,0.043,0.239,0.089,0.363,0.135c0.118,0.043,0.241,0.087,0.368,0.134  c0.105,0.037,0.211,0.076,0.322,0.114c0.094,0.035,0.195,0.072,0.296,0.107c0.12,0.042,0.243,0.085,0.37,0.131  c0.099,0.033,0.197,0.068,0.301,0.103c0.149,0.05,0.303,0.105,0.46,0.159c0.096,0.031,0.193,0.067,0.294,0.1  c0.173,0.059,0.355,0.12,0.539,0.182c0.099,0.033,0.193,0.064,0.292,0.098c0.269,0.089,0.547,0.181,0.837,0.274  c0.11,0.034,0.225,0.073,0.34,0.109c0.197,0.064,0.396,0.127,0.602,0.193c0.129,0.039,0.263,0.081,0.396,0.122  c0.202,0.064,0.405,0.125,0.614,0.19c0.138,0.043,0.276,0.084,0.416,0.126c0.225,0.07,0.453,0.138,0.685,0.206  c0.131,0.039,0.258,0.077,0.393,0.117c0.311,0.092,0.632,0.184,0.956,0.276c0.057,0.018,0.114,0.034,0.173,0.051  c0.379,0.108,0.767,0.215,1.159,0.324c0.127,0.034,0.258,0.07,0.388,0.103c0.278,0.076,0.561,0.153,0.848,0.228  c0.149,0.039,0.301,0.079,0.451,0.118c0.278,0.072,0.561,0.146,0.846,0.218c0.156,0.038,0.309,0.077,0.464,0.117  c0.311,0.077,0.628,0.154,0.947,0.231c0.129,0.031,0.257,0.063,0.388,0.094c0.453,0.109,0.912,0.215,1.379,0.321  c0.037,0.009,0.074,0.018,0.112,0.024c0.427,0.096,0.859,0.193,1.295,0.286c0.138,0.029,0.278,0.059,0.418,0.089  c0.344,0.073,0.69,0.145,1.039,0.214c0.158,0.031,0.32,0.064,0.48,0.096c0.347,0.068,0.694,0.135,1.046,0.202  c0.156,0.028,0.306,0.058,0.462,0.087c0.423,0.076,0.85,0.154,1.28,0.228c0.076,0.013,0.154,0.027,0.232,0.04  c0.522,0.089,1.05,0.175,1.58,0.259c0.079,0.012,0.158,0.022,0.237,0.036c0.441,0.067,0.883,0.134,1.328,0.195  c0.154,0.022,0.306,0.042,0.46,0.064c0.384,0.054,0.767,0.103,1.152,0.151c0.166,0.021,0.331,0.04,0.497,0.062  c0.401,0.048,0.802,0.094,1.207,0.136c0.138,0.017,0.276,0.031,0.416,0.046c1.096,0.114,2.202,0.21,3.317,0.285  c0.114,0.008,0.228,0.013,0.342,0.02c0.439,0.028,0.878,0.053,1.317,0.074c0.163,0.008,0.322,0.015,0.482,0.02  c0.405,0.018,0.809,0.03,1.212,0.043c0.166,0.003,0.333,0.009,0.499,0.012c0.436,0.009,0.872,0.013,1.308,0.016  c0.094,0,0.186,0.002,0.28,0.002c0.02,0,0.041,0,0.062,0c0.826,0,1.655-0.018,2.48-0.046c0.103-0.004,0.208-0.007,0.311-0.011  c0.809-0.033,1.619-0.081,2.426-0.142c0.112-0.009,0.223-0.018,0.333-0.026c0.809-0.066,1.614-0.149,2.417-0.248  c0.101-0.012,0.2-0.025,0.301-0.039c0.817-0.105,1.632-0.224,2.441-0.366c0.066-0.013,0.129-0.025,0.195-0.036  c1.699-0.303,3.372-0.69,5.009-1.17c0.046-0.015,0.092-0.026,0.138-0.039c0.784-0.232,1.558-0.49,2.325-0.768  c0.09-0.031,0.18-0.062,0.267-0.096c0.743-0.273,1.475-0.57,2.196-0.89c0.103-0.046,0.209-0.092,0.311-0.138  c0.712-0.322,1.414-0.666,2.104-1.034c0.101-0.053,0.2-0.109,0.298-0.164c0.694-0.378,1.377-0.776,2.044-1.204  c0.076-0.052,0.151-0.103,0.23-0.154c0.685-0.447,1.361-0.918,2.016-1.423c0.033-0.026,0.064-0.051,0.094-0.075  c0.664-0.514,1.313-1.057,1.943-1.631c0.026-0.026,0.057-0.049,0.085-0.074c0.614-0.563,1.207-1.163,1.786-1.787  c0.067-0.075,0.14-0.148,0.211-0.224c0.393-0.433,0.78-0.874,1.154-1.335c11.596,2.953,23.505,5.791,35.486,8.452  c25.882,5.753,40.11,17.783,43.234,36.663H340.914h-20.566c-4.648,0-8.414,3.767-8.414,8.414c0,4.647,3.766,8.414,8.414,8.414  h20.566h152.815C490.259,335.911,480.9,342.945,469.929,342.945"/>
<g>
</g>
<g>
</g>
<g>
</g>
<g>
</g>
<g>
</g>
<g>
</g>
<g>
</g>
<g>
</g>
<g>
</g>
<g>
</g>
<g>
</g>
<g>
</g>
<g>
</g>
<g>
</g>
<g>
</g>
</svg>
