<?xml version="1.0" encoding="iso-8859-1"?>
<!-- Generator: Adobe Illustrator 19.0.0, SVG Export Plug-In . SVG Version: 6.00 Build 0)  -->
<svg xmlns="http://www.w3.org/2000/svg" xmlns:xlink="http://www.w3.org/1999/xlink" version="1.1" id="Layer_1" x="0px" y="0px" viewBox="0 0 512.002 512.002" style="enable-background:new 0 0 512.002 512.002;" xml:space="preserve">
<g>
	<path style="fill:#C63320;" d="M301.398,8.108h-0.05c0.014,0.095,0.018,0.192,0.024,0.288   C301.389,8.211,301.398,8.108,301.398,8.108z"/>
	<path style="fill:#C63320;" d="M210.654,8.108h-0.05c0,0,0.009,0.104,0.025,0.288C210.637,8.3,210.64,8.203,210.654,8.108z"/>
</g>
<path style="fill:#E03C2F;" d="M155.146,30.858l-0.002-0.008c0,0-17.014,10.71-27.368,59.292  C117.422,138.723,88.749,316.33,88.749,316.33l53.362,11.947l33.111-137.697C162.993,117.955,141.386,49.798,155.146,30.858z"/>
<path style="fill:#F79A8B;" d="M142.111,328.277L88.749,316.33c0,0,2.244-13.906,5.703-34.993l55.934,12.523L142.111,328.277z"/>
<path style="fill:#FF633E;" d="M231.945,503.892h24.057h78.846c0,0,26.284-82.432,0-186.368  c-26.283-103.935,51.371-272.383,17.92-290.303C319.319,9.302,310.16,8.108,301.398,8.108c-0.015,0-0.034,0-0.05,0  c0.029,0.199,0.05,0.397,0.05,0.598c0,7.589-20.325,13.739-45.396,13.739s-45.396-6.15-45.396-13.739  c0-0.201,0.021-0.399,0.05-0.598c-0.016,0-0.035,0-0.05,0c-8.762,0-17.921,1.196-51.37,19.115  c-33.45,17.92,44.203,186.368,17.92,290.303c-26.284,103.936,0,186.368,0,186.368h26.689"/>
<path style="fill:#C63320;" d="M256.001,22.444c-23.676,0-43.111-5.485-45.202-12.488c1.205,10.124,8.855,59.183,45.202,77  c36.346-17.817,43.995-66.876,45.201-77C299.112,16.958,279.678,22.444,256.001,22.444z"/>
<path style="fill:#E03C2F;" d="M391.059,125.652c12.641,69.556,32.195,190.678,32.195,190.678l-53.362,11.947L336.781,190.58  c12.227-72.625,33.836-140.781,20.076-159.723l0.001-0.008c0,0,17.015,10.71,27.369,59.292c0.546,2.56,1.143,5.478,1.782,8.709"/>
<path style="fill:#F79A8B;" d="M369.891,328.277l53.362-11.947c0,0-2.244-13.906-5.703-34.993l-55.935,12.523L369.891,328.277z"/>
<path style="fill:#C92820;" d="M157.371,89.993c0.569-2.843,1.102-5.432,1.591-7.738c0.841-3.948,1.726-7.647,2.639-11.14  c-2.112-16.385-2.745-29.946-0.775-39.159c-0.432,0.296-0.835,0.637-1.199,1.017c-5.815,6.097-16.68,21.529-24.109,56.386  c-0.191,0.897-0.39,1.851-0.595,2.838c-0.412,1.991-0.846,4.149-1.307,6.477c-0.014,0.071-0.028,0.147-0.042,0.217  c-0.12,0.613-0.243,1.235-0.366,1.869c-0.034,0.171-0.068,0.348-0.102,0.521c-0.104,0.53-0.206,1.065-0.312,1.611  c-0.05,0.255-0.101,0.518-0.15,0.778c-0.092,0.478-0.185,0.958-0.278,1.447c-0.057,0.294-0.114,0.597-0.171,0.895  c-0.089,0.463-0.177,0.924-0.266,1.396c-0.063,0.329-0.125,0.662-0.188,0.996c-0.086,0.457-0.174,0.918-0.262,1.383  c-0.065,0.341-0.129,0.685-0.195,1.03c-0.086,0.469-0.175,0.939-0.264,1.416c-0.066,0.352-0.133,0.707-0.199,1.063  c-0.093,0.497-0.187,1-0.281,1.505c-0.061,0.325-0.12,0.653-0.182,0.979c-0.099,0.535-0.199,1.075-0.298,1.618  c-0.066,0.355-0.131,0.708-0.197,1.067c-0.088,0.472-0.174,0.949-0.263,1.427c-0.079,0.435-0.159,0.87-0.24,1.309  c-0.084,0.464-0.17,0.931-0.255,1.399c-0.075,0.413-0.151,0.826-0.226,1.242c-0.115,0.633-0.231,1.272-0.347,1.914  c-0.049,0.262-0.095,0.521-0.144,0.785c-0.116,0.646-0.235,1.3-0.352,1.956c-0.059,0.325-0.116,0.648-0.175,0.975  c-0.11,0.604-0.219,1.215-0.33,1.826c-0.064,0.352-0.126,0.702-0.19,1.058c-0.346,1.933-0.697,3.897-1.052,5.892  c-0.055,0.305-0.11,0.615-0.164,0.922c-0.123,0.698-0.248,1.396-0.373,2.099c-0.079,0.448-0.159,0.9-0.239,1.351  c-0.096,0.544-0.194,1.086-0.29,1.634c-0.093,0.526-0.187,1.058-0.28,1.588c-0.091,0.511-0.179,1.019-0.27,1.532  c-0.086,0.492-0.173,0.987-0.259,1.481c-0.097,0.551-0.195,1.103-0.292,1.656c-0.097,0.557-0.196,1.115-0.293,1.673  c-0.081,0.465-0.162,0.929-0.244,1.395c-0.101,0.573-0.2,1.149-0.301,1.726c-0.092,0.524-0.184,1.05-0.276,1.575  c-0.086,0.498-0.174,0.998-0.261,1.497c-0.105,0.603-0.21,1.206-0.315,1.813c-0.084,0.486-0.17,0.973-0.254,1.463  c-0.099,0.572-0.2,1.147-0.298,1.721c-0.09,0.518-0.179,1.036-0.269,1.556c-0.101,0.575-0.2,1.151-0.298,1.73  c-0.093,0.531-0.184,1.063-0.277,1.596c-0.089,0.517-0.177,1.033-0.267,1.55c-0.107,0.617-0.212,1.235-0.32,1.853  c-0.074,0.435-0.15,0.872-0.225,1.308c-0.11,0.639-0.219,1.278-0.33,1.917c-0.098,0.569-0.196,1.14-0.293,1.71  c-0.093,0.539-0.185,1.078-0.278,1.618c-0.141,0.815-0.281,1.632-0.421,2.45c-0.045,0.267-0.091,0.533-0.137,0.801  c-0.102,0.592-0.203,1.187-0.304,1.782c-0.257,1.503-0.515,3.006-0.771,4.513c-0.023,0.131-0.044,0.262-0.068,0.391  c-0.323,1.895-0.645,3.793-0.968,5.692c-0.058,0.337-0.115,0.673-0.173,1.012c-0.133,0.789-0.267,1.577-0.401,2.366  c-0.051,0.297-0.102,0.597-0.152,0.895c-0.124,0.738-0.25,1.476-0.375,2.214c-0.075,0.442-0.149,0.883-0.225,1.326  c-0.093,0.551-0.186,1.103-0.279,1.653c-0.099,0.586-0.199,1.171-0.297,1.756c-0.103,0.609-0.204,1.216-0.307,1.825  c-0.086,0.513-0.173,1.026-0.259,1.539c-0.085,0.505-0.17,1.01-0.254,1.513c-0.114,0.672-0.227,1.345-0.339,2.016  c-0.085,0.506-0.171,1.012-0.255,1.515c-0.078,0.465-0.157,0.929-0.235,1.392c-0.124,0.744-0.249,1.484-0.374,2.226  c-0.056,0.334-0.112,0.666-0.168,0.999c-0.114,0.681-0.228,1.361-0.342,2.04c-0.101,0.595-0.2,1.187-0.298,1.778  c-0.08,0.477-0.16,0.955-0.24,1.43c-0.098,0.591-0.198,1.179-0.295,1.767c-0.092,0.548-0.184,1.096-0.276,1.641  c-0.062,0.366-0.121,0.731-0.183,1.096c-0.125,0.752-0.251,1.505-0.377,2.253c-0.251,1.5-0.498,2.99-0.746,4.472  c-0.244,1.462-0.485,2.913-0.725,4.354c-0.03,0.182-0.062,0.365-0.091,0.547c-0.157,0.933-0.31,1.863-0.465,2.788  c-0.011,0.068-0.023,0.135-0.034,0.203c-0.138,0.831-0.276,1.656-0.412,2.481c-0.036,0.212-0.07,0.425-0.106,0.637  c-0.126,0.763-0.253,1.521-0.379,2.278c-0.041,0.248-0.082,0.496-0.123,0.744c-0.11,0.663-0.218,1.32-0.328,1.976  c-0.068,0.414-0.137,0.83-0.205,1.241c-0.068,0.414-0.136,0.826-0.204,1.238c-0.107,0.644-0.213,1.285-0.319,1.924  c-0.085,0.518-0.171,1.033-0.256,1.547c-0.049,0.296-0.097,0.593-0.147,0.889c-0.121,0.737-0.243,1.468-0.363,2.196  c-0.035,0.214-0.07,0.428-0.106,0.641c-0.12,0.728-0.24,1.45-0.358,2.167c-0.038,0.224-0.074,0.448-0.111,0.67  c-0.104,0.626-0.205,1.249-0.308,1.868c-0.089,0.536-0.176,1.068-0.264,1.599c-0.052,0.311-0.103,0.623-0.153,0.932  c-0.131,0.793-0.262,1.583-0.389,2.361c-0.011,0.064-0.022,0.126-0.031,0.19c-0.102,0.615-0.201,1.22-0.301,1.826  c-0.069,0.423-0.139,0.849-0.209,1.268c-0.045,0.281-0.091,0.558-0.137,0.836c-0.091,0.558-0.184,1.115-0.273,1.663  c-0.041,0.248-0.08,0.49-0.12,0.735c-0.236,1.427-0.466,2.83-0.69,4.195l21.372,4.785  C132.308,232.126,148.857,132.626,157.371,89.993z"/>
<path style="fill:#EA7063;" d="M397.167,312.368l-5.825-24.211l-21.985,4.922l2.136,8.884l4.401,18.298  c0.969,4.011,4.973,6.502,8.997,5.612l17.655-3.952C399.994,319.372,398.074,316.128,397.167,312.368z"/>
<path style="fill:#C92820;" d="M385.392,263.421l-5.712-23.761l0.005-0.006l-0.023,0.006l-0.007,0.002l-25.052-104.184  c-3.419,17.598-7.003,36.006-10.087,54.328l24.833,103.275l0.001-0.001l21.992-4.924L385.392,263.421z"/>
<path style="fill:#EA7063;" d="M118.713,315.066c0.958-5.884,2.658-16.333,4.853-29.696c0,0,0.003-0.019,0.004-0.029l-21.372-4.785  c-2.065,12.578-3.667,22.413-4.567,27.952c-0.642,3.95,1.904,7.715,5.806,8.595l16.517,3.698  C118.871,319.17,118.377,317.143,118.713,315.066z"/>
<path style="fill:#B5281D;" d="M255.866,22.535c0-0.166-0.011-0.332-0.013-0.497c0.049-0.001,0.098,0,0.147-0.001  c0.156-0.002,0.309-0.006,0.466-0.009c0.565-0.01,1.13-0.022,1.69-0.037c0.126-0.003,0.252-0.009,0.378-0.013  c0.604-0.018,1.207-0.039,1.806-0.066c0.058-0.002,0.116-0.005,0.173-0.008c16.131-0.707,29.612-3.955,35.589-8.556  c0.055-0.041,0.105-0.083,0.157-0.125c0.192-0.151,0.377-0.303,0.552-0.457c0.05-0.044,0.096-0.089,0.145-0.133  c0.182-0.165,0.355-0.333,0.517-0.501c0.015-0.016,0.029-0.032,0.045-0.049c0.293-0.309,0.564-0.622,0.791-0.939  c0.203-0.284,0.424-0.55,0.657-0.799c-1.478,11.604-9.593,58.811-45.103,76.219c-9.766-4.788-17.451-11.835-23.504-19.77  C245.607,57.936,255.866,41.439,255.866,22.535z"/>
<path d="M431.259,315.038c0,0-2.245-13.914-5.707-35.013c-0.002-0.015-0.008-0.03-0.01-0.045  c-6.774-41.283-18.186-110.007-26.506-155.776c-0.801-4.405-5.022-7.336-9.426-6.527c-4.406,0.8-7.328,5.021-6.527,9.426  c7.814,42.99,18.371,106.327,25.225,147.997l-40.674,9.105l-22.576-93.888c0.067-0.395,0.132-0.79,0.199-1.185  c0.16-0.934,0.325-1.863,0.489-2.793c0.448-2.551,0.903-5.094,1.369-7.629c0.135-0.735,0.268-1.472,0.404-2.205  c0.269-1.449,0.543-2.893,0.816-4.335c0.143-0.752,0.285-1.504,0.43-2.254c0.277-1.443,0.556-2.883,0.836-4.319  c0.137-0.705,0.277-1.407,0.415-2.11c0.911-4.62,1.836-9.193,2.763-13.71c0.214-1.043,0.428-2.087,0.643-3.126  c0.221-1.066,0.44-2.127,0.66-3.187c0.277-1.331,0.553-2.66,0.83-3.986c0.169-0.805,0.336-1.613,0.504-2.413  c0.417-1.99,0.833-3.977,1.249-5.954c0.014-0.068,0.029-0.138,0.043-0.208c0.124-0.592,0.245-1.17,0.369-1.758  c0.216-1.031,0.433-2.067,0.648-3.087c0.213-1.014,0.422-2.013,0.63-3.014c0.137-0.655,0.275-1.316,0.411-1.965  c0.242-1.162,0.481-2.312,0.719-3.458c0.088-0.421,0.175-0.843,0.262-1.26c0.271-1.312,0.539-2.613,0.804-3.902  c0.035-0.171,0.07-0.342,0.105-0.512c3.685-17.995,6.631-33.759,7.978-47.001c2.681,7.133,5.34,15.973,7.667,26.885  c0.538,2.526,1.126,5.406,1.758,8.593c0.871,4.392,5.129,7.246,9.528,6.378c4.392-0.87,7.248-5.136,6.378-9.528  c-0.649-3.273-1.253-6.23-1.806-8.823c-9.365-43.946-24.358-59.256-29.425-63.329c-1.684-2.047-3.705-3.746-6.134-5.046  C321.811,1.44,311.776,0,301.348,0c-0.294,0-0.587,0.016-0.877,0.048c-0.105,0.012-0.206,0.036-0.31,0.051  c-0.184,0.027-0.369,0.05-0.549,0.09c-0.146,0.032-0.286,0.079-0.429,0.119c-0.135,0.038-0.272,0.067-0.404,0.111  c-0.145,0.049-0.284,0.111-0.426,0.168c-0.125,0.05-0.254,0.093-0.377,0.149c-0.159,0.072-0.311,0.16-0.465,0.243  c-0.099,0.053-0.202,0.099-0.298,0.157c-0.165,0.098-0.323,0.211-0.482,0.321c-0.079,0.054-0.161,0.102-0.238,0.159  c-0.163,0.122-0.317,0.258-0.472,0.393c-0.064,0.056-0.133,0.105-0.196,0.163c-0.155,0.144-0.297,0.301-0.441,0.457  c-0.054,0.058-0.112,0.111-0.165,0.171c-0.001,0.001-0.001,0.002-0.002,0.003c-0.003,0.003-0.007,0.006-0.009,0.01  c-0.01,0.011-0.016,0.025-0.026,0.036c-0.237,0.277-0.445,0.571-0.641,0.873c-0.05,0.077-0.097,0.152-0.144,0.23  c-0.19,0.318-0.364,0.644-0.508,0.984c-0.014,0.032-0.024,0.067-0.037,0.099c-0.13,0.317-0.235,0.641-0.323,0.971  c-0.023,0.083-0.045,0.165-0.065,0.25c-0.084,0.36-0.149,0.723-0.184,1.092c0,0.008-0.003,0.014-0.003,0.022  c-0.045,0.037-0.094,0.075-0.145,0.112c-0.15,0.114-0.312,0.229-0.498,0.348c-0.088,0.056-0.185,0.112-0.28,0.17  c-0.195,0.117-0.402,0.235-0.63,0.356c-0.117,0.062-0.242,0.124-0.368,0.187c-0.24,0.12-0.493,0.24-0.763,0.362  c-0.143,0.065-0.292,0.129-0.443,0.194c-0.293,0.125-0.601,0.252-0.926,0.379c-0.154,0.061-0.31,0.12-0.471,0.181  c-0.36,0.135-0.738,0.27-1.133,0.405c-0.139,0.048-0.277,0.095-0.421,0.143c-0.449,0.148-0.923,0.296-1.413,0.442  c-0.134,0.04-0.264,0.08-0.401,0.121c-0.526,0.154-1.081,0.304-1.652,0.453c-0.144,0.038-0.285,0.076-0.432,0.112  c-0.589,0.15-1.205,0.297-1.84,0.441c-0.15,0.034-0.299,0.068-0.452,0.102c-0.653,0.144-1.33,0.284-2.028,0.421  c-0.156,0.03-0.312,0.061-0.47,0.091c-0.717,0.136-1.456,0.267-2.218,0.392c-0.157,0.026-0.315,0.052-0.472,0.077  c-0.783,0.125-1.589,0.245-2.419,0.358c-0.155,0.022-0.31,0.041-0.467,0.062c-0.853,0.112-1.729,0.217-2.628,0.315  c-0.145,0.015-0.292,0.03-0.438,0.045c-0.928,0.096-1.876,0.185-2.851,0.264c-0.13,0.011-0.264,0.019-0.395,0.029  c-1.005,0.078-2.032,0.147-3.087,0.203c-0.106,0.005-0.214,0.01-0.32,0.015c-1.093,0.056-2.207,0.101-3.351,0.131  c-0.066,0.002-0.135,0.002-0.201,0.004c-1.193,0.03-2.411,0.048-3.659,0.048c-1.25,0-2.47-0.017-3.665-0.048  c-0.065-0.002-0.131-0.002-0.196-0.004c-1.149-0.03-2.269-0.076-3.366-0.132c-0.101-0.005-0.202-0.009-0.302-0.014  c-1.062-0.056-2.095-0.125-3.106-0.204c-0.125-0.01-0.252-0.018-0.376-0.028c-0.984-0.079-1.94-0.169-2.874-0.266  c-0.136-0.014-0.275-0.028-0.411-0.042c-0.912-0.098-1.798-0.205-2.661-0.319c-0.143-0.019-0.286-0.038-0.428-0.057  c-0.844-0.115-1.664-0.237-2.46-0.364c-0.143-0.023-0.285-0.045-0.427-0.069c-0.779-0.129-1.536-0.263-2.268-0.402  c-0.139-0.026-0.276-0.053-0.413-0.08c-0.719-0.141-1.416-0.284-2.086-0.433c-0.131-0.029-0.258-0.058-0.387-0.088  c-0.657-0.149-1.294-0.302-1.903-0.456c-0.123-0.031-0.243-0.064-0.364-0.095c-0.597-0.156-1.173-0.313-1.721-0.472  c-0.11-0.032-0.214-0.065-0.323-0.097c-0.537-0.16-1.057-0.322-1.544-0.484c-0.099-0.034-0.191-0.066-0.29-0.099  c-0.441-0.15-0.863-0.301-1.26-0.451c-0.117-0.044-0.229-0.088-0.342-0.132c-0.363-0.142-0.706-0.282-1.03-0.423  c-0.116-0.05-0.232-0.101-0.344-0.15c-0.302-0.135-0.581-0.269-0.844-0.401c-0.098-0.05-0.2-0.099-0.293-0.148  c-0.252-0.133-0.478-0.262-0.691-0.389c-0.084-0.051-0.173-0.102-0.251-0.152c-0.193-0.124-0.362-0.244-0.517-0.362  c-0.046-0.036-0.092-0.07-0.135-0.105c-0.001-0.011-0.004-0.022-0.005-0.032c-0.037-0.364-0.103-0.723-0.188-1.079  c-0.021-0.086-0.044-0.171-0.068-0.256c-0.09-0.328-0.197-0.651-0.328-0.965c-0.014-0.034-0.024-0.068-0.038-0.102  c-0.146-0.338-0.321-0.665-0.512-0.982c-0.048-0.079-0.096-0.155-0.146-0.231c-0.196-0.302-0.405-0.593-0.64-0.87  c-0.011-0.012-0.017-0.026-0.028-0.038c-0.003-0.003-0.006-0.006-0.009-0.01c-0.001-0.001-0.001-0.002-0.002-0.003  c-0.056-0.065-0.12-0.122-0.178-0.185c-0.139-0.15-0.278-0.304-0.427-0.442c-0.096-0.089-0.201-0.166-0.301-0.25  c-0.122-0.103-0.241-0.212-0.37-0.307c-0.122-0.091-0.252-0.168-0.378-0.251c-0.116-0.077-0.226-0.159-0.346-0.229  c-0.149-0.089-0.307-0.162-0.462-0.241c-0.103-0.052-0.202-0.112-0.307-0.16c-0.158-0.071-0.321-0.128-0.482-0.189  c-0.109-0.041-0.215-0.091-0.326-0.128c-0.158-0.053-0.32-0.09-0.481-0.132c-0.119-0.032-0.237-0.071-0.358-0.098  c-0.196-0.043-0.395-0.068-0.593-0.096c-0.09-0.013-0.177-0.034-0.268-0.044C211.192,0.016,210.899,0,210.604,0  c-10.379,0-20.414,1.44-55.2,20.075c-2.428,1.3-4.448,2.998-6.132,5.044c-5.065,4.07-20.06,19.378-29.428,63.333  c-7.441,34.908-24.448,137.082-33.382,191.517c-0.003,0.019-0.01,0.038-0.013,0.057c-3.461,21.099-5.707,35.013-5.707,35.013  c-0.683,4.233,2.049,8.267,6.233,9.204l53.362,11.947c0.597,0.134,1.192,0.199,1.779,0.199c0.458,0,0.911-0.039,1.355-0.115  c3.103-0.53,5.74-2.852,6.521-6.099l22.957-95.468c2.676,28.804,2.429,56.768-3.656,80.832  c-26.546,104.972-0.966,187.361,0.136,190.818c1.071,3.362,4.195,5.645,7.725,5.645h26.689c4.479,0,8.108-3.629,8.108-8.108  s-3.629-8.108-8.108-8.108h-20.517c-5.106-20.063-19.833-91.174,1.687-176.272c9.771-38.643,5.745-85.361-1.783-130.143  c-0.006-0.045-0.009-0.091-0.016-0.136c-0.061-0.36-0.125-0.717-0.186-1.077c-0.303-1.783-0.611-3.56-0.923-5.335  c-0.134-0.764-0.267-1.531-0.403-2.294c-0.374-2.095-0.755-4.182-1.139-6.265c-0.198-1.069-0.399-2.131-0.599-3.195  c-0.239-1.269-0.479-2.536-0.721-3.8c-0.219-1.145-0.44-2.287-0.662-3.428c-0.24-1.231-0.481-2.457-0.722-3.682  c-0.212-1.071-0.422-2.145-0.635-3.211c-0.422-2.113-0.845-4.217-1.271-6.308c-0.181-0.889-0.362-1.77-0.544-2.656  c-0.306-1.492-0.611-2.98-0.917-4.459c-0.179-0.868-0.359-1.733-0.538-2.599c-0.336-1.62-0.671-3.231-1.006-4.833  c-0.137-0.657-0.275-1.316-0.412-1.972c-0.449-2.145-0.896-4.278-1.339-6.389c-0.01-0.046-0.019-0.093-0.029-0.139  c-0.168-0.798-0.335-1.598-0.503-2.397c-0.096-0.461-0.193-0.922-0.29-1.38c-4.718-22.51-9.361-45.129-10.993-62.153  c-0.004-0.048-0.01-0.098-0.014-0.146c-0.049-0.512-0.089-1.008-0.132-1.509c-1.028-12.603,0.021-19.081,1.379-22.399  c0.32-0.744,0.676-1.419,1.089-1.988c0.012-0.016,0.021-0.034,0.032-0.051c0.488-0.643,0.953-1.005,1.325-1.204  c23.329-12.499,34.033-16.389,40.544-17.602c2.98,17.498,13.71,60.255,48.825,77.47c1.126,0.552,2.348,0.828,3.57,0.828  c1.222,0,2.443-0.276,3.57-0.828c35.118-17.215,45.847-59.977,48.826-77.473c6.495,1.21,17.196,5.097,40.543,17.605  c0.371,0.198,0.836,0.558,1.321,1.199c0.013,0.018,0.023,0.038,0.036,0.055c0.413,0.569,0.769,1.243,1.089,1.988  c1.359,3.315,2.406,9.791,1.38,22.385c-0.044,0.508-0.083,1.01-0.133,1.529c-0.003,0.043-0.009,0.088-0.013,0.131  c-1.632,17.025-6.275,39.649-10.994,62.162c-0.096,0.458-0.193,0.921-0.29,1.382c-0.168,0.799-0.335,1.599-0.503,2.397  c-0.01,0.046-0.019,0.093-0.029,0.139c-0.444,2.116-0.892,4.253-1.342,6.403c-0.133,0.636-0.266,1.272-0.399,1.908  c-0.342,1.633-0.683,3.275-1.026,4.927c-0.176,0.848-0.351,1.695-0.528,2.546c-0.306,1.482-0.612,2.973-0.918,4.468  c-0.182,0.885-0.363,1.767-0.544,2.656c-0.425,2.092-0.849,4.194-1.271,6.308c-0.212,1.063-0.422,2.131-0.632,3.198  c-0.244,1.237-0.488,2.473-0.729,3.717c-0.218,1.122-0.435,2.246-0.651,3.373c-0.249,1.296-0.494,2.594-0.739,3.896  c-0.195,1.036-0.39,2.07-0.584,3.11c-0.401,2.163-0.797,4.333-1.185,6.509c-0.118,0.662-0.232,1.326-0.349,1.99  c-0.318,1.806-0.632,3.615-0.94,5.429c-0.061,0.356-0.124,0.708-0.184,1.065c-0.008,0.044-0.009,0.09-0.016,0.134  c-7.527,44.783-11.554,91.501-1.783,130.144c21.521,85.104,6.79,156.219,1.687,176.272h-96.73c-4.479,0-8.108,3.629-8.108,8.108  s3.629,8.108,8.108,8.108h102.903c3.53,0,6.653-2.282,7.725-5.645c1.103-3.456,26.682-85.845,0.136-190.818  c-6.085-24.065-6.332-52.029-3.656-80.832l14.677,61.038c0.001,0.004,0.001,0.009,0.002,0.013l8.276,34.418  c0.892,3.711,4.21,6.214,7.875,6.214c0.587,0,1.183-0.065,1.779-0.199l53.362-11.947  C429.21,323.305,431.941,319.271,431.259,315.038z M97.974,310.087c0.744-4.575,1.801-11.067,3.093-18.961l39.511,8.846  l-4.484,18.65L97.974,310.087z M144.369,284.205l-40.673-9.105c9.165-55.71,24.957-150.186,32.008-183.267  c2.326-10.913,4.986-19.756,7.667-26.888c1.348,13.251,4.297,29.03,7.985,47.039c0.029,0.141,0.058,0.282,0.086,0.424  c0.271,1.323,0.546,2.658,0.825,4.005c0.072,0.35,0.146,0.706,0.219,1.058c0.257,1.237,0.515,2.48,0.777,3.736  c0.074,0.351,0.148,0.708,0.222,1.06c0.592,2.834,1.193,5.705,1.809,8.637c0.177,0.846,0.358,1.707,0.536,2.559  c0.236,1.122,0.471,2.245,0.707,3.372c0.199,0.95,0.399,1.91,0.599,2.867c0.256,1.227,0.512,2.457,0.769,3.689  c0.226,1.088,0.452,2.178,0.679,3.274c0.216,1.048,0.432,2.099,0.649,3.15c0.922,4.488,1.84,9.031,2.746,13.622  c0.144,0.73,0.288,1.457,0.431,2.188c0.276,1.41,0.549,2.824,0.82,4.241c0.151,0.787,0.302,1.575,0.451,2.364  c0.268,1.413,0.536,2.828,0.8,4.247c0.147,0.789,0.291,1.583,0.436,2.375c0.44,2.4,0.872,4.808,1.296,7.222  c0.181,1.028,0.362,2.055,0.54,3.086c0.066,0.384,0.129,0.77,0.195,1.155L144.369,284.205z M256.001,77.753  c-19.885-11.731-29.354-34.826-33.741-51.345c1.446,0.419,2.925,0.793,4.415,1.133c8.642,2.007,18.569,2.924,27.991,3.003  c0.509,0.005,0.961,0.008,1.335,0.008c0.374,0,0.826-0.002,1.335-0.008c9.403-0.079,19.309-0.991,27.938-2.991  c1.508-0.342,3.004-0.721,4.468-1.145C285.356,42.927,275.886,66.022,256.001,77.753z M371.424,299.972l39.512-8.846  c1.292,7.896,2.349,14.386,3.092,18.961l-38.12,8.536L371.424,299.972z"/>
<g>
</g>
<g>
</g>
<g>
</g>
<g>
</g>
<g>
</g>
<g>
</g>
<g>
</g>
<g>
</g>
<g>
</g>
<g>
</g>
<g>
</g>
<g>
</g>
<g>
</g>
<g>
</g>
<g>
</g>
</svg>
