<?xml version="1.0" encoding="iso-8859-1"?>
<!-- Generator: Adobe Illustrator 19.0.0, SVG Export Plug-In . SVG Version: 6.00 Build 0)  -->
<svg xmlns="http://www.w3.org/2000/svg" xmlns:xlink="http://www.w3.org/1999/xlink" version="1.1" id="Layer_1" x="0px" y="0px" viewBox="0 0 512.001 512.001" style="enable-background:new 0 0 512.001 512.001;" xml:space="preserve">
<path style="fill:#FF738D;" d="M472.281,475.192c1.522-22.358,2.315-45.226,2.315-68.491c0-138.674-28.027-263.29-72.581-349.193  H109.986C65.433,143.41,37.407,268.027,37.407,406.701c0,23.265,0.792,46.133,2.315,68.491"/>
<g>
	<path style="fill:#D82054;" d="M434.903,137.05c-9.542-29.116-20.58-55.812-32.887-79.541h-48.184   C353.832,57.51,349.235,136.421,434.903,137.05z"/>
	<path style="fill:#D82054;" d="M158.17,57.51h-48.185c-12.307,23.729-23.344,50.424-32.888,79.541   C162.767,136.421,158.17,57.51,158.17,57.51z"/>
</g>
<path style="fill:#B7DFF7;" d="M332.416,8.067H123.604c-7.307,0-13.23,5.921-13.23,13.23V57.51h291.255V21.297  c0-7.309-5.925-13.23-13.231-13.23h-28.373"/>
<path style="fill:#D82054;" d="M141.313,475.192h323.68c7.265,0,13.155,5.89,13.155,13.157v2.428  c0,7.266-5.891,13.157-13.155,13.157H47.01c-7.265,0-13.155-5.891-13.155-13.157v-2.428c0-7.267,5.891-13.157,13.155-13.157h67.412"/>
<path style="fill:#87CBF9;" d="M154.046,9.859h-23.664c-7.307,0-13.23,5.921-13.23,13.23v36.212h23.277h0.387V23.089  C140.817,15.781,146.739,9.859,154.046,9.859z"/>
<path style="fill:#FB5E80;" d="M105.779,206.131c0-53.142,13.415-103.149,37.035-146.83h-26.05  C72.211,145.203,44.186,269.82,44.186,408.494c0,23.265,0.792,46.133,2.315,68.491h219.313  C170.413,424.351,105.779,322.796,105.779,206.131z"/>
<g>
	<path style="fill:#BA0D50;" d="M142.814,59.302h-26.05c-12.307,23.729-23.344,50.424-32.888,79.541   c11.679-0.086,21.671-1.635,30.235-4.234C120.412,108.015,130.137,82.745,142.814,59.302z"/>
	<path style="fill:#BA0D50;" d="M259.49,473.398H148.091h-26.891H53.789c-7.265,0-13.155,5.89-13.155,13.156v2.428   c0,7.266,5.891,13.157,13.155,13.157h271.763C302.253,495.113,280.113,485.418,259.49,473.398z"/>
</g>
<path d="M480.45,473.852c1.465-22.145,2.214-44.724,2.214-67.15c0-97.59-14.169-192.2-39.843-271.192  c-0.063-0.327-0.145-0.652-0.251-0.973c-6.259-19.1-13.181-37.217-20.672-54.16c-0.089-0.201-0.179-0.401-0.267-0.602  c-1.247-2.81-2.507-5.588-3.784-8.332c-0.133-0.286-0.268-0.569-0.401-0.854c-1.269-2.712-2.551-5.395-3.851-8.039  c-0.108-0.218-0.216-0.433-0.324-0.652c-1.179-2.39-2.37-4.753-3.573-7.087V21.297C409.697,9.554,400.142,0,388.399,0h-28.374  c-4.456,0-8.067,3.611-8.067,8.067s3.611,8.067,8.067,8.067h28.374c2.847,0,5.164,2.316,5.164,5.163v28.145h-39.73H158.17h-39.73  V21.297c0-2.846,2.316-5.163,5.163-5.163h208.813c4.456,0,8.067-3.611,8.067-8.067S336.872,0,332.415,0H123.604  c-11.744,0-21.297,9.554-21.297,21.297v33.511c-1.208,2.343-2.403,4.714-3.586,7.114c-0.101,0.205-0.204,0.409-0.305,0.615  c-1.307,2.661-2.598,5.361-3.874,8.09c-0.124,0.265-0.248,0.527-0.372,0.793c-1.289,2.765-2.559,5.567-3.815,8.4  c-0.077,0.174-0.155,0.347-0.231,0.521c-7.496,16.952-14.423,35.081-20.69,54.197c-0.106,0.325-0.188,0.653-0.253,0.984  C43.507,214.51,29.34,309.116,29.34,406.702c0,22.441,0.749,45.019,2.214,67.149c-3.565,3.798-5.766,8.89-5.766,14.498v2.428  c0,11.703,9.52,21.223,21.222,21.223h417.983c11.703,0,21.222-9.521,21.222-21.223v-2.428  C486.215,482.742,484.013,477.65,480.45,473.852z M397.081,65.577c1.298,2.575,2.577,5.187,3.843,7.824  c0.426,0.886,0.842,1.793,1.265,2.687c0.837,1.774,1.673,3.552,2.494,5.352c0.479,1.048,0.951,2.11,1.425,3.168  c0.765,1.707,1.526,3.421,2.278,5.15c0.459,1.055,0.913,2.119,1.368,3.184c0.783,1.836,1.56,3.683,2.328,5.544  c0.387,0.937,0.773,1.874,1.156,2.817c0.89,2.19,1.768,4.397,2.637,6.62c0.239,0.611,0.48,1.217,0.717,1.83  c2.352,6.081,4.629,12.28,6.827,18.594c-18.538-1.975-33.147-8.529-43.524-19.553c-13.395-14.229-16.884-32.931-17.759-43.219  h34.943V65.577z M149.891,65.577c-0.84,10.231-4.282,28.8-17.685,43.111c-10.384,11.089-25.027,17.677-43.623,19.659  c2.207-6.339,4.492-12.561,6.854-18.664c0.21-0.542,0.424-1.078,0.635-1.618c0.893-2.287,1.797-4.555,2.712-6.807  c0.372-0.915,0.746-1.824,1.122-2.733c0.777-1.881,1.561-3.747,2.352-5.602c0.451-1.056,0.902-2.111,1.357-3.159  c0.752-1.731,1.513-3.443,2.278-5.15c0.477-1.063,0.95-2.13,1.431-3.182c0.817-1.789,1.647-3.556,2.479-5.319  c0.427-0.905,0.85-1.822,1.28-2.719c1.265-2.634,2.543-5.245,3.84-7.818C114.922,65.577,149.891,65.577,149.891,65.577z   M470.081,490.777c0,2.806-2.283,5.089-5.088,5.089H47.01c-2.805,0-5.088-2.282-5.088-5.089v-2.428c0-2.806,2.282-5.089,5.088-5.089  h67.412c4.456,0,8.067-3.611,8.067-8.067c0-4.456-3.611-8.067-8.067-8.067h-67.13c-1.204-19.959-1.817-40.247-1.817-60.423  c0-94.157,13.358-185.332,37.604-261.76c25.93-1.278,46.404-9.743,60.903-25.225c17.237-18.405,21.238-41.772,22.088-54.14h179.863  c0.85,12.368,4.851,35.736,22.088,54.141c14.498,15.482,34.973,23.947,60.903,25.225c24.247,76.43,37.605,167.603,37.605,261.761  c0,20.164-0.613,40.451-1.817,60.423H141.312c-4.456,0-8.067,3.611-8.067,8.067s3.611,8.067,8.067,8.067h323.68  c2.805,0,5.088,2.283,5.088,5.089v2.427H470.081z"/>
<g>
</g>
<g>
</g>
<g>
</g>
<g>
</g>
<g>
</g>
<g>
</g>
<g>
</g>
<g>
</g>
<g>
</g>
<g>
</g>
<g>
</g>
<g>
</g>
<g>
</g>
<g>
</g>
<g>
</g>
</svg>
