<?xml version="1.0" encoding="iso-8859-1"?>
<!-- Generator: Adobe Illustrator 19.0.0, SVG Export Plug-In . SVG Version: 6.00 Build 0)  -->
<svg xmlns="http://www.w3.org/2000/svg" xmlns:xlink="http://www.w3.org/1999/xlink" version="1.1" id="Layer_1" x="0px" y="0px" viewBox="0 0 512 512" style="enable-background:new 0 0 512 512;" xml:space="preserve">
<path style="fill:#54C685;" d="M368.745,503.888c3.259-23.042,5.018-47.474,5.018-72.784c0-82.291-18.518-155.345-47.144-201.21  c-2.238,1.487-4.922,2.358-7.812,2.358H193.197c-2.889,0-5.573-0.871-7.813-2.358c-28.625,45.865-47.143,118.92-47.143,201.21  c0,25.31,1.759,49.742,5.018,72.784H368.745z"/>
<path style="fill:#46AF71;" d="M189.429,339.88c0-50.933,15.109-98.329,41.07-137.98h-29.227c-4.182,0-7.571,3.39-7.571,7.571  v19.615c-29.52,47.299-47.143,122.519-47.143,201.21c0,22.419,1.389,44.681,4.128,66.17c0.482,3.781,3.7,6.614,7.511,6.614h91.156  C211.985,459.088,189.429,402.121,189.429,339.88z"/>
<path style="fill:#FFD89A;" d="M193.197,197.708h-14.133v14.13v6.281c0,7.806,6.328,14.13,14.133,14.13h125.611  c7.805,0,14.132-6.325,14.132-14.13v-6.281v-14.13h-5.104"/>
<path style="fill:#8CE187;" d="M304.698,197.708h23.138l22.589-139.87V8.112h-42.456v6.335c0,7.126-22.04,12.9-49.23,12.9h-5.472  c-27.192,0-49.23-5.774-49.23-12.9V8.112h-42.456v49.726l22.589,139.87h94.21"/>
<path style="fill:#54C685;" d="M253.266,81.517h5.472c27.19,0,49.23-22.038,49.23-49.232V14.447c0,7.126-22.04,12.9-49.23,12.9  h-5.472c-27.192,0-49.23-5.774-49.23-12.9v17.839C204.037,59.479,226.075,81.517,253.266,81.517z"/>
<path style="fill:#46AF71;" d="M307.969,18.471v-4.024c0,2.897-3.643,5.57-9.794,7.724  C302.379,21.145,305.741,19.886,307.969,18.471z"/>
<path style="fill:#71CE6A;" d="M212.785,201.43c0.352-0.348,0.72-0.679,1.109-0.986L191.465,61.559V24.813  c0-7.168,5.811-12.98,12.98-12.98l-34.573-5.498c-7.169,0-6.457,12.897-6.457,20.065l5.197,35.158l22.589,139.87h21.585V201.43z"/>
<path style="fill:#FFB76D;" d="M200.359,194.196c-3.037,0-5.825,1.051-8.035,2.799l0,0c-1.114,0.88-2.08,1.942-2.857,3.135  c-0.035,0.055-0.066,0.113-0.102,0.167c-0.204,0.326-0.395,0.66-0.57,1.005c-0.056,0.109-0.107,0.218-0.16,0.33  c-0.142,0.299-0.273,0.605-0.392,0.917c-0.054,0.138-0.106,0.278-0.155,0.42c-0.102,0.296-0.19,0.6-0.27,0.906  c-0.04,0.154-0.083,0.305-0.118,0.461c-0.071,0.319-0.124,0.646-0.172,0.973c-0.022,0.144-0.05,0.284-0.066,0.428  c-0.053,0.474-0.084,0.952-0.084,1.439v1.151v1.553v1.151v3.577v2.704c0,0.562,0.042,1.113,0.106,1.658  c0.019,0.167,0.051,0.331,0.076,0.496c0.058,0.382,0.129,0.759,0.217,1.13c0.042,0.175,0.085,0.348,0.134,0.521  c0.107,0.381,0.23,0.753,0.367,1.121c0.05,0.132,0.093,0.267,0.146,0.398c0.203,0.498,0.428,0.985,0.686,1.453  c0.002,0.006,0.007,0.012,0.01,0.017c0.252,0.459,0.534,0.898,0.834,1.324c0.075,0.107,0.157,0.208,0.235,0.313  c0.246,0.329,0.503,0.648,0.776,0.953c0.09,0.102,0.181,0.202,0.274,0.301c0.307,0.326,0.63,0.637,0.967,0.931  c0.061,0.053,0.116,0.11,0.176,0.16c0.42,0.356,0.858,0.69,1.317,0.995c2.238,1.489,4.924,2.36,7.814,2.36h13.615  c0.475-0.786,0.945-1.587,1.427-2.358v-0.001c-3.807-2.532-6.32-6.856-6.32-11.772v-2.704v-3.577v-1.151v-1.553v-1.151  c0-4.131,1.937-7.804,4.944-10.18l-0.452-2.799h-13.214L200.359,194.196L200.359,194.196z"/>
<path style="fill:#46AF71;" d="M275.457,25.543c1.069,3.923,1.651,8.046,1.651,12.308c0,19.953-12.516,36.976-30.122,43.667h3.364  c27.19,0,49.23-22.038,49.23-49.232V14.447C299.581,19.17,289.898,23.295,275.457,25.543z"/>
<path d="M336.819,231.121c2.651-3.661,4.233-8.146,4.233-13.001v-20.411c0-2.929-1.556-5.487-3.882-6.913l21.263-131.665  c0.068-0.427,0.104-0.86,0.104-1.293V8.112c0-4.481-3.631-8.112-8.112-8.112h-42.456c-4.48,0-8.112,3.631-8.112,8.112v4.49  c-0.011,0.008-0.022,0.015-0.032,0.023c-0.225,0.146-0.485,0.296-0.774,0.451c-0.037,0.019-0.072,0.039-0.11,0.058  c-0.293,0.153-0.62,0.308-0.975,0.466c-0.051,0.023-0.101,0.045-0.154,0.068c-0.358,0.157-0.747,0.315-1.165,0.474  c-0.068,0.026-0.136,0.052-0.206,0.078c-0.423,0.158-0.875,0.318-1.355,0.477c-0.081,0.027-0.163,0.054-0.247,0.081  c-0.488,0.159-1.004,0.318-1.547,0.476c-0.095,0.028-0.193,0.056-0.29,0.083c-0.552,0.158-1.13,0.315-1.737,0.469  c-0.108,0.027-0.217,0.055-0.328,0.082c-0.617,0.155-1.26,0.307-1.931,0.456c-0.118,0.026-0.237,0.052-0.356,0.078  c-0.684,0.149-1.393,0.296-2.131,0.439c-0.124,0.024-0.251,0.048-0.376,0.071c-0.753,0.143-1.531,0.282-2.337,0.416  c-0.127,0.021-0.256,0.041-0.384,0.063c-0.825,0.134-1.674,0.264-2.554,0.387c-0.123,0.017-0.251,0.034-0.375,0.051  c-0.901,0.123-1.826,0.242-2.783,0.353c-0.117,0.013-0.237,0.026-0.355,0.039c-0.979,0.11-1.983,0.214-3.018,0.309  c-0.107,0.01-0.217,0.018-0.326,0.028c-1.06,0.094-2.145,0.181-3.263,0.257c-0.09,0.006-0.183,0.011-0.274,0.017  c-1.147,0.076-2.319,0.143-3.525,0.197c-0.066,0.003-0.135,0.005-0.202,0.008c-1.237,0.054-2.503,0.097-3.802,0.127  c-0.038,0.001-0.076,0.001-0.114,0.002c-1.334,0.029-2.697,0.045-4.094,0.045h-5.472c-1.397,0-2.76-0.016-4.094-0.045  c-0.038-0.001-0.076-0.001-0.114-0.002c-1.299-0.029-2.565-0.072-3.802-0.127c-0.067-0.003-0.135-0.005-0.202-0.008  c-1.209-0.054-2.385-0.121-3.535-0.197c-0.085-0.005-0.174-0.011-0.26-0.016c-1.127-0.077-2.222-0.164-3.289-0.26  c-0.096-0.009-0.195-0.016-0.291-0.025c-1.047-0.095-2.062-0.2-3.05-0.313c-0.107-0.012-0.216-0.023-0.322-0.036  c-0.97-0.111-1.909-0.231-2.822-0.357c-0.11-0.015-0.222-0.03-0.331-0.045c-0.898-0.125-1.765-0.259-2.606-0.395  c-0.108-0.017-0.218-0.035-0.326-0.053c-0.829-0.137-1.627-0.281-2.399-0.427c-0.104-0.019-0.209-0.039-0.313-0.059  c-0.759-0.147-1.489-0.299-2.192-0.452c-0.098-0.022-0.198-0.043-0.296-0.065c-0.691-0.155-1.353-0.312-1.987-0.471  c-0.091-0.023-0.183-0.045-0.274-0.068c-0.625-0.159-1.22-0.32-1.787-0.482c-0.081-0.023-0.162-0.047-0.242-0.069  c-0.559-0.163-1.09-0.327-1.591-0.49c-0.069-0.023-0.137-0.045-0.204-0.068c-0.493-0.163-0.958-0.328-1.392-0.49  c-0.058-0.022-0.116-0.044-0.173-0.066c-0.427-0.163-0.826-0.326-1.191-0.485c-0.045-0.019-0.089-0.039-0.133-0.058  c-0.361-0.16-0.692-0.319-0.99-0.474c-0.035-0.018-0.067-0.036-0.101-0.053c-0.292-0.156-0.554-0.307-0.78-0.454  c-0.011-0.008-0.022-0.015-0.032-0.022v-4.49c0-4.481-3.631-8.112-8.112-8.112h-42.456c-4.481,0-8.112,3.631-8.112,8.112v49.726  c0,0.433,0.035,0.866,0.104,1.293l21.264,131.665c-2.326,1.427-3.882,3.985-3.882,6.913v20.411c0,4.855,1.582,9.339,4.232,13  c-28.686,49.238-45.056,121.618-45.056,199.984c0,25.133,1.715,50.003,5.098,73.92c0.566,4.002,3.991,6.977,8.032,6.977h225.487  c4.041,0,7.466-2.974,8.032-6.977c3.382-23.916,5.098-48.786,5.098-73.92C381.875,352.737,365.506,280.358,336.819,231.121z   M258.738,35.459c0.361,0,0.752-0.001,1.155-0.004c0.083,0,0.165-0.001,0.251-0.001c0.41-0.003,0.837-0.008,1.286-0.014  c0.067-0.001,0.135-0.002,0.203-0.003c0.421-0.006,0.857-0.014,1.308-0.024c0.076-0.001,0.147-0.002,0.223-0.004  c0.483-0.011,0.986-0.025,1.501-0.04c0.115-0.003,0.23-0.008,0.347-0.011c0.531-0.017,1.073-0.036,1.633-0.057  c0.049-0.002,0.098-0.004,0.147-0.006c0.525-0.022,1.063-0.045,1.609-0.072c0.125-0.006,0.25-0.012,0.376-0.018  c0.579-0.029,1.167-0.061,1.766-0.096c0.121-0.008,0.244-0.015,0.367-0.023c0.567-0.035,1.14-0.072,1.723-0.112  c0.078-0.005,0.154-0.011,0.233-0.016c0.626-0.044,1.262-0.094,1.904-0.147c0.153-0.012,0.305-0.025,0.459-0.038  c0.646-0.055,1.297-0.112,1.956-0.176c0.093-0.009,0.186-0.018,0.279-0.028c0.596-0.058,1.196-0.121,1.8-0.187  c0.15-0.016,0.299-0.032,0.449-0.049c0.655-0.074,1.314-0.153,1.975-0.236c0.159-0.019,0.318-0.041,0.477-0.062  c0.626-0.081,1.255-0.165,1.883-0.255c0.077-0.011,0.154-0.022,0.231-0.032c0.671-0.097,1.341-0.202,2.012-0.31  c0.177-0.028,0.354-0.057,0.531-0.087c0.662-0.11,1.324-0.224,1.984-0.345c0.136-0.025,0.27-0.052,0.407-0.078  c0.577-0.108,1.15-0.222,1.722-0.339c0.158-0.032,0.316-0.064,0.474-0.097c0.642-0.135,1.28-0.277,1.913-0.425  c0.176-0.041,0.353-0.083,0.528-0.125c0.611-0.146,1.218-0.297,1.818-0.455c0.096-0.026,0.193-0.051,0.289-0.077  c0.591-0.158,1.173-0.324,1.749-0.495c0.175-0.052,0.352-0.104,0.526-0.157c0.547-0.167,1.089-0.337,1.622-0.516v2.05  c0,22.673-18.446,41.119-41.118,41.119h-5.472c-22.672,0-41.118-18.446-41.118-41.119v-2.05c0.533,0.178,1.075,0.349,1.622,0.516  c0.174,0.053,0.349,0.105,0.526,0.157c0.578,0.171,1.16,0.337,1.749,0.495c0.096,0.026,0.191,0.051,0.289,0.077  c0.6,0.159,1.208,0.309,1.819,0.456c0.175,0.042,0.35,0.084,0.526,0.125c0.634,0.147,1.271,0.29,1.913,0.425  c0.158,0.034,0.317,0.065,0.475,0.097c0.571,0.118,1.145,0.23,1.721,0.339c0.135,0.026,0.27,0.052,0.407,0.078  c0.66,0.121,1.321,0.236,1.984,0.345c0.177,0.029,0.355,0.058,0.532,0.087c0.671,0.108,1.341,0.213,2.011,0.309  c0.078,0.011,0.156,0.022,0.235,0.032c0.628,0.09,1.255,0.174,1.88,0.255c0.159,0.021,0.319,0.041,0.478,0.062  c0.661,0.083,1.32,0.162,1.975,0.236c0.15,0.017,0.299,0.032,0.449,0.049c0.604,0.066,1.205,0.129,1.801,0.187  c0.093,0.009,0.186,0.018,0.278,0.028c0.659,0.064,1.31,0.121,1.957,0.176c0.153,0.013,0.305,0.026,0.458,0.038  c0.642,0.053,1.278,0.103,1.905,0.147c0.078,0.005,0.155,0.011,0.233,0.016c0.583,0.041,1.156,0.079,1.723,0.112  c0.122,0.008,0.246,0.015,0.367,0.023c0.599,0.036,1.189,0.068,1.766,0.096c0.127,0.006,0.251,0.012,0.376,0.018  c0.547,0.026,1.086,0.051,1.611,0.072c0.049,0.002,0.098,0.004,0.146,0.006c0.56,0.023,1.102,0.041,1.633,0.057  c0.117,0.003,0.233,0.008,0.348,0.011c0.515,0.015,1.017,0.029,1.5,0.04c0.077,0.002,0.148,0.003,0.224,0.004  c0.451,0.01,0.887,0.017,1.308,0.024c0.067,0.001,0.136,0.002,0.203,0.003c0.449,0.006,0.876,0.011,1.286,0.014  c0.085,0.001,0.167,0.001,0.251,0.001c0.403,0.002,0.794,0.004,1.155,0.004C253.264,35.459,258.738,35.459,258.738,35.459z   M169.693,16.224h26.232v16.062c0,31.618,25.723,57.344,57.343,57.344h5.472c31.618,0,57.343-25.724,57.343-57.344V16.224h26.232  v40.962l-21.383,132.409h-16.233c-4.481,0-8.112,3.631-8.112,8.112c0,4.481,3.631,8.112,8.112,8.112h20.129v12.299  c0,2.108-1.092,3.964-2.739,5.039c-0.206,0.134-0.42,0.253-0.638,0.36c-0.054,0.027-0.108,0.054-0.163,0.079  c-0.237,0.107-0.478,0.203-0.726,0.278c-0.028,0.009-0.058,0.014-0.087,0.023c-0.224,0.065-0.451,0.114-0.681,0.153  c-0.066,0.011-0.132,0.022-0.199,0.03c-0.26,0.035-0.522,0.057-0.787,0.057h-125.61c-0.265,0-0.528-0.023-0.787-0.057  c-0.067-0.009-0.133-0.019-0.2-0.03c-0.229-0.038-0.458-0.088-0.68-0.151c-0.029-0.009-0.059-0.014-0.088-0.023  c-0.247-0.076-0.488-0.171-0.724-0.278c-0.056-0.026-0.111-0.053-0.167-0.08c-0.216-0.107-0.429-0.224-0.634-0.357  c-1.647-1.075-2.741-2.931-2.741-5.04v-12.299h6.019h85.182c4.481,0,8.112-3.631,8.112-8.112s-3.631-8.112-8.112-8.112h-85.182  h-2.121L169.693,57.187V16.224z M361.648,495.776h-211.29c-2.658-21.014-4.003-42.733-4.003-64.672  c0-74.104,15.799-144.872,42.47-191.173c0.392,0.078,0.791,0.12,1.187,0.177c0.318,0.045,0.63,0.109,0.952,0.142  c0.74,0.075,1.485,0.113,2.235,0.113h125.611c0.75,0,1.495-0.039,2.234-0.113c0.332-0.034,0.654-0.098,0.982-0.147  c0.385-0.056,0.774-0.096,1.155-0.172c26.672,46.302,42.471,117.068,42.471,191.173  C365.651,453.043,364.305,474.763,361.648,495.776z"/>
<g>
</g>
<g>
</g>
<g>
</g>
<g>
</g>
<g>
</g>
<g>
</g>
<g>
</g>
<g>
</g>
<g>
</g>
<g>
</g>
<g>
</g>
<g>
</g>
<g>
</g>
<g>
</g>
<g>
</g>
</svg>
