<?xml version="1.0" encoding="iso-8859-1"?>
<!-- Generator: Adobe Illustrator 19.0.0, SVG Export Plug-In . SVG Version: 6.00 Build 0)  -->
<svg xmlns="http://www.w3.org/2000/svg" xmlns:xlink="http://www.w3.org/1999/xlink" version="1.1" id="Layer_1" x="0px" y="0px" viewBox="0 0 512 512" style="enable-background:new 0 0 512 512;" xml:space="preserve">
<path style="fill:#E79275;" d="M395.08,434.85c0.933-9.986,1.416-20.191,1.416-30.571c0-89.315-35.729-165.876-86.545-198.183  H202.044c-50.815,32.308-86.543,108.867-86.543,198.183c0,35.968,5.801,69.862,16.041,99.638h248.911  c4.517-13.138,8.173-27.077,10.846-41.64"/>
<path style="fill:#D37F66;" d="M172.196,332.704c0-71.312,42.931-132.586,104.353-159.417H218.91c-4.167,0-7.545,3.378-7.545,7.545  v25.424c-0.93,0.195-1.821,0.565-2.62,1.096c-43.934,29.127-75.729,92.003-82.975,164.091c-0.267,2.662-0.507,5.38-0.709,8.076  c-0.203,2.698-0.376,5.447-0.512,8.169c-0.068,1.369-0.128,2.74-0.18,4.114c-0.103,2.723-0.174,5.514-0.207,8.295  c-0.018,1.391-0.026,2.782-0.026,4.179c0,2.298,0.028,4.679,0.085,7.269c0.009,0.426,0.023,0.849,0.036,1.274l0.034,1.092  c0.047,1.631,0.099,3.26,0.17,4.884c0.03,0.702,0.068,1.4,0.105,2.094l0.033,0.641c0.078,1.494,0.162,2.988,0.261,4.473  c0.061,0.936,0.128,1.871,0.198,2.804c0.11,1.471,0.231,2.937,0.355,4.335l0.123,1.523c0.006,0.082,0.016,0.164,0.025,0.246  l0.045,0.37c0.869,9.153,2.121,18.22,3.714,26.907l0.048,0.276c0.087,0.47,0.183,0.963,0.276,1.431l0.274,1.413  c0.181,0.951,0.365,1.901,0.557,2.84c0.124,0.611,0.255,1.221,0.386,1.83l0.194,0.906c0.213,0.997,0.426,1.993,0.649,2.986  c0.198,0.877,0.402,1.748,0.606,2.618l0.037,0.157c0.225,0.965,0.454,1.924,0.689,2.882c0.23,0.931,0.463,1.864,0.7,2.785  c0.239,0.935,0.482,1.863,0.73,2.79c0.247,0.929,0.498,1.862,0.755,2.79c0.238,0.855,0.483,1.708,0.729,2.562l0.149,0.513  c0.232,0.805,0.464,1.61,0.701,2.403c0.202,0.673,0.407,1.337,0.613,2.002l0.411,1.324c0.203,0.66,0.406,1.319,0.615,1.973  c1,3.125,3.905,5.245,7.186,5.245h169.889C234.056,489.467,172.196,418.31,172.196,332.704z"/>
<g>
	<path style="fill:#F79C59;" d="M208.137,64.438V22.943c0-8.206-6.654-14.859-14.861-14.859c-8.207,0-14.861,6.653-14.861,14.859   v41.495H208.137z"/>
	<path style="fill:#F79C59;" d="M333.581,64.438V22.943c0-8.206-6.654-14.859-14.861-14.859c-8.205,0-14.859,6.653-14.859,14.859   v41.495H333.581z"/>
</g>
<rect x="202.729" y="173.282" style="fill:#FFB76D;" width="106.528" height="32.809"/>
<path id="SVGCleanerId_0" style="fill:#FFD89A;" d="M303.341,64.438c-2.514,13.025-13.968,22.863-27.729,22.863h-39.23  c-13.76,0-25.213-9.838-27.729-22.863h-30.24l24.317,108.848h106.532L333.58,64.438H303.341z"/>
<g>
	<path id="SVGCleanerId_0_1_" style="fill:#FFD89A;" d="M303.341,64.438c-2.514,13.025-13.968,22.863-27.729,22.863h-39.23   c-13.76,0-25.213-9.838-27.729-22.863h-30.24l24.317,108.848h106.532L333.58,64.438H303.341z"/>
</g>
<path style="fill:#F4C076;" d="M208.655,64.438h-30.24l24.317,108.848h31.872l-22.188-99.32  C210.624,71.091,209.32,67.882,208.655,64.438z"/>
<rect x="210.285" y="173.282" style="fill:#F79C59;" width="22.154" height="32.809"/>
<path d="M317.347,201.285v-27.107l24.123-107.977c0.003-0.014,0.004-0.028,0.007-0.042c0.056-0.26,0.1-0.525,0.13-0.793  c0.003-0.025,0.009-0.05,0.012-0.074c0.029-0.28,0.045-0.565,0.045-0.854V22.943C341.666,10.293,331.372,0,318.719,0  c-12.65,0-22.943,10.293-22.943,22.943v38.648c-0.158,0.421-0.286,0.86-0.374,1.316c-1.824,9.451-10.147,16.311-19.79,16.311h-39.23  c-9.642,0-17.965-6.86-19.791-16.312c-0.087-0.453-0.213-0.888-0.371-1.307V22.943C216.221,10.293,205.927,0,193.276,0  c-12.652,0-22.945,10.293-22.945,22.943v41.449c0,0.001,0,0.001,0,0.002v0.043c0,0.287,0.016,0.57,0.045,0.849  c0.003,0.034,0.012,0.069,0.016,0.103c0.03,0.259,0.072,0.514,0.126,0.764c0.003,0.015,0.004,0.03,0.008,0.045l24.122,107.977  v27.108c-53.102,35.883-87.231,115.009-87.231,202.992c0,35.551,5.699,70.915,16.48,102.267c1.123,3.263,4.193,5.455,7.644,5.455  h248.911c3.451,0,6.522-2.191,7.645-5.456c4.689-13.635,8.441-28.039,11.152-42.81c0.805-4.391-2.101-8.604-6.492-9.41  c-4.395-0.805-8.604,2.101-9.41,6.492c-2.205,12.02-5.137,23.772-8.73,35.014H137.379c-9.035-28.304-13.794-59.823-13.794-91.554  c0-83.179,31.665-157.438,80.854-190.099h103.118c49.19,32.661,80.856,106.92,80.856,190.099c0,9.981-0.466,20.013-1.382,29.819  c-0.416,4.445,2.852,8.386,7.297,8.802c4.434,0.412,8.385-2.85,8.802-7.297c0.964-10.304,1.452-20.842,1.452-31.325  C404.581,316.294,370.452,237.168,317.347,201.285z M311.945,22.943c0-3.736,3.039-6.775,6.775-6.775  c3.737,0,6.777,3.039,6.777,6.775v33.41h-13.551V22.943z M186.498,22.943c0-3.736,3.04-6.775,6.777-6.775  c3.737,0,6.777,3.039,6.777,6.775v33.41h-13.553V22.943z M202.637,72.522c5.415,13.572,18.689,22.863,33.747,22.863h39.23  c15.06,0,28.334-9.29,33.748-22.863h14.131l-20.706,92.68H209.21l-20.704-92.68H202.637z M210.816,198.01V181.37h90.363v16.641  H210.816z"/>
<g>
</g>
<g>
</g>
<g>
</g>
<g>
</g>
<g>
</g>
<g>
</g>
<g>
</g>
<g>
</g>
<g>
</g>
<g>
</g>
<g>
</g>
<g>
</g>
<g>
</g>
<g>
</g>
<g>
</g>
</svg>
