<?xml version="1.0" encoding="iso-8859-1"?>
<!-- Generator: Adobe Illustrator 19.0.0, SVG Export Plug-In . SVG Version: 6.00 Build 0)  -->
<svg xmlns="http://www.w3.org/2000/svg" xmlns:xlink="http://www.w3.org/1999/xlink" version="1.1" id="Layer_1" x="0px" y="0px" viewBox="0 0 511.999 511.999" style="enable-background:new 0 0 511.999 511.999;" xml:space="preserve">
<path style="fill:#E79275;" d="M290.336,177.926H19.241c-3.424,0-6.657,1.578-8.765,4.275c-2.107,2.7-2.855,6.219-2.023,9.539  l72.643,290.572c1.237,4.949,5.685,8.42,10.787,8.42h328.234c5.103,0,9.55-3.471,10.786-8.42l72.643-290.572  c0.831-3.32,0.084-6.84-2.021-9.539c-2.107-2.697-5.341-4.275-8.765-4.275H319.543"/>
<g>
	<circle style="fill:#D9DBDD;" cx="140.742" cy="234.88" r="20.384"/>
	<circle style="fill:#D9DBDD;" cx="372.01" cy="234.88" r="20.385"/>
</g>
<path style="fill:#B0DBFF;" d="M372.624,405.35v-95.728c0-9.825-7.966-17.79-17.789-17.79H157.168  c-9.825,0-17.789,7.966-17.789,17.79v95.728H372.624z"/>
<polyline style="fill:#FFB76D;" points="371.45,447.989 439.486,447.989 450.146,405.35 61.854,405.35 72.518,447.989   343.337,447.989 "/>
<path style="fill:#D37F66;" d="M129.645,479.871L57.001,189.299c-0.833-3.32-0.084-6.84,2.024-9.539  c2.106-2.697,5.341-4.275,8.765-4.275H23.743c-3.424,0-6.656,1.578-8.765,4.275c-2.106,2.7-2.854,6.219-2.021,9.539L85.6,479.871  c1.236,4.949,5.685,8.42,10.786,8.42h44.046C135.329,488.291,130.882,484.82,129.645,479.871z"/>
<path style="fill:#72B7DD;" d="M185.998,289.389h-22.229c-9.825,0-17.788,7.966-17.788,17.79v95.728h22.229V307.18  C168.209,297.355,176.173,289.389,185.998,289.389z"/>
<polygon style="fill:#F79C59;" points="110.405,402.908 66.359,402.908 72.17,426.146 77.021,445.547 121.063,445.547 "/>
<path d="M332.103,326.219H211.74c-4.481,0-8.112,3.631-8.112,8.112c0,4.481,3.631,8.112,8.112,8.112h120.364  c4.481,0,8.112-3.631,8.112-8.112C340.215,329.85,336.584,326.219,332.103,326.219z"/>
<path d="M185.428,326.219h-3.056c-4.481,0-8.112,3.631-8.112,8.112c0,4.481,3.631,8.112,8.112,8.112h3.056  c4.481,0,8.112-3.631,8.112-8.112C193.539,329.85,189.909,326.219,185.428,326.219z"/>
<path d="M507.918,177.207c-3.671-4.698-9.194-7.393-15.157-7.393H380.12V137.27c0-68.437-55.679-124.117-124.119-124.117  c-68.437,0-124.117,55.678-124.117,124.117v32.544H19.241c-5.963,0-11.486,2.695-15.159,7.397  c-3.672,4.704-4.946,10.718-3.498,16.498l53.394,213.572c0.003,0.012,0.003,0.024,0.006,0.037l6.41,25.631l12.833,51.333  c2.143,8.576,9.815,14.565,18.657,14.565h328.234c8.843,0,16.515-5.99,18.656-14.564l8.577-34.308  c0.001-0.005,0.004-0.011,0.005-0.016l10.659-42.639c0.001-0.005,0.001-0.011,0.003-0.015l53.398-213.593  C512.863,187.926,511.588,181.913,507.918,177.207z M420.118,482.621H91.884c-1.382,0-2.583-0.936-2.917-2.276l-6.061-24.245  h260.432c4.481,0,8.112-3.631,8.112-8.112c0-4.481-3.631-8.112-8.112-8.112H78.851l-2.249-8.989l-4.356-17.427h67.133h233.245  h67.132l-6.604,26.416H371.45c-4.481,0-8.112,3.631-8.112,8.112c0,4.481,3.631,8.112,8.112,8.112h57.646l-6.062,24.248  C422.7,481.687,421.501,482.621,420.118,482.621z M364.512,397.238H147.49v-87.616c0-5.337,4.341-9.679,9.678-9.679h197.666  c5.337,0,9.678,4.342,9.678,9.679L364.512,397.238L364.512,397.238z M495.678,189.774l-51.866,207.464h-63.076v-87.616  c0-14.283-11.619-25.902-25.901-25.902H157.168c-14.282,0-25.901,11.619-25.901,25.902v87.616H68.19L16.323,189.77  c-0.226-0.901-0.026-1.841,0.546-2.574c0.574-0.737,1.44-1.157,2.372-1.157h112.644v20.304c0,0.482,0.05,0.952,0.131,1.411  c-11.458,3.693-19.773,14.455-19.773,27.125c0,15.713,12.783,28.497,28.497,28.497c15.712,0,28.496-12.783,28.496-28.497  c0-13.19-9.008-24.31-21.193-27.544c0.04-0.327,0.067-0.655,0.067-0.993v-20.305h142.228c4.481,0,8.112-3.631,8.112-8.112  c0-4.481-3.631-8.112-8.112-8.112H148.108V137.27c0-59.493,48.401-107.893,107.893-107.893c59.494,0,107.896,48.401,107.896,107.893  v32.544h-44.353c-4.481,0-8.112,3.631-8.112,8.112c0,4.481,3.631,8.112,8.112,8.112h44.353v20.304c0,0.407,0.04,0.804,0.097,1.195  c-11.822,3.472-20.482,14.411-20.482,27.342c0,15.713,12.783,28.497,28.497,28.497c15.714,0,28.497-12.783,28.497-28.497  c0-12.931-8.66-23.87-20.482-27.342c0.058-0.392,0.097-0.788,0.097-1.195v-20.304h112.641c0.932,0,1.798,0.422,2.369,1.153  C495.705,187.928,495.904,188.869,495.678,189.774z M140.739,222.606c6.767,0,12.272,5.506,12.272,12.273  s-5.505,12.273-12.272,12.273s-12.273-5.506-12.273-12.273S133.972,222.606,140.739,222.606z M372.008,222.606  c6.767,0,12.273,5.506,12.273,12.273s-5.506,12.273-12.273,12.273c-6.767,0-12.273-5.506-12.273-12.273  S365.241,222.606,372.008,222.606z"/>
<g>
</g>
<g>
</g>
<g>
</g>
<g>
</g>
<g>
</g>
<g>
</g>
<g>
</g>
<g>
</g>
<g>
</g>
<g>
</g>
<g>
</g>
<g>
</g>
<g>
</g>
<g>
</g>
<g>
</g>
</svg>
