<?xml version="1.0" encoding="iso-8859-1"?>
<!-- Generator: Adobe Illustrator 19.0.0, SVG Export Plug-In . SVG Version: 6.00 Build 0)  -->
<svg xmlns="http://www.w3.org/2000/svg" xmlns:xlink="http://www.w3.org/1999/xlink" version="1.1" id="Layer_1" x="0px" y="0px" viewBox="0 0 512 512" style="enable-background:new 0 0 512 512;" xml:space="preserve">
<path style="fill:#8CE187;" d="M400.442,318.797v-75.044l73.489-27.031L433.223,84.048c-0.002-0.008-0.004-0.013-0.006-0.02  c-4.387-14.299-16.202-22.35-19.806-24.53l-76.32-43.812c0,0-10.77-7.602-31.252-7.602c-10.983,0-49.838,0-49.838,0  s-38.856,0-49.838,0c-20.482,0-31.252,7.602-31.252,7.602L98.59,59.498c-3.607,2.18-15.42,10.23-19.807,24.53  c-0.002,0.008-0.004,0.013-0.006,0.02L38.07,216.721l73.489,27.031v260.163h144.441h144.442V345.744"/>
<g>
	<polygon style="fill:#FFE8A5;" points="463.747,183.534 400.442,207.431 400.442,243.753 473.93,216.721  "/>
	<polygon style="fill:#FFE8A5;" points="48.253,183.534 111.557,207.431 111.557,243.753 38.07,216.721  "/>
</g>
<g>
	<polygon style="fill:#F2D17E;" points="81.722,196.912 103.473,205.122 103.473,241.444 81.722,233.443  "/>
	<polygon style="fill:#F2D17E;" points="429.2,196.912 407.448,205.122 407.448,241.444 429.2,233.443  "/>
</g>
<path style="fill:#54C685;" d="M305.838,8.084c-10.983,0-49.838,0-49.838,0s-38.856,0-49.838,0c-3.2,0-6.133,0.2-8.855,0.514  c5.383,27.508,29.609,48.267,58.692,48.267c29.083,0,53.309-20.76,58.692-48.267C311.971,8.285,309.037,8.084,305.838,8.084z"/>
<polyline style="fill:#FCF1D9;" points="306.945,168.574 334.133,168.574 334.133,201.518 177.865,201.518 177.865,168.574   279.039,168.574 "/>
<path style="fill:#31AF64;" d="M297.592,5.599c-8.25,0-32.231,0-43.65,0c3.2,0,6.132,0.2,8.855,0.514  c-3.958,20.22-18.103,36.782-36.867,44.145c6.762,2.653,14.12,4.123,21.825,4.123c29.083,0,53.309-20.76,58.692-48.267  C303.725,5.799,300.792,5.599,297.592,5.599z"/>
<path style="fill:#FFE8A5;" d="M206.711,191.014v-11.936c0-7.144,5.792-12.935,12.935-12.935h-21.549  c-7.143,0-12.935,5.79-12.935,12.935v11.936c0,7.143,5.792,12.935,12.935,12.935h21.549  C212.502,203.948,206.711,198.157,206.711,191.014z"/>
<path d="M481.659,214.35l-2.746-8.95L440.955,81.688c-0.008-0.023-0.014-0.045-0.022-0.067  c-5.236-17.019-19.189-26.531-23.342-29.042c-0.052-0.031-0.105-0.063-0.157-0.093L341.373,8.823  c-2.284-1.511-12.41-7.516-29.915-8.629c-0.361-0.024-0.722-0.05-1.082-0.069c-0.446-0.023-0.896-0.042-1.352-0.058  C307.965,0.027,306.905,0,305.838,0h-99.676c-1.067,0-2.128,0.027-3.187,0.067c-0.456,0.016-0.905,0.036-1.352,0.058  c-0.36,0.019-0.722,0.044-1.082,0.069c-17.505,1.112-27.632,7.117-29.915,8.629L94.565,52.487c-0.052,0.03-0.105,0.06-0.156,0.092  c-4.154,2.51-18.108,12.019-23.345,29.046c-0.005,0.019-0.012,0.038-0.017,0.056L34.154,201.923l-3.813,12.427  c-0.236,0.77-0.351,1.549-0.357,2.316c-0.016,2.302,0.958,4.502,2.646,6.038c0.75,0.682,1.641,1.234,2.648,1.604l68.195,25.084  v34.905v219.618c0,4.465,3.618,8.084,8.084,8.084h288.884c4.466,0,8.084-3.62,8.084-8.084V345.744c0-4.465-3.618-8.084-8.084-8.084  s-8.084,3.62-8.084,8.084v150.087H119.641V284.298v-40.545v-36.322v-38.856c0-4.465-3.618-8.084-8.084-8.084  s-8.084,3.62-8.084,8.084v27.164l-45.267-17.088L86.495,86.45c0.005-0.017,0.011-0.034,0.016-0.052  c3.521-11.474,13.182-18.109,16.186-19.937l76.238-43.765c0.218-0.125,0.359-0.211,0.565-0.357c0.06-0.041,4.141-2.708,11.861-4.523  c8.894,27.725,34.919,47.132,64.639,47.132c29.72,0,55.745-19.407,64.639-47.133c7.712,1.811,11.776,4.467,11.789,4.474  c0.206,0.146,0.419,0.281,0.637,0.406l76.237,43.764c3.005,1.829,12.667,8.468,16.187,19.938c0.005,0.017,0.011,0.034,0.016,0.052  l28.287,92.201l-45.267,17.088v-27.164c0-4.465-3.618-8.084-8.084-8.084s-8.084,3.62-8.084,8.084v38.856v36.322V291.9v26.897  c0,4.466,3.618,8.084,8.084,8.084s8.084-3.618,8.084-8.084V291.9v-42.507l68.195-25.084c1.008-0.371,1.898-0.922,2.648-1.604  c1.688-1.536,2.662-3.736,2.646-6.038C482.01,215.899,481.895,215.12,481.659,214.35z M103.473,213.02v19.146l-55.431-20.388  l5.412-17.638L103.473,213.02z M255.999,48.781c-21.451,0-40.385-13.262-48.078-32.613h96.158  C296.385,35.519,277.452,48.781,255.999,48.781z M458.544,194.139l5.412,17.638l-55.431,20.388v-19.146L458.544,194.139z"/>
<path d="M279.039,176.658c4.466,0,8.084-3.62,8.084-8.084c0-4.465-3.618-8.084-8.084-8.084H177.865c-4.466,0-8.084,3.62-8.084,8.084  v32.944c0,4.465,3.618,8.084,8.084,8.084h156.268c4.466,0,8.084-3.62,8.084-8.084v-32.944c0-4.465-3.618-8.084-8.084-8.084h-27.188  c-4.466,0-8.084,3.62-8.084,8.084c0,4.465,3.618,8.084,8.084,8.084h19.104v16.775H185.949v-16.775H279.039z"/>
<g>
</g>
<g>
</g>
<g>
</g>
<g>
</g>
<g>
</g>
<g>
</g>
<g>
</g>
<g>
</g>
<g>
</g>
<g>
</g>
<g>
</g>
<g>
</g>
<g>
</g>
<g>
</g>
<g>
</g>
</svg>
