<?xml version="1.0" encoding="iso-8859-1"?>
<!-- Generator: Adobe Illustrator 19.0.0, SVG Export Plug-In . SVG Version: 6.00 Build 0)  -->
<svg xmlns="http://www.w3.org/2000/svg" xmlns:xlink="http://www.w3.org/1999/xlink" version="1.1" id="Layer_1" x="0px" y="0px" viewBox="0 0 511.999 511.999" style="enable-background:new 0 0 511.999 511.999;" xml:space="preserve">
<g>
	<path style="fill:#FFE8A5;" d="M314.238,77.021h-24.277v14.044c0,8.086-6.556,14.644-14.643,14.644h-74.847   c-8.088,0-14.644-6.558-14.644-14.644V77.021H161.55l-12.941,99.623c21.881-24.602,53.771-40.105,89.285-40.105   s67.404,15.503,89.285,40.105L314.238,77.021z"/>
	<path style="fill:#FFE8A5;" d="M237.894,375.461c-35.514,0-67.404-15.503-89.285-40.105l12.941,99.621h24.276v-14.042   c0-8.089,6.556-14.644,14.644-14.644h74.847c8.087,0,14.643,6.556,14.643,14.644v14.042h24.277l12.941-99.621   C305.298,359.958,273.408,375.461,237.894,375.461z"/>
</g>
<path style="fill:#F5C282;" d="M192.021,428.403l-12.025-92.563c-0.042-0.322-0.064-0.647-0.064-0.971V177.132  c0-0.326,0.022-0.65,0.064-0.971l12.025-92.566c0.488-3.76,3.691-6.574,7.482-6.574h-23.888c-3.792,0-6.993,2.813-7.482,6.574  l-12.025,92.566c-0.042,0.322-0.064,0.647-0.064,0.971v157.737c0,0.326,0.022,0.65,0.064,0.971l12.025,92.563  c0.488,3.76,3.691,6.574,7.482,6.574h23.888C195.712,434.977,192.511,432.164,192.021,428.403z"/>
<circle style="fill:#FFB76D;" cx="237.891" cy="255.999" r="119.463"/>
<g>
	<path style="fill:#B7DFF7;" d="M311.802,214.836c6.8,12.182,10.674,26.22,10.674,41.164c0,46.714-37.87,84.583-84.582,84.583   s-84.582-37.87-84.582-84.583s37.87-84.581,84.582-84.581c22.292,0,42.569,8.624,57.679,22.717"/>
	<path style="fill:#B7DFF7;" d="M378.888,241.319h-22.431c0.59,4.811,0.899,9.712,0.899,14.68c0,4.97-0.309,9.871-0.899,14.682   h22.431c8.108,0,14.681-6.575,14.681-14.682C393.568,247.892,386.995,241.319,378.888,241.319z"/>
</g>
<g>
	<path style="fill:#FFB76D;" d="M289.961,489.272c0,8.086-6.556,14.644-14.643,14.644h-74.847c-8.088,0-14.644-6.558-14.644-14.644   v-68.336c0-8.089,6.556-14.644,14.644-14.644h74.847c8.087,0,14.643,6.556,14.643,14.644V489.272z"/>
	<path style="fill:#FFB76D;" d="M289.961,91.064c0,8.086-6.556,14.644-14.643,14.644h-74.847c-8.088,0-14.644-6.558-14.644-14.644   V22.728c0-8.088,6.556-14.644,14.644-14.644h74.847c8.087,0,14.643,6.556,14.643,14.644V91.064z"/>
</g>
<g>
	<polyline style="fill:#FFE8A5;" points="268.815,41.267 289.961,41.267 289.961,72.526 185.827,72.526 185.827,41.267    239.711,41.267  "/>
	<polyline style="fill:#FFE8A5;" points="242.945,470.733 185.827,470.733 185.827,439.474 289.961,439.474 289.961,470.733    270.97,470.733  "/>
</g>
<path style="fill:#F79C59;" d="M147.633,255.999c0-62.307,47.705-113.464,108.58-118.961c-3.585-0.324-7.212-0.499-10.882-0.499  c-65.977,0-119.463,53.484-119.463,119.46c0,65.979,53.486,119.463,119.463,119.463c3.669,0,7.297-0.175,10.882-0.499  C195.338,369.465,147.633,318.309,147.633,255.999z"/>
<path style="fill:#77C2E0;" d="M183.464,255.999c0-1.301,0.04-2.591,0.099-3.879c0.013-0.292,0.027-0.585,0.042-0.877  c0.069-1.261,0.162-2.517,0.287-3.762c0.017-0.166,0.04-0.331,0.057-0.497c0.12-1.135,0.265-2.264,0.429-3.383  c0.038-0.259,0.073-0.517,0.113-0.776c0.192-1.22,0.406-2.431,0.649-3.632c0.049-0.234,0.101-0.467,0.15-0.698  c0.227-1.082,0.475-2.156,0.743-3.221c0.049-0.196,0.095-0.391,0.146-0.585c0.305-1.182,0.64-2.353,0.998-3.514  c0.078-0.257,0.16-0.512,0.24-0.767c0.354-1.111,0.722-2.216,1.12-3.306c0.027-0.078,0.053-0.156,0.082-0.234  c0.421-1.147,0.874-2.28,1.341-3.404c0.108-0.254,0.215-0.509,0.322-0.762c0.48-1.116,0.974-2.224,1.499-3.315  c0.04-0.083,0.084-0.165,0.124-0.247c0.499-1.028,1.021-2.043,1.56-3.045c0.124-0.233,0.248-0.467,0.375-0.696  c0.101-0.186,0.198-0.375,0.301-0.561l0.078-0.099c4.282-7.647,9.716-14.555,16.069-20.499l0.08-0.102  c0.137-0.126,0.28-0.246,0.417-0.371c0.453-0.417,0.916-0.822,1.379-1.229c0.53-0.468,1.061-0.935,1.604-1.389  c0.475-0.4,0.963-0.787,1.447-1.176c0.55-0.439,1.099-0.876,1.659-1.303c0.497-0.379,1.005-0.748,1.509-1.117  c0.566-0.411,1.135-0.819,1.712-1.216c0.517-0.358,1.042-0.706,1.568-1.052c0.585-0.385,1.173-0.764,1.769-1.134  c0.535-0.334,1.074-0.659,1.617-0.98c0.605-0.358,1.213-0.707,1.825-1.051c0.552-0.307,1.105-0.61,1.665-0.907  c0.621-0.33,1.248-0.649,1.88-0.964c0.566-0.282,1.135-0.561,1.707-0.83c0.64-0.301,1.288-0.591,1.939-0.876  c0.579-0.254,1.158-0.508,1.743-0.748c0.661-0.273,1.328-0.531,1.998-0.788c0.587-0.225,1.177-0.452,1.771-0.664  c0.682-0.244,1.372-0.471,2.063-0.698c0.596-0.196,1.19-0.393,1.791-0.577c0.705-0.215,1.416-0.409,2.131-0.606  c0.6-0.165,1.198-0.336,1.802-0.487c0.733-0.184,1.473-0.346,2.213-0.511c0.598-0.134,1.191-0.275,1.794-0.395  c0.769-0.154,1.548-0.282,2.322-0.415c0.585-0.1,1.166-0.21,1.756-0.299c0.411-0.061,0.828-0.108,1.242-0.157  c-0.413-0.051-0.821-0.108-1.234-0.157c-0.556-0.066-1.107-0.147-1.667-0.203c-0.926-0.092-1.864-0.151-2.798-0.212  c-0.47-0.03-0.932-0.079-1.402-0.102c-1.411-0.069-2.829-0.108-4.257-0.108c-1.427,0-2.847,0.038-4.257,0.108  c-0.472,0.023-0.935,0.071-1.402,0.102c-0.935,0.063-1.871,0.121-2.798,0.212c-0.561,0.056-1.111,0.136-1.67,0.203  c-0.826,0.099-1.655,0.193-2.474,0.315c-0.59,0.088-1.171,0.199-1.756,0.299c-0.775,0.133-1.553,0.261-2.322,0.415  c-0.603,0.12-1.195,0.261-1.794,0.395c-0.739,0.164-1.48,0.327-2.213,0.511c-0.605,0.152-1.202,0.322-1.802,0.487  c-0.714,0.197-1.425,0.39-2.131,0.606c-0.603,0.183-1.195,0.382-1.791,0.577c-0.691,0.227-1.381,0.455-2.063,0.698  c-0.594,0.212-1.184,0.439-1.771,0.664c-0.669,0.257-1.337,0.516-1.998,0.788c-0.585,0.241-1.164,0.494-1.743,0.748  c-0.651,0.286-1.299,0.575-1.939,0.876c-0.572,0.269-1.141,0.548-1.707,0.83c-0.632,0.315-1.259,0.634-1.88,0.964  c-0.561,0.295-1.113,0.599-1.665,0.907c-0.612,0.343-1.221,0.693-1.825,1.051c-0.543,0.321-1.082,0.647-1.617,0.98  c-0.596,0.37-1.184,0.748-1.769,1.134c-0.526,0.345-1.051,0.694-1.568,1.052c-0.577,0.397-1.146,0.805-1.712,1.216  c-0.506,0.369-1.012,0.738-1.509,1.117c-0.561,0.427-1.109,0.864-1.659,1.303c-0.484,0.388-0.97,0.776-1.447,1.176  c-0.543,0.455-1.074,0.922-1.604,1.389c-0.463,0.406-0.926,0.812-1.379,1.229c-0.137,0.125-0.28,0.245-0.417,0.371l-0.08,0.102  c-6.354,5.946-11.788,12.854-16.069,20.499l-0.078,0.099c-0.103,0.185-0.2,0.374-0.301,0.561c-0.126,0.231-0.25,0.465-0.375,0.696  c-0.539,1.004-1.061,2.017-1.56,3.045c-0.04,0.082-0.084,0.164-0.124,0.247c-0.524,1.092-1.019,2.199-1.499,3.315  c-0.108,0.253-0.215,0.508-0.322,0.762c-0.468,1.124-0.921,2.257-1.341,3.404c-0.029,0.078-0.055,0.156-0.082,0.234  c-0.398,1.091-0.766,2.195-1.12,3.306c-0.08,0.255-0.162,0.511-0.24,0.767c-0.358,1.161-0.693,2.331-0.998,3.514  c-0.051,0.194-0.097,0.389-0.146,0.585c-0.267,1.065-0.516,2.139-0.743,3.221c-0.048,0.233-0.101,0.466-0.15,0.698  c-0.243,1.202-0.457,2.412-0.649,3.632c-0.04,0.258-0.075,0.517-0.113,0.776c-0.164,1.12-0.309,2.248-0.429,3.383  c-0.017,0.166-0.04,0.331-0.057,0.497c-0.124,1.245-0.217,2.501-0.287,3.762c-0.015,0.292-0.029,0.584-0.042,0.877  c-0.059,1.287-0.099,2.578-0.099,3.879c0,46.714,37.87,84.583,84.583,84.583c3.865,0,7.667-0.274,11.395-0.777  C215.369,334.27,183.464,298.871,183.464,255.999z"/>
<g>
	<path style="fill:#F79C59;" d="M215.418,489.272v-68.336c0-8.089,6.556-14.644,14.644-14.644h-22.154   c-8.088,0-14.644,6.556-14.644,14.644v68.336c0,8.086,6.556,14.644,14.644,14.644h22.154   C221.974,503.916,215.418,497.358,215.418,489.272z"/>
	<path style="fill:#F79C59;" d="M215.418,91.064V22.728c0-8.088,6.556-14.644,14.644-14.644h-22.154   c-8.088,0-14.644,6.556-14.644,14.644v68.336c0,8.086,6.556,14.644,14.644,14.644h22.154   C221.974,105.709,215.418,99.151,215.418,91.064z"/>
</g>
<g>
	<rect x="193.266" y="41.262" style="fill:#F5C282;" width="22.154" height="31.259"/>
	<rect x="193.266" y="439.477" style="fill:#F5C282;" width="22.154" height="31.259"/>
</g>
<path d="M378.888,233.235h-15.485c-4.09-22.609-14.162-43.159-28.508-59.957l-12.639-97.299c-0.523-4.028-3.955-7.043-8.017-7.043  h-16.193V41.267V22.728C298.045,10.196,287.849,0,275.317,0h-74.847c-12.533,0-22.728,10.196-22.728,22.728v18.539v27.669H161.55  c-4.063,0-7.493,3.015-8.017,7.043l-12.639,97.299c-19.034,22.288-30.546,51.183-30.546,82.719  c0,31.538,11.512,60.434,30.545,82.722l12.639,97.298c0.523,4.028,3.955,7.043,8.017,7.043h16.192v27.672v18.539  c0,12.533,10.196,22.728,22.728,22.728h74.847c12.532,0,22.727-10.196,22.727-22.728v-18.539V443.06h16.193  c4.063,0,7.493-3.015,8.017-7.043l12.639-97.298c14.346-16.797,24.419-37.347,28.508-59.955h15.485  c12.553,0,22.765-10.213,22.765-22.766C401.653,243.446,391.44,233.235,378.888,233.235z M193.911,80.61h87.964v10.454  c0,3.616-2.942,6.56-6.559,6.56H200.47c-3.616,0-6.56-2.943-6.56-6.56V80.61H193.911z M200.471,16.168h74.847  c3.616,0,6.559,2.943,6.559,6.56v10.454h-13.062c-4.466,0-8.084,3.618-8.084,8.084s3.618,8.084,8.084,8.084h13.062v15.09h-87.964  v-15.09h45.8c4.466,0,8.084-3.618,8.084-8.084s-3.618-8.084-8.084-8.084h-45.8V22.728C193.911,19.111,196.855,16.168,200.471,16.168  z M168.653,85.105h9.091v5.96c0,12.533,10.196,22.728,22.728,22.728h74.847c12.532,0,22.727-10.196,22.727-22.728v-5.96h9.092  l9.131,70.287c-2.224-1.73-4.513-3.362-6.839-4.938c-0.128-0.087-0.257-0.177-0.385-0.263c-0.772-0.518-1.547-1.033-2.329-1.535  c-0.953-0.613-1.915-1.214-2.886-1.802c-0.484-0.292-0.971-0.578-1.458-0.862c-1.214-0.715-2.436-1.416-3.676-2.091  c-0.015-0.009-0.03-0.017-0.045-0.026c-15.092-8.21-32.018-13.453-49.989-14.963c-0.058-0.005-0.115-0.011-0.174-0.015  c-1.636-0.135-3.281-0.238-4.933-0.312c-0.258-0.012-0.515-0.019-0.773-0.029c-1.622-0.061-3.249-0.102-4.886-0.102  s-3.264,0.041-4.886,0.102c-0.258,0.01-0.515,0.018-0.772,0.029c-1.652,0.072-3.297,0.176-4.934,0.312  c-0.058,0.005-0.116,0.011-0.174,0.015c-17.972,1.509-34.897,6.753-49.988,14.963c-0.015,0.009-0.03,0.017-0.045,0.026  c-1.24,0.675-2.462,1.376-3.677,2.091c-0.486,0.285-0.973,0.57-1.456,0.862c-0.971,0.589-1.935,1.19-2.889,1.804  c-0.78,0.5-1.553,1.013-2.324,1.531c-0.133,0.089-0.265,0.181-0.398,0.272c-2.322,1.574-4.609,3.203-6.831,4.931L168.653,85.105z   M180.177,160.774c0.011-0.006,0.022-0.013,0.031-0.019c0.709-0.431,1.424-0.853,2.143-1.269c0.346-0.199,0.695-0.393,1.044-0.59  c0.403-0.226,0.805-0.456,1.21-0.678c15.25-8.311,32.374-13.027,50.025-13.546c0.105-0.003,0.208-0.01,0.313-0.012  c0.982-0.026,1.965-0.04,2.95-0.04c0.985,0,1.968,0.013,2.95,0.04c0.105,0.002,0.208,0.009,0.312,0.012  c17.65,0.518,34.774,5.234,50.025,13.546c0.411,0.224,0.818,0.456,1.226,0.686c0.343,0.193,0.687,0.384,1.028,0.58  c0.72,0.416,1.437,0.839,2.147,1.271c0.01,0.006,0.019,0.012,0.029,0.017c28.588,17.392,48.759,47.29,52.877,82.039  c0.101,0.857,0.194,1.717,0.276,2.577c0.025,0.266,0.047,0.534,0.071,0.8c0.072,0.825,0.136,1.65,0.19,2.477  c0.018,0.279,0.037,0.557,0.053,0.838c0.049,0.831,0.085,1.662,0.114,2.493c0.01,0.262,0.023,0.523,0.03,0.786  c0.031,1.075,0.05,2.147,0.05,3.216c0,1.069-0.018,2.142-0.05,3.215c-0.008,0.265-0.021,0.528-0.03,0.793  c-0.03,0.827-0.066,1.655-0.114,2.482c-0.016,0.285-0.036,0.568-0.054,0.852c-0.054,0.819-0.116,1.638-0.188,2.457  c-0.024,0.274-0.047,0.548-0.073,0.821c-0.08,0.849-0.172,1.696-0.272,2.542c-4.215,35.638-25.316,66.176-55.064,83.359  c-0.324,0.186-0.651,0.369-0.978,0.552c-0.425,0.239-0.848,0.48-1.276,0.714c-15.249,8.308-32.37,13.023-50.017,13.542  c-0.103,0.003-0.207,0.01-0.312,0.012c-0.982,0.026-1.965,0.04-2.95,0.04c-0.985,0-1.968-0.013-2.95-0.04  c-0.105-0.002-0.208-0.009-0.313-0.012c-17.648-0.518-34.77-5.234-50.017-13.543c-0.423-0.232-0.842-0.47-1.261-0.706  c-0.331-0.186-0.664-0.371-0.994-0.561c-33.35-19.264-55.842-55.313-55.842-96.518C126.517,215.7,148.032,180.33,180.177,160.774z   M281.876,431.39h-87.964v-10.454c0-3.616,2.943-6.56,6.56-6.56h74.847c3.616,0,6.559,2.943,6.559,6.56v10.454H281.876z   M275.317,495.832h-74.847c-3.616,0-6.56-2.943-6.56-6.56v-10.454h49.033c4.466,0,8.084-3.618,8.084-8.084s-3.618-8.084-8.084-8.084  h-49.033v-15.09h87.964v15.09h-10.906c-4.466,0-8.084,3.618-8.084,8.084s3.618,8.084,8.084,8.084h10.906v10.454  C281.876,492.888,278.934,495.832,275.317,495.832z M307.136,426.893h-9.092v-5.958c0-12.533-10.196-22.728-22.727-22.728H200.47  c-12.533,0-22.728,10.196-22.728,22.728v5.958h-9.091l-9.131-70.285c2.233,1.739,4.533,3.377,6.868,4.958  c0.114,0.078,0.229,0.157,0.343,0.234c0.779,0.524,1.561,1.042,2.351,1.549c0.947,0.609,1.904,1.206,2.867,1.79  c0.492,0.296,0.985,0.586,1.48,0.876c1.2,0.706,2.408,1.399,3.632,2.066c0.027,0.015,0.054,0.03,0.081,0.045  c15.089,8.208,32.013,13.451,49.983,14.96c0.058,0.005,0.116,0.011,0.174,0.015c1.635,0.135,3.279,0.238,4.931,0.311  c0.259,0.012,0.517,0.019,0.776,0.029c1.621,0.061,3.248,0.102,4.884,0.102s3.263-0.041,4.884-0.102  c0.259-0.01,0.517-0.018,0.776-0.029c1.652-0.072,3.296-0.176,4.931-0.311c0.058-0.005,0.115-0.011,0.174-0.015  c17.97-1.509,34.893-6.751,49.983-14.96c0.027-0.015,0.054-0.03,0.081-0.045c1.224-0.667,2.433-1.36,3.632-2.066  c0.496-0.29,0.991-0.58,1.482-0.877c0.963-0.584,1.918-1.18,2.864-1.788c0.792-0.508,1.576-1.027,2.356-1.552  c0.111-0.074,0.22-0.151,0.331-0.225c2.339-1.583,4.642-3.224,6.877-4.964L307.136,426.893z M378.888,262.597h-13.617  c0.112-2.186,0.169-4.385,0.169-6.598c0-2.212-0.057-4.411-0.169-6.596h13.616c3.638,0,6.597,2.959,6.597,6.596  C385.484,259.637,382.525,262.597,378.888,262.597z"/>
<path d="M237.894,195.127c-4.466,0-8.084,3.618-8.084,8.084v33.19c-7.694,3.185-13.123,10.766-13.123,19.597  c0,11.695,9.513,21.209,21.207,21.209c3.147,0,6.127-0.708,8.815-1.943l17.301,16.124c1.558,1.453,3.535,2.171,5.509,2.171  c2.164,0,4.324-0.864,5.915-2.573c3.044-3.266,2.864-8.382-0.402-11.426l-17.304-16.126c0.872-2.317,1.371-4.816,1.371-7.435  c0-8.831-5.429-16.412-13.123-19.597v-33.19C245.978,198.747,242.36,195.127,237.894,195.127z M237.894,261.039  c-2.779,0-5.039-2.261-5.039-5.04c0-2.778,2.26-5.038,5.039-5.038s5.039,2.26,5.039,5.038  C242.933,258.778,240.673,261.039,237.894,261.039z"/>
<path d="M237.894,348.666c51.096,0,92.666-41.57,92.666-92.667c0-15.794-4.046-31.39-11.699-45.103  c-2.176-3.899-7.103-5.294-10.999-3.119c-3.899,2.176-5.295,7.101-3.119,10.999c6.312,11.309,9.649,24.181,9.649,37.223  c0,42.182-34.317,76.499-76.498,76.499s-76.498-34.317-76.498-76.499c0-42.18,34.317-76.497,76.498-76.497  c19.434,0,37.961,7.296,52.166,20.545c3.264,3.046,8.381,2.866,11.426-0.398c3.045-3.264,2.867-8.38-0.398-11.426  c-17.207-16.051-39.65-24.89-63.192-24.89c-51.096,0-92.666,41.569-92.666,92.665C145.228,307.095,186.798,348.666,237.894,348.666z  "/>
<g>
</g>
<g>
</g>
<g>
</g>
<g>
</g>
<g>
</g>
<g>
</g>
<g>
</g>
<g>
</g>
<g>
</g>
<g>
</g>
<g>
</g>
<g>
</g>
<g>
</g>
<g>
</g>
<g>
</g>
</svg>
