<?xml version="1.0" encoding="iso-8859-1"?>
<!-- Generator: Adobe Illustrator 19.0.0, SVG Export Plug-In . SVG Version: 6.00 Build 0)  -->
<svg xmlns="http://www.w3.org/2000/svg" xmlns:xlink="http://www.w3.org/1999/xlink" version="1.1" id="Layer_1" x="0px" y="0px" viewBox="0 0 512 512" style="enable-background:new 0 0 512 512;" xml:space="preserve">
<path style="fill:#C63320;" d="M289.862,319.245c0,7.522-6.098,13.62-13.62,13.62h-40.295c-7.522,0-13.62-6.098-13.62-13.62v-48.241  c0-7.522,6.098-13.62,13.62-13.62h40.296c7.522,0,13.62,6.099,13.62,13.62v48.241H289.862z"/>
<path style="fill:#EA463D;" d="M369.572,365.217c22.407,6.515,43.354,7.696,54.866-4.028c14.701-14.972,19.702-40.122,19.228-66.065  c0.474-25.945-4.527-51.094-19.228-66.067c-28.019-28.536-111.918,19.372-136.752,34.577c1.372,2.127,2.176,4.651,2.176,7.369  v48.241c0,2.717-0.804,5.243-2.176,7.366c10.925,6.689,33.283,19.709,57.284,29.764"/>
<path style="fill:#E03C2F;" d="M87.561,229.057c28.019-28.536,111.92,19.372,136.752,34.577c-1.372,2.127-2.176,4.651-2.176,7.369  v48.241c0,2.717,0.804,5.243,2.176,7.366c-24.835,15.207-108.733,63.114-136.752,34.578c-14.701-14.972-19.704-40.122-19.226-66.065  C67.857,269.18,72.861,244.03,87.561,229.057z"/>
<path style="fill:#CE3028;" d="M138.49,351.82c-14.701-14.972-19.704-40.122-19.226-66.065  c-0.458-24.788,4.112-48.826,17.339-63.979c-17.098-3.203-32.242-2.054-41.404,7.278c-14.701,14.973-19.705,40.123-19.226,66.068  c-0.479,25.943,4.526,51.092,19.226,66.065c13.82,14.075,41.235,9.55,68.452-0.473C153.397,360.637,144.608,358.054,138.49,351.82z"/>
<path style="fill:#E03C2F;" d="M338.616,288.689c0-22.687,8.89-43.285,23.354-58.547c-27.396,10.315-54.309,25.935-66.645,33.489  c1.372,2.127,2.176,4.651,2.176,7.369v48.241c0,2.717-0.804,5.243-2.176,7.366c10.924,6.689,33.283,19.709,57.283,29.764  l24.602,8.843c6.703,1.948,13.271,3.415,19.498,4.207C362.95,358.113,338.616,326.252,338.616,288.689z"/>
<path style="fill:#AF2015;" d="M252.174,319.242v-48.241c0-7.522,6.098-13.621,13.62-13.621h-17.888h-2.161h-2.161  c-7.522,0-13.62,6.098-13.62,13.621v48.241c0,7.522,6.098,13.62,13.62,13.62h2.161h2.161h17.888  C258.272,332.863,252.174,326.765,252.174,319.242z"/>
<path style="fill:#49BAED;" d="M365.519,150.435c-33.536-5.572-70.862-8.522-109.52-8.522c-63.859,0-124.088,8.05-169.595,22.67  c-64.714,20.788-78.3,47.69-78.3,66.596c0,16.994,10.986,40.448,60.212,60.117c0.027-10.24,0.95-20.279,3.027-29.54  c-25.287-11.395-34.861-23.023-34.861-30.577c0-9.573,15.348-25.685,58.601-39.578c42.778-13.742,99.924-21.31,160.916-21.31  c60.99,0,118.138,7.568,160.916,21.31c43.253,13.894,58.602,30.005,58.602,39.578c0,7.554-9.571,19.181-34.861,30.577  c2.077,9.261,2.999,19.3,3.029,29.54c49.224-19.669,60.21-43.123,60.21-60.117c0-18.906-13.584-45.807-78.3-66.596  c-10.431-3.351-21.636-6.356-33.482-9"/>
<path d="M512,231.179c0-21.602-14.561-52.03-83.926-74.312c-10.575-3.398-22.081-6.49-34.196-9.194  c-4.378-0.968-8.702,1.778-9.676,6.146c-0.974,4.369,1.778,8.701,6.146,9.676c11.636,2.596,22.662,5.56,32.768,8.805  c47.544,15.273,72.674,35.633,72.674,58.879c0,17.926-15.311,34.396-44.453,47.992c-0.078-1.036-0.169-2.08-0.269-3.127  c-0.011-0.107-0.021-0.215-0.031-0.322c-0.098-1.009-0.205-2.022-0.327-3.04c-0.002-0.014-0.003-0.028-0.004-0.041  c-0.119-0.997-0.25-1.998-0.392-3.002c-0.028-0.196-0.058-0.389-0.086-0.585c-0.108-0.738-0.221-1.476-0.343-2.215  c-0.025-0.15-0.045-0.304-0.07-0.453c21.864-10.88,33.809-23.263,33.809-35.207c0-16.946-23.41-34.183-64.228-47.295  c-43.557-13.992-101.585-21.698-163.395-21.698s-119.839,7.706-163.395,21.698c-40.817,13.112-64.228,30.35-64.228,47.295  c0,11.943,11.945,24.326,33.809,35.207c-0.023,0.137-0.042,0.279-0.065,0.416c-0.128,0.774-0.246,1.546-0.359,2.319  c-0.024,0.165-0.05,0.33-0.073,0.495c-0.292,2.059-0.533,4.108-0.731,6.139c-0.009,0.083-0.016,0.168-0.024,0.251  c-0.102,1.06-0.193,2.115-0.272,3.163c-29.138-13.594-44.452-30.064-44.452-47.989c0-22.914,25.81-43.824,72.674-58.879  c44.726-14.368,104.075-22.281,167.117-22.281c37.658,0,75.07,2.908,108.19,8.412c4.418,0.733,8.59-2.251,9.324-6.666  s-2.251-8.59-6.666-9.324c-34.469-5.727-71.764-8.631-110.848-8.631c-64.68,0-125.79,8.189-172.074,23.058  C14.561,179.149,0,209.577,0,231.179c0,18.342,10.613,44.33,60.211,65.535c-0.204,22.191,3.487,51.738,21.567,70.153  c7.378,7.513,17.945,11.323,31.412,11.323c35.454,0,85.371-26.797,109.969-41.421c3.592,2.629,8.004,4.202,12.787,4.202h40.296  c4.745,0,9.126-1.546,12.703-4.138c12.318,7.313,31.962,18.249,52.892,27.017c4.127,1.732,8.879-0.215,10.607-4.343  c1.73-4.129-0.214-8.879-4.343-10.606c-19.849-8.316-38.581-18.717-50.485-25.77c0.061-0.332,0.092-0.669,0.136-1.004  c0.036-0.266,0.082-0.528,0.108-0.796c0.067-0.691,0.106-1.385,0.106-2.085v-3.696l48.684,6.681  c0.374,0.051,0.745,0.076,1.112,0.076c3.986,0,7.462-2.944,8.019-7.004c0.608-4.435-2.494-8.523-6.928-9.131l-50.887-6.983v-9.456  l50.887-6.985c4.435-0.608,7.536-4.698,6.928-9.131c-0.608-4.435-4.696-7.522-9.131-6.928l-48.684,6.683v-2.366  c0-0.7-0.039-1.396-0.106-2.088c-0.026-0.267-0.072-0.526-0.108-0.79c-0.045-0.338-0.077-0.679-0.138-1.014  c45.801-27.186,102.886-50.868,121.039-32.376c7.209,7.342,11.501,17.412,13.963,28.045c0.032,0.25,0.073,0.499,0.13,0.749  c1.85,8.25,2.803,17.599,2.832,27.79c0,0.054,0.01,0.107,0.011,0.16c0.002,1.187-0.008,2.354-0.028,3.496  c-0.001,0.099-0.001,0.199,0,0.297c0.352,19.265-2.294,45.354-16.908,60.237c-9.809,9.989-30.874,6.563-46.821,1.924  c-4.299-1.251-8.796,1.222-10.046,5.52c-1.249,4.298,1.222,8.795,5.52,10.046c11.838,3.442,22.344,5.161,31.479,5.161  c13.525,0,24.044-3.769,31.434-11.294c18.077-18.412,21.771-47.959,21.57-70.153C501.389,275.509,512,249.519,512,231.179z   M113.191,361.981c-8.953,0-15.63-2.176-19.846-6.47c-14.617-14.887-17.261-40.974-16.906-60.236c0.001-0.1,0.001-0.2,0-0.299  c-0.021-1.139-0.03-2.305-0.029-3.488c0.001-0.056,0.011-0.112,0.011-0.169c0.027-10.187,0.979-19.536,2.83-27.789  c0.056-0.252,0.098-0.505,0.131-0.756c2.461-10.628,6.754-20.694,13.962-28.036c4.216-4.294,10.893-6.471,19.847-6.471  c31.745,0,80.214,26.451,101.191,38.854c-0.232,1.275-0.35,2.575-0.35,3.885v2.366l-48.682-6.683  c-4.432-0.608-8.522,2.494-9.131,6.928c-0.608,4.435,2.493,8.523,6.928,9.131l50.885,6.985v9.456l-50.885,6.983  c-4.435,0.608-7.536,4.698-6.928,9.131c0.558,4.061,4.032,7.004,8.019,7.004c0.367,0,0.739-0.025,1.112-0.076l48.682-6.681v3.696  c0,1.31,0.118,2.608,0.349,3.882C193.403,335.531,144.929,361.981,113.191,361.981z M235.947,324.76  c-3.041,0-5.516-2.475-5.516-5.516v-48.241c0-3.041,2.474-5.516,5.516-5.516h40.296c2.25,0,4.182,1.358,5.039,3.294  c0.039,0.088,0.067,0.179,0.102,0.268c0.086,0.226,0.161,0.458,0.217,0.698c0.021,0.086,0.041,0.174,0.057,0.262  c0.059,0.324,0.1,0.654,0.1,0.994v48.241c0,0.334-0.041,0.656-0.098,0.974c-0.019,0.106-0.043,0.21-0.069,0.314  c-0.051,0.212-0.118,0.416-0.192,0.618c-0.042,0.111-0.077,0.225-0.125,0.333c-0.122,0.272-0.263,0.535-0.425,0.781  c-0.014,0.023-0.026,0.048-0.041,0.07c-0.993,1.462-2.668,2.426-4.565,2.426h-40.296V324.76z M352.031,222.351  c-24.458,9.142-48.376,22.322-63.088,31.063c-3.577-2.589-7.956-4.136-12.7-4.136h-40.296c-4.782,0-9.192,1.571-12.784,4.198  c-24.595-14.623-74.509-41.422-109.971-41.422c-13.467,0-24.036,3.809-31.413,11.324c-7.368,7.504-12.341,16.86-15.64,26.813  c-17.345-9.243-21.551-16.835-21.551-19.013c0-3.135,8.991-17.732,52.975-31.862c41.997-13.491,98.265-20.921,158.437-20.921  s116.44,7.43,158.437,20.921c43.984,14.129,52.975,28.727,52.975,31.862c0,2.179-4.206,9.771-21.551,19.013  c-3.299-9.953-8.272-19.309-15.64-26.813C415.799,208.691,389.493,208.346,352.031,222.351z"/>
<g>
</g>
<g>
</g>
<g>
</g>
<g>
</g>
<g>
</g>
<g>
</g>
<g>
</g>
<g>
</g>
<g>
</g>
<g>
</g>
<g>
</g>
<g>
</g>
<g>
</g>
<g>
</g>
<g>
</g>
</svg>
