<?xml version="1.0" encoding="iso-8859-1"?>
<!-- Generator: Adobe Illustrator 19.0.0, SVG Export Plug-In . SVG Version: 6.00 Build 0)  -->
<svg xmlns="http://www.w3.org/2000/svg" xmlns:xlink="http://www.w3.org/1999/xlink" version="1.1" id="Layer_1" x="0px" y="0px" viewBox="0 0 512 512" style="enable-background:new 0 0 512 512;" xml:space="preserve">
<g>
	<path style="fill:#B7DFF7;" d="M408.101,181.481H296.779c-7.777,0-14.082,6.306-14.082,14.083v22.884v23.469v14.083   c0,41.155,42.559,74.518,95.054,74.518c52.497,0,95.056-33.363,95.056-74.518v-14.083v-23.469v-22.884   c0-7.777-6.307-14.083-14.084-14.083H435.63"/>
	<path style="fill:#B7DFF7;" d="M215.22,181.481H53.276c-7.777,0-14.082,6.306-14.082,14.083v22.884v23.469v14.083   c0,41.155,42.558,74.518,95.054,74.518c52.497,0,95.055-33.363,95.055-74.518v-14.083v-23.469v-22.884   C229.303,187.788,222.997,181.481,215.22,181.481z"/>
</g>
<g>
	<path style="fill:#9ACEE8;" d="M89.462,256.001v-14.083v-23.469v-22.885c0-7.777,6.305-14.083,14.082-14.083h-43.25   c-7.777,0-14.082,6.306-14.082,14.083v22.884v23.469v14.083c0,41.155,42.558,74.518,95.054,74.518   c7.44,0,14.679-0.672,21.625-1.939C120.813,320.906,89.462,291.324,89.462,256.001z"/>
	<path style="fill:#9ACEE8;" d="M332.965,256.001v-14.083v-23.469v-22.885c0-7.777,6.305-14.083,14.082-14.083h-43.25   c-7.777,0-14.082,6.306-14.082,14.083v22.884v23.469v14.083c0,41.155,42.557,74.518,95.054,74.518   c7.44,0,14.679-0.672,21.624-1.939C364.317,320.906,332.965,291.324,332.965,256.001z"/>
</g>
<g>
	<path style="fill:#527A84;" d="M22.18,197.52c-7.779,0-14.083,6.305-14.083,14.083v5.868v9.78v5.867   c0,7.778,6.304,14.083,14.083,14.083h17.015v-5.868v-37.943v-5.869L22.18,197.52L22.18,197.52z"/>
	<path style="fill:#527A84;" d="M489.821,197.52c7.777,0,14.082,6.305,14.082,14.083v5.868v9.78v5.867   c0,7.778-6.305,14.083-14.082,14.083h-17.015v-5.868v-37.943v-5.869L489.821,197.52L489.821,197.52z"/>
</g>
<path d="M369.653,298.442c0,4.473,3.624,8.097,8.097,8.097c32.961,0,61.563-17.988,69.555-43.744  c1.326-4.271-1.062-8.808-5.333-10.133c-4.277-1.327-8.808,1.063-10.133,5.333c-5.816,18.743-28.564,32.349-54.088,32.349  C373.279,290.345,369.653,293.97,369.653,298.442z"/>
<path d="M196.121,252.662c-4.269-1.323-8.808,1.062-10.132,5.333c-5.815,18.744-28.563,32.349-54.087,32.349  c-4.472,0-8.097,3.624-8.097,8.097s3.625,8.097,8.097,8.097c32.962,0,61.564-17.988,69.554-43.744  C202.78,258.525,200.392,253.988,196.121,252.662z"/>
<path d="M489.821,189.423h-9.801c-2.672-9.249-11.199-16.038-21.297-16.038h-23.092c-4.473,0-8.097,3.624-8.097,8.097  s3.624,8.097,8.097,8.097h23.092c3.302,0,5.987,2.685,5.987,5.985v1.956v49.679v8.801c0,36.625-39.009,66.421-86.959,66.421  c-47.947,0-86.956-29.797-86.956-66.421v-18.777v-41.661c0-3.3,2.684-5.985,5.984-5.985h111.321c4.473,0,8.097-3.624,8.097-8.097  s-3.624-8.097-8.097-8.097H296.779H215.22H53.276c-10.098,0-18.624,6.79-21.296,16.038H22.18C9.95,189.423,0,199.373,0,211.603  v21.514c0,12.23,9.95,22.18,22.18,22.18h8.918v0.704c0,45.554,46.273,82.615,103.151,82.615S237.4,301.554,237.4,256.001v-16.163  c0.125-0.367,0.231-0.743,0.304-1.134c1.496-8.053,8.531-13.897,16.726-13.897h3.141c8.194,0,15.228,5.845,16.725,13.898  c0.072,0.391,0.179,0.768,0.304,1.135v16.161c0,45.554,46.273,82.615,103.151,82.615c56.879,0,103.153-37.061,103.153-82.615v-0.704  h8.918c12.229,0,22.179-9.95,22.179-22.18v-21.514C512,199.373,502.05,189.423,489.821,189.423z M22.18,239.102  c-3.3,0-5.985-2.685-5.985-5.985v-21.514c0-3.3,2.685-5.985,5.985-5.985h8.918v33.485L22.18,239.102L22.18,239.102z   M221.206,256.001c0,36.625-39.009,66.421-86.957,66.421s-86.956-29.797-86.956-66.421v-8.801V197.52v-1.956  c0-3.3,2.684-5.985,5.984-5.985H215.22c3.3,0,5.985,2.685,5.985,5.985v41.66L221.206,256.001L221.206,256.001z M257.571,208.611  h-3.141c-6.179,0-12.019,1.703-17.03,4.7v-17.747c0-0.681-0.042-1.352-0.103-2.018c-0.015-0.171-0.033-0.34-0.053-0.51  c-0.07-0.613-0.159-1.221-0.279-1.818c-0.01-0.049-0.015-0.098-0.026-0.147c-0.104-0.504-0.223-1.002-0.362-1.492h38.841  c-0.138,0.49-0.257,0.989-0.362,1.492c-0.01,0.049-0.016,0.098-0.026,0.147c-0.119,0.597-0.208,1.205-0.279,1.818  c-0.019,0.17-0.038,0.339-0.053,0.511c-0.06,0.666-0.103,1.337-0.103,2.018v17.747C269.59,210.314,263.748,208.611,257.571,208.611z   M495.806,233.117c0,3.3-2.684,5.985-5.984,5.985h-8.918v-33.485h8.918c3.3,0,5.984,2.685,5.984,5.985V233.117z"/>
<path d="M106.98,285.746c-2.138,0-4.221,0.864-5.733,2.363c-1.511,1.511-2.375,3.595-2.375,5.734c0,2.127,0.864,4.209,2.375,5.722  c1.511,1.513,3.595,2.375,5.733,2.375c2.127,0,4.211-0.864,5.722-2.375c1.501-1.511,2.364-3.595,2.364-5.722  c0-2.138-0.864-4.221-2.364-5.734C111.191,286.609,109.108,285.746,106.98,285.746z"/>
<path d="M347.047,288.11c-1.511,1.511-2.375,3.595-2.375,5.734c0,2.127,0.864,4.209,2.375,5.722  c1.501,1.511,3.595,2.375,5.722,2.375s4.221-0.864,5.722-2.375c1.511-1.511,2.375-3.595,2.375-5.722  c0-2.138-0.864-4.221-2.375-5.734c-1.501-1.501-3.595-2.363-5.722-2.363C350.642,285.746,348.547,286.609,347.047,288.11z"/>
<g>
</g>
<g>
</g>
<g>
</g>
<g>
</g>
<g>
</g>
<g>
</g>
<g>
</g>
<g>
</g>
<g>
</g>
<g>
</g>
<g>
</g>
<g>
</g>
<g>
</g>
<g>
</g>
<g>
</g>
</svg>
