<?xml version="1.0" encoding="iso-8859-1"?>
<!-- Generator: Adobe Illustrator 19.0.0, SVG Export Plug-In . SVG Version: 6.00 Build 0)  -->
<svg xmlns="http://www.w3.org/2000/svg" xmlns:xlink="http://www.w3.org/1999/xlink" version="1.1" id="Layer_1" x="0px" y="0px" viewBox="0 0 512.002 512.002" style="enable-background:new 0 0 512.002 512.002;" xml:space="preserve">
<g>
	<path style="fill:#9BFCFF;" d="M205.72,120.756v-99.46c0-7.298-5.915-13.213-13.213-13.213h-11.01   c-7.297,0-13.213,5.915-13.213,13.213v99.46C168.284,120.756,205.72,120.756,205.72,120.756z"/>
	<path style="fill:#9BFCFF;" d="M343.719,53.639V21.296c0-7.298-5.915-13.213-13.213-13.213h-11.011   c-7.297,0-13.213,5.915-13.213,13.213v99.46h37.436V79.504"/>
</g>
<g>
	<path style="fill:#41F2ED;" d="M190.712,65.864V22.755c0-5.305,3.132-9.865,7.643-11.969c-1.694-0.79-3.576-1.244-5.57-1.244   h-11.011c-7.297,0-13.213,5.915-13.213,13.213v43.109v56.352v43.109h22.15v-43.109V65.864z"/>
	<path style="fill:#41F2ED;" d="M328.71,65.864V22.755c0-5.305,3.132-9.865,7.643-11.969c-1.694-0.79-3.578-1.244-5.57-1.244   h-11.011c-7.297,0-13.213,5.915-13.213,13.213v43.109v56.352v43.109h22.15v-43.109V65.864z"/>
</g>
<path style="fill:#49BAED;" d="M242.091,442.345l12.192-60.181h3.438l24.666,121.753h112.306l-5.16-231.216  c-27.217-14.782-27.782-44.247-27.791-46.151v-0.101v-91.368v-5.527c-1.996-5.167-6.701-8.798-12.191-8.798h-1.022H163.475h-1.021  c-5.491,0-10.196,3.632-12.192,8.798v5.527v91.368v0.101c-0.009,1.905-0.574,31.369-27.791,46.151l-5.16,231.216h112.306  l7.286-35.963"/>
<path style="fill:#2CA4CE;" d="M148.304,497.664l4.894-212.843c0.057-2.516,1.364-4.839,3.485-6.193  c23.592-15.045,24.388-47.684,24.401-50.618v-95.333c0-1.337,0.356-2.652,1.031-3.807c2.436-4.168,6.607-6.656,11.16-6.656h-23.171  c-4.553,0-8.725,2.487-11.16,6.656c-0.676,1.154-1.031,2.469-1.031,3.807v95.333c-0.013,2.935-0.808,29.107-24.401,44.152  c-2.122,1.354-3.429,3.676-3.485,6.193l-4.894,219.309c-0.044,2.029,0.729,3.992,2.149,5.444c1.418,1.452,3.364,2.269,5.393,2.269  h23.171c-2.029,0-3.975-0.818-5.393-2.269C149.032,501.656,148.259,499.694,148.304,497.664z"/>
<g>
	<rect x="168.287" y="120.758" style="fill:#B0DBFF;" width="37.435" height="21.884"/>
	<rect x="306.278" y="120.758" style="fill:#B0DBFF;" width="37.436" height="21.884"/>
	<polyline style="fill:#B0DBFF;" points="295.268,199.27 295.268,188.064 295.268,187.6 295.268,172.084 214.614,172.084    214.614,187.6 214.614,188.064 214.614,203.581 214.614,209.218 214.614,224.735 214.614,225.2 214.614,240.718 295.268,240.718    295.268,225.2  "/>
	<polygon style="fill:#B0DBFF;" points="390.198,302.546 121.674,302.546 122.472,272.701 389.531,272.701  "/>
</g>
<path style="fill:#96CDED;" d="M156.684,278.629c2.758-1.759,5.191-3.764,7.361-5.927h-31.271c-1.683,1.386-2.696,3.444-2.747,5.654  l-0.54,24.189h23.303l0.407-17.723C153.255,282.305,154.562,279.982,156.684,278.629z"/>
<g>
	<path style="fill:#94CCF2;" d="M188.868,144.099h9.218v-21.884h-22.15v8.952C175.935,138.309,181.726,144.099,188.868,144.099z"/>
	<path style="fill:#94CCF2;" d="M326.866,144.099h9.218v-21.884h-22.15v8.952C313.934,138.309,319.722,144.099,326.866,144.099z"/>
	<path style="fill:#94CCF2;" d="M244.414,229.246v-42.77c0-7.142,5.791-12.933,12.933-12.933h-22.15   c-7.142,0-12.933,5.791-12.933,12.933v42.77c0,7.142,5.791,12.933,12.933,12.933h22.15   C250.205,242.178,244.414,236.388,244.414,229.246z"/>
</g>
<path d="M398.289,302.81c0.003-0.088,0.013-0.175,0.013-0.264c0-0.26-0.012-0.517-0.037-0.772l-0.653-29.253  c-0.008-0.331-0.041-0.654-0.086-0.974c-0.013-0.087-0.029-0.172-0.045-0.259c-0.044-0.249-0.099-0.494-0.166-0.735  c-0.02-0.074-0.039-0.15-0.061-0.223c-0.19-0.62-0.452-1.206-0.776-1.751c-0.041-0.07-0.085-0.137-0.128-0.205  c-0.135-0.211-0.277-0.415-0.43-0.611c-0.047-0.061-0.093-0.125-0.142-0.185c-0.199-0.241-0.41-0.473-0.635-0.691  c-0.041-0.04-0.086-0.075-0.129-0.114c-0.194-0.18-0.398-0.349-0.61-0.51c-0.069-0.053-0.139-0.105-0.21-0.154  c-0.245-0.174-0.497-0.335-0.76-0.481c-0.015-0.009-0.029-0.019-0.044-0.028c-23.183-12.591-23.561-38.009-23.565-39.149v-96.894  c0-0.996-0.184-1.983-0.543-2.912c-2.992-7.746-9.709-12.975-17.479-13.83v-33.31c0-4.465-3.618-8.083-8.083-8.083  s-8.083,3.618-8.083,8.083v33.168h-21.27V21.296c0-2.829,2.301-5.13,5.13-5.13h11.011c2.829,0,5.13,2.301,5.13,5.13V53.64  c0,4.465,3.618,8.083,8.083,8.083s8.083-3.618,8.083-8.083V21.296C351.802,9.553,342.249,0,330.506,0h-11.011  c-11.743,0-21.296,9.553-21.296,21.296v91.378h-84.397V21.296C213.802,9.553,204.249,0,192.506,0h-11.01  c-11.743,0-21.296,9.553-21.296,21.296v91.517c-7.771,0.856-14.489,6.085-17.481,13.83c-0.359,0.929-0.543,1.916-0.543,2.912v96.96  c-0.004,1.076-0.383,26.494-23.565,39.085c-0.025,0.013-0.046,0.031-0.071,0.045c-0.25,0.139-0.49,0.293-0.723,0.458  c-0.075,0.054-0.15,0.108-0.224,0.164c-0.207,0.157-0.405,0.323-0.596,0.499c-0.045,0.042-0.094,0.08-0.139,0.123  c-0.221,0.213-0.427,0.441-0.622,0.678c-0.057,0.07-0.111,0.143-0.166,0.214c-0.143,0.186-0.279,0.379-0.406,0.578  c-0.047,0.075-0.097,0.15-0.143,0.226c-0.161,0.271-0.31,0.549-0.44,0.838c-0.001,0.002-0.002,0.004-0.003,0.008  c-0.126,0.285-0.231,0.58-0.323,0.879c-0.027,0.087-0.05,0.176-0.074,0.264c-0.061,0.226-0.113,0.457-0.155,0.691  c-0.017,0.096-0.037,0.19-0.051,0.287c-0.044,0.307-0.075,0.619-0.084,0.937v0.017c0,0.006-0.001,0.012-0.001,0.018l-0.005,0.263  l-0.789,29.546c-0.013,0.486,0.025,0.968,0.097,1.441l-4.463,199.966c-0.049,2.175,0.781,4.276,2.302,5.832  c1.521,1.554,3.604,2.431,5.779,2.431h112.306c3.845,0,7.159-2.709,7.922-6.478l7.286-35.963c0.886-4.376-1.942-8.641-6.316-9.527  c-4.373-0.886-8.64,1.942-9.527,6.316l-5.974,29.485h-97.431l2.841-127.277c16.332-1.126,29.238-6.443,38.418-15.859  c13.399-13.742,13.619-31.27,13.599-33.248v-8.824h67.485v66.563c-0.753,0.964-1.302,2.104-1.557,3.368l-12.192,60.181  c-0.886,4.376,1.942,8.641,6.317,9.527c4.382,0.887,8.642-1.942,9.527-6.316l5.99-29.563l18.462,91.135  c0.763,3.769,4.076,6.478,7.922,6.478h112.306c2.176,0,4.258-0.876,5.779-2.431c1.521-1.555,2.35-3.658,2.302-5.832L398.289,302.81z   M254.215,294.463v-13.677h127.412l0.305,13.677H254.215z M130.07,294.463l0.305-13.677h107.675v13.677H130.07z M348.904,319.498  v-8.87h33.39l0.928,41.572c-10.87-1.162-19.316-4.723-25.165-10.637c-9.19-9.294-9.156-21.79-9.155-21.859  C348.902,319.635,348.904,319.566,348.904,319.498z M335.636,128.839v5.718h-21.27v-5.718H335.636z M176.367,128.839h21.269v5.718  h-21.269V128.839z M176.367,21.296c0-2.829,2.301-5.13,5.13-5.13h11.01c2.829,0,5.13,2.301,5.13,5.13v91.378h-21.269V21.296H176.367  z M158.345,226.586c0-0.012,0-0.125,0-0.137v-95.083c0.493-0.802,1.134-1.441,1.858-1.878v13.151c0,4.465,3.618,8.083,8.083,8.083  h37.435c4.465,0,8.083-3.618,8.083-8.083v-13.801H298.2v13.801c0,4.465,3.618,8.083,8.083,8.083h37.436  c4.465,0,8.083-3.618,8.083-8.083v-13.151c0.724,0.438,1.364,1.077,1.857,1.878v95.083c0,0.012,0,0.125,0,0.137  c0.012,2.741,0.594,21.629,13.719,38.033H144.625C157.751,248.215,158.332,229.328,158.345,226.586z M164.269,319.648  c0.002,0.125,0.034,12.621-9.155,21.915c-6.055,6.125-14.901,9.72-26.335,10.746l0.93-41.681h34.559v8.87  C164.268,319.566,164.268,319.579,164.269,319.648z M288.995,495.834l-23.353-115.275c-0.257-1.265-0.805-2.405-1.558-3.37v-66.562  h68.654v8.824c-0.021,1.975,0.199,19.505,13.598,33.248c8.959,9.189,21.471,14.468,37.249,15.765l2.843,127.371h-97.432V495.834z"/>
<path d="M214.614,248.801h80.653c4.465,0,8.083-3.618,8.083-8.083V225.2c0-4.465-3.618-8.083-8.083-8.083  c-4.465,0-8.083,3.618-8.083,8.083v7.435h-64.487v-52.47h64.487v19.105c0,4.465,3.618,8.083,8.083,8.083  c4.465,0,8.083-3.618,8.083-8.083v-27.188c0-4.465-3.618-8.083-8.083-8.083h-80.653c-4.465,0-8.083,3.618-8.083,8.083v68.636  C206.532,245.183,210.149,248.801,214.614,248.801z"/>
<g>
</g>
<g>
</g>
<g>
</g>
<g>
</g>
<g>
</g>
<g>
</g>
<g>
</g>
<g>
</g>
<g>
</g>
<g>
</g>
<g>
</g>
<g>
</g>
<g>
</g>
<g>
</g>
<g>
</g>
</svg>
