<?xml version="1.0" encoding="iso-8859-1"?>
<!-- Generator: Adobe Illustrator 19.0.0, SVG Export Plug-In . SVG Version: 6.00 Build 0)  -->
<svg xmlns="http://www.w3.org/2000/svg" xmlns:xlink="http://www.w3.org/1999/xlink" version="1.1" id="Layer_1" x="0px" y="0px" viewBox="0 0 512 512" style="enable-background:new 0 0 512 512;" xml:space="preserve">
<path style="fill:#0D8AB0;" d="M256,123.523h206.614V46.955c0-8.053-6.53-14.585-14.583-14.585H63.971  c-8.053,0-14.586,6.531-14.586,14.585v76.569H256V123.523z"/>
<g>
	<polyline style="fill:#49BAED;" points="378.439,64.273 462.614,64.273 462.614,93.594 49.385,93.594 49.385,64.273    351.562,64.273  "/>
	<polyline style="fill:#49BAED;" points="182.251,479.63 219.538,479.63 256,313.123 292.461,479.63 503.937,479.63    473.552,123.523 256,123.523 38.448,123.523 8.063,479.63 154.301,479.63  "/>
</g>
<g>
	<path style="fill:#0D8AB0;" d="M21.105,326.774c0,0,85.403,37.393,85.403,152.856H8.063L21.105,326.774z"/>
	<path style="fill:#0D8AB0;" d="M490.895,326.774c0,0-85.404,37.393-85.404,152.856h98.445L490.895,326.774z"/>
</g>
<g>
	<path style="fill:#B7DFF7;" d="M53.651,349.584l19.29-226.06H38.448l-17.343,203.25C21.116,326.779,36.181,333.383,53.651,349.584z   "/>
	<path style="fill:#B7DFF7;" d="M452.404,279.92l5.944,69.664c17.47-16.2,32.535-22.806,32.546-22.81l-17.343-203.251h-34.492   l10.895,127.693"/>
</g>
<g>
	<path style="fill:#097993;" d="M90.291,94.359V65.039V47.72c0-8.053,6.532-14.585,14.585-14.585H73.342   c-8.054,0-14.585,6.531-14.585,14.585v17.318v29.321v28.854v1.075h31.534v-1.075V94.359H90.291z"/>
	<path style="fill:#097993;" d="M51.559,477.514l10.304-120.78c-17.426-16.141-32.437-22.734-32.46-22.744L17.156,477.514   c-0.205,2.398,0.605,4.773,2.234,6.548c1.63,1.773,3.926,2.783,6.334,2.783h34.403c-2.408,0-4.706-1.011-6.334-2.783   C52.163,482.288,51.353,479.913,51.559,477.514z"/>
</g>
<rect x="58.757" y="63.967" style="fill:#2CA4CE;" width="31.534" height="29.317"/>
<path d="M511.971,478.944L498.93,326.088l-17.343-203.25c-0.356-4.172-3.847-7.377-8.034-7.377h-2.876V93.594V64.273V46.955  c0-12.488-10.16-22.648-22.647-22.648H63.971c-12.488,0-22.648,10.159-22.648,22.648v17.318v29.321v21.866h-2.875  c-4.187,0-7.678,3.205-8.034,7.377L13.071,326.088L0.029,478.944c-0.192,2.25,0.568,4.477,2.094,6.14  c1.528,1.662,3.682,2.609,5.939,2.609h98.445h0.021h47.772c4.454,0,8.063-3.609,8.063-8.063c0-4.454-3.609-8.063-8.063-8.063  h-39.883c-1.994-57.619-25.088-95.304-44.611-117.049c-2.609-2.906-5.217-5.6-7.792-8.107l18.331-214.824h351.311l10.265,120.315  c0.378,4.437,4.285,7.728,8.719,7.348c4.437-0.378,7.728-4.282,7.348-8.719l-10.148-118.945h14.773h3.534l16.251,190.462  c-4.069,2.231-10.196,5.937-17.338,11.366l-4.623-54.18c-0.378-4.438-4.289-7.726-8.719-7.348c-4.437,0.378-7.728,4.282-7.348,8.719  l5.615,65.805c-2.575,2.506-5.183,5.2-7.792,8.107c-19.523,21.746-42.615,59.431-44.609,117.049h-98.635l-35.072-160.169  c-0.811-3.7-4.087-6.339-7.876-6.339c-3.787,0-7.065,2.637-7.876,6.339L213.05,471.566h-30.798c-4.454,0-8.063,3.609-8.063,8.063  s3.609,8.063,8.063,8.063h37.287c3.789,0,7.065-2.637,7.876-6.339l28.586-130.538l28.584,130.538c0.811,3.7,4.087,6.339,7.876,6.339  h113.032h98.445c2.258,0,4.412-0.947,5.939-2.609C511.403,483.421,512.163,481.194,511.971,478.944z M63.971,40.432H448.03  c3.596,0,6.52,2.926,6.52,6.521v9.255h-76.111c-4.454,0-8.063,3.609-8.063,8.063s3.609,8.063,8.063,8.063h76.112V85.53H57.448  V72.336h294.114c4.454,0,8.063-3.609,8.063-8.063s-3.609-8.063-8.063-8.063H57.448v-9.255  C57.448,43.359,60.375,40.432,63.971,40.432z M98.301,471.567H16.843l11.234-131.652c7.801,4.981,19.073,13.382,30.237,25.942  C83.357,394.036,96.79,429.564,98.301,471.567z M46.939,333.414c-7.142-5.429-13.269-9.135-17.338-11.366l16.251-190.462h3.533  h14.776L46.939,333.414z M439.061,115.46H72.942H57.448v-13.803H454.55v13.803C454.55,115.46,439.061,115.46,439.061,115.46z   M413.698,471.567c1.512-42.002,14.945-77.53,39.988-105.709c11.165-12.561,22.439-20.964,30.237-25.943l11.234,131.652H413.698z"/>
<g>
</g>
<g>
</g>
<g>
</g>
<g>
</g>
<g>
</g>
<g>
</g>
<g>
</g>
<g>
</g>
<g>
</g>
<g>
</g>
<g>
</g>
<g>
</g>
<g>
</g>
<g>
</g>
<g>
</g>
</svg>
