<?xml version="1.0" encoding="iso-8859-1"?>
<!-- Generator: Adobe Illustrator 19.0.0, SVG Export Plug-In . SVG Version: 6.00 Build 0)  -->
<svg xmlns="http://www.w3.org/2000/svg" xmlns:xlink="http://www.w3.org/1999/xlink" version="1.1" id="Layer_1" x="0px" y="0px" viewBox="0 0 512.001 512.001" style="enable-background:new 0 0 512.001 512.001;" xml:space="preserve">
<polyline style="fill:#49BAED;" points="368.538,233.349 377.45,53.364 256.001,53.364 134.551,53.364 156.858,503.87   234.934,503.87 256.001,171.097 277.068,503.87 355.143,503.87 367.139,261.622 "/>
<g>
	<path style="fill:#0D8AB0;" d="M374.493,113.094c-68.42,0-62.106-59.73-62.106-59.73h65.063L374.493,113.094z"/>
	<path style="fill:#0D8AB0;" d="M137.509,113.094c68.418,0,63.116-59.73,63.116-59.73h-66.073L137.509,113.094z"/>
</g>
<polygon style="fill:#60CEF4;" points="256.001,56.248 256.001,143.886 285.07,129.072 285.07,56.248 "/>
<path style="fill:#9BCBDD;" d="M362.578,8.13H149.423c-8.212,0-14.871,6.659-14.871,14.871v5.267v5.267v19.827h14.871H362.58h14.87  V33.537V28.27v-5.267C377.45,14.789,370.792,8.13,362.578,8.13z"/>
<path style="fill:#B7DFF7;" d="M377.45,28.269v-5.267c0-8.212-6.659-14.871-14.871-14.871H247.325v45.234h115.253h14.871V33.537  V28.269z"/>
<path style="fill:#2CA4CE;" d="M187.198,496.658L166.6,80.642l-1.351-27.278V44.71l-17.452,6.687  c-3.063,1.174-5.027,4.183-4.863,7.461l0.737,14.878l0.34,6.906l20.6,416.016c0.199,4.04,3.534,7.212,7.577,7.212h22.588  C190.732,503.87,187.4,500.697,187.198,496.658z"/>
<path style="fill:#86B5C4;" d="M165.249,53.364V33.537V28.27v-5.267c0-8.212,6.659-14.871,14.871-14.871h-22.588  c-8.212,0-14.871,6.659-14.871,14.871v5.267v5.267v19.827h14.871H165.249z"/>
<path style="fill:#097993;" d="M144.461,89.688l1.158,23.406c8.6,0,16.031-0.944,22.459-2.595l-1.477-29.858l-1.351-27.278h-22.588  l1.351,27.278L144.461,89.688z"/>
<path d="M270.465,38.873c2.137,0,4.228-0.867,5.745-2.373c1.508-1.518,2.385-3.61,2.385-5.757c0-2.135-0.878-4.238-2.385-5.745  c-1.517-1.518-3.609-2.385-5.745-2.385c-2.145,0-4.238,0.867-5.756,2.385c-1.508,1.507-2.374,3.61-2.374,5.745  c0,2.146,0.867,4.238,2.374,5.757C266.227,38.007,268.319,38.873,270.465,38.873z"/>
<path d="M385.58,23.001C385.58,10.319,375.262,0,362.578,0H247.325h-97.903c-12.683,0-23.001,10.319-23.001,23.001v30.363  c0,0.066,0.009,0.13,0.01,0.195c0.002,0.069-0.003,0.138,0,0.207l22.307,450.507c0.215,4.328,3.786,7.728,8.12,7.728h78.075  c4.29,0,7.843-3.334,8.114-7.616l12.953-204.61l12.953,204.61c0.271,4.282,3.823,7.616,8.114,7.616h78.075  c4.334,0,7.906-3.399,8.12-7.728l11.994-242.249c0.221-4.486-3.234-8.3-7.718-8.522c-4.497-0.182-8.299,3.234-8.522,7.718  l-11.612,234.522h-62.707l-20.569-324.906v-21.966l24.631-12.552c2.724-1.389,4.439-4.186,4.439-7.244V61.494h11.034  c0.59,9.852,3.534,25.984,15.381,39.15c10.797,11.999,26.365,18.797,46.35,20.27l-5.548,112.033c-0.221,4.486,3.234,8.3,7.718,8.522  c4.517,0.228,8.3-3.232,8.522-7.718l5.954-120.254l0,0l2.958-59.731c0.003-0.068-0.002-0.137,0-0.206  c0.001-0.066,0.01-0.13,0.01-0.196V23.001H385.58z M369.32,23.001v22.233h-40.128V16.26h33.386  C366.296,16.26,369.32,19.284,369.32,23.001z M312.933,16.26v28.974h-0.546h-56.932V16.26H312.933z M200.624,45.234h-1.557V16.26  h40.128v28.974H200.624z M143.094,61.494h49.223c-0.722,7.458-3.275,19.12-11.745,28.304c-7.999,8.673-19.863,13.66-35.341,14.874  L143.094,61.494z M142.681,23.001c0-3.717,3.024-6.741,6.741-6.741h33.386v28.974h-40.128L142.681,23.001L142.681,23.001z   M227.303,495.74h-62.707l-18.559-374.826c20-1.472,35.664-8.262,46.634-20.25c12.066-13.185,15.243-29.352,15.978-39.17h38.677  h0.545v82.393v26.947L227.303,495.74z M276.94,124.091l-12.809,6.527v-66.24h12.809V124.091z M331.799,89.877  c-8.353-9.213-10.681-20.946-11.257-28.383h48.365l-2.138,43.178C351.36,103.461,339.619,98.5,331.799,89.877z"/>
<g>
</g>
<g>
</g>
<g>
</g>
<g>
</g>
<g>
</g>
<g>
</g>
<g>
</g>
<g>
</g>
<g>
</g>
<g>
</g>
<g>
</g>
<g>
</g>
<g>
</g>
<g>
</g>
<g>
</g>
</svg>
