<?xml version="1.0" encoding="iso-8859-1"?>
<!-- Generator: Adobe Illustrator 19.0.0, SVG Export Plug-In . SVG Version: 6.00 Build 0)  -->
<svg xmlns="http://www.w3.org/2000/svg" xmlns:xlink="http://www.w3.org/1999/xlink" version="1.1" id="Layer_1" x="0px" y="0px" viewBox="0 0 512 512" style="enable-background:new 0 0 512 512;" xml:space="preserve">
<polyline style="fill:#E03C2F;" points="470.735,226.712 456.836,95.673 456.836,95.673 255.998,95.673 55.159,95.673   20.651,421.048 223.688,441.464 235.041,441.464 255.998,359.382 276.955,441.464 288.702,441.464 491.351,421.088 473.735,255.002   "/>
<polygon style="fill:#C92820;" points="50.895,423.202 85.404,97.827 85.404,69.971 64.895,69.971 62.408,69.971 62.408,97.827   27.898,423.202 230.937,443.617 242.289,443.617 242.581,442.476 "/>
<g>
	
		<rect x="274.881" y="431.512" transform="matrix(-0.995 0.1 -0.1 -0.995 820.6556 861.7999)" style="fill:#C63320;" width="227.696" height="39.912"/>
	
		<rect x="9.384" y="431.489" transform="matrix(0.995 0.1 -0.1 0.995 45.7617 -10.0602)" style="fill:#C63320;" width="227.696" height="39.912"/>
</g>
<g>
	<path style="fill:#AD281E;" d="M307.505,480.306l-4.166-41.44c-0.118-1.174,0.236-2.346,0.98-3.261   c0.156-0.191,0.335-0.357,0.516-0.517l-20.592,2.07c-1.124,0.112-2.158,0.668-2.874,1.543c-0.714,0.875-1.053,1.999-0.941,3.124   l3.994,39.712c0.223,2.197,2.075,3.836,4.238,3.836c0.142,0,0.286-0.007,0.43-0.022l20.09-2.019   C308.269,482.611,307.633,481.551,307.505,480.306z"/>
	<path style="fill:#AD281E;" d="M39.649,465.97c-0.76-0.928-1.118-2.119-0.999-3.312l4.235-42.101   c0.079-0.791,0.377-1.501,0.801-2.112l-19.232-1.933c-2.337-0.237-4.43,1.473-4.668,3.814l-3.994,39.712   c-0.113,1.125,0.227,2.248,0.941,3.124c0.716,0.875,1.751,1.431,2.874,1.543l20.99,2.11   C40.248,466.575,39.921,466.303,39.649,465.97z"/>
</g>
<path style="fill:#FF633E;" d="M386.083,29.308h61.441c7.717,0,13.972,6.256,13.972,13.97V81.7c0,7.717-6.256,13.972-13.972,13.972  H64.476c-7.717,0-13.972-6.256-13.972-13.972V43.279c0-7.714,6.256-13.97,13.972-13.97h294.968"/>
<circle style="fill:#F5F5F5;" cx="216.857" cy="159.935" r="12.098"/>
<path style="fill:#F97B62;" d="M50.504,62.491v19.209c0,7.717,6.256,13.972,13.972,13.972h383.047  c7.717,0,13.972-6.256,13.972-13.972V62.491H50.504z"/>
<circle style="fill:#F5F5F5;" cx="295.141" cy="159.935" r="12.098"/>
<path style="fill:#E84221;" d="M80.341,82.977V44.556c0-7.714,6.256-13.97,13.972-13.97H71.991c-7.717,0-13.972,6.256-13.972,13.97  v38.422c0,7.717,6.256,13.972,13.972,13.972h22.322C86.597,96.949,80.341,90.694,80.341,82.977z"/>
<path style="fill:#EA6049;" d="M80.341,82.977V63.768H58.019v19.209c0,7.717,6.256,13.972,13.972,13.972h22.322  C86.597,96.949,80.341,90.694,80.341,82.977z"/>
<path d="M511.959,459.109l-3.994-39.712c-0.441-4.393-4.371-7.612-8.75-7.152l-0.758,0.077l-16.776-158.162  c-0.466-4.389-4.398-7.573-8.79-7.104c-4.389,0.466-7.57,4.401-7.104,8.79l16.765,158.076l-194.437,19.551h-4.955l-19.423-76.067  c-0.904-3.539-4.091-6.015-7.743-6.015c-3.653,0-6.84,2.475-7.743,6.015l-19.421,76.067h-4.744L29.445,413.9l32.904-310.235h2.128  h144.39v37.854c-7.11,3.096-12.097,10.184-12.097,18.421c0,11.077,9.012,20.091,20.088,20.091c11.078,0,20.092-9.013,20.092-20.091  c0-8.237-4.989-15.324-12.1-18.422v-37.853h62.301v37.854c-7.11,3.096-12.098,10.184-12.098,18.421  c0,11.077,9.012,20.091,20.09,20.091s20.091-9.013,20.091-20.091c0-8.237-4.989-15.324-12.099-18.422v-37.853h144.39h2.124  l13.141,123.891c0.465,4.389,4.393,7.57,8.79,7.104c4.389-0.466,7.57-4.401,7.104-8.79l-13.86-130.681  c2.913-3.727,4.666-8.402,4.666-13.488V43.279c0-12.11-9.853-21.962-21.964-21.962h-61.441c-4.415,0-7.991,3.577-7.991,7.991  s3.577,7.991,7.991,7.991h61.441c3.298,0,5.981,2.683,5.981,5.979v11.22H58.495v-11.22c0-3.297,2.683-5.979,5.981-5.979h294.968  c4.414,0,7.991-3.577,7.991-7.991s-3.577-7.991-7.991-7.991H64.476c-12.111,0-21.964,9.852-21.964,21.962v38.422  c0,5.084,1.752,9.757,4.663,13.483L13.539,412.321l-0.755-0.076c-4.384-0.455-8.309,2.76-8.75,7.152L0.04,459.11  c-0.212,2.109,0.422,4.215,1.762,5.856c1.342,1.641,3.28,2.683,5.389,2.894l226.548,22.78c0.272,0.028,0.541,0.042,0.809,0.042  c4.054,0,7.527-3.073,7.941-7.193l3.994-39.712c0.212-2.109-0.422-4.215-1.762-5.856c-0.13-0.159-0.271-0.308-0.411-0.455  l11.688-45.777l11.689,45.782c-0.14,0.146-0.279,0.294-0.408,0.452c-1.341,1.641-1.975,3.749-1.762,5.856l3.994,39.712  c0.414,4.12,3.887,7.193,7.941,7.193c0.267,0,0.537-0.014,0.809-0.042l226.548-22.78c2.109-0.211,4.048-1.253,5.389-2.894  C511.539,463.326,512.172,461.218,511.959,459.109z M216.858,164.048c-2.264,0-4.105-1.842-4.105-4.108  c0-2.264,1.841-4.107,4.105-4.107c2.265,0,4.109,1.842,4.109,4.107C220.967,162.206,219.123,164.048,216.858,164.048z   M295.141,164.048c-2.264,0-4.107-1.842-4.107-4.108c0-2.264,1.842-4.107,4.107-4.107c2.265,0,4.108,1.842,4.108,4.107  C299.249,162.206,297.407,164.048,295.141,164.048z M224.849,87.681V70.483h62.301v17.199H224.849z M453.504,81.701  c0,3.298-2.683,5.981-5.981,5.981h-144.39V70.483h150.371L453.504,81.701L453.504,81.701z M208.866,70.483v17.199H64.476  c-3.298,0-5.981-2.684-5.981-5.981V70.483H208.866z M227.387,473.937L16.742,452.756l2.394-23.809l210.645,21.181L227.387,473.937z   M284.612,473.937l-2.394-23.809l6.911-0.695c0.125-0.006,0.249-0.006,0.373-0.019l202.648-20.376  c0.126-0.013,0.249-0.038,0.374-0.056l0.339-0.034l2.394,23.809L284.612,473.937z"/>
<g>
</g>
<g>
</g>
<g>
</g>
<g>
</g>
<g>
</g>
<g>
</g>
<g>
</g>
<g>
</g>
<g>
</g>
<g>
</g>
<g>
</g>
<g>
</g>
<g>
</g>
<g>
</g>
<g>
</g>
</svg>
