<?xml version="1.0" encoding="iso-8859-1"?>
<!-- Generator: Adobe Illustrator 19.0.0, SVG Export Plug-In . SVG Version: 6.00 Build 0)  -->
<svg xmlns="http://www.w3.org/2000/svg" xmlns:xlink="http://www.w3.org/1999/xlink" version="1.1" id="Layer_1" x="0px" y="0px" viewBox="0 0 512 512" style="enable-background:new 0 0 512 512;" xml:space="preserve">
<path style="fill:#49BAED;" d="M463.228,242.431l9.04-171.05v-49.23c0-7.768-6.298-14.068-14.068-14.068h-202.2H53.8  c-7.769,0-14.068,6.299-14.068,14.068v49.23l20.981,397.01h172.978l22.308-194.891l22.307,194.891h172.978l10.471-198.132"/>
<polyline style="fill:#60CEF4;" points="256.001,230.427 295.842,210.499 295.842,69.623 256.001,69.623 256.001,273.501 "/>
<g>
	<path style="fill:#0D8AB0;" d="M467.395,163.568c-87.512,0-78.946-93.945-78.946-93.945h83.819L467.395,163.568"/>
	<path style="fill:#0D8AB0;" d="M45.595,163.568c87.512,0,78.946-93.945,78.946-93.945H39.733L45.595,163.568"/>
</g>
<path style="fill:#9BCBDD;" d="M458.201,8.084h-202.2H53.8c-7.769,0-14.068,6.299-14.068,14.068v47.472h432.534V22.152  C472.268,14.383,465.97,8.084,458.201,8.084z"/>
<g>
	<path style="fill:#B7DFF7;" d="M458.201,8.084h-202.2h-8.221v61.539h224.489V22.152C472.268,14.383,465.97,8.084,458.201,8.084z"/>
	<rect x="275.92" y="468.388" style="fill:#B7DFF7;" width="180.515" height="35.524"/>
	<rect x="56.712" y="468.388" style="fill:#B7DFF7;" width="180.515" height="35.524"/>
</g>
<path style="fill:#2CA4CE;" d="M75.191,164.85c0.031,0,0.063-0.002,0.093-0.002l-4.872-92.185V23.432  c0-7.768,6.298-14.068,14.068-14.068H61.891h-0.698c-7.771,0-14.068,6.299-14.068,14.068v49.23l4.871,92.185  c-0.031,0-0.06,0.002-0.093,0.002h0.093l16.11,304.823h23.287L75.285,164.85H75.191z"/>
<path style="fill:#86B5C4;" d="M47.823,23.432v47.472h22.588V23.432c0-7.768,6.298-14.068,14.068-14.068H61.891  C54.122,9.365,47.823,15.664,47.823,23.432z"/>
<g>
	<path style="fill:#097993;" d="M51.903,164.85h0.093v-0.002C51.965,164.848,51.936,164.85,51.903,164.85z"/>
	<path style="fill:#097993;" d="M70.412,72.662v-1.758H47.823l4.173,93.943c8.602-0.006,16.278-0.931,23.152-2.576L70.412,72.662z"/>
</g>
<g>
	<path style="fill:#9BCBDD;" d="M86.956,504.118v-35.524c0-4.167,3.378-7.545,7.545-7.545H72.348c-4.167,0-7.545,3.378-7.545,7.545   v35.524c0,4.167,3.378,7.545,7.545,7.545h22.154C90.335,511.664,86.956,508.287,86.956,504.118z"/>
	<path style="fill:#9BCBDD;" d="M302.93,504.118v-35.524c0-4.167,3.379-7.545,7.545-7.545h-22.154c-4.166,0-7.545,3.378-7.545,7.545   v35.524c0,4.167,3.379,7.545,7.545,7.545h22.154C306.309,511.664,302.93,508.287,302.93,504.118z"/>
</g>
<path d="M277.086,46.937h5.862c4.466,0,8.084-3.618,8.084-8.084s-3.618-8.084-8.084-8.084h-5.862c-4.466,0-8.084,3.618-8.084,8.084  S272.621,46.937,277.086,46.937z"/>
<path d="M458.201,0H247.779H53.8C41.587,0,31.649,9.937,31.649,22.152v47.472v1.758c0,0.142,0.003,0.285,0.011,0.427l20.602,389.838  c-2.188,1.447-3.634,3.926-3.634,6.747v35.523c0,4.466,3.62,8.084,8.084,8.084H237.23c4.465,0,8.084-3.618,8.084-8.084v-35.524  c0-2.436-1.082-4.614-2.786-6.097l13.473-117.705l13.595,118.774c-1.098,1.381-1.759,3.125-1.759,5.027v35.524  c0,4.466,3.618,8.084,8.084,8.084h180.518c4.466,0,8.084-3.618,8.084-8.084v-35.524c0-3.276-1.951-6.089-4.751-7.36l10.059-190.346  c0.236-4.458-3.187-8.263-7.647-8.499c-4.446-0.266-8.264,3.186-8.499,7.647l-10.066,190.475H285.52l-21.435-187.266v-37.619  l35.373-17.694c2.738-1.37,4.468-4.168,4.468-7.231V77.708h76.202c0.144,15.136,3.161,46.475,23.719,68.993  c13.493,14.779,31.991,23.035,55.043,24.643l-3.735,70.662c-0.236,4.458,3.187,8.263,7.647,8.499  c4.437,0.239,8.264-3.187,8.499-7.647l4.168-78.867c0-0.001,0-0.002,0-0.002l0.006-0.127l4.865-92.053  c0.008-0.142,0.012-0.285,0.012-0.427v-1.758V22.152C480.352,9.937,470.415,0,458.201,0z M464.184,22.152v39.387h-75.735h-9.499  V16.168h79.251C461.499,16.168,464.184,18.852,464.184,22.152z M362.78,16.168v45.371h-66.939h-39.84h-0.137V16.168H362.78z   M247.916,230.265c-0.002,0.112-0.002,0.224,0,0.337v42.44l-21.435,187.266H68.382L53.115,171.403  c23.51-1.438,42.344-9.714,56.029-24.702c20.559-22.518,23.576-53.857,23.72-68.993H247.78h0.136V230.265z M148.018,61.539V16.168  h91.677v45.371H148.018z M48.338,77.708h68.325c-0.179,12.868-2.723,39.816-19.52,58.157  c-10.535,11.503-25.302,17.997-43.968,19.351L48.338,77.708z M47.817,22.152c0-3.299,2.684-5.983,5.983-5.983h78.049v45.371h-7.308  H47.817V22.152z M229.146,495.832H64.796v-19.356h164.35V495.832z M448.354,476.476v19.356H284.005v-19.356H448.354z   M287.757,205.503l-23.673,11.842V77.708h23.673V205.503z M415.848,135.864c-16.799-18.344-19.341-45.295-19.52-58.157h67.426  l-4.02,77.503C441.106,153.843,426.369,147.351,415.848,135.864z"/>
<g>
</g>
<g>
</g>
<g>
</g>
<g>
</g>
<g>
</g>
<g>
</g>
<g>
</g>
<g>
</g>
<g>
</g>
<g>
</g>
<g>
</g>
<g>
</g>
<g>
</g>
<g>
</g>
<g>
</g>
</svg>
