<?xml version="1.0" encoding="iso-8859-1"?>
<!-- Generator: Adobe Illustrator 19.0.0, SVG Export Plug-In . SVG Version: 6.00 Build 0)  -->
<svg xmlns="http://www.w3.org/2000/svg" xmlns:xlink="http://www.w3.org/1999/xlink" version="1.1" id="Layer_1" x="0px" y="0px" viewBox="0 0 511.998 511.998" style="enable-background:new 0 0 511.998 511.998;" xml:space="preserve">
<polygon style="fill:#49BAED;" points="68.283,414.07 68.283,448.418 111.759,457.905 401.401,457.905 444.877,448.418   444.877,414.07 "/>
<g>
	<path style="fill:#2CA4CE;" d="M107.9,391.852H85.685c0,19.95,0,39.245,0,56.831l22.097,7.074c0.038,0.013,0.08,0.016,0.117,0.027   C107.9,435.676,107.9,413.915,107.9,391.852z"/>
	<path style="fill:#2CA4CE;" d="M405.199,391.852h22.214c0,19.95,0,39.245,0,56.831l-22.097,7.074   c-0.038,0.013-0.078,0.016-0.117,0.027C405.199,435.676,405.199,413.915,405.199,391.852z"/>
</g>
<path style="fill:#527A84;" d="M462.638,233.271c0-48.339,0-98.4,0-116.716c0-0.432-0.019-0.853-0.049-1.265  c-1.97-50.937-121.95-78.514-121.95-78.514L315.035,8.084h-34.903h-24.133h-0.002h-21.398h-37.636l-25.609,28.692  c0,0-119.979,29.816-121.95,80.752c-0.029,0.415-0.049,0.833-0.049,1.268c0,18.737,0,64.795,0,114.476c0,9.395,0,18.958,0,28.545  c0,79.59,0,141.465,0,141.465l61.237,16.615v18.607h1.164v16.233c0,7.143,5.792,12.935,12.935,12.935h1.27l0,0l0,0l5.389,36.244  h0.002h124.642h0.002l0,0H380.64h0.002l5.387-36.244l0,0l0,0h2.436c7.143,0,12.935-5.792,12.935-12.935v-16.233v-18.607  l61.238-16.615c0,0,0-64.03,0-143.621"/>
<g>
	<path style="fill:#3C6268;" d="M463.168,115.206c-0.282-6.867-2.688-13.577-7.169-20.11c-19.526,3.911-54.015,16.5-54.015,56.69   c0,37.169,0,177.67,0,268.111l54.872-14.888c3.756-1.019,6.365-4.429,6.365-8.322V116.556c0-0.407-0.017-0.803-0.043-1.192   L463.168,115.206z"/>
	<path style="fill:#3C6268;" d="M49.991,115.206c0.282-6.867,2.688-13.577,7.169-20.11c19.526,3.911,54.015,16.5,54.015,56.69   c0,37.169,0,177.67,0,268.111l-54.872-14.888c-3.756-1.019-6.365-4.429-6.365-8.322V116.556c0-0.407,0.017-0.803,0.043-1.192   L49.991,115.206z"/>
</g>
<polygon style="fill:#49BAED;" points="255.996,503.916 255.998,503.916 380.641,503.916 380.643,503.916 386.03,467.672   125.962,467.672 131.352,503.916 131.354,503.916 "/>
<rect x="172.148" y="467.666" style="fill:#527A84;" width="168.863" height="36.244"/>
<g>
	<path style="fill:#78A1A8;" d="M401.401,454.737c0,7.143-5.792,12.935-12.935,12.935H124.694c-7.143,0-12.935-5.792-12.935-12.935   v-39.895c0-7.142,5.792-12.935,12.935-12.935h263.773c7.143,0,12.935,5.793,12.935,12.935V454.737z"/>
	<path style="fill:#78A1A8;" d="M401.401,323.209c0,7.143-5.792,12.936-12.935,12.936H124.694c-7.143,0-12.935-5.793-12.935-12.936   v-39.895c0-7.143,5.792-12.935,12.935-12.935h263.773c7.143,0,12.935,5.792,12.935,12.935V323.209z"/>
	<path style="fill:#78A1A8;" d="M401.401,191.68c0,7.143-5.792,12.935-12.935,12.935H124.694c-7.143,0-12.935-5.792-12.935-12.935   v-39.895c0-7.143,5.792-12.935,12.935-12.935h263.773c7.143,0,12.935,5.792,12.935,12.935V191.68z"/>
</g>
<path style="fill:#275D68;" d="M309.876,14.695l-9.511-10.659c-1.636-1.832-3.976-2.881-6.434-2.881h-28.143l-58.193,58.197  l28.816,28.813L309.876,14.695z"/>
<path style="fill:#2CA4CE;" d="M160.812,498.057l-4.294-28.891H132.97l4.294,28.891c0.63,4.225,4.257,7.353,8.53,7.353h23.546  C165.069,505.412,161.441,502.283,160.812,498.057z"/>
<g>
	<path style="fill:#88B3B7;" d="M385.596,268.099h-1.213h-262.56h-1.213c-7.143,0-12.935,5.792-12.935,12.935v17.977   c0,7.143,5.792,12.936,12.935,12.936h1.213h262.56h1.213c7.143,0,12.935-5.793,12.935-12.936v-17.977   C398.531,273.891,392.739,268.099,385.596,268.099z"/>
	<path style="fill:#88B3B7;" d="M385.596,140.346h-1.213h-262.56h-1.213c-7.143,0-12.935,5.792-12.935,12.935v17.977   c0,7.143,5.792,12.935,12.935,12.935h1.213h262.56h1.213c7.143,0,12.935-5.792,12.935-12.935v-17.977   C398.531,146.138,392.739,140.346,385.596,140.346z"/>
	<path style="fill:#88B3B7;" d="M386.708,399.627h-1.213h-263.62h-1.213c-7.172,0-12.988,5.793-12.988,12.935v17.977   c0,7.143,5.815,12.935,12.988,12.935h1.213h263.62h1.213c7.172,0,12.988-5.792,12.988-12.935v-17.977   C399.696,405.42,393.88,399.627,386.708,399.627z"/>
</g>
<g>
	<path style="fill:#335659;" d="M80.5,106.182c3.227,6.684,5.186,14.662,5.186,24.207c0,11.533,0,33.025,0,59.875   c0,59.678,0,145.861,0,208.237c0,5.688,0,11.314,0,16.865l22.214,6.028c0-90.441,0-230.942,0-268.111   C107.9,128.692,94.992,114.439,80.5,106.182z"/>
	<path style="fill:#335659;" d="M432.602,106.182c-3.229,6.684-5.188,14.662-5.188,24.207c0,11.533,0,33.025,0,59.875   c0,59.678,0,145.861,0,208.237c0,5.688,0,11.314,0,16.865l-22.214,6.028c0-90.441,0-230.942,0-268.111   C405.199,128.692,418.109,114.439,432.602,106.182z"/>
</g>
<polygon style="fill:#39AED8;" points="171.355,36.777 255.853,120.524 255.853,66.524 196.962,8.084 "/>
<polygon style="fill:#49BAED;" points="340.498,36.777 255.998,120.524 255.998,66.524 314.889,8.084 "/>
<path d="M462.638,241.356c4.466,0,8.084-3.618,8.084-8.084V116.556c0-0.582-0.023-1.149-0.06-1.707  c-1.021-24.428-23.408-46.406-66.54-65.32c-25.844-11.333-51.149-18.037-59.131-20.018L321.065,2.701  c-1.504-1.685-3.643-2.656-5.897-2.694c-0.012,0-0.023-0.002-0.034-0.003c-0.004,0-0.01,0-0.014,0c-0.029,0-0.057-0.004-0.085-0.004  H196.962c-0.042,0-0.083,0.005-0.124,0.006c-0.041,0.001-0.08-0.003-0.121-0.002c-0.103,0.003-0.206,0.018-0.309,0.025  c-0.137,0.01-0.275,0.017-0.411,0.033c-0.146,0.017-0.288,0.044-0.432,0.069c-0.13,0.023-0.261,0.043-0.39,0.072  c-0.146,0.033-0.287,0.075-0.429,0.116c-0.124,0.036-0.249,0.068-0.371,0.109c-0.143,0.049-0.281,0.107-0.421,0.163  c-0.116,0.046-0.235,0.089-0.349,0.141c-0.14,0.065-0.276,0.139-0.413,0.211c-0.108,0.057-0.219,0.11-0.324,0.171  c-0.138,0.081-0.269,0.174-0.403,0.263c-0.097,0.066-0.197,0.125-0.292,0.194c-0.143,0.106-0.278,0.222-0.414,0.337  c-0.078,0.065-0.158,0.124-0.234,0.192c-0.207,0.189-0.405,0.387-0.594,0.598l-23.978,26.868c-7.88,2.1-33.267,9.282-59.194,21.131  c-24.416,11.158-42.165,23.173-53.15,35.926c-1.35,0.901-2.42,2.202-3.031,3.762c-6.432,8.588-9.861,17.499-10.245,26.699  c-0.038,0.559-0.06,1.124-0.06,1.708v284.487c0,3.65,2.446,6.847,5.967,7.802l12.958,3.516v32.527c0,3.716,2.533,6.952,6.139,7.846  l39.958,9.907c0.016,0.03,0.037,0.057,0.054,0.087c0.258,0.46,0.53,0.912,0.821,1.35c0.115,0.174,0.238,0.341,0.359,0.51  c0.244,0.344,0.494,0.682,0.756,1.011c0.141,0.177,0.286,0.349,0.432,0.522c0.271,0.317,0.551,0.624,0.84,0.924  c0.148,0.153,0.292,0.308,0.444,0.457c0.346,0.338,0.706,0.662,1.074,0.977c0.107,0.091,0.206,0.188,0.315,0.276  c0.482,0.396,0.982,0.77,1.498,1.122c0.12,0.082,0.247,0.154,0.369,0.233c0.402,0.262,0.811,0.514,1.232,0.749  c0.188,0.105,0.38,0.202,0.571,0.3c0.373,0.194,0.751,0.377,1.137,0.549c0.207,0.092,0.415,0.181,0.625,0.266  c0.401,0.163,0.808,0.309,1.221,0.448c0.196,0.066,0.388,0.136,0.586,0.195c0.082,0.025,0.16,0.057,0.243,0.081l0.296,1.99  l4.19,28.179c0.589,3.961,3.99,6.894,7.996,6.894h0.002h40.792h168.867h39.628h0.002c4.005,0,7.407-2.934,7.997-6.895l4.438-29.858  c0.445-0.1,0.881-0.227,1.315-0.356c0.119-0.035,0.241-0.06,0.359-0.097c0.618-0.194,1.223-0.417,1.816-0.666  c0.154-0.065,0.302-0.142,0.454-0.21c0.432-0.193,0.86-0.395,1.277-0.615c0.202-0.108,0.396-0.225,0.594-0.338  c0.357-0.205,0.708-0.415,1.051-0.639c0.205-0.134,0.404-0.273,0.604-0.414c0.324-0.229,0.641-0.467,0.953-0.712  c0.191-0.152,0.38-0.304,0.566-0.461c0.31-0.264,0.609-0.54,0.903-0.821c0.165-0.157,0.332-0.31,0.492-0.473  c0.324-0.331,0.632-0.676,0.933-1.027c0.111-0.128,0.229-0.25,0.336-0.382c0.401-0.49,0.783-0.997,1.139-1.523  c0.063-0.093,0.116-0.191,0.178-0.285c0.286-0.437,0.56-0.881,0.814-1.339c0.001-0.002,0.003-0.005,0.005-0.008l39.958-9.907  c3.607-0.894,6.139-4.13,6.139-7.846v-32.842l11.794-3.2c3.523-0.956,5.967-4.153,5.967-7.802v-143.62  c0-4.466-3.618-8.084-8.084-8.084s-8.084,3.618-8.084,8.084v137.438l-45.778,12.421c-0.737-2.809-2.034-5.389-3.777-7.612  c2.8-3.571,4.486-8.056,4.486-12.935v-39.895c0-4.879-1.686-9.364-4.486-12.935c2.8-3.571,4.486-8.056,4.486-12.935v-39.894  c0-4.88-1.686-9.364-4.486-12.935c2.8-3.571,4.486-8.056,4.486-12.935v-39.895c0-4.88-1.686-9.364-4.486-12.935  c2.8-3.571,4.486-8.056,4.486-12.935v-35.585c0-39.278,29.266-50.749,40.959-53.764c2.449,4.259,3.891,8.689,4.068,13.272  c0.003,0.087,0.009,0.176,0.015,0.263c0.016,0.225,0.027,0.454,0.027,0.69v116.715C454.554,237.737,458.173,241.356,462.638,241.356  z M255.926,55.208l-39.34-39.039h78.68L255.926,55.208z M187.767,30.529l9.552-10.702l50.451,50.064v31.238l-65.275-64.694  L187.767,30.529z M264.083,69.891l50.451-50.064l14.824,16.609l-65.275,64.694L264.083,69.891L264.083,69.891z M168.932,45.758  l78.982,78.28v6.728H124.694c-2.902,0-5.668,0.592-8.184,1.66c-5.471-17.932-16.742-28.951-26.64-35.476  c-5.256-3.464-10.509-5.928-15.113-7.671C99.474,68.106,144.603,52.306,168.932,45.758z M393.317,191.68  c0,2.674-2.176,4.851-4.851,4.851H264.083v-49.596h124.384c2.674,0,4.851,2.176,4.851,4.851V191.68z M393.317,217.549v39.895  c0,2.674-2.176,4.851-4.851,4.851H264.083v-49.596h124.384C391.141,212.699,393.317,214.875,393.317,217.549z M393.317,283.314  v39.895c0,2.674-2.176,4.852-4.851,4.852H264.083v-49.597h124.384C391.141,278.463,393.317,280.639,393.317,283.314z   M393.317,349.078v39.895c0,2.674-2.176,4.851-4.851,4.851H264.083v-49.595h124.384  C391.141,344.229,393.317,346.404,393.317,349.078z M393.317,414.842v5.054v34.84c0,2.674-2.176,4.851-4.851,4.851h-2.436h-45.017  h-76.349v-1.683c0-1.061-0.21-2.071-0.581-2.999V409.99h124.384C391.141,409.991,393.317,412.168,393.317,414.842z M182.898,459.587  h-10.752h-46.183h-1.27c-2.674,0-4.851-2.176-4.851-4.851v-16.234v-23.661c0-2.674,2.176-4.851,4.851-4.851h123.221v49.596h-39.742  H182.898z M119.843,388.972v-39.895c0-2.673,2.176-4.849,4.851-4.849h123.221v49.595H124.694  C122.018,393.823,119.843,391.648,119.843,388.972z M124.694,328.06c-2.674,0-4.851-2.177-4.851-4.852v-39.895  c0-2.674,2.176-4.851,4.851-4.851h123.221v49.597H124.694z M124.694,262.295c-2.674,0-4.851-2.176-4.851-4.851v-39.895  c0-2.674,2.176-4.851,4.851-4.851h123.221v49.596H124.694z M247.914,196.53H124.694c-2.674,0-4.851-2.176-4.851-4.851v-39.895  c0-2.674,2.176-4.851,4.851-4.851h123.221V196.53z M57.44,118.796c0-0.238,0.012-0.468,0.028-0.695  c0.006-0.086,0.011-0.174,0.014-0.26c0.207-5.344,2.14-10.514,5.374-15.473c11.789,3.072,40.817,14.612,40.817,53.729v35.585  c0,4.879,1.686,9.364,4.486,12.935c-2.8,3.571-4.486,8.055-4.486,12.935v39.895c0,4.879,1.686,9.364,4.486,12.935  c-2.8,3.571-4.486,8.055-4.486,12.935v39.895c0,4.88,1.686,9.365,4.486,12.935c-2.8,3.571-4.486,8.055-4.486,12.935v39.895  c0,4.879,1.686,9.364,4.486,12.935c-1.804,2.301-3.131,4.983-3.852,7.907l-31.892-8.653c-1.21-0.722-2.62-1.145-4.133-1.145  c-0.025,0-0.049,0.003-0.074,0.003l-10.768-2.921L57.44,118.796L57.44,118.796z M76.367,418.986l26.143,7.094v12.423  c0,1.531,0.426,2.962,1.164,4.182v4.887l-27.307-6.77V418.986z M135.338,475.756h28.724v20.076h-25.739L135.338,475.756z   M180.23,475.756h2.668h25.273h40.324v20.076H180.23L180.23,475.756L180.23,475.756z M264.664,495.832v-20.076h68.265v20.076  H264.664z M349.097,495.832v-20.076h27.557l-2.985,20.076H349.097z M436.791,440.802l-27.307,6.77V426.08l27.307-7.409V440.802z   M423.291,96.95c-9.899,6.524-21.169,17.544-26.64,35.476c-2.517-1.068-5.283-1.66-8.184-1.66H264.083v-6.873l78.934-78.233  c24.879,6.201,71.837,21.768,96.115,43.344C434.359,90.762,428.825,93.303,423.291,96.95z"/>
<g>
</g>
<g>
</g>
<g>
</g>
<g>
</g>
<g>
</g>
<g>
</g>
<g>
</g>
<g>
</g>
<g>
</g>
<g>
</g>
<g>
</g>
<g>
</g>
<g>
</g>
<g>
</g>
<g>
</g>
</svg>
