<?xml version="1.0" encoding="iso-8859-1"?>
<!-- Generator: Adobe Illustrator 19.0.0, SVG Export Plug-In . SVG Version: 6.00 Build 0)  -->
<svg xmlns="http://www.w3.org/2000/svg" xmlns:xlink="http://www.w3.org/1999/xlink" version="1.1" id="Layer_1" x="0px" y="0px" viewBox="0 0 512 512" style="enable-background:new 0 0 512 512;" xml:space="preserve">
<path style="fill:#49BAED;" d="M385.89,325.388v-65.642l87.426-25.603c0,0-22.481-133.636-68.691-154.87  c-46.212-21.231-83.68-38.717-83.68-38.717S307.206,8.084,292.219,8.084c-14.987,0-36.218,0-36.218,0s-21.231,0-36.219,0  c-14.987,0-28.726,32.473-28.726,32.473s-37.469,17.486-83.679,38.717c-46.213,21.232-68.693,154.87-68.693,154.87l87.426,25.603  v244.169h129.891H385.89V353.413"/>
<path style="fill:#2CA4CE;" d="M220.829,48.793l39.64,21.834h17.659l38.853-47.281c-5.324-8.264-12.623-16.675-20.292-16.675  h-39.762C256.925,6.672,256.414,33.786,220.829,48.793z"/>
<rect x="221.906" y="91.761" style="fill:#89CEE8;" width="13.474" height="411.422"/>
<polyline style="fill:#F5F5F5;" points="268.905,65.85 268.905,503.916 243.093,503.916 243.093,71.227 "/>
<g>
	<path style="fill:#B7DFF7;" d="M216.361,8.648c-13.592,4.247-25.307,31.909-25.307,31.909s2.083,29.975,39.135,51.206l25.81-23.73   C255.999,68.033,204.397,43.896,216.361,8.648z"/>
	<path style="fill:#B7DFF7;" d="M295.638,8.648c13.592,4.247,25.307,31.909,25.307,31.909s-2.082,29.975-39.135,51.206l-25.81-23.73   C255.999,68.033,307.601,43.896,295.638,8.648z"/>
</g>
<path d="M302.501,173.148c-4.466,0-8.084,3.62-8.084,8.084c0,4.465,3.618,8.084,8.084,8.084h47.427c4.466,0,8.084-3.62,8.084-8.084  c0-4.465-3.618-8.084-8.084-8.084H302.501z"/>
<path d="M481.289,232.803c-0.234-1.387-5.847-34.382-17.281-70.568C448.169,112.11,429.324,81.726,408,71.928  c-38.592-17.73-71.428-33.008-80.895-37.419c-1.855-4.018-5.143-10.511-9.553-16.786c-0.205-0.292-0.416-0.581-0.625-0.872  c-0.119-0.164-0.234-0.329-0.354-0.493C311.697,9.7,305.574,3.523,298.604,1.127c-0.066-0.023-0.13-0.047-0.196-0.07  c-0.12-0.04-0.237-0.089-0.357-0.126c-0.096-0.03-0.194-0.043-0.29-0.069C295.967,0.315,294.12,0,292.22,0h-72.438  c-1.901,0-3.749,0.315-5.544,0.863c-0.096,0.026-0.193,0.039-0.288,0.068c-0.12,0.038-0.236,0.086-0.356,0.126  c-0.067,0.023-0.133,0.047-0.199,0.071c-6.971,2.395-13.094,8.572-17.968,15.23c-0.126,0.172-0.248,0.346-0.373,0.518  c-0.202,0.28-0.405,0.559-0.603,0.841c-4.413,6.277-7.7,12.771-9.557,16.79c-9.466,4.41-42.301,19.688-80.894,37.419  c-21.324,9.797-40.169,40.181-56.01,90.307c-11.434,36.185-17.047,69.18-17.281,70.568c-0.679,4.039,1.77,7.948,5.701,9.1  l81.614,23.9v26.625v211.489c0,4.466,3.618,8.084,8.084,8.084h116.984h25.811H385.89c4.466,0,8.084-3.618,8.084-8.084V353.413  c0-4.465-3.618-8.084-8.084-8.084c-4.466,0-8.084,3.62-8.084,8.084v142.419H276.989V98.249c1.416,1.054,3.112,1.599,4.824,1.599  c1.376,0,2.763-0.351,4.017-1.07c26.491-15.18,36.769-34.688,40.73-46.688C340.43,58.54,368.8,71.71,401.25,86.62  c32.624,14.989,55.207,101.593,62.827,141.806l-70.102,20.53v-58.941c0-4.465-3.618-8.084-8.084-8.084s-8.084,3.62-8.084,8.084  v69.732v27.686v37.957c0,4.466,3.618,8.084,8.084,8.084s8.084-3.618,8.084-8.084v-37.957v-21.63l81.614-23.9  C479.519,240.75,481.968,236.841,481.289,232.803z M255.999,58.92c-9.585-5.289-35.756-21.772-33.12-42.751h66.24  C291.754,37.151,265.577,53.636,255.999,58.92z M207.278,27.679c4.231,19.859,22.99,34.45,35.025,41.966l-13.094,12.039  c-23.662-15.513-28.789-34.204-29.837-39.952C201.373,37.362,204.196,32.212,207.278,27.679z M134.193,292.427v-32.681v-69.732  c0-4.465-3.618-8.084-8.084-8.084s-8.084,3.62-8.084,8.084v58.941L47.92,228.425C55.533,188.218,78.1,101.622,110.75,86.62  c32.45-14.908,60.82-28.078,74.689-34.53c3.962,12,14.239,31.508,40.73,46.688c1.254,0.719,2.639,1.07,4.017,1.07  c1.71,0,3.406-0.544,4.822-1.597v397.581H134.194V292.427H134.193z M251.177,495.832V85.102c0-0.52-0.054-1.026-0.148-1.519  l4.969-4.568l4.821,4.432v412.384H251.177z M282.791,81.684l-13.094-12.039c12.031-7.515,30.786-22.095,35.022-41.948  c3.076,4.527,5.899,9.67,7.905,14.033C311.557,47.562,306.4,66.205,282.791,81.684z"/>
<path d="M243.927,38.649h21.648c4.466,0,8.084-3.62,8.084-8.084s-3.618-8.084-8.084-8.084h-21.648c-4.466,0-8.084,3.62-8.084,8.084  C235.843,35.03,239.461,38.649,243.927,38.649z"/>
<g>
</g>
<g>
</g>
<g>
</g>
<g>
</g>
<g>
</g>
<g>
</g>
<g>
</g>
<g>
</g>
<g>
</g>
<g>
</g>
<g>
</g>
<g>
</g>
<g>
</g>
<g>
</g>
<g>
</g>
</svg>
