<?xml version="1.0" encoding="iso-8859-1"?>
<!-- Generator: Adobe Illustrator 19.0.0, SVG Export Plug-In . SVG Version: 6.00 Build 0)  -->
<svg xmlns="http://www.w3.org/2000/svg" xmlns:xlink="http://www.w3.org/1999/xlink" version="1.1" id="Layer_1" x="0px" y="0px" viewBox="0 0 511.999 511.999" style="enable-background:new 0 0 511.999 511.999;" xml:space="preserve">
<path style="fill:#FCF1D4;" d="M462.639,233.271c0-48.339,0-98.4,0-116.716c0-0.432-0.018-0.853-0.047-1.265  c-1.97-50.937-121.95-78.514-121.95-78.514L304.257,8.084h-24.123H256h-0.002H234.6h-26.858l-36.386,28.692  c0,0-119.978,29.816-121.95,80.753c-0.029,0.414-0.047,0.832-0.047,1.267c0,18.737,0,64.795,0,114.476c0,9.395,0,18.958,0,28.545  c0,79.59,0,160.867,0,160.867l61.236,16.615v28.372h0.001h15.368v36.245h0.002h130.032h0.001h0.001h130.032h0.002v-36.244h15.368  h0.001v-28.372l61.236-16.615c0,0,0-83.433,0-163.023"/>
<path style="fill:#FF633E;" d="M59.538,93.353c-6.021,7.416-9.796,15.488-10.131,24.176c-0.029,0.414-0.047,0.832-0.047,1.267  c0,18.737,0,64.795,0,114.476c0,9.395,0,18.958,0,28.545c0,79.59,0,160.867,0,160.867l61.236,16.615v28.372h0.001h1.132V171.039  C111.729,171.039,114.808,116.339,59.538,93.353z"/>
<path style="fill:#E5432E;" d="M81.355,422.305V154.061c0,0,1.762-31.439-21.467-56.663c46.394,24.762,43.65,73.641,43.65,73.641  v268.244l-54.813-14.872c-3.758-1.019-6.366-4.429-6.366-8.322v-4.364L81.355,422.305z"/>
<path style="fill:#FF633E;" d="M452.461,93.353c6.021,7.416,9.796,15.488,10.131,24.176c0.029,0.414,0.047,0.832,0.047,1.267  c0,18.737,0,64.795,0,114.476c0,9.395,0,18.958,0,28.545c0,79.59,0,160.867,0,160.867l-61.236,16.615v28.372h-0.001h-1.132V171.039  C400.27,171.039,397.191,116.339,452.461,93.353z"/>
<path style="fill:#E5432E;" d="M431.728,422.305V154.061c0,0-1.762-31.439,21.467-56.663c-46.394,24.762-43.65,73.641-43.65,73.641  v268.244l54.813-14.872c3.758-1.019,6.366-4.429,6.366-8.322v-4.364L431.728,422.305z"/>
<rect x="207.742" y="8.084" style="fill:#C63320;" width="98.315" height="69.319"/>
<g>
	<path style="fill:#FFE8A5;" d="M110.597,454.347l1.163,0.298v-12.935v-32.807v-12.935l-62.4-15.998c0,4.585,0,8.906,0,12.935   c0,14.339,0,24.891,0,29.779l61.236,16.615v15.048H110.597z"/>
	<polyline style="fill:#FFE8A5;" points="182.899,467.672 125.964,467.672 125.964,503.916 386.032,503.916 386.032,467.672    208.173,467.672  "/>
</g>
<g>
	<polygon style="fill:#FF633E;" points="379.4,468.346 355.584,468.346 349.117,468.346 349.117,503.24 355.584,503.24    379.4,503.24 385.867,503.24 385.867,468.346  "/>
	<polygon style="fill:#FF633E;" points="156.249,468.346 132.432,468.346 125.964,468.346 125.964,503.24 132.432,503.24    156.249,503.24 162.716,503.24 162.716,468.346  "/>
</g>
<path style="fill:#FFE8A5;" d="M401.402,408.904v32.807v12.935h0.001V439.3l61.236-16.615c0-4.888,0-15.44,0-29.779  c0-4.029,0-8.349,0-12.935l-61.238,15.998v12.934H401.402z"/>
<path style="fill:#AF1F14;" d="M245.752,120.524l48.257-112.44h-32.785c-11.943,18.748-24.6,41.828-34.634,67.788L245.752,120.524z"/>
<path style="fill:#E5432E;" d="M154.649,495.293v-27.621h-22.154v27.621c0,4.762,3.861,8.623,8.623,8.623h22.154  C158.51,503.916,154.649,500.055,154.649,495.293z"/>
<g>
	<polygon style="fill:#F2D17E;" points="409.544,440.361 426.221,435.837 431.728,434.343 431.728,391.236 409.544,397.032  "/>
	<polygon style="fill:#F2D17E;" points="103.538,440.361 86.862,435.837 81.355,434.343 81.355,391.236 103.538,397.032  "/>
</g>
<g>
	<path style="fill:#FF633E;" d="M207.743,8.084c0,0,48.255,51.505,48.255,112.44l-84.642-83.747L207.743,8.084z"/>
	<path style="fill:#FF633E;" d="M304.256,8.084c0,0-48.256,51.505-48.256,112.44l84.642-83.747L304.256,8.084z"/>
</g>
<path d="M286.168,144.648h-1.546c-4.466,0-8.084,3.618-8.084,8.084c0,4.466,3.618,8.084,8.084,8.084h1.546  c4.466,0,8.084-3.618,8.084-8.084C294.252,148.267,290.633,144.648,286.168,144.648z"/>
<path d="M286.168,203.696h-1.546c-4.466,0-8.084,3.618-8.084,8.084c0,4.466,3.618,8.084,8.084,8.084h1.546  c4.466,0,8.084-3.618,8.084-8.084C294.252,207.315,290.633,203.696,286.168,203.696z"/>
<path d="M286.168,262.743h-1.546c-4.466,0-8.084,3.618-8.084,8.084c0,4.466,3.618,8.084,8.084,8.084h1.546  c4.466,0,8.084-3.618,8.084-8.084S290.633,262.743,286.168,262.743z"/>
<path d="M286.168,380.836h-1.546c-4.466,0-8.084,3.618-8.084,8.084c0,4.466,3.618,8.084,8.084,8.084h1.546  c4.466,0,8.084-3.618,8.084-8.084C294.252,384.455,290.633,380.836,286.168,380.836z"/>
<path d="M286.168,321.789h-1.546c-4.466,0-8.084,3.618-8.084,8.084s3.618,8.084,8.084,8.084h1.546c4.466,0,8.084-3.618,8.084-8.084  S290.633,321.789,286.168,321.789z"/>
<path d="M331.815,342.352c-2.501-3.699-7.526-4.667-11.225-2.167c-3.698,2.501-4.668,7.527-2.167,11.225l36.457,53.895  c1.562,2.311,4.11,3.556,6.703,3.556c1.559,0,3.133-0.451,4.522-1.389c3.698-2.501,4.668-7.527,2.167-11.225L331.815,342.352z"/>
<path d="M145.894,407.472c1.388,0.94,2.963,1.389,4.522,1.389c2.593,0,5.142-1.246,6.703-3.556l36.457-53.895  c2.502-3.698,1.532-8.724-2.167-11.225c-3.699-2.504-8.724-1.531-11.225,2.167l-36.457,53.895  C141.225,399.945,142.195,404.971,145.894,407.472z"/>
<path d="M462.639,241.356c4.466,0,8.084-3.618,8.084-8.084V116.556c0-0.582-0.022-1.149-0.059-1.706  c-1.021-24.428-23.408-46.407-66.539-65.322c-26.707-11.711-52.841-18.482-59.873-20.201L309.261,1.735  c-0.004-0.003-0.01-0.005-0.014-0.01c-0.327-0.257-0.67-0.476-1.022-0.676c-0.05-0.028-0.097-0.058-0.147-0.085  c-0.352-0.19-0.716-0.348-1.085-0.481c-0.058-0.02-0.115-0.041-0.174-0.06c-0.376-0.126-0.759-0.224-1.146-0.293  c-0.057-0.011-0.114-0.017-0.172-0.026c-0.399-0.061-0.8-0.099-1.202-0.101c-0.015,0-0.029-0.003-0.044-0.003h-96.514  c-0.015,0-0.03,0.003-0.046,0.003c-0.4,0.002-0.8,0.039-1.196,0.1c-0.058,0.01-0.117,0.016-0.176,0.027  c-0.387,0.069-0.769,0.167-1.145,0.293c-0.058,0.019-0.115,0.04-0.174,0.06c-0.371,0.134-0.735,0.292-1.089,0.482  c-0.047,0.026-0.094,0.055-0.141,0.081c-0.358,0.203-0.708,0.426-1.04,0.688l-35.048,27.637c-6.909,1.817-33.13,9.079-59.93,21.326  C82.519,62.235,64.406,74.686,53.522,87.923c-0.136,0.15-0.266,0.306-0.391,0.467c-7.435,9.201-11.383,18.78-11.796,28.697  c-0.038,0.559-0.059,1.124-0.059,1.708V379.97v42.714c0,3.65,2.446,6.847,5.967,7.802l55.269,14.996v8.865c0,0.001,0,0.003,0,0.005  v13.32c0,4.466,3.62,8.084,8.084,8.084h7.283v27.484v0.676c0,4.466,3.618,8.084,8.084,8.084h0.002H386.03h0.002  c4.466,0,8.084-3.618,8.084-8.084v-28.16h7.284c4.466,0,8.084-3.618,8.084-8.084v-13.027v-9.162l55.269-14.996  c3.523-0.956,5.967-4.153,5.967-7.802V379.97V259.661c0-4.466-3.618-8.084-8.084-8.084s-8.084,3.618-8.084,8.084v114.066  l-45.07,11.774V171.039c0-0.133-0.005-0.293-0.012-0.427c-0.095-1.926-1.718-45.641,41.556-67.203  c2.087,3.928,3.321,7.997,3.484,12.194c0.003,0.087,0.009,0.176,0.015,0.263c0.016,0.225,0.026,0.454,0.026,0.69v116.715  C454.555,237.737,458.174,241.356,462.639,241.356z M255.999,74.199c-8.44-24.854-21.735-45.396-31.193-58.031h62.385  C277.733,28.804,264.438,49.344,255.999,74.199z M206.642,19.248c9.926,12.252,32.336,43.159,39.22,79.875l-62.318-61.661  L206.642,19.248z M328.456,37.462l-62.321,61.661c6.886-36.72,29.298-67.627,39.22-79.876L328.456,37.462z M168.938,45.757  l78.977,78.142v335.689h-39.742c-4.466,0-8.084,3.618-8.084,8.084c0,4.466,3.618,8.084,8.084,8.084h132.859v20.076H170.801v-20.076  h12.098c4.466,0,8.084-3.618,8.084-8.084c0-4.466-3.618-8.084-8.084-8.084h-56.933h-6.152v-4.414c0.012-0.176,0.03-0.351,0.03-0.529  v-58.676c0-0.123-0.025-0.24-0.03-0.361v-224.39c0.087-2.204,0.365-16.399-5.877-33.222c-5.435-14.646-16.901-33.889-40.968-47.138  C97.242,68.89,144.013,52.465,168.938,45.757z M357.201,476.431h20.583v18.725h-20.583V476.431z M57.444,118.796  c0-0.237,0.011-0.466,0.027-0.692c0.005-0.087,0.011-0.175,0.014-0.262c0.192-4.958,1.872-9.765,4.695-14.394  c43.192,21.576,41.571,65.237,41.477,67.136c-0.009,0.152-0.013,0.303-0.013,0.455v214.504l-46.201-11.845V118.796z   M134.049,476.431h20.583v18.725h-20.583C134.049,495.156,134.049,476.431,134.049,476.431z M57.444,390.389l46.201,11.845v26.803  l-46.201-12.535V390.389z M454.555,390.438v26.064l-45.07,12.229v-26.518L454.555,390.438z M399.195,137.994  c-6.244,16.827-5.964,31.025-5.877,33.224v288.368h-7.283h-0.001h-0.001H264.084V123.898l79.044-78.209  c25.487,6.365,73.954,22.501,97.657,44.83C416.295,103.778,404.676,123.224,399.195,137.994z"/>
<g>
</g>
<g>
</g>
<g>
</g>
<g>
</g>
<g>
</g>
<g>
</g>
<g>
</g>
<g>
</g>
<g>
</g>
<g>
</g>
<g>
</g>
<g>
</g>
<g>
</g>
<g>
</g>
<g>
</g>
</svg>
