<?xml version="1.0" encoding="iso-8859-1"?>
<!-- Generator: Adobe Illustrator 19.0.0, SVG Export Plug-In . SVG Version: 6.00 Build 0)  -->
<svg xmlns="http://www.w3.org/2000/svg" xmlns:xlink="http://www.w3.org/1999/xlink" version="1.1" id="Layer_1" x="0px" y="0px" viewBox="0 0 512 512" style="enable-background:new 0 0 512 512;" xml:space="preserve">
<polygon style="fill:#275D68;" points="171.206,8.084 341.737,8.084 256.47,96.133 "/>
<path style="fill:#527A84;" d="M218.711,67.301c32.493-5.179,58.482-29.799,65.707-61.564H159.095L218.711,67.301z"/>
<polygon style="fill:#2BD8D0;" points="207.024,45.071 305.919,45.071 341.737,8.084 171.206,8.084 "/>
<path style="fill:#7EE8E8;" d="M284.418,5.735H159.095l35.817,36.987h69.878C274.317,32.515,281.212,19.83,284.418,5.735z"/>
<path style="fill:#49BAED;" d="M454.932,243.366c0-46.536,0-91.497,0-109.128c0-49.764-92.421-74.649-92.421-74.649l-106.512,55.097  L149.488,59.589c0,0-92.42,24.884-92.42,74.649c0,49.762,0,291.476,0,291.476l58.952,15.996v27.314h14.796v34.893H256h0.001h125.183  v-34.893h14.796v-27.314l58.953-15.996c0,0,0-78.247,0-154.867"/>
<g>
	<rect x="288.724" y="326.236" style="fill:#9BCBDD;" width="74.375" height="113.319"/>
	<rect x="148.544" y="326.236" style="fill:#9BCBDD;" width="74.375" height="113.319"/>
</g>
<g>
	<path style="fill:#B7DFF7;" d="M148.54,354.101c0,7.143,5.792,12.935,12.935,12.935h48.505c7.143,0,12.935-5.792,12.935-12.935   v-27.862H148.54V354.101z"/>
	<path style="fill:#B7DFF7;" d="M288.726,354.101c0,7.143,5.792,12.935,12.935,12.935h48.505c7.143,0,12.935-5.792,12.935-12.935   v-27.862h-74.375V354.101z"/>
</g>
<g>
	<rect x="130.813" y="469.024" style="fill:#9BFCFF;" width="250.363" height="34.893"/>
	<path style="fill:#9BFCFF;" d="M255.998,114.686L362.51,59.589c0,0,15.31,4.124,33.468,12.367l0,0   c-18.039-54.621-54.241-63.872-54.241-63.872l-97.395,100.571v0.002L255.998,114.686z"/>
	<path style="fill:#9BFCFF;" d="M149.487,59.589l94.856,49.067v-0.002l12.127-12.522L171.206,8.084c0,0-35.97,9.204-54.066,63.371   C134.8,63.547,149.487,59.589,149.487,59.589z"/>
</g>
<g>
	<circle style="fill:#B7DFF7;" cx="206.233" cy="191.66" r="13.477"/>
	<circle style="fill:#B7DFF7;" cx="308.137" cy="191.66" r="13.477"/>
</g>
<g>
	<path style="fill:#9BFCFF;" d="M64.918,107.355c-6.021,7.16-9.795,14.954-10.13,23.341c-0.029,0.399-0.049,0.804-0.049,1.222   c0,18.09,0,62.559,0,110.524c0,9.07,0,18.303,0,27.56c0,76.841,0,155.314,0,155.314l61.238,16.04v27.394l0,0h1.133V182.358   C117.109,182.358,120.187,129.547,64.918,107.355z"/>
	<path style="fill:#9BFCFF;" d="M444.916,113.385c6.021,7.04,9.796,14.705,10.131,22.952c0.029,0.392,0.047,0.79,0.047,1.202   c0,17.788,0,61.514,0,108.68c0,8.917,0,17.998,0,27.099c0,75.56,0,152.723,0,152.723l-61.237,15.774v26.936h-0.001h-1.132V187.137   C392.725,187.137,389.645,135.207,444.916,113.385z"/>
</g>
<g>
	<path style="fill:#41F2ED;" d="M160.453,493.863v-26.269v-0.001h-22.154v0.001v26.269c0,4.762,3.861,8.623,8.623,8.623h22.154   C164.314,502.486,160.453,498.625,160.453,493.863z"/>
	<path style="fill:#41F2ED;" d="M425.315,438.581v-10.384V181.069c0,0-0.248-2.578,0-6.72v-9.674c0,0-2.273-23.64,13.834-42.907   c-39.973,17.863-35.988,59.301-35.988,59.301v263.523L425.315,438.581z"/>
</g>
<g>
	<path style="fill:#66B9D3;" d="M177.781,425.182v-87.445c0-7.144,5.792-12.935,12.935-12.935h-22.154   c-7.143,0-12.935,5.79-12.935,12.935v87.445c0,7.143,5.792,12.935,12.935,12.935h22.154   C183.572,438.117,177.781,432.325,177.781,425.182z"/>
	<path style="fill:#66B9D3;" d="M317.968,426.267v-87.445c0-7.144,5.792-12.935,12.935-12.935h-22.154   c-7.143,0-12.935,5.79-12.935,12.935v87.445c0,7.143,5.792,12.935,12.935,12.935h22.154   C323.759,439.202,317.968,433.411,317.968,426.267z"/>
</g>
<g>
	<path style="fill:#B7DFF7;" d="M317.968,353.75v-14.928c0-7.144,5.792-12.935,12.935-12.935h-22.154   c-7.143,0-12.935,5.79-12.935,12.935v14.928c0,7.143,5.792,12.935,12.935,12.935h22.154   C323.759,366.685,317.968,360.892,317.968,353.75z"/>
	<path style="fill:#B7DFF7;" d="M177.781,352.664v-14.928c0-7.144,5.792-12.935,12.935-12.935h-22.154   c-7.143,0-12.935,5.79-12.935,12.935v14.928c0,7.143,5.792,12.935,12.935,12.935h22.154   C183.572,365.599,177.781,359.808,177.781,352.664z"/>
</g>
<path style="fill:#41F2ED;" d="M87.09,438.581v-10.384V181.069c0,0,0.247-2.578,0-6.72v-9.674c0,0,2.273-23.64-13.836-42.907  c39.973,17.863,35.99,59.301,35.99,59.301v263.523L87.09,438.581z"/>
<path d="M230.999,439.554v-85.452v-27.862c0-4.466-3.618-8.084-8.084-8.084H148.54c-4.466,0-8.084,3.618-8.084,8.084v27.862v85.452  c0,4.466,3.618,8.084,8.084,8.084h74.375C227.379,447.638,230.999,444.019,230.999,439.554z M156.624,334.323h58.206v19.778  c0,2.674-2.176,4.851-4.851,4.851h-48.505c-2.674,0-4.851-2.176-4.851-4.851V334.323z M156.624,431.469v-56.938  c1.56,0.371,3.179,0.587,4.851,0.587h48.505c1.672,0,3.291-0.217,4.851-0.587v56.938H156.624z"/>
<path d="M363.101,318.155h-74.375c-4.466,0-8.084,3.618-8.084,8.084v27.862v85.452c0,4.466,3.618,8.084,8.084,8.084h74.375  c4.466,0,8.084-3.618,8.084-8.084v-85.452v-27.862C371.185,321.774,367.567,318.155,363.101,318.155z M296.811,334.323h58.206  v19.778c0,2.674-2.176,4.851-4.851,4.851h-48.505c-2.674,0-4.851-2.176-4.851-4.851V334.323z M296.811,431.469v-56.938  c1.56,0.371,3.179,0.587,4.851,0.587h48.505c1.672,0,3.291-0.217,4.851-0.587v56.938H296.811z"/>
<path d="M454.932,251.45c4.466,0,8.084-3.618,8.084-8.084V134.238c0-10.934-3.696-20.719-9.644-29.4  c-0.312-0.583-0.692-1.109-1.119-1.583c-11.942-16.407-31.883-28.728-49.751-37.198c-19.571-55.197-57.141-65.39-58.764-65.804  c-0.155-0.04-0.313-0.057-0.469-0.087c-0.15-0.029-0.299-0.064-0.451-0.084c-0.268-0.037-0.537-0.051-0.806-0.06  C341.921,0.017,341.831,0,341.737,0H171.325c-0.001,0-0.003,0-0.004,0h-0.115c-0.088,0-0.174,0.016-0.261,0.019  c-0.274,0.009-0.548,0.024-0.821,0.061c-0.153,0.02-0.302,0.055-0.453,0.084c-0.156,0.03-0.314,0.047-0.469,0.087  c-1.61,0.412-38.928,10.55-58.554,65.261c-27.98,13.073-61.664,35.673-61.664,68.724v291.476c0,3.65,2.446,6.847,5.967,7.802  l52.985,14.377v21.131c0,4.466,3.618,8.084,8.084,8.084h6.712v26.808c0,4.466,3.618,8.084,8.084,8.084h250.367  c4.466,0,8.084-3.618,8.084-8.084v-26.808h6.712c4.466,0,8.084-3.618,8.084-8.084v-21.131l52.986-14.377  c3.523-0.956,5.967-4.153,5.967-7.802V270.847c0-4.466-3.618-8.084-8.084-8.084s-8.084,3.618-8.084,8.084V419.53l-42.785,11.609  V183.454c0-0.133-0.005-0.293-0.012-0.427c-0.091-1.833-1.62-43.166,38.971-63.981c2.437,4.803,3.825,9.875,3.825,15.19v109.128  C446.848,247.832,450.467,251.45,454.932,251.45z M226.106,53.155h60.73L256.47,84.511L226.106,53.155z M313.074,26.061  l-10.581,10.926h-92.045l-8.735-9.02l-11.426-11.799h132.367L313.074,26.061z M381.269,57.193  c-8.753-3.199-15.031-4.966-16.465-5.357c-0.091-0.025-0.16-0.044-0.19-0.052c-1.949-0.525-4.023-0.302-5.817,0.626l-43.057,22.273  c-1.119-3.124-4.096-5.361-7.605-5.361c-4.466,0-8.084,3.618-8.084,8.084v5.393l-38.899,20.119l1.124-1.161l49.447-51.06  l0.001-0.001l20.095-20.751l12.054-12.446C351.558,20.973,368.408,31.151,381.269,57.193z M169.062,17.492l76.154,78.641  l-1.369,1.414l-1.131,1.167l-28.403-14.692v-6.618c0-4.466-3.618-8.084-8.084-8.084c-3.897,0-7.149,2.757-7.913,6.427L153.201,52.41  c-0.262-0.136-0.531-0.251-0.805-0.357c-0.085-0.032-0.17-0.06-0.257-0.089c-0.196-0.068-0.393-0.129-0.594-0.182  c-0.093-0.025-0.185-0.049-0.279-0.07c-0.223-0.051-0.447-0.089-0.673-0.122c-0.064-0.009-0.125-0.022-0.189-0.029  c-0.289-0.033-0.579-0.05-0.87-0.052c-0.016,0-0.032-0.003-0.049-0.003c-0.042,0-0.084,0.008-0.126,0.009  c-0.265,0.004-0.53,0.022-0.794,0.052c-0.081,0.01-0.161,0.018-0.24,0.03c-0.316,0.045-0.629,0.103-0.94,0.188  c-0.947,0.255-6.923,1.9-15.498,4.988C144.724,30.998,161.399,20.941,169.062,17.492z M65.151,419.531V134.238  c0-5.475,1.475-10.689,4.05-15.62c41.471,20.669,39.927,62.562,39.838,64.382c-0.009,0.152-0.013,0.303-0.013,0.455v247.98  L65.151,419.531z M373.099,495.832h-234.2v-18.724h25.972c4.466,0,8.084-3.618,8.084-8.084c0-4.466-3.618-8.084-8.084-8.084h-34.056  h-5.621V183.63c0.085-2.167,0.343-15.87-5.677-32.091c-5.316-14.328-16.609-33.208-40.459-46.017  c10.789-10.902,26.32-19.881,40.962-26.536c0.14-0.054,0.285-0.092,0.424-0.153c12.282-5.498,23.173-9.049,28.201-10.576  l49.502,25.606v77.828c-7.892,3.206-13.477,10.945-13.477,19.974c0,9.028,5.585,16.768,13.477,19.974v16.674  c0,4.466,3.618,8.084,8.084,8.084s8.084-3.618,8.084-8.084V211.64c7.892-3.206,13.477-10.945,13.477-19.974  s-5.585-16.769-13.477-19.974v-69.466l33.599,17.38v341.333h-56.636c-4.466,0-8.084,3.618-8.084,8.084s3.618,8.084,8.084,8.084  h181.82L373.099,495.832L373.099,495.832z M206.231,197.057c-2.974,0-5.393-2.419-5.393-5.393c0-2.974,2.419-5.394,5.393-5.394  c2.974,0,5.393,2.42,5.393,5.394C211.624,194.639,209.205,197.057,206.231,197.057z M393.571,151.539  c-6.021,16.227-5.761,29.933-5.677,32.093v258.077v19.23h-6.712H264.083V119.606l35.968-18.606v70.689  c-7.892,3.206-13.477,10.945-13.477,19.974c0,9.028,5.585,16.768,13.477,19.974v16.674c0,4.466,3.618,8.084,8.084,8.084  s8.084-3.618,8.084-8.084v-16.674c7.892-3.206,13.477-10.945,13.477-19.974s-5.585-16.769-13.477-19.974V92.636l47.134-24.381  c5.175,1.572,16.559,5.285,29.283,11.061c0.14,0.064,0.284,0.111,0.425,0.166c14.493,6.682,29.715,15.619,40.255,26.425  C409.953,118.709,398.834,137.354,393.571,151.539z M308.135,197.057c-2.974,0-5.393-2.419-5.393-5.393  c0-2.974,2.419-5.394,5.393-5.394s5.393,2.42,5.393,5.394C313.528,194.639,311.109,197.057,308.135,197.057z"/>
<g>
</g>
<g>
</g>
<g>
</g>
<g>
</g>
<g>
</g>
<g>
</g>
<g>
</g>
<g>
</g>
<g>
</g>
<g>
</g>
<g>
</g>
<g>
</g>
<g>
</g>
<g>
</g>
<g>
</g>
</svg>
