<?xml version="1.0" encoding="iso-8859-1"?>
<!-- Generator: Adobe Illustrator 19.0.0, SVG Export Plug-In . SVG Version: 6.00 Build 0)  -->
<svg xmlns="http://www.w3.org/2000/svg" xmlns:xlink="http://www.w3.org/1999/xlink" version="1.1" id="Layer_1" x="0px" y="0px" viewBox="0 0 512.001 512.001" style="enable-background:new 0 0 512.001 512.001;" xml:space="preserve">
<polygon style="fill:#275D68;" points="171.207,8.084 341.738,8.084 256.472,96.133 "/>
<path style="fill:#527A84;" d="M218.071,66.222c32.493-5.179,58.482-29.799,65.707-61.564H158.453L218.071,66.222z"/>
<path style="fill:#E03C2F;" d="M454.933,233.659c0-43.9,0-82.613,0-99.422c0-49.764-92.421-74.648-92.421-74.648l-106.512,55.096  L149.49,59.589c0,0-92.42,24.884-92.42,74.648c0,49.762,0,291.475,0,291.475l58.952,15.997v62.206h139.978h0.001H395.98V441.71  l58.953-15.997c0,0,0-85.165,0-165.645"/>
<rect x="117.136" y="469.023" style="fill:#9BFCFF;" width="42.786" height="34.894"/>
<g>
	<path style="fill:#B7DFF7;" d="M116.021,395.968l-58.952-15.997c0,27.495,0,45.741,0,45.741l58.952,15.997V395.968z"/>
	<path style="fill:#B7DFF7;" d="M395.98,441.71l58.953-15.997c0,0,0-18.248,0-45.741l-58.953,15.997V441.71z"/>
</g>
<polygon style="fill:#C92820;" points="207.025,45.071 305.92,45.071 341.738,8.084 171.207,8.084 "/>
<g>
	<path style="fill:#FF633E;" d="M57.069,202.305h17.558c7.852,0,14.218-6.367,14.218-14.218v-26.859   c0-7.855-6.366-14.22-14.218-14.22H57.069C57.069,160.762,57.069,180.12,57.069,202.305z"/>
	<path style="fill:#FF633E;" d="M454.933,147.007H438.38c-7.852,0-14.218,6.365-14.218,14.22v26.859   c0,7.851,6.366,14.218,14.218,14.218h16.553C454.933,180.12,454.933,160.762,454.933,147.007z"/>
</g>
<circle style="fill:#B7DFF7;" cx="326.15" cy="174.651" r="17.189"/>
<g>
	<path style="fill:#FF633E;" d="M255.999,114.686l106.512-55.096c0,0,15.31,4.124,33.467,12.367l0,0   C377.94,17.335,341.738,8.084,341.738,8.084l-97.395,100.572v0.001L255.999,114.686z"/>
	<path style="fill:#FF633E;" d="M149.489,59.589l94.856,49.068v-0.001l12.127-12.523L171.207,8.084c0,0-35.97,9.204-54.066,63.37   C134.801,63.547,149.489,59.589,149.489,59.589z"/>
</g>
<rect x="353.194" y="469.023" style="fill:#9BFCFF;" width="42.787" height="34.894"/>
<polyline style="fill:#FF633E;" points="183.734,233.616 117.141,233.616 117.141,469.022 395.98,469.022 395.98,233.616   211.219,233.616 "/>
<path style="fill:#97CDE8;" d="M146.059,492.944v-26.27h-21.953v26.27c0,4.762,3.861,8.623,8.623,8.623h21.953  C149.92,501.567,146.059,497.706,146.059,492.944z"/>
<path style="fill:#E03C2F;" d="M283.778,4.658H158.453l35.817,36.987h69.878C273.677,31.437,280.571,18.752,283.778,4.658z"/>
<path d="M306.679,352.284l45.027,64.777c1.57,2.26,4.086,3.472,6.645,3.472c1.592,0,3.2-0.47,4.606-1.448  c3.666-2.548,4.572-7.586,2.024-11.251l-45.027-64.777c-2.547-3.665-7.584-4.574-11.251-2.024  C305.037,343.581,304.131,348.62,306.679,352.284z"/>
<path d="M191.249,343.058l-45.027,64.777c-2.548,3.665-1.642,8.703,2.024,11.251c1.407,0.978,3.015,1.448,4.606,1.448  c2.558,0,5.075-1.212,6.645-3.472l45.027-64.777c2.548-3.665,1.643-8.703-2.024-11.251  C198.836,338.484,193.798,339.392,191.249,343.058z"/>
<path d="M300.871,174.654c0,13.937,11.339,25.276,25.276,25.276c13.935,0,25.271-11.339,25.271-25.276  c0-13.935-11.337-25.271-25.271-25.271C312.21,149.383,300.871,160.719,300.871,174.654z M335.25,174.654  c0,5.022-4.083,9.107-9.103,9.107c-5.022,0-9.107-4.085-9.107-9.107c0-5.02,4.085-9.103,9.107-9.103  C331.167,165.551,335.25,169.634,335.25,174.654z"/>
<path d="M402.503,66.055c-19.571-55.197-57.141-65.39-58.763-65.804c-0.154-0.04-0.31-0.056-0.467-0.087  c-0.152-0.029-0.301-0.064-0.455-0.084c-0.264-0.036-0.527-0.05-0.79-0.058C341.931,0.018,341.836,0,341.738,0H171.334  c-0.008,0-0.015,0-0.023,0h-0.105c-0.081,0-0.158,0.015-0.239,0.018c-0.282,0.009-0.564,0.024-0.847,0.063  c-0.151,0.02-0.296,0.055-0.445,0.083c-0.157,0.031-0.317,0.049-0.473,0.088c-1.61,0.412-38.928,10.55-58.554,65.261  c-27.98,13.073-61.664,35.673-61.664,68.724v12.77v55.298v177.666v45.743c0,3.65,2.445,6.847,5.967,7.802l52.985,14.378v21.13  v34.894c0,4.466,3.618,8.084,8.084,8.084h1.12h42.786h193.265h42.787c4.466,0,8.084-3.618,8.084-8.084v-34.894v-21.13l52.986-14.378  c3.523-0.956,5.967-4.153,5.967-7.802v-45.743V260.067c0-4.466-3.618-8.084-8.084-8.084s-8.084,3.618-8.084,8.084v113.72  l-42.785,11.61V233.616v-50.162c0-4.466-3.618-8.084-8.084-8.084c-4.466,0-8.084,3.618-8.084,8.084v42.078h-123.81V119.605  l99.271-51.35c5.175,1.572,16.559,5.285,29.283,11.061c0.136,0.061,0.275,0.107,0.413,0.16  c25.738,11.864,53.799,30.837,53.799,54.761v4.686h-8.469c-12.298,0-22.303,10.005-22.303,22.304v26.859  c0,12.298,10.005,22.303,22.303,22.303h8.469v23.271c0,4.466,3.618,8.084,8.084,8.084c4.466,0,8.084-3.618,8.084-8.084v-31.355  v-55.298v-12.77C463.017,101.638,430.247,79.208,402.503,66.055z M381.27,57.193c-8.751-3.199-15.03-4.966-16.465-5.357  c-0.091-0.025-0.16-0.044-0.19-0.052c-0.245-0.066-0.49-0.12-0.737-0.162c-1.373-0.236-2.778-0.103-4.085,0.364  c-0.338,0.121-0.673,0.257-0.995,0.424l-97.643,50.507l82.722-85.42C351.56,20.973,368.409,31.151,381.27,57.193z M226.107,53.155  h60.73l-30.365,31.356L226.107,53.155z M312.348,26.813l-9.854,10.175H210.45l-11.068-11.429l-9.092-9.391h132.366L312.348,26.813z   M169.064,17.492l76.154,78.641l-1.534,1.585l-0.965,0.997L153.204,52.41c-0.262-0.136-0.532-0.251-0.805-0.357  c-0.084-0.032-0.169-0.059-0.254-0.089c-0.198-0.069-0.398-0.13-0.599-0.183c-0.092-0.024-0.182-0.047-0.274-0.069  c-0.227-0.052-0.456-0.092-0.687-0.124c-0.058-0.008-0.115-0.02-0.175-0.027c-0.291-0.033-0.584-0.051-0.877-0.052  c-0.015,0-0.029-0.002-0.044-0.002c-0.038,0-0.077,0.008-0.114,0.008c-0.272,0.003-0.542,0.023-0.814,0.054  c-0.077,0.009-0.153,0.017-0.229,0.028c-0.317,0.046-0.633,0.105-0.945,0.189c-0.947,0.255-6.923,1.9-15.498,4.988  C144.725,30.998,161.4,20.942,169.064,17.492z M65.153,155.091h9.474c3.384,0,6.134,2.753,6.134,6.135v26.859  c0,3.383-2.752,6.134-6.134,6.134h-9.474V155.091z M107.937,431.139l-42.784-11.61V390.54l42.784,11.61V431.139z M125.225,495.832  v-18.725h26.617v18.725H125.225z M247.915,477.106v18.725h-79.904v-18.725H247.915z M264.084,477.106h81.024v18.725h-81.024V477.106  z M387.896,495.832h-26.619v-18.725h26.619V495.832z M446.849,390.541v28.989l-42.785,11.61v-28.989L446.849,390.541z   M387.896,241.7v154.267v45.743v19.229h-34.703h-89.108V241.7H387.896z M211.219,241.7h36.697v219.238h-87.988h-34.702V241.7h58.508  c4.466,0,8.084-3.618,8.084-8.084s-3.618-8.084-8.084-8.084h-59.628v-42.078c0-4.466-3.618-8.084-8.084-8.084  s-8.084,3.618-8.084,8.084v201.943l-42.784-11.61V210.39h9.474c12.298,0,22.303-10.005,22.303-22.303v-26.859  c0-12.299-10.005-22.304-22.303-22.304h-9.474v-4.686c0-24.256,28.847-43.424,54.869-55.252c0.14-0.054,0.285-0.092,0.424-0.153  c12.282-5.498,23.173-9.049,28.201-10.576l99.269,51.35v105.927h-36.697c-4.466,0-8.084,3.618-8.084,8.084  S206.754,241.7,211.219,241.7z M438.38,194.221c-3.384,0-6.134-2.752-6.134-6.134v-26.859c0-3.383,2.752-6.135,6.134-6.135h8.469  v39.13h-8.469V194.221z"/>
<g>
</g>
<g>
</g>
<g>
</g>
<g>
</g>
<g>
</g>
<g>
</g>
<g>
</g>
<g>
</g>
<g>
</g>
<g>
</g>
<g>
</g>
<g>
</g>
<g>
</g>
<g>
</g>
<g>
</g>
</svg>
