<?xml version="1.0" encoding="iso-8859-1"?>
<!-- Generator: Adobe Illustrator 19.0.0, SVG Export Plug-In . SVG Version: 6.00 Build 0)  -->
<svg xmlns="http://www.w3.org/2000/svg" xmlns:xlink="http://www.w3.org/1999/xlink" version="1.1" id="Layer_1" x="0px" y="0px" viewBox="0 0 512 512" style="enable-background:new 0 0 512 512;" xml:space="preserve">
<polygon style="fill:#275D68;" points="171.206,8.084 341.737,8.084 256.47,96.133 "/>
<path style="fill:#527A84;" d="M221.358,65.075c32.492-5.179,58.481-29.799,65.706-61.564H161.74L221.358,65.075z"/>
<polygon style="fill:#7FB6C6;" points="207.024,45.071 305.919,45.071 341.737,8.084 171.206,8.084 "/>
<path style="fill:#49BAED;" d="M454.932,243.366c0-46.536,0-91.497,0-109.128c0-49.764-92.421-74.649-92.421-74.649l-106.512,55.097  L149.488,59.589c0,0-92.42,24.884-92.42,74.649c0,49.762,0,291.476,0,291.476l58.952,15.996v62.206h139.979h0.001h139.979v-62.206  l58.953-15.996c0,0,0-78.247,0-154.867"/>
<g>
	<polyline style="fill:#B7DFF7;" points="164.871,469.023 116.02,469.023 116.02,503.916 395.978,503.916 395.978,469.023    191.278,469.023  "/>
	<path style="fill:#B7DFF7;" d="M116.02,395.969l-58.952-15.998c0,27.495,0,45.744,0,45.744l58.952,15.996V395.969z"/>
	<path style="fill:#B7DFF7;" d="M395.978,441.709l58.953-15.996c0,0,0-18.249,0-45.744l-58.953,15.998V441.709z"/>
	<path style="fill:#B7DFF7;" d="M255.998,114.686l106.512-55.097c0,0,15.31,4.124,33.468,12.367l0,0   C377.94,17.335,341.737,8.084,341.737,8.084l-97.395,100.571v0.002L255.998,114.686z"/>
	<path style="fill:#B7DFF7;" d="M149.487,59.589l94.856,49.067v-0.002l12.127-12.522L171.206,8.084c0,0-35.97,9.204-54.066,63.371   C134.8,63.547,149.487,59.589,149.487,59.589z"/>
</g>
<path style="fill:#D0EAF7;" d="M306.376,299.973h-99.812c0,29.017-16.352,54.202-40.332,66.884v63.179h180.475v-63.176  C322.727,354.177,306.376,328.99,306.376,299.973z"/>
<path style="fill:#9BCBDD;" d="M287.064,3.511H161.74l35.817,36.987h69.878C276.963,30.29,283.859,17.605,287.064,3.511z"/>
<path style="fill:#B7DFF7;" d="M252.448,323.573c0-9.993,1.217-19.7,3.497-28.991h-37.91c-2.977,0-5.389,2.412-5.389,5.389  c0,26.097-14.353,49.899-37.461,62.12c-1.767,0.933-2.869,2.767-2.869,4.764v63.179c0,2.977,2.412,5.389,5.389,5.389h149.084  C283.117,417.079,252.448,373.911,252.448,323.573z"/>
<path d="M454.932,251.45c4.466,0,8.084-3.618,8.084-8.084V134.238c0-32.6-32.77-55.03-60.515-68.182  C382.93,10.859,345.36,0.665,343.738,0.251c-0.155-0.04-0.313-0.057-0.469-0.087c-0.15-0.029-0.299-0.064-0.451-0.084  c-0.268-0.037-0.537-0.051-0.805-0.06C341.921,0.017,341.831,0,341.737,0H171.333c-0.006,0-0.014,0-0.02,0h-0.107  c-0.082,0-0.162,0.015-0.243,0.018c-0.28,0.009-0.562,0.025-0.842,0.063c-0.152,0.02-0.299,0.055-0.448,0.084  c-0.157,0.03-0.315,0.047-0.471,0.088c-1.61,0.412-38.927,10.55-58.554,65.261c-27.98,13.073-61.664,35.673-61.664,68.723v245.733  v45.744c0,3.65,2.446,6.847,5.967,7.802l52.985,14.377v21.131v34.891c0,4.466,3.62,8.084,8.084,8.084h279.959  c4.466,0,8.084-3.618,8.084-8.084v-34.893v-21.131l52.986-14.377c3.523-0.956,5.967-4.153,5.967-7.802V379.97V270.847  c0-4.466-3.618-8.084-8.084-8.084s-8.084,3.618-8.084,8.084v102.94l-42.785,11.61V183.453c0-4.466-3.618-8.084-8.084-8.084  s-8.084,3.618-8.084,8.084v212.513v45.742v19.23H191.278c-4.465,0-8.084,3.618-8.084,8.084s3.62,8.084,8.084,8.084h196.617v18.725  H124.104v-18.724h40.767c4.465,0,8.084-3.618,8.084-8.084c0-4.466-3.62-8.084-8.084-8.084h-40.767v-19.23v-45.742V183.454  c0-4.466-3.62-8.084-8.084-8.084s-8.084,3.618-8.084,8.084v201.944l-42.784-11.61v-239.55c0-24.257,28.849-43.425,54.871-55.253  c0.14-0.054,0.282-0.091,0.42-0.152c12.282-5.498,23.174-9.049,28.201-10.576l49.502,25.606v128.695c0,4.466,3.62,8.084,8.084,8.084  c4.465,0,8.084-3.618,8.084-8.084V102.226l37.969,19.64c2.33,1.206,5.098,1.206,7.43,0l40.338-20.866v121.557  c0,4.466,3.618,8.084,8.084,8.084c4.466,0,8.084-3.618,8.084-8.084V92.636l47.134-24.381c5.175,1.572,16.559,5.285,29.283,11.061  c0.138,0.063,0.279,0.109,0.418,0.163c25.736,11.864,53.793,30.837,53.793,54.758v109.128  C446.848,247.832,450.467,251.45,454.932,251.45z M446.848,390.541v28.99l-42.785,11.609v-28.988L446.848,390.541z M107.936,402.152  v28.988l-42.784-11.609v-28.99L107.936,402.152z M381.269,57.193c-8.745-3.196-15.02-4.963-16.462-5.357  c-0.093-0.025-0.163-0.044-0.193-0.053c-1.95-0.525-4.023-0.302-5.819,0.626L315.74,74.682c-1.119-3.124-4.096-5.361-7.605-5.361  c-4.466,0-8.084,3.618-8.084,8.084v5.393l-38.898,20.12l1.124-1.161l49.446-51.059c0.001,0,0.001-0.001,0.002-0.002l18.303-18.9  l13.847-14.298C351.558,20.973,368.408,31.151,381.269,57.193z M226.106,53.155h60.73L256.47,84.511L226.106,53.155z   M313.074,26.061l-10.581,10.926h-92.045l-20.161-20.818h132.367L313.074,26.061z M169.062,17.492l76.154,78.641l-1.61,1.663  l-0.888,0.917l-28.403-14.692v-6.618c0-4.466-3.62-8.084-8.084-8.084c-3.897,0-7.149,2.757-7.913,6.427l-45.117-23.337  c-0.262-0.136-0.531-0.251-0.804-0.357c-0.085-0.033-0.171-0.06-0.258-0.091c-0.195-0.068-0.391-0.128-0.59-0.181  c-0.095-0.025-0.19-0.05-0.286-0.071c-0.219-0.05-0.439-0.088-0.66-0.119c-0.068-0.01-0.135-0.024-0.202-0.031  c-0.287-0.032-0.573-0.05-0.862-0.052c-0.018,0-0.036-0.003-0.053-0.003c-0.046,0-0.092,0.009-0.138,0.01  c-0.259,0.004-0.517,0.022-0.776,0.051c-0.084,0.01-0.168,0.019-0.252,0.031c-0.314,0.045-0.626,0.103-0.936,0.186  c-0.947,0.255-6.923,1.9-15.498,4.988C144.724,30.998,161.399,20.941,169.062,17.492z"/>
<path d="M314.46,299.973c0-4.466-3.618-8.084-8.084-8.084h-99.812c-4.465,0-8.084,3.618-8.084,8.084  c0,25.094-13.805,47.986-36.026,59.738c-2.647,1.4-4.305,4.151-4.305,7.146v63.179c0,4.466,3.62,8.084,8.084,8.084h180.475  c4.466,0,8.084-3.618,8.084-8.084v-63.176c0-2.995-1.657-5.746-4.305-7.146C328.265,347.961,314.46,325.069,314.46,299.973z   M338.623,421.952H174.318v-50.388c22.691-13.749,37.418-37.261,39.945-63.506h84.417c2.525,26.247,17.254,49.76,39.945,63.51  v50.385H338.623z"/>
<g>
</g>
<g>
</g>
<g>
</g>
<g>
</g>
<g>
</g>
<g>
</g>
<g>
</g>
<g>
</g>
<g>
</g>
<g>
</g>
<g>
</g>
<g>
</g>
<g>
</g>
<g>
</g>
<g>
</g>
</svg>
