<?xml version="1.0" encoding="iso-8859-1"?>
<!-- Generator: Adobe Illustrator 19.0.0, SVG Export Plug-In . SVG Version: 6.00 Build 0)  -->
<svg xmlns="http://www.w3.org/2000/svg" xmlns:xlink="http://www.w3.org/1999/xlink" version="1.1" id="Layer_1" x="0px" y="0px" viewBox="0 0 512 512" style="enable-background:new 0 0 512 512;" xml:space="preserve">
<path style="fill:#E79275;" d="M411.729,79.686l-72.793-44.489L313.571,8.333l0.053-0.247h-0.287h-57.338h-57.336l-25.6,27.11  l-72.792,44.49c0,0-47.202,28.789-47.202,106.36c0,40.929,0,168.899,0,235.098c0,24.524,0,40.575,0,40.575h73.99h0.338v-33.557  l2.091-207.014l20.425,111.693l-4.221,37.035c0,0,0.131,0.323,0.36,0.876l-13.563,133.163h27.981h20.729h28.026h46.774H379.51  l-19.691-193.321L382.4,210.142l0.002,0.004l-0.002-0.001l2.202,218.016v33.557h0.338h73.99c0,0,0-16.053,0-40.575  c0-35.012,0-87.298,0-134.853c0-19.558,0-38.321,0-54.745c0-8.378,0-17.421,0-26.939c0-6.84,0-13.823,0-18.561  C458.931,108.476,411.729,79.686,411.729,79.686z M129.599,210.156v-0.008l2.234,9.944h-0.001L129.599,210.156z"/>
<polygon style="fill:#D1755D;" points="303.466,55.966 208.614,55.966 198.663,8.086 313.624,8.086 "/>
<path style="fill:#E08870;" d="M99.646,79.686c0,0-47.202,28.789-47.202,106.36c0,40.929,0,168.899,0,235.098  c0,24.524,0,40.575,0,40.575h73.99h0.338v-33.557l1.97-195.007l12.419,55.243l4.097,22.402l-18.852,185.09  c-0.232,2.274,0.512,4.541,2.044,6.238c1.533,1.697,3.711,2.666,5.997,2.666h120.926V283.904L198.038,8.086l-25.6,27.11  L99.646,79.686z"/>
<g>
	<polygon style="fill:#FFE8A5;" points="255.999,283.904 198.663,8.086 173.063,35.196 153.909,79.686 182.55,101.911    160.473,132.342  "/>
	<polygon style="fill:#FFE8A5;" points="255.998,283.904 313.334,8.086 338.934,35.196 358.088,79.686 329.446,101.911    351.524,132.342  "/>
	<rect x="384.602" y="421.142" style="fill:#FFE8A5;" width="74.328" height="40.576"/>
</g>
<path style="fill:#D3715B;" d="M249.706,278.337l-19.768-95.1c13.823-20.127,25.132-45.704,31.869-74.529  c9.244-39.547,8.062-77.435-1.303-106.19h42.821c1.242,0,2.45,0.274,3.558,0.775L249.706,278.337z"/>
<path style="fill:#BF5E4B;" d="M260.504,2.519h46.539l-9.951,47.88h-28.981C267.708,32.836,265.086,16.585,260.504,2.519z"/>
<g>
	<path style="fill:#D3715B;" d="M80.532,450.81v-6.467v-7.904v-6.467v-11.114v-14.372V183.76v-14.372   c0-1.759,0.031-3.484,0.08-5.193c0.011-0.409,0.022-0.819,0.033-1.227c0.055-1.558,0.126-3.097,0.217-4.613   c0.036-0.607,0.08-1.207,0.122-1.81c0.071-0.992,0.15-1.973,0.236-2.945c0.11-1.278,0.238-2.546,0.377-3.807   c0.053-0.47,0.103-0.939,0.157-1.404c2.12-17.908,7.031-34.176,14.691-48.635c0.417-0.789,0.835-1.563,1.259-2.324   c0.28-0.504,0.562-1.008,0.85-1.507c0.667-1.164,1.341-2.291,2.019-3.387c0.122-0.195,0.24-0.39,0.362-0.584   c0.833-1.328,1.672-2.601,2.509-3.83c0.04-0.06,0.078-0.122,0.117-0.181c0.108-0.156,0.214-0.305,0.322-0.46   c0.162-0.235,0.324-0.468,0.488-0.698c0.2-0.286,0.4-0.566,0.6-0.845c0.172-0.239,0.343-0.476,0.516-0.711   c0.188-0.258,0.375-0.512,0.562-0.764c0.188-0.252,0.375-0.503,0.562-0.751c0.164-0.217,0.329-0.432,0.493-0.647   c0.212-0.279,0.427-0.555,0.64-0.828c0.135-0.171,0.267-0.341,0.402-0.51c0.243-0.307,0.484-0.611,0.727-0.911   c0.099-0.122,0.198-0.244,0.296-0.363c0.278-0.342,0.556-0.678,0.831-1.01c0.057-0.068,0.113-0.134,0.17-0.2   c0.316-0.378,0.632-0.748,0.947-1.111c0.013-0.017,0.027-0.031,0.04-0.047c2.042-2.361,4.002-4.415,5.818-6.192l-9.076,5.547   c-0.066,0.041-0.324,0.204-0.745,0.492c-0.044,0.029-0.095,0.066-0.141,0.097c-0.053,0.036-0.099,0.068-0.154,0.107   c-2.406,1.664-8.484,6.245-15.472,14.322c-0.013,0.016-0.027,0.03-0.04,0.047c-0.314,0.363-0.629,0.734-0.947,1.111   c-0.057,0.068-0.112,0.134-0.168,0.202c-0.278,0.332-0.556,0.667-0.833,1.01c-0.099,0.12-0.196,0.241-0.294,0.363   c-0.243,0.299-0.486,0.604-0.729,0.911c-0.135,0.168-0.267,0.337-0.402,0.51c-0.212,0.273-0.426,0.549-0.64,0.828   c-0.164,0.213-0.329,0.429-0.493,0.647c-0.188,0.248-0.375,0.499-0.562,0.751c-0.188,0.252-0.375,0.507-0.562,0.764   c-0.172,0.235-0.343,0.472-0.516,0.711c-0.2,0.279-0.4,0.559-0.6,0.845c-0.162,0.231-0.324,0.465-0.488,0.698   c-0.108,0.155-0.214,0.304-0.32,0.46c-0.042,0.059-0.078,0.121-0.12,0.181c-0.838,1.229-1.676,2.501-2.507,3.83   c-0.122,0.194-0.243,0.389-0.362,0.584c-0.678,1.096-1.354,2.223-2.021,3.387c-0.289,0.499-0.568,1.004-0.85,1.507   c-0.424,0.761-0.842,1.535-1.259,2.324c-7.658,14.46-12.57,30.727-14.688,48.635c-0.057,0.466-0.108,0.935-0.161,1.404   c-0.139,1.261-0.265,2.53-0.377,3.807c-0.086,0.972-0.164,1.954-0.234,2.945c-0.042,0.603-0.086,1.203-0.122,1.81   c-0.093,1.517-0.164,3.056-0.217,4.613c-0.015,0.407-0.025,0.818-0.036,1.227c-0.046,1.71-0.08,3.435-0.08,5.193v235.098v25.485   v6.467c0,4.762,3.861,8.623,8.623,8.623h19.769C84.393,459.433,80.532,455.572,80.532,450.81z"/>
	<path style="fill:#D3715B;" d="M410.988,450.81v-6.467v-7.904v-6.467v-11.114v-14.372V221.628c0-4.132-2.993-8.084-7.804-8.084   c-4.813,0-7.897,3.687-7.897,3.687l-0.004-0.003c-4.322,5.628-6.238,14.542-6.238,14.542l2.175,187.087v25.485v6.467   c0,4.762,3.861,8.623,8.623,8.623h19.768C414.849,459.433,410.988,455.572,410.988,450.81z"/>
	<path style="fill:#D3715B;" d="M398.692,153.177c-2.151,1.087-3.405,2.579-3.405,2.579l-0.004-0.003   c-4.322,5.628-6.238,14.542-6.238,14.542l2.175,182.776v25.486v3.354h19.768v-3.354v-7.904v-6.467V353.07v-14.372V169.011   C410.988,150.882,398.713,153.173,398.692,153.177z"/>
</g>
<path style="fill:#F2D17E;" d="M412.066,450.81v-6.467v-7.904v-6.467v-11.114h-19.769v25.485v6.467c0,4.762,3.861,8.623,8.623,8.623  h19.768C415.927,459.433,412.066,455.572,412.066,450.81z"/>
<rect x="53.065" y="421.142" style="fill:#FFE8A5;" width="74.328" height="40.576"/>
<path style="fill:#F2D17E;" d="M80.532,450.81v-6.467v-7.904v-6.467v-11.114H60.764v25.485v6.467c0,4.762,3.861,8.623,8.623,8.623  h19.769C84.393,459.433,80.532,455.572,80.532,450.81z"/>
<path d="M223.772,339.832h1.592c4.466,0,8.084-3.618,8.084-8.084c0-4.466-3.618-8.084-8.084-8.084h-1.592  c-4.466,0-8.084,3.618-8.084,8.084C215.688,336.213,219.306,339.832,223.772,339.832z"/>
<path d="M223.772,389.995h1.592c4.466,0,8.084-3.618,8.084-8.084c0-4.466-3.618-8.084-8.084-8.084h-1.592  c-4.466,0-8.084,3.618-8.084,8.084C215.688,386.376,219.306,389.995,223.772,389.995z"/>
<path d="M223.772,440.161h1.592c4.466,0,8.084-3.618,8.084-8.084c0-4.466-3.618-8.084-8.084-8.084h-1.592  c-4.466,0-8.084,3.618-8.084,8.084C215.688,436.542,219.306,440.161,223.772,440.161z"/>
<path d="M458.931,212.69c4.466,0,8.084-3.618,8.084-8.084v-18.561c0-81.176-48.991-111.988-51.077-113.261  c-0.001-0.001-0.003-0.001-0.004-0.002l-71.846-43.91L319.533,2.57c-0.042-0.045-0.088-0.083-0.132-0.127  c-0.092-0.094-0.186-0.183-0.282-0.273c-0.124-0.115-0.249-0.227-0.378-0.333c-0.091-0.074-0.184-0.146-0.278-0.217  c-0.146-0.109-0.293-0.212-0.444-0.31c-0.088-0.057-0.177-0.112-0.267-0.166c-0.164-0.097-0.33-0.188-0.498-0.272  c-0.088-0.044-0.177-0.088-0.267-0.13c-0.175-0.08-0.351-0.151-0.529-0.218c-0.093-0.034-0.185-0.071-0.28-0.102  c-0.18-0.06-0.362-0.11-0.546-0.156c-0.097-0.025-0.194-0.053-0.292-0.074c-0.192-0.041-0.385-0.071-0.579-0.098  c-0.093-0.013-0.183-0.031-0.277-0.042c-0.28-0.03-0.563-0.046-0.844-0.047c-0.005,0-0.011-0.001-0.016-0.001h-0.168  C313.413,0.001,313.37,0,313.328,0c-0.016,0-0.033,0.002-0.05,0.002H198.663c-0.039,0-0.077,0.005-0.114,0.005  c-0.148,0.002-0.296,0.012-0.445,0.023c-0.102,0.008-0.207,0.009-0.308,0.02c-0.046,0.005-0.093,0.014-0.139,0.019  c-0.037,0.004-0.073,0.004-0.11,0.01c-0.102,0.014-0.204,0.039-0.306,0.057c-0.098,0.017-0.197,0.032-0.294,0.054  c-0.03,0.006-0.061,0.011-0.092,0.018c-0.148,0.033-0.293,0.079-0.44,0.121c-0.075,0.022-0.152,0.04-0.226,0.064  c-0.048,0.016-0.097,0.031-0.146,0.047c-0.042,0.014-0.083,0.032-0.124,0.047c-0.135,0.049-0.268,0.098-0.4,0.154  c-0.019,0.008-0.039,0.014-0.058,0.023c-0.066,0.028-0.13,0.061-0.195,0.092c-0.068,0.031-0.134,0.067-0.202,0.1  c-0.11,0.055-0.222,0.103-0.33,0.164c-0.018,0.01-0.033,0.024-0.052,0.034c-0.04,0.023-0.078,0.051-0.117,0.073  c-0.109,0.064-0.215,0.132-0.32,0.2c-0.135,0.088-0.266,0.18-0.396,0.276c-0.056,0.041-0.116,0.077-0.17,0.12  c-0.037,0.028-0.068,0.061-0.103,0.091c-0.01,0.008-0.018,0.016-0.028,0.024c-0.124,0.102-0.245,0.209-0.363,0.318  c-0.094,0.087-0.188,0.175-0.278,0.266c-0.039,0.039-0.081,0.073-0.117,0.112l-6.82,7.222l-18.044,19.106L96.067,72.78  c-0.002,0.001-0.004,0.002-0.005,0.003c-2.086,1.273-51.077,32.087-51.077,113.261v235.098v40.576c0,4.466,3.618,8.084,8.084,8.084  h73.99h0.338c0.15,0,0.296-0.014,0.444-0.023l-3.393,33.315c-0.233,2.274,0.511,4.541,2.044,6.238  c1.533,1.697,3.712,2.666,5.998,2.666h48.71c4.466,0,8.084-3.618,8.084-8.084s-3.618-8.084-8.084-8.084h-39.761l18.783-184.417  c0.088-0.867,0.037-1.742-0.155-2.592l-22.531-100.219c-0.001-0.009-0.004-0.017-0.005-0.027l-11.414-50.77  c-0.98-4.356-5.304-7.086-9.661-6.114c-4.356,0.979-7.093,5.304-6.114,9.661l11.164,49.657l-2.04,202.048H61.153V186.046  c0-30.117,7.284-56,21.651-76.926c10.64-15.499,21.453-22.391,21.704-22.548c0.001-0.001,0.002-0.002,0.003-0.002l51.07-31.214  l-9.098,21.134c-1.457,3.385-0.441,7.325,2.469,9.585l22.456,17.425l-17.481,24.097c-0.223,0.306-0.412,0.626-0.584,0.952  c-0.031,0.059-0.063,0.119-0.092,0.179c-0.336,0.669-0.572,1.368-0.709,2.08c-0.01,0.052-0.018,0.102-0.028,0.154  c-0.124,0.72-0.151,1.449-0.08,2.169c0.006,0.067,0.014,0.133,0.022,0.198c0.089,0.722,0.275,1.429,0.554,2.105  c0.023,0.055,0.045,0.109,0.068,0.163c0.152,0.346,0.323,0.682,0.525,1.007c0,0.001,0.001,0.002,0.001,0.003l94.311,151.987v207.237  h-38.689c-4.466,0-8.084,3.618-8.084,8.084c0,4.466,3.618,8.084,8.084,8.084H379.51c2.286,0,4.467-0.968,5.998-2.666  s2.275-3.963,2.044-6.238l-3.393-33.315c0.148,0.008,0.294,0.023,0.444,0.023h0.338h73.99c4.466,0,8.084-3.618,8.084-8.084v-40.576  V231.545c0-4.466-3.618-8.084-8.084-8.084s-8.084,3.618-8.084,8.084v181.514h-58.312l-2.04-202.06l11.16-49.645  c0.979-4.356-1.758-8.681-6.115-9.66c-4.35-0.98-8.681,1.759-9.66,6.115l-33.947,151.016c-0.192,0.849-0.244,1.726-0.155,2.591  l18.783,184.417H264.083V288.594l94.309-151.99c1.731-2.791,1.602-6.352-0.327-9.009L340.584,103.5l22.458-17.426  c2.91-2.259,3.927-6.2,2.469-9.585l-9.1-21.136l51.078,31.218c0.14,0.087,11.01,6.969,21.705,22.549  c14.366,20.926,21.65,46.808,21.65,76.926v18.561C450.847,209.072,454.465,212.69,458.931,212.69z M144.005,311.085l-8.148,79.996  l1.123-111.238L144.005,311.085z M119.302,429.228l-0.247,24.408H61.153v-24.408H119.302z M450.847,429.228v24.408h-57.902  l-0.247-24.408H450.847z M367.995,311.085l7.025-31.247l1.123,111.243L367.995,311.085z M208.6,16.171h94.798l-6.592,31.712h-81.614  L208.6,16.171z M163.809,77.136l16.113-37.429l0.11-0.116l13.847-14.664l7.671,37.223c-0.312,0.307-0.607,0.637-0.872,1.002  l-19.771,27.251L163.809,77.136z M170.205,132.694l18.888-26.035c0.009-0.013,0.016-0.026,0.025-0.039l16.818-23.183l32.971,159.977  L170.205,132.694z M218.553,64.05h74.892l-37.446,180.135L218.553,64.05z M273.089,243.413l32.956-159.908l29.464,40.612  c0.153,0.21,0.32,0.403,0.489,0.595l5.792,7.983L273.089,243.413z M331.047,90.435l-20.582-28.37l0.963-4.67l6.852-32.298  l13.792,14.608l16.116,37.432L331.047,90.435z"/>
<g>
</g>
<g>
</g>
<g>
</g>
<g>
</g>
<g>
</g>
<g>
</g>
<g>
</g>
<g>
</g>
<g>
</g>
<g>
</g>
<g>
</g>
<g>
</g>
<g>
</g>
<g>
</g>
<g>
</g>
</svg>
