<?xml version="1.0" encoding="iso-8859-1"?>
<!-- Generator: Adobe Illustrator 19.0.0, SVG Export Plug-In . SVG Version: 6.00 Build 0)  -->
<svg xmlns="http://www.w3.org/2000/svg" xmlns:xlink="http://www.w3.org/1999/xlink" version="1.1" id="Layer_1" x="0px" y="0px" viewBox="0 0 512 512" style="enable-background:new 0 0 512 512;" xml:space="preserve">
<path style="fill:#E79275;" d="M411.237,68.327c-36.095-13.421-77.618-31.281-77.618-31.281l-23.17-28.962h-54.449h-1.158h-54.45  l-23.169,28.962c0,0-41.483,17.966-77.619,31.281c-44.022,16.219-44.022,44.021-44.022,44.021v332.486l60.241,19.695v39.386h28.518  h28.556h28.023h53.922h1.158h111.493h27.526v-39.387l61.399-19.695V328.985v-83.973v-26.406v-50.649v-55.609  C456.418,112.348,456.418,85.125,411.237,68.327z"/>
<polygon style="fill:#D1755D;" points="200.392,8.084 310.423,8.084 300.328,52.901 210.499,52.901 "/>
<path style="fill:#D3715B;" d="M248.337,248.99l-21.929-63.217c13.823-20.128,25.132-45.704,31.869-74.529  c9.244-39.547,8.062-77.435-1.303-106.191h42.822c1.242,0,2.45,0.274,3.558,0.775L248.337,248.99z"/>
<path style="fill:#BF5E4B;" d="M293.246,49.871h-28.783c-0.623-16.383-3.177-31.576-7.488-44.817h42.822  c1.184,0,2.335,0.254,3.398,0.711L293.246,49.871z"/>
<path style="fill:#E08870;" d="M262.588,280.328L204.84,24.28c-2.435,0.14-4.708,1.292-6.242,3.21l-20.58,9.557l-0.004,0.002  c-0.412,0.178-42.112,18.197-77.615,31.278c-41.471,15.278-43.875,40.851-44.013,43.717c-0.006,0.138-0.01,0.276-0.01,0.414v326.125  c0,3.729,2.398,7.036,5.944,8.195l54.298,17.752v30.763c0,4.762,3.861,8.623,8.623,8.623h137.346V280.328z"/>
<g>
	<polygon style="fill:#FFE8A5;" points="456.418,444.834 396.176,464.528 396.176,420.891 456.418,400.425  "/>
	<polyline style="fill:#FFE8A5;" points="261.792,280.328 168.535,151.736 183.014,116.983 148.261,86.861 177.223,37.046    200.392,8.084 261.792,280.328 261.792,503.916  "/>
	<polygon style="fill:#FFE8A5;" points="362.555,86.861 333.593,37.046 310.423,8.084 255.408,252.021 258.763,266.899    342.282,151.736 327.8,116.983  "/>
</g>
<path style="fill:#D3715B;" d="M85.069,449.563v-21.778V123.439v-21.779c0-0.138,0.004-0.276,0.011-0.414  c0.103-2.143,1.478-16.994,19.522-30.736c-39.2,15.361-41.541,40.003-41.676,42.813c-0.006,0.138-0.011,0.276-0.011,0.414v326.125  c0,3.73,2.398,7.037,5.944,8.196l17.293,5.654C85.465,452.466,85.069,451.053,85.069,449.563z"/>
<polygon style="fill:#FFE8A5;" points="55.581,444.834 115.822,464.528 115.822,420.891 55.581,400.425 "/>
<path style="fill:#F2D17E;" d="M68.859,448.058l17.293,5.654c-0.687-1.245-1.082-2.659-1.082-4.149v-21.778V410.31l-22.154-7.526  v37.077C62.915,443.591,65.313,446.899,68.859,448.058z"/>
<path d="M233.392,323.168h1.546c4.466,0,8.084-3.618,8.084-8.084s-3.618-8.084-8.084-8.084h-1.546c-4.466,0-8.084,3.618-8.084,8.084  S228.927,323.168,233.392,323.168z"/>
<path d="M233.392,381.864h1.546c4.466,0,8.084-3.618,8.084-8.084s-3.618-8.084-8.084-8.084h-1.546c-4.466,0-8.084,3.618-8.084,8.084  S228.927,381.864,233.392,381.864z"/>
<path d="M233.392,440.56h1.546c4.466,0,8.084-3.618,8.084-8.084s-3.618-8.084-8.084-8.084h-1.546c-4.466,0-8.084,3.618-8.084,8.084  S228.927,440.56,233.392,440.56z"/>
<path d="M456.418,226.69c4.466,0,8.084-3.618,8.084-8.084V112.348c0-1.341-0.573-33.056-50.448-51.599  c-31.208-11.604-66.95-26.738-75.39-30.337L316.76,3.033c-1.193-1.493-2.867-2.491-4.707-2.864c-0.06-0.012-0.121-0.02-0.181-0.031  c-0.273-0.049-0.548-0.084-0.826-0.105c-0.11-0.009-0.219-0.015-0.33-0.018C310.627,0.012,310.539,0,310.448,0h-0.024H200.393  c-0.092,0-0.182,0.012-0.274,0.015c-0.123,0.004-0.245,0.011-0.368,0.02c-0.24,0.019-0.478,0.051-0.714,0.091  c-0.106,0.018-0.21,0.032-0.315,0.054c-0.326,0.069-0.646,0.153-0.958,0.261c-0.011,0.003-0.022,0.005-0.031,0.009  c-0.326,0.113-0.64,0.251-0.947,0.405c-0.091,0.045-0.178,0.098-0.267,0.148c-0.213,0.116-0.423,0.241-0.625,0.377  c-0.1,0.067-0.197,0.137-0.294,0.208c-0.193,0.142-0.378,0.294-0.558,0.455c-0.083,0.073-0.167,0.143-0.247,0.22  c-0.251,0.241-0.493,0.496-0.712,0.772l-21.91,27.385c-8.416,3.61-44.129,18.814-75.362,30.321  c-48.751,17.961-49.312,50.241-49.312,51.606v288.078v44.408c0,3.497,2.248,6.597,5.572,7.684l54.67,17.874v19.624v13.901  c0,4.466,3.618,8.084,8.084,8.084h57.073c4.466,0,8.084-3.618,8.084-8.084s-3.618-8.084-8.084-8.084h-48.989v-5.816v-25.487v-43.638  V167.955c0-4.466-3.618-8.084-8.084-8.084s-8.084,3.618-8.084,8.084v241.65l-44.073-14.972V112.442  c0.06-1.36,1.613-22.854,38.733-36.531c19.335-7.124,40.327-15.631,55.669-22.001l-16.795,28.886  c-1.953,3.357-1.241,7.628,1.693,10.172l30.338,26.296l-12.207,29.299l-0.004,0.012c0,0,0,0.001-0.001,0.002l-0.02,0.049  c-0.014,0.034-0.022,0.07-0.036,0.103c-0.105,0.262-0.195,0.526-0.272,0.791c-0.024,0.085-0.044,0.17-0.066,0.255  c-0.059,0.237-0.108,0.475-0.146,0.714c-0.012,0.079-0.026,0.155-0.036,0.234c-0.038,0.299-0.061,0.596-0.066,0.894  c0,0.014-0.002,0.028-0.002,0.042c-0.003,0.322,0.016,0.642,0.051,0.959c0.008,0.064,0.019,0.127,0.028,0.191  c0.033,0.246,0.077,0.488,0.133,0.729c0.02,0.089,0.042,0.179,0.066,0.267c0.064,0.238,0.138,0.473,0.223,0.705  c0.023,0.063,0.041,0.127,0.066,0.19c0.114,0.288,0.245,0.569,0.391,0.843c0.032,0.061,0.07,0.12,0.105,0.18  c0.125,0.221,0.261,0.437,0.407,0.646c0.026,0.037,0.044,0.077,0.071,0.112l91.718,126.468v212.882h-52.79  c-4.466,0-8.084,3.618-8.084,8.084s3.618,8.084,8.084,8.084h194.099c4.466,0,8.084-3.618,8.084-8.084v-18.534v-14.611l55.827-18.252  c0.23-0.075,0.441-0.182,0.66-0.276c0.17-0.073,0.35-0.132,0.515-0.216c0.215-0.11,0.409-0.247,0.61-0.374  c0.157-0.099,0.324-0.184,0.473-0.293c0.191-0.139,0.358-0.303,0.535-0.457c0.139-0.122,0.29-0.232,0.42-0.362  c0.165-0.165,0.305-0.352,0.454-0.531c0.119-0.141,0.25-0.272,0.358-0.421c0.138-0.189,0.247-0.397,0.368-0.596  c0.095-0.157,0.204-0.305,0.288-0.469c0.112-0.219,0.193-0.452,0.286-0.68c0.065-0.161,0.146-0.314,0.201-0.48  c0.088-0.268,0.142-0.549,0.203-0.827c0.03-0.138,0.078-0.269,0.1-0.41c0.068-0.423,0.103-0.855,0.103-1.292v-44.408V245.012  c0-4.466-3.618-8.084-8.084-8.084c-4.466,0-8.084,3.618-8.084,8.084v149.623L403.103,410V167.955c0-4.466-3.618-8.084-8.084-8.084  c-4.466,0-8.084,3.618-8.084,8.084v296.573v20.853v10.45H269.876V280.419c0.009-0.687-0.07-1.375-0.239-2.051l-2.184-9.682  l81.14-111.883c1.804-2.247,2.347-5.387,1.141-8.227l-0.677-1.594l-11.549-27.717l30.34-26.296  c2.935-2.544,3.647-6.816,1.693-10.173l-16.833-28.953c15.347,6.355,36.371,14.872,55.711,22.062  c38.143,14.181,39.844,35.166,39.913,36.55v106.15C448.334,223.07,451.952,226.69,456.418,226.69z M107.738,426.682v26.698  l-44.073-14.408v-27.262L107.738,426.682z M448.334,411.709v27.228l-44.073,14.137v-26.391L448.334,411.709z M333.062,150.679  l-67.504,93.081l37.128-164.62L333.062,150.679z M210.503,16.168h89.81l-6.461,28.648h-76.888L210.503,16.168z M158.614,85.136  l25.296-43.508l12.294-15.368l0.524,2.321l5.313,23.557l-21.924,51.634L158.614,85.136z M177.762,150.69l30.372-71.532  l37.124,164.602L177.762,150.69z M220.61,60.985h69.594l-34.798,154.29L220.61,60.985z M330.708,103.765l-21.922-51.627  l5.828-25.874l12.291,15.364l25.296,43.508L330.708,103.765z"/>
<g>
</g>
<g>
</g>
<g>
</g>
<g>
</g>
<g>
</g>
<g>
</g>
<g>
</g>
<g>
</g>
<g>
</g>
<g>
</g>
<g>
</g>
<g>
</g>
<g>
</g>
<g>
</g>
<g>
</g>
</svg>
