<?xml version="1.0" encoding="iso-8859-1"?>
<!-- Generator: Adobe Illustrator 19.0.0, SVG Export Plug-In . SVG Version: 6.00 Build 0)  -->
<svg xmlns="http://www.w3.org/2000/svg" xmlns:xlink="http://www.w3.org/1999/xlink" version="1.1" id="Layer_1" x="0px" y="0px" viewBox="0 0 512 512" style="enable-background:new 0 0 512 512;" xml:space="preserve">
<path style="fill:#8CE187;" d="M444.83,429.617c0,0,0-144.423,0-248.971S405.764,53.169,379.721,43.699  c-26.044-9.471-59.204-35.523-59.204-35.523h-64.518h-64.517c0,0-33.16,26.053-59.204,35.523  C106.236,53.169,67.17,76.1,67.17,180.647s0,248.971,0,248.971l70.349,0.543h3.553c-5.604,42.278-14.099,73.665-14.099,73.665h1.744  H179h-9.378h70.451h-34.912h49.655h1.743h126.101h1.744c0,0-8.495-31.386-14.1-73.665h4.176L444.83,429.617z"/>
<g>
	<rect x="235.281" y="166.813" style="fill:#F9D885;" width="41.434" height="33.934"/>
	<path style="fill:#F9D885;" d="M222.249,99.338l33.44-34.331L191.483,8.176c0,0-17.606,13.83-37.236,25L222.249,99.338z"/>
	<path style="fill:#F9D885;" d="M289.439,99.338l-33.44-34.331l64.205-56.832c0,0,17.606,13.83,37.236,25L289.439,99.338z"/>
</g>
<g>
	<path style="fill:#FFE8A5;" d="M366.151,386.213c0.82,15.332,2.334,30.215,4.154,43.947h74.525v-43.947H366.151z"/>
	<path style="fill:#FFE8A5;" d="M145.226,386.213H67.17v43.947h73.901C142.892,416.427,144.406,401.544,145.226,386.213z"/>
</g>
<path style="fill:#71CE6A;" d="M321.538,8.965c-0.654-0.501-1.02-0.789-1.02-0.789h-52.655  c-6.656,13.653-20.657,23.068-36.871,23.068c-3.347,0-6.6-0.406-9.715-1.162l33.46,25.689L321.538,8.965z"/>
<path style="fill:#EAC165;" d="M257.003,187.668v-25.798c0-6.29,4.441-11.539,10.358-12.793c-0.88-0.185-1.789-0.288-2.723-0.288  h-15.272c-7.224,0-13.081,5.857-13.081,13.081v25.798c0,7.224,5.857,13.081,13.081,13.081h15.272c0.934,0,1.843-0.102,2.723-0.288  C261.444,199.208,257.003,193.958,257.003,187.668z"/>
<g>
	<path style="fill:#F2D17E;" d="M401.769,429.483c-1.693-12.646-3.264-27.48-4.119-43.27h-25.047   c0.82,15.332,2.334,30.215,4.154,43.947h4.244L401.84,430L401.769,429.483z"/>
	<path style="fill:#F2D17E;" d="M108.399,429.483c1.693-12.646,3.264-27.48,4.122-43.27h25.044   c-0.82,15.332-2.334,30.215-4.154,43.947h-4.241L108.331,430L108.399,429.483z"/>
</g>
<polyline style="fill:#FCEFD0;" points="276.717,121.176 276.717,86.275 256.001,65.007 255.688,65.007 235.284,85.956   235.284,166.814 276.717,166.814 276.717,147.333 "/>
<polygon style="fill:#FFE8A5;" points="257.003,85.956 257.003,65.007 256.689,65.007 236.286,85.956 236.286,166.814   257.003,166.814 257.003,133.567 "/>
<path d="M382.514,36.015c-24.488-8.905-56.625-34.017-56.946-34.27c-1.44-1.13-3.219-1.745-5.05-1.745H191.483  c-0.213,0-0.42,0.036-0.63,0.052c-0.207,0.016-0.415,0.021-0.621,0.052c-0.254,0.039-0.499,0.109-0.748,0.172  c-0.199,0.05-0.4,0.086-0.596,0.153c-0.265,0.088-0.516,0.21-0.77,0.326c-0.168,0.076-0.341,0.135-0.505,0.222  c-0.412,0.221-0.808,0.476-1.179,0.767c-0.181,0.142-10.416,8.14-23.695,16.699c-0.013,0.009-0.026,0.017-0.039,0.025  c-1.367,0.881-2.768,1.767-4.19,2.651c-0.268,0.167-0.537,0.332-0.807,0.498c-0.379,0.234-0.762,0.468-1.146,0.702  c-0.349,0.213-0.697,0.425-1.049,0.638c-0.192,0.116-0.386,0.231-0.579,0.347c-0.893,0.535-1.791,1.067-2.696,1.595  c-0.122,0.071-0.244,0.143-0.366,0.214c-0.54,0.313-1.081,0.625-1.624,0.934c-6.959,3.965-14.137,7.561-20.758,9.969  c-30.26,11.004-70.49,37.969-70.49,144.631v205.565v43.404v0.543c0,4.516,3.659,8.176,8.176,8.176h64.449  c-5.373,36.472-12.392,62.815-12.538,63.354c-0.664,2.457-0.147,5.083,1.4,7.105c1.547,2.021,3.946,3.206,6.491,3.206H179  c4.516,0,8.176-3.659,8.176-8.176c0-4.516-3.659-8.176-8.176-8.176h-41.555c7.149-30.139,25.537-119.639,11.543-192.272  c-2.694-13.982-4.758-25.162-6.499-35.183c-0.022-0.117-0.044-0.235-0.069-0.352c-18.617-84.851-2.689-127.615-2.526-128.038  c1.639-4.189-0.415-8.921-4.602-10.579c-4.196-1.662-8.948,0.39-10.612,4.589c-0.747,1.884-18.03,47.128,1.73,137.356  c1.752,10.076,3.826,21.3,6.523,35.302c4.376,22.712,5.344,47.503,4.441,71.565H75.346v-197.39  c0-95.32,31.919-119.153,59.727-129.265c5.781-2.102,11.845-4.945,17.817-8.121l63.657,61.936c1.589,1.547,3.646,2.316,5.7,2.316  c1.715,0,3.422-0.545,4.861-1.612v60.914v33.935c0,4.516,3.659,8.176,8.176,8.176h41.434c4.516,0,8.176-3.659,8.176-8.176v-33.935  v-19.482c0-4.516-3.659-8.176-8.176-8.176c-4.516,0-8.176,3.659-8.176,8.176v11.306h-25.082V89.28l6.894-7.078l5.492-5.638  l12.697,13.035v31.577c0,4.516,3.659,8.176,8.176,8.176c4.516,0,8.176-3.659,8.176-8.176v-15.044  c1.37,0.919,2.958,1.381,4.549,1.381c2.055,0,4.111-0.77,5.7-2.316l63.767-62.043c6.038,3.22,12.172,6.103,18.018,8.229  c27.809,10.111,59.728,33.945,59.728,129.265v197.39h-62.66c-0.9-24.055,0.07-48.843,4.447-71.565  c2.702-14.023,4.778-25.247,6.524-35.301c19.761-90.228,2.476-135.474,1.73-137.357c-1.665-4.199-6.419-6.252-10.612-4.589  c-4.198,1.662-6.252,6.415-4.589,10.612c0.165,0.415,16.226,42.489-2.539,128.006c-0.025,0.117-0.048,0.235-0.069,0.353  c-1.735,9.998-3.801,21.177-6.5,35.182c-13.993,72.634,4.395,162.131,11.545,192.272H205.162c-4.516,0-8.176,3.659-8.176,8.176  c0,4.516,3.659,8.176,8.176,8.176h179.242c2.545,0,4.946-1.186,6.492-3.207s2.065-4.648,1.399-7.105  c-0.146-0.538-7.172-26.877-12.548-63.353h65.083c4.516,0,8.176-3.659,8.176-8.176v-0.543v-43.404V180.647  C453.005,73.985,412.775,47.02,382.514,36.015z M136.479,394.388c-0.675,9.472-1.596,18.72-2.664,27.568l-58.469-0.451v-27.117  H136.479z M255.845,54.227l-42.791-37.876h85.58L255.845,54.227z M222.093,87.78l-54.509-53.036  c9.763-6.078,18.265-12.138,23.495-16.008l52.769,46.709l-14.422,14.805c-0.002,0.002-0.003,0.004-0.005,0.007L222.093,87.78z   M268.542,174.99v17.584h-25.082V174.99H268.542z M289.595,87.78l-7.019-7.205c-0.001-0.001-0.002-0.003-0.003-0.004l-14.732-15.125  l52.771-46.711c5.228,3.863,13.735,9.924,23.5,16.004L289.595,87.78z M436.654,394.388v27.117l-59.104,0.456  c-1.069-8.848-1.989-18.098-2.664-27.572H436.654z"/>
<g>
</g>
<g>
</g>
<g>
</g>
<g>
</g>
<g>
</g>
<g>
</g>
<g>
</g>
<g>
</g>
<g>
</g>
<g>
</g>
<g>
</g>
<g>
</g>
<g>
</g>
<g>
</g>
<g>
</g>
</svg>
