<?xml version="1.0" encoding="iso-8859-1"?>
<!-- Generator: Adobe Illustrator 19.0.0, SVG Export Plug-In . SVG Version: 6.00 Build 0)  -->
<svg xmlns="http://www.w3.org/2000/svg" xmlns:xlink="http://www.w3.org/1999/xlink" version="1.1" id="Layer_1" x="0px" y="0px" viewBox="0 0 512 512" style="enable-background:new 0 0 512 512;" xml:space="preserve">
<path style="fill:#FF633E;" d="M400.442,318.796v-75.044l73.489-27.029L433.223,84.047c-0.002-0.006-0.004-0.013-0.006-0.019  c-4.387-14.299-16.202-22.351-19.806-24.531l-76.32-43.811c0,0-10.77-7.602-31.252-7.602c-10.983,0-49.838,0-49.838,0  s-38.856,0-49.838,0c-20.482,0-31.252,7.602-31.252,7.602L98.59,59.497c-3.607,2.18-15.42,10.231-19.807,24.531  c-0.002,0.006-0.004,0.013-0.006,0.019L38.069,216.723l73.489,27.029v260.164h144.442h144.442V345.743"/>
<g>
	<path style="fill:#FCF1D4;" d="M189.75,9.868c-9.78,2.247-14.842,5.817-14.842,5.817l-13.648,7.835   c1.659,2.585,2.79,4.304,2.79,4.304s39.522,56.051,51.02,69.704c11.499,13.654,39.313-22.995,39.313-22.995L189.75,9.868   L189.75,9.868z"/>
	<path style="fill:#FCF1D4;" d="M319.014,9.868c9.78,2.247,14.843,5.817,14.843,5.817l13.648,7.835   c-1.659,2.585-2.791,4.304-2.791,4.304s-39.523,56.051-51.02,69.704c-11.499,13.654-39.312-22.995-39.312-22.995L319.014,9.868   L319.014,9.868z"/>
</g>
<path style="fill:#E03C2F;" d="M254.383,74.534c0,0-7.319,9.642-15.999,17.192v109.185h31.998V91.727  C261.702,84.176,254.383,74.534,254.383,74.534z"/>
<g>
	<polygon style="fill:#FCF1D4;" points="463.746,183.533 400.442,207.429 400.442,243.752 473.93,216.723  "/>
	<polygon style="fill:#FCF1D4;" points="48.252,183.533 111.557,207.429 111.557,243.752 38.069,216.723  "/>
</g>
<polyline style="fill:#F2D17E;" points="172.955,471.917 111.557,471.917 111.557,503.916 400.442,503.916 400.442,471.917   201.518,471.917 "/>
<path style="fill:#E5432E;" d="M248.367,68.25l-23.902-19.069C246.268,41.89,262.801,23.097,266.859,0h27.802  c18.713,0,29.421,6.417,31.007,7.439l0.404,0.254l0.396,0.227L248.367,68.25z"/>
<path style="fill:#D82F2B;" d="M254.31,187.388h-0.01v-0.204v-19.282v-12.935h-3.066h-12.934v12.935v19.282v0.204h0.011  c0.11,7.048,5.849,12.731,12.923,12.731h6.129c1.749,0,3.415-0.349,4.935-0.979C257.669,197.223,254.393,192.694,254.31,187.388z"/>
<path style="fill:#CC271F;" d="M254.301,83.134V70.352c0,0-7.32,7.168-15.999,12.782v81.175h15.999v-25.151V83.134z"/>
<g>
	<polygon style="fill:#F2D17E;" points="81.858,231.421 104.012,239.57 104.012,203.248 81.858,194.884  "/>
	<polygon style="fill:#F2D17E;" points="430.68,231.421 408.526,239.57 408.526,203.248 430.68,194.884  "/>
</g>
<path d="M309.206,160.491c-4.466,0-8.084,3.618-8.084,8.084c0,4.466,3.618,8.084,8.084,8.084h46.349  c4.466,0,8.084-3.618,8.084-8.084c0-4.466-3.618-8.084-8.084-8.084H309.206z"/>
<path d="M481.659,214.35l-10.183-33.189c0,0,0,0,0-0.001l-30.524-99.485c-0.008-0.024-0.016-0.053-0.025-0.081  c-5.244-17.002-19.182-26.505-23.334-29.015c-0.052-0.031-0.105-0.064-0.157-0.094L341.373,8.824C338.856,7.157,326.826,0,305.837,0  h-99.676c-20.989,0-33.019,7.157-35.536,8.824l-11.841,6.797l-1.549,0.889c0,0-0.001,0-0.001,0.001L94.565,52.485  c-0.052,0.03-0.105,0.061-0.156,0.093c-4.151,2.507-18.086,12.005-23.333,29.007c-0.01,0.029-0.019,0.06-0.028,0.089L30.341,214.35  c-1.259,4.105,0.909,8.477,4.938,9.959l68.195,25.083v34.905v187.622v31.997c0,4.466,3.62,8.084,8.084,8.084h288.884  c4.466,0,8.084-3.618,8.084-8.084v-31.998V345.743c0-4.466-3.618-8.084-8.084-8.084c-4.466,0-8.084,3.618-8.084,8.084v118.091  h-190.84c-4.465,0-8.084,3.618-8.084,8.084s3.62,8.084,8.084,8.084h190.839v15.829H119.641v-15.83h53.313  c4.465,0,8.084-3.618,8.084-8.084s-3.62-8.084-8.084-8.084h-53.313V284.297v-40.545V207.43v-38.855c0-4.466-3.62-8.084-8.084-8.084  s-8.084,3.618-8.084,8.084v27.162l-45.266-17.088l28.277-92.164c0.009-0.028,0.018-0.058,0.027-0.086  c3.521-11.477,13.185-18.113,16.187-19.939l56.027-32.161c6.998,9.898,39.615,55.914,50.163,68.439  c3.263,3.875,7.631,5.923,12.634,5.924c0.002,0,0.001,0,0.003,0c2.878,0,5.832-0.743,8.774-1.989v61.818v32.421  c0,4.466,3.62,8.084,8.084,8.084h31.998c4.465,0,8.084-3.618,8.084-8.084v-32.421v-61.819c2.942,1.246,5.897,1.989,8.776,1.989  c5.003,0,9.371-2.048,12.637-5.924c11.144-13.237,46.937-63.868,51.095-69.759l58.327,33.482c3.004,1.828,12.667,8.467,16.188,19.94  c0.008,0.023,0.016,0.05,0.024,0.077l28.281,92.174l-45.266,17.088v-27.162c0-4.466-3.618-8.084-8.084-8.084  s-8.084,3.618-8.084,8.084v38.855v36.322v48.147v26.897c0,4.466,3.618,8.084,8.084,8.084s8.084-3.618,8.084-8.084v-26.897v-42.507  l68.195-25.083C480.75,222.828,482.918,218.455,481.659,214.35z M53.454,194.137l50.019,18.881v19.146l-55.431-20.387  L53.454,194.137z M254.383,63.098l-46.906-46.929h93.811L254.383,63.098z M221.431,92.492c-0.005,0-0.011,0-0.015,0  c-0.033-0.029-0.087-0.082-0.162-0.169c-9.622-11.428-40.059-54.266-48.444-66.109l6.124-3.515c0.219-0.126,0.36-0.211,0.566-0.357  c0.049-0.033,2.745-1.793,7.863-3.424l56.115,56.143c-2.269,2.608-5.229,5.811-8.451,8.805c-0.209,0.193-0.418,0.391-0.626,0.58  c-0.202,0.183-0.405,0.362-0.609,0.543c-4.965,4.428-9.578,7.504-12.266,7.504C221.485,92.493,221.452,92.492,221.431,92.492z   M262.298,192.828h-15.83v-16.253h15.83V192.828z M262.298,160.406h-15.83V95.43c2.942-2.74,5.624-5.577,7.915-8.168  c2.292,2.591,4.973,5.427,7.915,8.167V160.406z M287.511,92.322c-0.078,0.093-0.135,0.147-0.147,0.165  c-0.026,0.003-0.068,0.005-0.123,0.005c-2.728,0-7.435-3.163-12.482-7.693c-0.113-0.101-0.226-0.2-0.338-0.303  c-0.283-0.257-0.569-0.526-0.854-0.791c-3.155-2.949-6.051-6.085-8.28-8.647l56.131-56.16c5.099,1.628,7.776,3.393,7.778,3.393  c0.205,0.144,0.418,0.28,0.636,0.405l6.122,3.514C327.568,38.056,297.133,80.894,287.511,92.322z M458.544,194.139l5.412,17.639  l-55.431,20.387v-19.146L458.544,194.139z"/>
<g>
</g>
<g>
</g>
<g>
</g>
<g>
</g>
<g>
</g>
<g>
</g>
<g>
</g>
<g>
</g>
<g>
</g>
<g>
</g>
<g>
</g>
<g>
</g>
<g>
</g>
<g>
</g>
<g>
</g>
</svg>
