<?xml version="1.0" encoding="iso-8859-1"?>
<!-- Generator: Adobe Illustrator 19.0.0, SVG Export Plug-In . SVG Version: 6.00 Build 0)  -->
<svg xmlns="http://www.w3.org/2000/svg" xmlns:xlink="http://www.w3.org/1999/xlink" version="1.1" id="Layer_1" x="0px" y="0px" viewBox="0 0 512 512" style="enable-background:new 0 0 512 512;" xml:space="preserve">
<path style="fill:#E79275;" d="M430.602,260.849v-75.708c0-8.385-6.798-15.183-15.183-15.183h-33.521v64.13h-0.002h-38.736h-0.002  v-64.13h-22.671c-11.259,0-12.099,9.453-12.151,11.433v3.116c0,8.385-6.798,15.185-15.183,15.185h-0.003h-74.299h-0.003  c-8.385,0-15.183-6.8-15.183-15.185v-3.116c-0.053-1.981-0.893-11.433-12.151-11.433h-22.67v64.13h-0.002h-38.736H130.1v-64.13  H96.58c-8.385,0-15.183,6.798-15.183,15.183v231.467c0,1.507,0.038,3.006,0.113,4.493c2.338,46.135,40.484,82.815,87.192,82.815  h174.596c46.708,0,84.854-36.68,87.192-82.815c0.075-1.486,0.113-2.986,0.113-4.493V288.876"/>
<path style="fill:#D37F66;" d="M168.159,420.46c-0.075-1.486-0.113-2.986-0.113-4.493V184.5c0-8.385,6.798-15.183,15.183-15.183  h-7.249h-0.623h-38.738h-20.588h-12.935c-8.385,0-15.183,6.798-15.183,15.183v231.467c0,1.507,0.038,3.006,0.113,4.493  c2.339,46.135,40.485,82.815,87.192,82.815h80.133C208.641,503.274,170.495,466.595,168.159,420.46z"/>
<g>
	<rect x="130.101" y="46.824" style="fill:#FF633E;" width="38.737" height="187.263"/>
	<polyline style="fill:#FF633E;" points="343.158,137.972 343.158,234.089 381.897,234.089 381.897,46.822 343.158,46.822    343.158,109.945  "/>
</g>
<g>
	<rect x="130.101" y="196.134" style="fill:#FFE8A5;" width="38.737" height="37.963"/>
	<rect x="343.158" y="196.134" style="fill:#FFE8A5;" width="38.737" height="37.963"/>
</g>
<polygon style="fill:#FF633E;" points="168.839,8.084 130.097,46.822 381.893,46.822 343.158,8.084 "/>
<path style="fill:#B0DBFF;" d="M297.834,411.771c-11.879,8.222-26.295,13.04-41.836,13.04c-40.648,0-73.598-32.949-73.598-73.598  s32.949-73.598,73.598-73.598c40.647,0,73.597,32.949,73.597,73.598c0,15.244-4.634,29.403-12.569,41.15"/>
<circle style="fill:#49BAED;" cx="255.999" cy="351.21" r="35.635"/>
<path style="fill:#99CCE0;" d="M273.36,423.304c-1.093-0.168-2.177-0.364-3.253-0.581c-0.312-0.063-0.621-0.135-0.932-0.2  c-0.784-0.167-1.562-0.346-2.335-0.538c-0.358-0.089-0.714-0.18-1.071-0.275c-0.795-0.21-1.586-0.437-2.37-0.673  c-0.269-0.081-0.541-0.156-0.808-0.24c-1.021-0.321-2.036-0.664-3.037-1.028c-0.272-0.098-0.539-0.206-0.808-0.307  c-0.749-0.284-1.495-0.575-2.233-0.881c-0.347-0.144-0.693-0.292-1.038-0.44c-0.696-0.302-1.387-0.614-2.072-0.938  c-0.303-0.142-0.607-0.279-0.905-0.424c-0.945-0.461-1.882-0.937-2.805-1.437c-0.198-0.108-0.391-0.222-0.59-0.332  c-0.742-0.411-1.476-0.831-2.202-1.267c-0.318-0.191-0.634-0.386-0.947-0.582c-0.625-0.387-1.244-0.784-1.857-1.19  c-0.294-0.196-0.592-0.388-0.884-0.589c-0.126-0.086-0.257-0.167-0.382-0.253l-0.059-0.059c-7.579-5.259-14.128-11.895-19.27-19.561  c-0.537-0.799-1.055-1.611-1.56-2.433c-0.188-0.306-0.371-0.614-0.554-0.924c-0.377-0.632-0.743-1.271-1.101-1.915  c-0.175-0.314-0.349-0.625-0.52-0.941c-0.461-0.863-0.912-1.733-1.339-2.617c-0.066-0.134-0.13-0.267-0.194-0.401  c-0.424-0.887-0.828-1.786-1.217-2.693c-0.141-0.327-0.274-0.655-0.411-0.984c-0.287-0.696-0.562-1.396-0.828-2.101  c-0.126-0.333-0.252-0.665-0.373-1.001c-0.341-0.943-0.665-1.894-0.966-2.855c-0.04-0.123-0.078-0.247-0.115-0.372  c-0.296-0.965-0.572-1.939-0.83-2.92c-0.091-0.343-0.175-0.69-0.259-1.035c-0.185-0.748-0.36-1.501-0.522-2.258  c-0.073-0.349-0.152-0.697-0.221-1.05c-0.203-1.011-0.387-2.029-0.545-3.055c-0.019-0.116-0.036-0.233-0.055-0.349  c-0.154-1.027-0.282-2.063-0.393-3.103c-0.038-0.359-0.069-0.72-0.103-1.081c-0.071-0.79-0.133-1.585-0.181-2.381  c-0.022-0.363-0.044-0.725-0.061-1.09c-0.049-1.065-0.08-2.136-0.082-3.212c0-0.056-0.004-0.111-0.004-0.166  c0-36.883,27.128-67.424,62.522-72.767c-3.615-0.545-7.311-0.831-11.078-0.831c-40.648,0-73.598,32.949-73.598,73.598  c0,0.056,0.004,0.111,0.004,0.166c0.002,1.077,0.033,2.147,0.082,3.212c0.017,0.364,0.04,0.727,0.061,1.09  c0.048,0.797,0.11,1.591,0.181,2.381c0.033,0.361,0.066,0.722,0.103,1.081c0.112,1.04,0.24,2.076,0.393,3.103  c0.019,0.116,0.036,0.234,0.055,0.349c0.157,1.026,0.343,2.043,0.545,3.055c0.069,0.351,0.148,0.701,0.221,1.05  c0.162,0.757,0.337,1.509,0.522,2.258c0.084,0.345,0.168,0.692,0.259,1.035c0.257,0.981,0.532,1.955,0.83,2.92  c0.038,0.124,0.075,0.248,0.115,0.372c0.301,0.963,0.625,1.912,0.966,2.855c0.12,0.335,0.247,0.668,0.373,1.001  c0.265,0.705,0.541,1.406,0.828,2.101c0.137,0.329,0.269,0.658,0.411,0.984c0.389,0.906,0.793,1.805,1.217,2.693  c0.064,0.134,0.128,0.267,0.194,0.401c0.427,0.883,0.877,1.754,1.339,2.617c0.17,0.316,0.345,0.627,0.52,0.941  c0.358,0.646,0.724,1.284,1.101,1.915c0.183,0.309,0.366,0.618,0.554,0.924c0.506,0.821,1.023,1.634,1.56,2.433  c5.142,7.666,11.691,14.303,19.27,19.561l0.059,0.059c0.124,0.086,0.254,0.167,0.382,0.253c0.292,0.201,0.59,0.392,0.884,0.589  c0.612,0.406,1.232,0.802,1.857,1.19c0.314,0.196,0.63,0.391,0.947,0.582c0.727,0.434,1.461,0.856,2.202,1.267  c0.198,0.11,0.391,0.224,0.59,0.332c0.923,0.5,1.859,0.975,2.805,1.437c0.299,0.146,0.603,0.282,0.905,0.424  c0.684,0.323,1.374,0.636,2.072,0.938c0.345,0.149,0.691,0.295,1.038,0.44c0.739,0.306,1.484,0.598,2.233,0.881  c0.269,0.101,0.537,0.209,0.808,0.307c1.002,0.364,2.017,0.707,3.038,1.028c0.267,0.084,0.539,0.158,0.808,0.24  c0.786,0.236,1.575,0.462,2.37,0.673c0.358,0.095,0.714,0.185,1.071,0.275c0.773,0.192,1.551,0.371,2.335,0.538  c0.312,0.066,0.621,0.139,0.932,0.2c1.076,0.217,2.16,0.413,3.253,0.581c0.183,0.028,0.369,0.049,0.552,0.074  c0.924,0.136,1.853,0.253,2.787,0.355c0.356,0.038,0.714,0.07,1.071,0.103c0.811,0.075,1.625,0.137,2.443,0.186  c0.343,0.02,0.684,0.044,1.027,0.06c1.137,0.052,2.275,0.086,3.426,0.086c1.149,0,2.291-0.035,3.426-0.086  c0.343-0.016,0.687-0.04,1.027-0.06c0.819-0.05,1.632-0.111,2.443-0.186c0.358-0.032,0.716-0.066,1.071-0.103  c0.935-0.101,1.865-0.219,2.79-0.355c0.108-0.016,0.215-0.029,0.322-0.043C273.512,423.325,273.437,423.316,273.36,423.304z"/>
<path style="fill:#2EA5C6;" d="M249.028,350.571c0-15.816,10.304-29.215,24.562-33.874c-3.488-1.14-7.209-1.765-11.078-1.765  c-19.685,0-35.638,15.954-35.638,35.638s15.954,35.638,35.638,35.638c3.87,0,7.589-0.624,11.078-1.764  C259.331,379.786,249.028,366.387,249.028,350.571z"/>
<g>
	<rect x="345.357" y="54.803" style="fill:#E5432E;" width="38.735" height="22.154"/>
	<rect x="132.311" y="54.803" style="fill:#E5432E;" width="38.737" height="22.154"/>
</g>
<path d="M430.602,268.934c4.466,0,8.084-3.618,8.084-8.084v-75.708c0-12.829-10.438-23.267-23.267-23.267H389.98V46.822  c0-0.106-0.012-0.208-0.016-0.313c-0.002-0.066-0.005-0.13-0.01-0.196c-0.046-0.749-0.194-1.47-0.431-2.15  c-0.013-0.038-0.027-0.074-0.041-0.111c-0.258-0.706-0.609-1.365-1.042-1.963c-0.032-0.044-0.066-0.087-0.098-0.132  c-0.237-0.314-0.49-0.613-0.77-0.888L348.875,2.368C347.359,0.852,345.303,0,343.158,0H168.839c-2.144,0-4.199,0.852-5.716,2.367  l-38.741,38.737c-0.017,0.017-0.03,0.038-0.047,0.055c-0.229,0.233-0.439,0.483-0.638,0.742c-0.06,0.079-0.121,0.157-0.179,0.238  c-0.196,0.275-0.379,0.559-0.541,0.859c-0.027,0.05-0.047,0.101-0.073,0.152c-0.135,0.264-0.253,0.537-0.36,0.817  c-0.033,0.087-0.067,0.175-0.096,0.263c-0.108,0.32-0.203,0.646-0.271,0.982c-0.011,0.056-0.015,0.113-0.026,0.169  c-0.05,0.278-0.084,0.561-0.106,0.847c-0.009,0.122-0.015,0.243-0.018,0.365c-0.002,0.077-0.012,0.151-0.012,0.227v115.052H96.58  c-12.829,0-23.267,10.438-23.267,23.267v231.467c0,1.638,0.042,3.289,0.124,4.902C76.008,472.253,117.853,512,168.702,512h174.596  c50.849,0,92.694-39.747,95.265-90.487c0.082-1.616,0.124-3.266,0.124-4.904V288.876c0-4.466-3.618-8.084-8.084-8.084  s-8.084,3.618-8.084,8.084v127.733c0,1.366-0.035,2.738-0.103,4.083c-2.135,42.135-36.889,75.14-79.117,75.14H168.702  c-42.23,0-76.982-33.005-79.117-75.142c-0.068-1.343-0.103-2.716-0.103-4.081V185.141c0-3.915,3.184-7.099,7.099-7.099h25.437  v18.086v37.96c0,4.466,3.618,8.084,8.084,8.084h0.002h38.736h0.002c4.466,0,8.084-3.618,8.084-8.084v-56.046h14.587  c1.756,0,3.938,0,4.067,3.475v2.99c0,12.83,10.438,23.27,23.271,23.27h74.303c12.829,0,23.267-10.439,23.267-23.27v-2.99  c0.129-3.475,2.312-3.475,4.067-3.475h14.587v18.086v37.96c0,4.466,3.618,8.084,8.084,8.084h0.002h38.736h0.002  c4.466,0,8.084-3.618,8.084-8.084v-56.046h25.437c3.915,0,7.099,3.184,7.099,7.099v75.708  C422.518,265.315,426.138,268.934,430.602,268.934z M172.187,16.168H339.81l22.568,22.569h-19.219h-174.32h-19.222L172.187,16.168z   M160.755,188.044h-22.569v-18.086V54.906h22.569V188.044z M138.185,226.004v-21.792h22.569v21.792H138.185z M320.487,161.874  c-13.549,0-19.986,10.006-20.233,19.303c-0.002,0.071-0.003,0.143-0.003,0.215v3.116c0,3.916-3.184,7.101-7.102,7.101h-74.303  c-3.915,0-7.099-3.185-7.099-7.101v-3.116c0-0.071-0.001-0.143-0.003-0.215c-0.247-9.297-6.683-19.303-20.233-19.303h-14.589V54.906  h158.153v55.039c0,4.466,3.618,8.084,8.084,8.084s8.084-3.618,8.084-8.084V54.906h22.569v133.139h-22.569v-18.086v-31.987  c0-4.466-3.618-8.084-8.084-8.084s-8.084,3.618-8.084,8.084v23.902h-14.587V161.874z M351.242,226.004v-21.792h22.569v21.792  H351.242z"/>
<path d="M312.498,399.061c3.699,2.497,8.724,1.526,11.224-2.174c9.13-13.513,13.954-29.307,13.954-45.675  c0-45.04-36.642-81.682-81.681-81.682c-45.04,0-81.682,36.642-81.682,81.682s36.642,81.682,81.682,81.682  c16.695,0,32.754-5.007,46.438-14.477c3.67-2.541,4.588-7.577,2.046-11.249c-2.541-3.67-7.574-4.588-11.249-2.046  c-10.968,7.591-23.843,11.604-37.236,11.604c-36.125,0-65.513-29.39-65.513-65.513s29.39-65.513,65.513-65.513  s65.512,29.39,65.512,65.513c0,13.13-3.867,25.794-11.184,36.625C307.826,391.536,308.798,396.561,312.498,399.061z"/>
<path d="M212.274,351.213c0,24.108,19.613,43.723,43.723,43.723c24.108,0,43.723-19.613,43.723-43.723s-19.613-43.723-43.723-43.723  C231.887,307.491,212.274,327.104,212.274,351.213z M283.55,351.213c0,15.193-12.361,27.554-27.554,27.554  c-15.194,0-27.554-12.361-27.554-27.554s12.361-27.554,27.554-27.554C271.189,323.659,283.55,336.02,283.55,351.213z"/>
<g>
</g>
<g>
</g>
<g>
</g>
<g>
</g>
<g>
</g>
<g>
</g>
<g>
</g>
<g>
</g>
<g>
</g>
<g>
</g>
<g>
</g>
<g>
</g>
<g>
</g>
<g>
</g>
<g>
</g>
</svg>
