<?xml version="1.0" encoding="iso-8859-1"?>
<!-- Generator: Adobe Illustrator 19.0.0, SVG Export Plug-In . SVG Version: 6.00 Build 0)  -->
<svg xmlns="http://www.w3.org/2000/svg" xmlns:xlink="http://www.w3.org/1999/xlink" version="1.1" id="Layer_1" x="0px" y="0px" viewBox="0 0 512 512" style="enable-background:new 0 0 512 512;" xml:space="preserve">
<path style="fill:#49BAED;" d="M402.975,106.44c-1.471-52.014,7.177-98.332,7.177-98.332h-38.363v56.8  c0,63.95-51.836,115.788-115.788,115.788c-63.95,0-115.788-51.838-115.788-115.788v-56.8h-38.365c0,0,36.635,196.198-53.729,234.46  c0,0,30.121,109.904,0,261.326h207.882h207.882c-30.119-151.422,0-261.326,0-261.326c-38.815-16.436-54.199-62.015-59.117-108.666"/>
<path style="fill:#2CA4CE;" d="M82.063,501.237c-1.784-2.145-2.525-4.975-2.022-7.72c14.768-80.686,13.672-149.397,10.154-192.833  c-2.909-35.918-7.837-61.23-10.515-73.121c-0.184-0.819-0.251-1.643-0.217-2.452c-5.692,5.985-12.024,10.873-18.993,14.6  c-3.431,1.834-5.215,5.733-4.36,9.528c2.464,10.929,6.997,34.194,9.676,67.208c3.239,39.923,4.248,103.079-9.345,177.239  c-0.463,2.524,0.219,5.124,1.863,7.094c1.643,1.972,4.076,3.112,6.644,3.112h20.744C84.301,503.317,83.049,502.42,82.063,501.237z"/>
<path style="fill:#89CEE8;" d="M146.672,473.227H53.504c-1.533,10.014-3.311,20.237-5.385,30.666h207.882h207.882  c-2.075-10.429-3.855-20.652-5.385-30.666H174.776"/>
<path style="fill:#64C0DD;" d="M81.815,500.781c-1.643-1.971-2.324-4.57-1.863-7.094c0.217-1.188,0.42-2.365,0.631-3.547  c0.139-0.782,0.281-1.564,0.416-2.342c0.328-1.872,0.64-3.733,0.948-5.59c0.097-0.576,0.197-1.156,0.292-1.732  c0.29-1.77,0.563-3.526,0.836-5.282c0.102-0.653,0.213-1.316,0.312-1.967H59.877c-0.099,0.653-0.211,1.314-0.312,1.967  c-0.272,1.755-0.547,3.512-0.836,5.282c-0.095,0.575-0.195,1.154-0.292,1.732c-0.308,1.857-0.62,3.717-0.948,5.59  c-0.135,0.778-0.277,1.561-0.416,2.342c-0.211,1.183-0.414,2.36-0.631,3.547c-0.463,2.524,0.219,5.124,1.863,7.094  c1.643,1.972,4.076,3.112,6.644,3.112h23.511C85.891,503.893,83.457,502.753,81.815,500.781z"/>
<path style="fill:#2397B7;" d="M140.212,64.908c0,63.95,51.838,115.788,115.788,115.788c63.952,0,115.788-51.838,115.788-115.788  v-20.63c0,40.723-51.836,73.733-115.788,73.733c-63.95,0-115.788-33.009-115.788-73.733L140.212,64.908L140.212,64.908z"/>
<path style="fill:#1979A3;" d="M315.578,103.066c-17.557,39.671-56.762,67.706-102.546,69.031  c11.819,4.08,24.497,6.301,37.684,6.301c63.844,0,115.788-51.943,115.788-115.788V49.213v-7.234  C366.505,67.397,346.308,89.809,315.578,103.066z"/>
<path d="M471.832,502.311c-0.481-2.417-0.95-4.852-1.409-7.298c-0.084-0.45-0.162-0.895-0.245-1.344  c-0.373-2.012-0.74-4.028-1.097-6.052c-0.091-0.512-0.176-1.022-0.265-1.533c-0.335-1.927-0.665-3.859-0.985-5.793  c-0.107-0.649-0.21-1.294-0.316-1.94c-0.281-1.732-0.557-3.466-0.824-5.198c-20.45-132.538,4.734-227.434,5.008-228.441  c1.073-3.917-0.918-8.025-4.658-9.609c-30.183-12.78-48.424-47.115-54.216-102.052c-0.47-4.453-4.464-7.689-8.913-7.212  c-4.454,0.469-7.682,4.459-7.213,8.913c6.074,57.598,25.486,95.333,57.742,112.308c-2.474,10.899-7.182,34.766-9.936,68.731  c-2.87,35.364-3.934,87.659,4.625,149.329H174.776c-4.478,0-8.107,3.629-8.107,8.107c0,4.477,3.629,8.107,8.107,8.107h276.792  c0.014,0.083,0.028,0.166,0.042,0.251c0.764,4.687,1.584,9.422,2.464,14.202H57.927c0.889-4.824,1.714-9.601,2.485-14.331  c0.006-0.04,0.014-0.08,0.021-0.12h86.241c4.478,0,8.107-3.63,8.107-8.107c0-4.478-3.629-8.107-8.107-8.107H62.869  c8.56-61.67,7.497-113.964,4.627-149.329c-2.756-33.972-7.464-57.839-9.938-68.737c19.603-10.352,34.6-28.592,44.633-54.318  c8.532-21.873,13.506-49.269,14.782-81.426c1.611-40.601-3.006-78.056-5.575-95.096h20.708V44.28v20.631  c0,68.316,55.579,123.895,123.895,123.895s123.894-55.581,123.894-123.898v-20.63V16.215h20.709  c-2.468,16.384-6.831,51.648-5.733,90.454c0.126,4.476,3.828,7.98,8.333,7.875c4.476-0.126,8.001-3.858,7.875-8.333  c-1.428-50.479,6.956-96.162,7.043-96.617c0.441-2.369-0.195-4.814-1.734-6.666C414.847,1.073,412.562,0,410.152,0h-38.363  c-4.478,0-8.107,3.63-8.107,8.107v36.17c0,16.826-10.71,32.914-30.159,45.3c-20.584,13.108-48.115,20.326-77.522,20.326  c-29.406,0-56.937-7.219-77.52-20.326c-19.449-12.385-30.16-28.473-30.16-45.3V8.107c0-4.477-3.629-8.107-8.107-8.107h-38.365  c-2.411,0-4.697,1.073-6.236,2.927c-1.54,1.855-2.176,4.299-1.734,6.668c0.091,0.482,8.968,48.757,6.891,101.071  c-1.857,46.772-13.046,106.327-55.811,124.434c-3.741,1.584-5.732,5.691-4.658,9.609c0.277,1.006,25.452,95.474,5.082,227.979  c-0.325,2.113-0.66,4.223-1.004,6.33c-0.053,0.324-0.105,0.647-0.158,0.972c-0.37,2.243-0.75,4.481-1.14,6.71  c-0.045,0.258-0.088,0.515-0.133,0.773c-0.393,2.237-0.799,4.462-1.211,6.677c-0.051,0.272-0.098,0.542-0.149,0.814  c-0.462,2.465-0.934,4.915-1.418,7.346c-0.415,2.083,0.006,4.233,1.15,5.995c0.163,0.252,0.342,0.495,0.534,0.73  c1.54,1.877,3.84,2.964,6.267,2.964h415.763c2.428,0,4.727-1.087,6.267-2.964c0.192-0.235,0.371-0.478,0.534-0.73  C471.826,506.544,472.247,504.393,471.832,502.311z M169.77,103.254c23.154,14.744,53.778,22.864,86.23,22.864  c32.453,0,63.077-8.12,86.23-22.864c7.354-4.684,13.708-9.867,18.992-15.448c-0.027,0.123-0.054,0.246-0.081,0.37  c-0.293,1.324-0.606,2.642-0.948,3.948c-0.046,0.179-0.097,0.357-0.145,0.536c-0.346,1.297-0.713,2.587-1.107,3.864  c-0.028,0.09-0.053,0.181-0.081,0.27c-0.403,1.298-0.837,2.584-1.287,3.861c-0.082,0.233-0.163,0.468-0.248,0.702  c-0.443,1.228-0.909,2.445-1.394,3.653c-0.099,0.248-0.201,0.493-0.303,0.739c-0.502,1.218-1.019,2.428-1.564,3.623  c-0.075,0.164-0.153,0.325-0.229,0.49c-0.529,1.146-1.077,2.281-1.644,3.405c-0.078,0.153-0.152,0.31-0.23,0.464  c-0.592,1.16-1.211,2.306-1.844,3.441c-0.136,0.244-0.271,0.489-0.41,0.731c-0.627,1.105-1.272,2.198-1.937,3.277  c-0.144,0.233-0.291,0.466-0.437,0.698c-0.69,1.102-1.393,2.194-2.122,3.269c-0.088,0.13-0.179,0.256-0.268,0.386  c-0.694,1.015-1.406,2.016-2.133,3.005c-0.134,0.183-0.266,0.368-0.401,0.55c-0.758,1.018-1.537,2.019-2.329,3.009  c-0.185,0.231-0.37,0.462-0.557,0.691c-0.792,0.974-1.601,1.934-2.427,2.88c-0.178,0.204-0.359,0.404-0.539,0.607  c-0.862,0.972-1.735,1.933-2.631,2.872c-0.076,0.079-0.152,0.156-0.228,0.235c-0.866,0.903-1.75,1.788-2.647,2.66  c-0.182,0.176-0.361,0.356-0.544,0.531c-0.909,0.872-1.834,1.726-2.774,2.566c-0.221,0.198-0.442,0.393-0.665,0.59  c-0.947,0.833-1.907,1.654-2.883,2.455c-0.19,0.157-0.384,0.309-0.576,0.464c-0.975,0.788-1.961,1.563-2.963,2.318  c-0.085,0.065-0.169,0.131-0.255,0.196c-1.05,0.786-2.119,1.547-3.198,2.294c-0.216,0.15-0.431,0.302-0.649,0.45  c-1.046,0.715-2.108,1.41-3.18,2.087c-0.24,0.151-0.482,0.302-0.723,0.452c-1.093,0.679-2.197,1.343-3.314,1.982  c-0.178,0.102-0.359,0.2-0.538,0.302c-1.094,0.618-2.2,1.219-3.317,1.8c-0.13,0.067-0.258,0.138-0.388,0.205  c-1.17,0.602-2.355,1.177-3.55,1.737c-0.24,0.112-0.48,0.226-0.721,0.337c-1.172,0.538-2.354,1.056-3.548,1.553  c-0.244,0.102-0.49,0.201-0.734,0.301c-1.229,0.502-2.466,0.986-3.716,1.442c-0.142,0.052-0.284,0.099-0.426,0.15  c-1.219,0.439-2.448,0.856-3.687,1.252c-0.163,0.052-0.325,0.108-0.49,0.159c-1.274,0.4-2.561,0.773-3.856,1.126  c-0.253,0.069-0.506,0.138-0.76,0.206c-1.281,0.34-2.572,0.658-3.871,0.951c-0.235,0.053-0.471,0.103-0.707,0.155  c-1.351,0.295-2.709,0.572-4.078,0.816c-0.083,0.015-0.166,0.027-0.25,0.041c-1.341,0.236-2.694,0.443-4.051,0.628  c-0.196,0.027-0.39,0.056-0.586,0.082c-1.357,0.177-2.721,0.325-4.093,0.452c-0.263,0.024-0.525,0.048-0.789,0.07  c-1.368,0.116-2.745,0.209-4.127,0.273c-0.222,0.011-0.445,0.016-0.667,0.025c-1.454,0.058-2.913,0.096-4.381,0.096  c-1.468,0-2.927-0.038-4.381-0.096c-0.223-0.009-0.445-0.015-0.668-0.026c-1.384-0.064-2.76-0.157-4.13-0.273  c-0.262-0.023-0.522-0.045-0.783-0.07c-1.373-0.126-2.74-0.275-4.098-0.453c-0.195-0.025-0.387-0.055-0.58-0.081  c-1.36-0.186-2.713-0.393-4.056-0.629c-0.082-0.014-0.165-0.027-0.249-0.041c-1.37-0.244-2.726-0.521-4.077-0.816  c-0.236-0.052-0.472-0.102-0.708-0.155c-1.299-0.293-2.59-0.612-3.872-0.951c-0.253-0.067-0.504-0.136-0.756-0.205  c-1.295-0.353-2.584-0.726-3.859-1.127c-0.162-0.051-0.323-0.106-0.484-0.158c-1.243-0.397-2.477-0.815-3.699-1.256  c-0.138-0.05-0.278-0.096-0.415-0.146c-1.253-0.457-2.493-0.943-3.724-1.445c-0.242-0.098-0.484-0.197-0.725-0.297  c-1.197-0.498-2.381-1.017-3.555-1.557c-0.238-0.109-0.475-0.222-0.712-0.333c-1.197-0.561-2.385-1.137-3.557-1.74  c-0.128-0.065-0.252-0.134-0.379-0.2c-1.122-0.583-2.231-1.186-3.329-1.806c-0.176-0.099-0.355-0.196-0.53-0.296  c-1.122-0.642-2.228-1.308-3.324-1.988c-0.238-0.147-0.475-0.295-0.711-0.444c-1.077-0.68-2.14-1.377-3.191-2.095  c-0.213-0.146-0.424-0.294-0.636-0.441c-1.083-0.75-2.155-1.514-3.209-2.302c-0.08-0.059-0.157-0.122-0.237-0.182  c-1.011-0.761-2.004-1.543-2.987-2.337c-0.186-0.15-0.374-0.299-0.56-0.451c-0.98-0.804-1.945-1.628-2.896-2.466  c-0.217-0.191-0.435-0.384-0.651-0.577c-0.943-0.844-1.873-1.701-2.786-2.578c-0.177-0.171-0.351-0.344-0.528-0.516  c-0.905-0.881-1.798-1.774-2.671-2.685c-0.066-0.068-0.133-0.135-0.199-0.203c-0.905-0.948-1.786-1.919-2.656-2.899  c-0.174-0.196-0.349-0.391-0.522-0.588c-0.83-0.95-1.642-1.915-2.439-2.895c-0.183-0.224-0.363-0.449-0.543-0.673  c-0.798-0.996-1.58-2.002-2.342-3.027c-0.13-0.174-0.255-0.351-0.384-0.525c-0.736-1.001-1.456-2.014-2.159-3.041  c-0.082-0.121-0.168-0.239-0.25-0.36c-0.732-1.08-1.439-2.177-2.131-3.284c-0.143-0.228-0.288-0.456-0.428-0.685  c-0.667-1.084-1.316-2.181-1.946-3.29c-0.135-0.237-0.267-0.476-0.4-0.715c-0.636-1.14-1.257-2.291-1.852-3.456  c-0.075-0.146-0.146-0.295-0.219-0.442c-0.573-1.134-1.125-2.279-1.658-3.435c-0.072-0.157-0.148-0.311-0.219-0.469  c-0.546-1.2-1.066-2.414-1.57-3.636c-0.099-0.242-0.199-0.483-0.297-0.726c-0.489-1.212-0.956-2.434-1.401-3.668  c-0.081-0.226-0.16-0.453-0.24-0.68c-0.453-1.283-0.889-2.576-1.294-3.881c-0.025-0.081-0.048-0.164-0.074-0.245  c-0.397-1.287-0.766-2.586-1.114-3.893c-0.046-0.174-0.096-0.347-0.142-0.521c-0.343-1.31-0.657-2.631-0.95-3.961  c-0.027-0.121-0.053-0.241-0.079-0.362C156.062,93.386,162.415,98.57,169.77,103.254z"/>
<g>
</g>
<g>
</g>
<g>
</g>
<g>
</g>
<g>
</g>
<g>
</g>
<g>
</g>
<g>
</g>
<g>
</g>
<g>
</g>
<g>
</g>
<g>
</g>
<g>
</g>
<g>
</g>
<g>
</g>
</svg>
