<?xml version="1.0" encoding="iso-8859-1"?>
<!-- Generator: Adobe Illustrator 19.0.0, SVG Export Plug-In . SVG Version: 6.00 Build 0)  -->
<svg xmlns="http://www.w3.org/2000/svg" xmlns:xlink="http://www.w3.org/1999/xlink" version="1.1" id="Layer_1" x="0px" y="0px" viewBox="0 0 512 512" style="enable-background:new 0 0 512 512;" xml:space="preserve">
<path style="fill:#E79275;" d="M332.981,30.511c0,8.034-6.514,14.547-14.547,14.547H193.566c-8.035,0-14.548-6.514-14.548-14.547  v-6.063c0-8.034,6.514-14.547,14.548-14.547h124.867c8.034,0,14.547,6.514,14.547,14.547V30.511z"/>
<path style="fill:#C15F4C;" d="M209.003,30.511v-6.063c0-8.034,6.514-14.547,14.549-14.547h-22.154  c-8.036,0-14.549,6.514-14.549,14.547v6.063c0,8.034,6.514,14.547,14.549,14.547h22.154  C215.517,45.058,209.003,38.544,209.003,30.511z"/>
<path style="fill:#D1755D;" d="M80.694,502.1H22.631c-8.034,0-14.547-6.514-14.547-14.547V110.52  c0-8.034,6.514-14.547,14.547-14.547h466.737c8.034,0,14.547,6.514,14.547,14.547v377.032c0,8.034-6.514,14.547-14.547,14.547  H108.719"/>
<path style="fill:#E79275;" d="M489.369,95.973H22.631c-8.034,0-14.547,6.514-14.547,14.547v189.532  c0,37.715,30.577,68.289,68.284,68.289h96.985h41.429v-9.699c0-8.034,6.514-14.547,14.547-14.547h53.34  c8.034,0,14.547,6.514,14.547,14.547v9.699h18.395h120.019c37.708,0,68.284-30.572,68.284-68.289V110.52  C503.916,102.487,497.402,95.973,489.369,95.973z"/>
<path style="fill:#49BAED;" d="M297.217,378.04c0,8.034-6.514,14.547-14.547,14.547h-53.34c-8.034,0-14.547-6.514-14.547-14.547  v-19.398c0-8.034,6.514-14.547,14.547-14.547h53.34c8.034,0,14.547,6.514,14.547,14.547V378.04z"/>
<path style="fill:#C16452;" d="M395.438,465.732h58.084c6.799,0,12.313-5.513,12.313-12.314v-92.12  c-9.108,4.501-19.358,7.042-30.204,7.042H315.614h-18.396v9.699c0,8.034-6.514,14.547-14.547,14.547h-53.34  c-8.034,0-14.547-6.514-14.547-14.547v-9.699h-41.429H76.369c-10.846,0-21.095-2.541-30.204-7.042v92.12  c0,6.8,5.513,12.314,12.313,12.314h307.857"/>
<path style="fill:#C15F4C;" d="M38.069,487.552V110.52c0-8.034,6.514-14.547,14.547-14.547H30.463  c-8.034,0-14.547,6.514-14.547,14.547v377.032c0,8.034,6.514,14.547,14.547,14.547h22.154  C44.583,502.1,38.069,495.586,38.069,487.552z"/>
<path style="fill:#D37F66;" d="M96.048,300.052V110.52c0-8.034,6.514-14.547,14.547-14.547H30.463  c-8.034,0-14.547,6.514-14.547,14.547v189.532c0,37.715,30.577,68.289,68.284,68.289h80.133  C126.625,368.341,96.048,337.768,96.048,300.052z"/>
<path style="fill:#AF493C;" d="M76.151,453.418v-85.55c-7.874-0.928-15.334-3.199-22.154-6.57v92.12  c0,6.8,5.513,12.314,12.312,12.314h22.154C81.665,465.732,76.151,460.218,76.151,453.418z"/>
<path style="fill:#36A6CE;" d="M244.767,378.04v-19.398c0-8.034,6.514-14.547,14.547-14.547h-22.154  c-8.034,0-14.547,6.514-14.547,14.547v19.398c0,8.034,6.514,14.547,14.547,14.547h22.154  C251.281,392.587,244.767,386.073,244.767,378.04z"/>
<path d="M349.65,153.354H162.35c-4.466,0-8.084,3.618-8.084,8.084c0,4.466,3.618,8.084,8.084,8.084H349.65  c4.466,0,8.084-3.618,8.084-8.084C357.734,156.972,354.115,153.354,349.65,153.354z"/>
<path d="M489.369,87.889H357.734v-47.85c0-10.591-7.516-19.457-17.493-21.555c-2.627-9.59-11.395-16.668-21.808-16.668H193.566  c-10.413,0-19.183,7.079-21.809,16.668c-9.976,2.099-17.492,10.963-17.492,21.555V87.89H22.631C10.153,87.889,0,98.042,0,110.52  v189.532v187.5c0,12.479,10.153,22.631,22.631,22.631h58.063c4.466,0,8.084-3.618,8.084-8.084c0-4.466-3.618-8.084-8.084-8.084  H22.631c-3.565,0-6.463-2.898-6.463-6.463V346.961c6.004,7.689,13.441,14.199,21.912,19.13v87.327  c0,11.248,9.149,20.398,20.397,20.398h307.857c4.466,0,8.084-3.618,8.084-8.084s-3.618-8.084-8.084-8.084H58.478  c-2.331,0-4.229-1.897-4.229-4.23v-80.247c2.206,0.67,4.443,1.224,6.701,1.688c0.031,0.006,0.064,0.013,0.095,0.019  c2.447,0.499,4.919,0.882,7.419,1.137c0.122,0.013,0.245,0.022,0.368,0.033c1.041,0.101,2.087,0.18,3.136,0.239  c0.279,0.016,0.558,0.032,0.839,0.045c1.182,0.054,2.369,0.091,3.561,0.091h130.33v1.615c0,12.479,10.153,22.631,22.631,22.631  h53.34c12.479,0,22.631-10.153,22.631-22.631v-1.615h130.33c1.192,0,2.379-0.037,3.561-0.091c0.28-0.013,0.56-0.03,0.84-0.045  c1.048-0.059,2.092-0.138,3.132-0.239c0.124-0.012,0.248-0.022,0.371-0.033c2.499-0.255,4.971-0.638,7.417-1.137  c0.032-0.007,0.066-0.013,0.098-0.021c2.257-0.463,4.494-1.019,6.7-1.688v80.247c0,2.333-1.897,4.23-4.229,4.23h-58.084  c-4.466,0-8.084,3.618-8.084,8.084c0,4.466,3.618,8.084,8.084,8.084h58.084c11.248,0,20.397-9.15,20.397-20.398V366.09  c8.471-4.931,15.909-11.442,21.912-19.13v140.592c0,3.565-2.898,6.463-6.463,6.463H108.719c-4.466,0-8.084,3.618-8.084,8.084  c0,4.466,3.618,8.084,8.084,8.084h380.649c12.479,0,22.631-10.153,22.631-22.631v-187.5V110.52  C512,98.042,501.847,87.889,489.369,87.889z M187.102,24.448c0-3.565,2.9-6.463,6.464-6.463h124.867  c3.565,0,6.463,2.898,6.463,6.463v1.646v4.417c0,3.565-2.898,6.463-6.463,6.463H193.566c-3.565,0-6.464-2.898-6.464-6.463v-4.417  V24.448z M170.434,40.039c0-1.376,0.477-2.644,1.275-3.646c0.045,0.166,0.106,0.324,0.154,0.489c0.072,0.247,0.15,0.49,0.231,0.733  c0.141,0.425,0.295,0.843,0.46,1.256c0.092,0.229,0.18,0.458,0.279,0.683c0.196,0.448,0.412,0.886,0.636,1.319  c0.088,0.171,0.168,0.347,0.262,0.516c0.327,0.593,0.675,1.171,1.052,1.729c0.065,0.096,0.138,0.184,0.204,0.279  c0.319,0.459,0.652,0.908,1.004,1.341c0.146,0.179,0.299,0.348,0.449,0.523c0.292,0.338,0.591,0.672,0.902,0.993  c0.176,0.181,0.355,0.357,0.537,0.531c0.313,0.302,0.634,0.593,0.964,0.876c0.188,0.162,0.373,0.322,0.566,0.478  c0.366,0.295,0.746,0.573,1.131,0.846c0.167,0.119,0.33,0.244,0.5,0.358c0.562,0.374,1.137,0.729,1.732,1.053  c0.058,0.032,0.121,0.057,0.18,0.088c0.539,0.288,1.09,0.553,1.652,0.798c0.206,0.089,0.418,0.166,0.627,0.249  c0.429,0.17,0.861,0.333,1.302,0.478c0.244,0.08,0.489,0.152,0.736,0.223c0.427,0.124,0.859,0.235,1.296,0.334  c0.252,0.057,0.504,0.114,0.76,0.163c0.469,0.089,0.943,0.157,1.422,0.218c0.226,0.028,0.449,0.065,0.677,0.086  c0.707,0.067,1.421,0.109,2.145,0.109h124.867c0.724,0,1.438-0.042,2.145-0.109c0.229-0.022,0.451-0.058,0.677-0.086  c0.477-0.06,0.953-0.128,1.421-0.218c0.257-0.049,0.509-0.107,0.762-0.164c0.435-0.099,0.866-0.209,1.291-0.333  c0.248-0.072,0.496-0.146,0.741-0.225c0.439-0.144,0.868-0.305,1.295-0.474c0.211-0.084,0.426-0.162,0.635-0.252  c0.558-0.241,1.105-0.506,1.638-0.79c0.064-0.033,0.13-0.061,0.194-0.096c0.594-0.324,1.168-0.678,1.729-1.052  c0.172-0.115,0.335-0.241,0.504-0.361c0.384-0.272,0.761-0.549,1.126-0.843c0.193-0.155,0.38-0.318,0.568-0.48  c0.329-0.282,0.649-0.572,0.961-0.874c0.182-0.176,0.362-0.352,0.539-0.534c0.312-0.321,0.61-0.653,0.902-0.993  c0.15-0.174,0.303-0.343,0.447-0.521c0.354-0.435,0.688-0.887,1.009-1.348c0.065-0.093,0.136-0.179,0.198-0.272  c0.377-0.559,0.727-1.139,1.054-1.732c0.091-0.165,0.169-0.337,0.255-0.504c0.226-0.437,0.444-0.877,0.641-1.33  c0.098-0.223,0.185-0.452,0.277-0.678c0.166-0.415,0.321-0.834,0.462-1.261c0.08-0.243,0.157-0.485,0.23-0.731  c0.049-0.165,0.11-0.324,0.154-0.49c0.798,1.001,1.276,2.268,1.276,3.646v47.851H170.434V40.039z M289.133,378.04  c0,3.565-2.898,6.463-6.463,6.463h-53.34c-3.565,0-6.463-2.898-6.463-6.463v-9.699v-9.699c0-3.565,2.898-6.463,6.463-6.463h53.34  c3.565,0,6.463,2.898,6.463,6.463v9.699V378.04z M461.869,354.228c-0.484,0.235-0.973,0.449-1.461,0.672  c-1,0.454-2.014,0.881-3.042,1.281c-0.373,0.146-0.743,0.301-1.118,0.438c-0.627,0.23-1.265,0.437-1.902,0.646  c-0.358,0.117-0.714,0.24-1.073,0.35c-0.646,0.198-1.3,0.379-1.954,0.556c-0.36,0.097-0.72,0.195-1.081,0.286  c-0.65,0.163-1.304,0.313-1.962,0.454c-0.388,0.083-0.776,0.162-1.166,0.236c-0.633,0.123-1.268,0.239-1.908,0.342  c-0.454,0.072-0.909,0.134-1.365,0.195c-0.583,0.08-1.166,0.161-1.755,0.224c-0.593,0.063-1.189,0.107-1.785,0.152  c-0.467,0.036-0.93,0.082-1.399,0.107c-1.084,0.057-2.172,0.092-3.267,0.092H305.302v-1.615c0-12.479-10.153-22.631-22.631-22.631  h-53.34c-12.479,0-22.631,10.153-22.631,22.631v1.615H76.369c-1.095,0-2.183-0.035-3.267-0.092  c-0.471-0.026-0.936-0.071-1.403-0.107c-0.595-0.045-1.19-0.088-1.781-0.152c-0.59-0.064-1.175-0.144-1.759-0.224  c-0.454-0.061-0.908-0.123-1.359-0.194c-0.641-0.102-1.277-0.22-1.912-0.343c-0.388-0.075-0.775-0.153-1.161-0.235  c-0.659-0.141-1.314-0.292-1.965-0.455c-0.36-0.091-0.719-0.188-1.078-0.285c-0.655-0.177-1.309-0.358-1.955-0.556  c-0.361-0.111-0.719-0.234-1.078-0.352c-0.635-0.208-1.271-0.414-1.896-0.642c-0.396-0.146-0.786-0.308-1.179-0.462  c-0.99-0.386-1.965-0.797-2.929-1.233c-0.509-0.231-1.02-0.455-1.524-0.7c-20.08-9.771-33.954-30.38-33.954-54.173V110.52  c0-3.565,2.898-6.463,6.463-6.463H162.35H349.65h139.718c3.565,0,6.463,2.898,6.463,6.463v189.532  C495.832,323.848,481.954,344.46,461.869,354.228z"/>
<g>
</g>
<g>
</g>
<g>
</g>
<g>
</g>
<g>
</g>
<g>
</g>
<g>
</g>
<g>
</g>
<g>
</g>
<g>
</g>
<g>
</g>
<g>
</g>
<g>
</g>
<g>
</g>
<g>
</g>
</svg>
