<?xml version="1.0" encoding="iso-8859-1"?>
<!-- Generator: Adobe Illustrator 19.0.0, SVG Export Plug-In . SVG Version: 6.00 Build 0)  -->
<svg xmlns="http://www.w3.org/2000/svg" xmlns:xlink="http://www.w3.org/1999/xlink" version="1.1" id="Layer_1" x="0px" y="0px" viewBox="0 0 512 512" style="enable-background:new 0 0 512 512;" xml:space="preserve">
<path style="fill:#49BAED;" d="M431.959,312.685l-3.773-27.806l-14.333-105.622H376.92c-0.042,0.217-0.073,0.438-0.118,0.654  c-0.501,2.448-1.122,4.857-1.855,7.212c-0.183,0.592-0.375,1.177-0.57,1.76c-10.061,29.733-38.195,51.136-71.326,51.136h-94.103  c-33.13,0-61.265-21.404-71.326-51.136c-0.196-0.583-0.387-1.168-0.57-1.76c-0.735-2.356-1.354-4.764-1.855-7.212  c-0.046-0.217-0.075-0.438-0.117-0.654H98.147L69.651,389.242c0,7.916,0.802,15.645,2.33,23.109  c0.762,3.731,1.71,7.398,2.825,10.987c0.28,0.899,0.568,1.791,0.87,2.68c15.329,45.293,58.184,77.897,108.651,77.897H327.67  c50.469,0,93.324-32.604,108.653-77.897c0.299-0.888,0.59-1.781,0.87-2.68c1.116-3.589,2.061-7.256,2.825-10.987  c1.526-7.465,2.33-15.194,2.33-23.109L431.959,312.685z"/>
<path style="fill:#FFE8A5;" d="M285.062,382.491c0,7.552-6.122,13.676-13.676,13.676h-30.773c-7.554,0-13.678-6.125-13.678-13.676  v-14.817c0-7.554,6.125-13.677,13.678-13.677h30.773c7.554,0,13.676,6.125,13.676,13.677V382.491z"/>
<path style="fill:#B7DFF7;" d="M375.91,183.741c-0.296,1.139-0.614,2.268-0.963,3.383c-0.183,0.592-0.375,1.177-0.57,1.76  c-10.061,29.733-38.195,51.136-71.326,51.136h-94.103c-33.13,0-61.265-21.404-71.326-51.136c-0.196-0.583-0.387-1.168-0.57-1.76  c-0.347-1.116-0.665-2.246-0.963-3.384l-14.651,107.966c0,5.714,0.579,11.294,1.683,16.686c0.552,2.693,1.235,5.341,2.04,7.934  c0.204,0.647,0.413,1.292,0.629,1.935c11.068,32.706,42.011,56.249,78.455,56.249h22.691v-6.838c0-7.554,6.125-13.677,13.678-13.677  h30.773c7.554,0,13.676,6.125,13.676,13.677v6.838h22.693c36.443,0,67.388-23.543,78.455-56.249  c0.217-0.642,0.428-1.288,0.627-1.935c0.806-2.593,1.491-5.242,2.04-7.934c1.103-5.392,1.683-10.973,1.683-16.686L375.91,183.741z"/>
<path style="fill:#FFE8A5;" d="M403.372,142.2c-3.413-36.551-20.253-70.385-47.419-95.272  C328.607,21.88,293.109,8.084,255.999,8.084c-37.112,0-72.608,13.796-99.953,38.844c-27.166,24.886-44.006,58.72-47.419,95.272  c-0.731,7.834,5.027,14.777,12.861,15.51c7.842,0.714,14.779-5.027,15.51-12.861C142.761,83.124,193.921,36.579,256,36.579  c29.023,0,55.661,10.173,76.386,27.315l18.801,19.571c13.112,17.225,21.656,38.237,23.817,61.383  c0.689,7.386,6.896,12.924,14.167,12.924c0.444,0,0.893-0.022,1.343-0.064C398.347,156.977,404.104,150.033,403.372,142.2z"/>
<path style="fill:#36A6CE;" d="M106.826,425.233c-0.301-0.888-0.59-1.781-0.87-2.68c-1.116-3.589-2.063-7.256-2.825-10.987  c-1.528-7.465-2.33-15.194-2.33-23.109l28.495-209.986H106.66L78.165,388.456c0,7.916,0.802,15.645,2.33,23.109  c0.762,3.731,1.71,7.398,2.825,10.987c0.28,0.899,0.568,1.791,0.87,2.68c15.329,45.293,58.184,77.897,108.651,77.897h22.636  C165.008,503.13,122.153,470.525,106.826,425.233z"/>
<path style="fill:#F2D17E;" d="M257.602,381.704v-14.817c0-7.554,6.125-13.677,13.678-13.677h-22.154  c-7.554,0-13.677,6.125-13.677,13.677v14.817c0,7.552,6.125,13.676,13.677,13.676h22.154  C263.726,395.38,257.602,389.256,257.602,381.704z"/>
<path style="fill:#87CBF9;" d="M212.343,278.204c0-13.454,1.697-26.512,4.882-38.972c-33.028-0.102-61.053-21.471-71.09-51.133  c-0.196-0.583-0.387-1.168-0.57-1.76c-0.347-1.116-0.665-2.246-0.963-3.383l-14.651,107.966c0,5.714,0.579,11.295,1.683,16.686  c0.552,2.693,1.236,5.341,2.04,7.934c0.204,0.647,0.413,1.292,0.629,1.935c11.068,32.705,42.011,56.249,78.455,56.249h22.691v-6.838  c0-1.811,0.36-3.534,1-5.117C221.183,337.577,212.343,308.925,212.343,278.204z"/>
<path d="M450.359,388.154l-10.39-76.556c-0.601-4.425-4.68-7.525-9.097-6.923c-4.424,0.6-7.524,4.674-6.923,9.097l10.314,76.006  c-0.036,7.049-0.763,14.096-2.165,20.952c-0.703,3.433-1.587,6.868-2.625,10.206c-0.261,0.841-0.532,1.675-0.808,2.493  c-14.655,43.307-55.243,72.403-100.994,72.403H184.328c-45.75,0-86.337-29.097-100.993-72.408c-0.28-0.826-0.548-1.655-0.806-2.486  c-1.044-3.36-1.927-6.794-2.626-10.209c-1.402-6.848-2.13-13.894-2.165-20.952l27.47-202.437h22.236l-14.015,103.278  c-0.05,0.361-0.073,0.724-0.073,1.088c0,6.16,0.621,12.32,1.846,18.308c0.597,2.91,1.35,5.84,2.252,8.748  c0.22,0.696,0.445,1.393,0.68,2.09c12.497,36.93,47.103,61.741,86.113,61.741h14.612c0.057,11.95,9.793,21.655,21.757,21.655h30.773  c11.964,0,21.697-9.704,21.755-21.655h14.614c39.009,0,73.616-24.812,86.114-61.746c0.239-0.707,0.471-1.419,0.689-2.121  c0.892-2.872,1.646-5.804,2.24-8.714c1.226-5.988,1.846-12.148,1.846-18.307c0-0.363-0.024-0.727-0.073-1.088l-14.013-103.278  h22.236l13.383,98.625c0.602,4.425,4.664,7.523,9.097,6.923c4.424-0.6,7.524-4.674,6.923-9.097l-11.533-84.995  c8.985-8.408,14.131-20.206,14.131-32.529c0-19.202-11.973-35.908-29.977-42.112c-6.63-31.849-23.094-60.917-47.404-83.188  C332.573,14.549,295.136,0,255.999,0s-76.574,14.549-105.415,40.968c-24.312,22.271-40.777,51.343-47.406,83.196  c-17.975,6.211-29.974,22.98-29.974,42.104c0,12.294,5.15,24.149,14.129,32.547l-25.692,189.34c-0.05,0.361-0.073,0.724-0.073,1.088  c0,8.325,0.839,16.645,2.493,24.727c0.805,3.938,1.823,7.898,3.028,11.774c0.3,0.964,0.609,1.919,0.93,2.867  C84.9,478.488,131.64,512,184.328,512H327.67c52.689,0,99.429-33.512,116.315-83.403c0.318-0.946,0.627-1.897,0.927-2.858  c1.196-3.851,2.215-7.809,3.026-11.768c1.656-8.095,2.494-16.415,2.494-24.728C450.433,388.879,450.408,388.515,450.359,388.154z   M276.978,382.491c0,3.083-2.508,5.592-5.592,5.592h-30.773c-3.084,0-5.594-2.508-5.594-5.592v-7.979v-6.838  c0-3.084,2.509-5.593,5.594-5.593h30.773c3.083,0,5.592,2.509,5.592,5.593v6.838V382.491z M380.956,306.776  c-0.487,2.388-1.105,4.793-1.842,7.163c-0.18,0.58-0.369,1.161-0.562,1.732c-10.272,30.359-38.724,50.756-70.797,50.756h-14.643  c-0.01-0.174-0.041-0.342-0.055-0.515c-0.027-0.336-0.064-0.668-0.106-1c-0.049-0.382-0.106-0.759-0.174-1.134  c-0.059-0.328-0.126-0.652-0.201-0.975c-0.084-0.366-0.178-0.729-0.28-1.089c-0.091-0.318-0.186-0.633-0.291-0.945  c-0.118-0.351-0.246-0.696-0.382-1.039c-0.121-0.305-0.244-0.608-0.377-0.908c-0.15-0.335-0.31-0.663-0.476-0.988  c-0.148-0.29-0.297-0.579-0.458-0.861c-0.18-0.317-0.372-0.625-0.567-0.932c-0.175-0.274-0.348-0.548-0.535-0.813  c-0.208-0.297-0.428-0.583-0.651-0.87c-0.198-0.255-0.396-0.512-0.606-0.758c-0.235-0.276-0.483-0.54-0.731-0.804  c-0.221-0.235-0.44-0.472-0.67-0.697c-0.261-0.254-0.534-0.493-0.807-0.734c-0.24-0.212-0.478-0.428-0.728-0.63  c-0.286-0.231-0.583-0.443-0.881-0.659c-0.259-0.188-0.512-0.38-0.779-0.557c-0.31-0.206-0.633-0.39-0.954-0.58  c-0.272-0.161-0.539-0.328-0.818-0.478c-0.335-0.179-0.683-0.335-1.029-0.497c-0.281-0.132-0.558-0.273-0.846-0.392  c-0.364-0.151-0.741-0.277-1.115-0.409c-0.285-0.1-0.564-0.213-0.854-0.302c-0.4-0.123-0.812-0.216-1.221-0.315  c-0.277-0.068-0.549-0.15-0.83-0.206c-0.461-0.093-0.933-0.152-1.404-0.215c-0.24-0.032-0.475-0.082-0.718-0.106  c-0.719-0.072-1.447-0.111-2.184-0.111h-30.773c-0.737,0-1.466,0.039-2.184,0.111c-0.243,0.025-0.478,0.073-0.718,0.106  c-0.471,0.064-0.943,0.122-1.404,0.215c-0.281,0.057-0.553,0.139-0.83,0.206c-0.41,0.099-0.82,0.192-1.22,0.315  c-0.29,0.088-0.569,0.202-0.855,0.302c-0.374,0.132-0.75,0.257-1.113,0.409c-0.288,0.12-0.564,0.261-0.845,0.392  c-0.346,0.162-0.694,0.318-1.03,0.497c-0.279,0.149-0.545,0.316-0.817,0.476c-0.321,0.19-0.645,0.375-0.955,0.581  c-0.266,0.177-0.521,0.369-0.778,0.556c-0.296,0.216-0.595,0.429-0.881,0.659c-0.25,0.202-0.487,0.416-0.728,0.628  c-0.274,0.241-0.548,0.481-0.808,0.735c-0.231,0.224-0.448,0.46-0.668,0.695c-0.249,0.265-0.497,0.529-0.733,0.806  c-0.209,0.246-0.406,0.501-0.605,0.757c-0.223,0.287-0.443,0.573-0.651,0.871c-0.185,0.265-0.36,0.539-0.535,0.813  c-0.195,0.307-0.387,0.616-0.567,0.932c-0.161,0.282-0.31,0.571-0.458,0.862c-0.166,0.326-0.327,0.653-0.478,0.988  c-0.134,0.299-0.257,0.602-0.377,0.907c-0.135,0.343-0.263,0.689-0.382,1.04c-0.105,0.313-0.2,0.627-0.291,0.945  c-0.102,0.359-0.196,0.721-0.28,1.088c-0.074,0.323-0.141,0.649-0.202,0.978c-0.068,0.374-0.124,0.75-0.172,1.13  c-0.042,0.333-0.079,0.667-0.107,1.005c-0.014,0.172-0.044,0.34-0.054,0.512h-14.641c-32.073,0-60.524-20.397-70.796-50.751  c-0.2-0.592-0.391-1.189-0.567-1.743c-0.732-2.361-1.352-4.771-1.841-7.162c-0.971-4.75-1.481-9.636-1.516-14.532l10.859-80.026  c0.525,0.758,1.064,1.504,1.613,2.242c0.156,0.211,0.319,0.417,0.478,0.627c0.435,0.575,0.876,1.145,1.326,1.706  c0.208,0.261,0.418,0.52,0.629,0.777c0.435,0.531,0.877,1.056,1.325,1.576c0.196,0.227,0.39,0.458,0.59,0.684  c0.636,0.723,1.282,1.437,1.942,2.136c0.071,0.075,0.146,0.148,0.218,0.223c0.596,0.627,1.203,1.244,1.817,1.851  c0.227,0.224,0.458,0.445,0.689,0.667c0.481,0.463,0.966,0.922,1.456,1.373c0.246,0.226,0.492,0.453,0.741,0.676  c0.548,0.492,1.103,0.974,1.663,1.452c0.179,0.153,0.356,0.309,0.536,0.46c0.731,0.611,1.472,1.209,2.223,1.796  c0.211,0.165,0.427,0.323,0.639,0.486c0.559,0.428,1.123,0.85,1.694,1.264c0.275,0.199,0.551,0.396,0.828,0.592  c0.547,0.386,1.097,0.765,1.653,1.138c0.259,0.174,0.515,0.349,0.776,0.521c0.798,0.523,1.602,1.036,2.417,1.531  c0.084,0.051,0.17,0.099,0.255,0.15c0.743,0.447,1.494,0.883,2.251,1.307c0.28,0.157,0.563,0.309,0.845,0.463  c0.584,0.319,1.171,0.631,1.762,0.936c0.3,0.154,0.599,0.308,0.901,0.459c0.654,0.328,1.315,0.645,1.978,0.955  c0.218,0.102,0.433,0.208,0.653,0.308c0.871,0.398,1.75,0.78,2.635,1.149c0.24,0.1,0.485,0.194,0.727,0.291  c0.666,0.269,1.334,0.532,2.008,0.785c0.315,0.117,0.63,0.233,0.945,0.347c0.644,0.233,1.29,0.456,1.939,0.673  c0.291,0.097,0.581,0.197,0.873,0.291c0.925,0.298,1.854,0.583,2.792,0.848c0.046,0.013,0.094,0.025,0.14,0.038  c0.897,0.252,1.799,0.486,2.707,0.708c0.302,0.074,0.606,0.142,0.909,0.213c0.675,0.157,1.353,0.307,2.033,0.448  c0.324,0.067,0.649,0.134,0.974,0.197c0.744,0.144,1.491,0.278,2.241,0.403c0.234,0.039,0.467,0.083,0.702,0.12  c0.974,0.154,1.954,0.29,2.938,0.41c0.239,0.029,0.481,0.052,0.721,0.079c0.759,0.085,1.519,0.162,2.283,0.226  c0.331,0.028,0.663,0.053,0.994,0.077c0.714,0.052,1.429,0.094,2.146,0.128c0.309,0.014,0.618,0.032,0.927,0.043  c1.008,0.037,2.019,0.06,3.034,0.06h94.103c1.015,0,2.025-0.024,3.034-0.06c0.31-0.011,0.619-0.028,0.928-0.043  c0.717-0.033,1.431-0.075,2.144-0.128c0.332-0.024,0.664-0.049,0.995-0.077c0.762-0.065,1.522-0.141,2.28-0.226  c0.241-0.027,0.484-0.05,0.725-0.079c0.984-0.12,1.963-0.255,2.937-0.41c0.234-0.037,0.467-0.081,0.701-0.12  c0.749-0.125,1.496-0.258,2.24-0.403c0.327-0.064,0.651-0.13,0.977-0.197c0.68-0.141,1.358-0.291,2.033-0.448  c0.303-0.071,0.606-0.139,0.908-0.213c0.906-0.222,1.809-0.456,2.704-0.708c0.047-0.013,0.096-0.025,0.143-0.039  c0.936-0.265,1.864-0.55,2.786-0.847c0.296-0.095,0.591-0.196,0.886-0.294c0.646-0.216,1.288-0.438,1.928-0.668  c0.317-0.114,0.635-0.23,0.95-0.348c0.674-0.252,1.344-0.515,2.01-0.786c0.24-0.097,0.484-0.191,0.723-0.29  c0.885-0.369,1.763-0.751,2.634-1.149c0.222-0.101,0.441-0.209,0.662-0.313c0.662-0.309,1.319-0.625,1.973-0.952  c0.301-0.151,0.6-0.304,0.899-0.458c0.592-0.305,1.179-0.618,1.763-0.937c0.282-0.154,0.566-0.306,0.846-0.463  c0.764-0.429,1.522-0.868,2.272-1.32c0.077-0.046,0.154-0.089,0.231-0.136c0.816-0.496,1.62-1.009,2.418-1.532  c0.262-0.172,0.521-0.349,0.781-0.524c0.554-0.372,1.104-0.749,1.648-1.135c0.278-0.196,0.554-0.393,0.83-0.593  c0.57-0.414,1.134-0.836,1.694-1.264c0.212-0.163,0.428-0.321,0.638-0.486c0.751-0.586,1.493-1.185,2.224-1.796  c0.181-0.152,0.358-0.308,0.537-0.461c0.559-0.476,1.113-0.959,1.661-1.451c0.249-0.224,0.496-0.451,0.743-0.677  c0.49-0.452,0.974-0.909,1.454-1.372c0.231-0.223,0.462-0.444,0.691-0.669c0.617-0.609,1.226-1.228,1.823-1.857  c0.069-0.073,0.141-0.143,0.211-0.217c0.66-0.698,1.304-1.412,1.94-2.134c0.201-0.227,0.396-0.46,0.594-0.69  c0.446-0.518,0.888-1.042,1.323-1.573c0.211-0.258,0.421-0.516,0.631-0.777c0.449-0.562,0.889-1.131,1.325-1.705  c0.16-0.21,0.322-0.418,0.48-0.629c0.548-0.736,1.085-1.481,1.608-2.238l10.858,80.028  C382.438,297.136,381.928,302.022,380.956,306.776z M422.626,166.267c0,3.199-0.552,6.34-1.582,9.305  c-1.35-2.633-4.084-4.4-7.19-4.4h-36.933c-3.871,0-7.198,2.743-7.935,6.543c-0.031,0.16-0.059,0.321-0.086,0.482l-0.016,0.093  c-0.037,0.181-0.086,0.361-0.125,0.541c-1.902-3.848-2.906-8.115-2.906-12.565c0-4.621,1.122-9.091,3.197-13.082  c3.599,7.566,11.256,12.672,20.121,12.672c0.693,0,1.398-0.032,2.095-0.098c5.939-0.556,11.305-3.391,15.113-7.981  c3.304-3.986,5.083-8.88,5.135-13.985C418.329,149.078,422.626,157.345,422.626,166.267z M116.676,142.951  c3.225-34.55,19.147-66.534,44.831-90.062c25.85-23.679,59.409-36.721,94.493-36.721s68.642,13.041,94.493,36.721  c25.684,23.528,41.606,55.513,44.831,90.063c0.317,3.382-2.18,6.392-5.562,6.708c-3.435,0.328-6.393-2.178-6.708-5.563  c-2.236-23.948-11.03-46.606-25.434-65.528c-2.704-3.551-7.775-4.242-11.33-1.536c-3.553,2.704-4.24,7.777-1.536,11.33  c9.95,13.072,16.821,28.203,20.227,44.324c-9.727,8.478-15.296,20.655-15.296,33.582c0,11.438,4.465,22.502,12.32,30.751  c-11.633,21.267-34.075,34.918-58.952,34.918h-94.103c-7.211,0-14.218-1.147-20.817-3.292c-16.174-5.26-29.886-16.531-38.141-31.635  c7.864-8.252,12.328-19.274,12.328-30.743c0-13.002-5.555-25.122-15.308-33.602c10.765-50.989,55.533-88.001,108.99-88.001  c26.084,0,51.383,9.042,71.234,25.46c3.442,2.847,8.538,2.363,11.383-1.077c2.846-3.441,2.363-8.537-1.077-11.383  c-22.744-18.81-51.701-29.17-81.539-29.17c-66.279,0-120.899,49.697-127.051,115.603c-0.315,3.376-3.344,5.878-6.708,5.562  C118.857,149.344,116.36,146.334,116.676,142.951z M100.48,143.736c0.1,11.3,8.765,20.948,20.274,22.024  c9.545,0.88,18.253-4.444,22.18-12.621c2.085,3.993,3.214,8.47,3.214,13.129c0,4.375-1.024,8.647-2.917,12.503  c-0.041-0.192-0.091-0.373-0.13-0.567c-0.027-0.163-0.056-0.327-0.087-0.487c-0.738-3.8-4.065-6.543-7.935-6.543H98.147  c-3.12,0-5.864,1.783-7.208,4.437c-1.024-2.957-1.565-6.099-1.565-9.342C89.374,157.208,93.61,148.99,100.48,143.736z"/>
<path d="M298.74,271.042h-85.48c-4.466,0-8.084,3.618-8.084,8.084c0,4.466,3.618,8.084,8.084,8.084h85.48  c4.466,0,8.084-3.618,8.084-8.084C306.824,274.661,303.205,271.042,298.74,271.042z"/>
<g>
</g>
<g>
</g>
<g>
</g>
<g>
</g>
<g>
</g>
<g>
</g>
<g>
</g>
<g>
</g>
<g>
</g>
<g>
</g>
<g>
</g>
<g>
</g>
<g>
</g>
<g>
</g>
<g>
</g>
</svg>
