<?xml version="1.0" encoding="iso-8859-1"?>
<!-- Generator: Adobe Illustrator 19.0.0, SVG Export Plug-In . SVG Version: 6.00 Build 0)  -->
<svg xmlns="http://www.w3.org/2000/svg" xmlns:xlink="http://www.w3.org/1999/xlink" version="1.1" id="Layer_1" x="0px" y="0px" viewBox="0 0 512 512" style="enable-background:new 0 0 512 512;" xml:space="preserve">
<g>
	<path style="fill:#527A84;" d="M420.73,145.57V22.221c0-7.807-6.329-14.137-14.137-14.137h-39.304   c-7.807,0-14.137,6.329-14.137,14.137v46.019C386.338,81.703,411.74,110.354,420.73,145.57z"/>
	<path style="fill:#527A84;" d="M163.156,68.24v-46.02c0-7.807-6.329-14.137-14.137-14.137h-39.302   c-7.809,0-14.137,6.329-14.137,14.137V145.57C104.568,110.354,129.97,81.705,163.156,68.24z"/>
</g>
<g>
	<path style="fill:#275D68;" d="M123.321,53.389V19.702c0-7.807,6.327-14.137,14.137-14.137h-22.154   c-7.809,0-14.137,6.329-14.137,14.137v33.687v89.661v33.687c4.156-16.286,11.83-31.163,22.154-43.787V53.389z"/>
	<path style="fill:#275D68;" d="M380.892,95.364v-3.724V75.262v-9.54V49.344V45.62V19.702c0-7.807,6.33-14.137,14.137-14.137   h-22.153c-7.806,0-14.137,6.329-14.137,14.137V45.62V65.72v25.918c7.863,3.189,15.28,7.241,22.154,12.02v-8.294H380.892z"/>
</g>
<path style="fill:#49BAED;" d="M308.206,57.128H203.794c-62.907,0-113.903,51-113.903,113.903v309  c0,11.649,9.443,21.092,21.092,21.092h290.033c11.648,0,21.092-9.445,21.092-21.092v-309  C422.108,108.128,371.113,57.128,308.206,57.128z"/>
<path style="fill:#36A6CE;" d="M119.332,480.304v-309c0-62.903,50.996-113.903,113.903-113.903h-21.7  c-62.907,0-113.903,51-113.903,113.903v309c0,11.649,9.443,21.092,21.092,21.092h21.7  C128.776,501.397,119.332,491.952,119.332,480.304z"/>
<path style="fill:#9BFCFF;" d="M370.273,297.751H141.725c-7.809,0-14.137,6.328-14.137,14.137v141.509  c0,7.808,6.327,14.138,14.137,14.138h228.547c7.807,0,14.137-6.329,14.137-14.138V311.889  C384.41,304.079,378.081,297.751,370.273,297.751z"/>
<path style="fill:#FFE8A5;" d="M190.279,348.549H384.41v-36.66c0-7.808-6.329-14.137-14.137-14.137H141.725  c-7.809,0-14.137,6.328-14.137,14.137v36.661h35.024"/>
<path style="fill:#9BFCFF;" d="M308.206,59.92H203.794c-62.907,0-113.903,51-113.903,113.903v71.573h332.219v-71.573  C422.108,110.92,371.113,59.92,308.206,59.92z"/>
<path style="fill:#FFE8A5;" d="M310.003,95.781h-36.521H240.81h-36.521c-41.686,0-75.48,33.796-75.48,75.482v26.703v20.727v26.703  h36.521h183.632h36.521v-26.701v-20.728v-26.703C385.483,129.578,351.691,95.781,310.003,95.781z"/>
<g>
	<path style="fill:#9BFCFF;" d="M89.889,482.824V281.918H56.315c-7.807,0-14.138,6.328-14.138,14.137v193.725   c0,7.806,6.33,14.137,14.138,14.137h43.588c1.744,0,3.409-0.332,4.954-0.912C96.197,500.381,89.889,492.341,89.889,482.824z"/>
	<path style="fill:#9BFCFF;" d="M469.821,376.185v-80.131c0-7.808-6.329-14.137-14.137-14.137h-33.575v200.906   c0,9.518-6.31,17.558-14.968,20.181c1.545,0.58,3.208,0.912,4.954,0.912h43.59c7.807,0,14.137-6.33,14.137-14.137v-86.648"/>
</g>
<g>
	<path style="fill:#FFE8A5;" d="M469.821,332.716v-36.661c0-7.808-6.329-14.137-14.137-14.137h-33.575v50.798H469.821z"/>
	<path style="fill:#FFE8A5;" d="M42.177,296.055v36.661H89.89v-50.798H56.315C48.508,281.918,42.177,288.246,42.177,296.055z"/>
</g>
<path style="fill:#496E77;" d="M412.157,127.224c2.635,5.869,4.797,11.999,6.417,18.346v-11.327  C416.532,131.816,414.393,129.472,412.157,127.224z"/>
<path style="fill:#41F2ED;" d="M71.621,487.26V293.536c0-7.808,6.33-14.137,14.137-14.137h-21.7  c-7.807,0-14.138,6.328-14.138,14.137V487.26c0,7.806,6.33,14.137,14.138,14.137h21.7C77.951,501.397,71.621,495.066,71.621,487.26z  "/>
<path style="fill:#F2D17E;" d="M85.758,279.399h-21.7c-7.807,0-14.138,6.328-14.138,14.137v36.661h21.701v-36.661  C71.621,285.727,77.951,279.399,85.758,279.399z"/>
<path style="fill:#41F2ED;" d="M157.031,453.035V311.526c0-7.808,6.327-14.137,14.137-14.137h-21.7  c-7.809,0-14.137,6.328-14.137,14.137v141.509c0,7.808,6.327,14.138,14.137,14.138h21.7  C163.359,467.172,157.031,460.843,157.031,453.035z"/>
<path style="fill:#F2D17E;" d="M171.168,297.388h-21.7c-7.809,0-14.137,6.328-14.137,14.137v36.661h21.7v-36.661  C157.031,303.717,163.359,297.388,171.168,297.388z"/>
<path style="fill:#41F2ED;" d="M233.235,57.401h-21.7c-62.907,0-113.903,51-113.903,113.903v71.573h21.7v-71.573  C119.332,108.401,170.328,57.401,233.235,57.401z"/>
<path style="fill:#F2D17E;" d="M158.251,195.447v-26.703c0-41.685,33.794-75.482,75.48-75.482h-21.7  c-41.686,0-75.48,33.796-75.48,75.482v26.703v20.728v26.703h21.7v-26.703L158.251,195.447L158.251,195.447z"/>
<path d="M455.685,273.834h-25.491v-28.437v-71.573c0-10.052-1.231-19.822-3.534-29.173V22.221C426.658,9.968,416.69,0,404.437,0  h-39.304c-12.252,0-22.221,9.968-22.221,22.221v34.652c-10.122-3.009-20.789-4.743-31.815-5.001C309.366,22.979,285.32,0,255.999,0  s-53.367,22.979-55.098,51.873c-11.027,0.258-21.694,1.992-31.817,5.001V22.221C169.084,9.968,159.116,0,146.864,0h-39.302  C95.309,0,85.341,9.968,85.341,22.221v122.428c-2.303,9.352-3.534,19.121-3.534,29.173v71.573v28.437H56.315  c-12.254,0-22.222,9.968-22.222,22.221v36.661v157.063c0,12.252,9.968,22.221,22.222,22.221h43.589c1.715,0,3.416-0.222,5.089-0.621  c1.934,0.406,3.936,0.622,5.99,0.622h290.033c2.053,0,4.056-0.216,5.991-0.621c1.673,0.399,3.373,0.621,5.089,0.621h43.589  c12.252,0,22.221-9.968,22.221-22.221v-86.647c0-4.466-3.618-8.084-8.084-8.084c-4.466,0-8.084,3.618-8.084,8.084v86.647  c0,3.338-2.715,6.052-6.052,6.052h-28.511c1.094-2.211,1.9-4.579,2.407-7.05c0.012-0.058,0.024-0.115,0.036-0.174  c0.077-0.386,0.147-0.774,0.208-1.164c0.028-0.176,0.052-0.352,0.077-0.528c0.043-0.312,0.086-0.622,0.12-0.937  c0.031-0.285,0.052-0.571,0.074-0.858c0.017-0.23,0.04-0.458,0.053-0.689c0.029-0.532,0.046-1.068,0.046-1.607V340.801h31.545  v35.384c0,4.466,3.618,8.084,8.084,8.084s8.084-3.618,8.084-8.084v-43.469v-36.661C477.906,283.802,467.937,273.834,455.685,273.834  z M413.965,484.011c-0.016,0.169-0.041,0.336-0.063,0.504c-0.027,0.206-0.057,0.41-0.094,0.612  c-0.041,0.223-0.086,0.445-0.139,0.665c-0.027,0.116-0.059,0.232-0.089,0.347c-0.767,2.862-2.5,5.391-4.868,7.146  c-0.079,0.058-0.155,0.12-0.236,0.177c-0.183,0.13-0.374,0.25-0.566,0.371c-0.143,0.089-0.287,0.179-0.434,0.264  c-0.171,0.099-0.346,0.194-0.523,0.286c-0.177,0.092-0.358,0.177-0.539,0.26c-0.167,0.077-0.333,0.154-0.504,0.224  c-0.203,0.083-0.41,0.154-0.617,0.226c-0.165,0.057-0.326,0.122-0.493,0.172c-1.199,0.365-2.468,0.565-3.784,0.565H110.983  c-1.317,0-2.587-0.2-3.787-0.566c-0.162-0.049-0.316-0.111-0.474-0.166c-0.215-0.074-0.429-0.149-0.639-0.235  c-0.164-0.067-0.324-0.142-0.484-0.216c-0.19-0.087-0.378-0.177-0.564-0.272c-0.169-0.088-0.337-0.179-0.502-0.275  c-0.156-0.089-0.309-0.184-0.461-0.28c-0.182-0.115-0.364-0.231-0.54-0.354c-0.095-0.067-0.184-0.139-0.277-0.207  c-2.351-1.754-4.07-4.272-4.834-7.12c-0.031-0.116-0.063-0.233-0.091-0.351c-0.052-0.219-0.097-0.44-0.138-0.662  c-0.037-0.204-0.067-0.409-0.094-0.615c-0.023-0.167-0.046-0.334-0.063-0.503c-0.036-0.392-0.06-0.787-0.06-1.189V332.714v-50.798  v-28.437h30.833h256.675h28.542v28.437v50.798v150.108C414.024,483.224,414,483.619,413.965,484.011z M203.793,68.004h5.318h93.777  h5.318c58.349,0,105.819,47.47,105.819,105.819v63.489h-20.457v-66.049c0-46.079-37.486-83.566-83.564-83.566H204.29  c-46.078,0-83.564,37.487-83.564,83.566v66.049H97.975v-63.489C97.975,115.475,145.444,68.004,203.793,68.004z M377.398,237.313  H136.892v-66.049c0-37.164,30.234-67.398,67.395-67.398h105.714c37.163,0,67.395,30.235,67.395,67.398v66.049H377.398z   M359.081,22.221c0-3.338,2.715-6.052,6.052-6.052h39.304c3.338,0,6.052,2.715,6.052,6.052v85.152  c-12.492-19.17-30.277-34.729-51.409-44.442L359.081,22.221L359.081,22.221z M255.999,16.168c20.391,0,37.181,15.714,38.895,35.668  h-77.79C218.819,31.882,235.608,16.168,255.999,16.168z M101.509,22.221c0-3.338,2.715-6.052,6.052-6.052h39.302  c3.337,0,6.052,2.715,6.052,6.052v40.71c-21.133,9.716-38.916,25.27-51.407,44.441C101.509,107.371,101.509,22.221,101.509,22.221z   M50.262,296.055c0-3.338,2.715-6.052,6.053-6.052h25.49v34.629H50.262V296.055z M56.315,495.832c-3.338,0-6.053-2.715-6.053-6.052  V340.8h31.545v142.023c0,0.539,0.017,1.075,0.046,1.607c0.013,0.232,0.034,0.46,0.053,0.691c0.023,0.286,0.043,0.571,0.074,0.855  c0.033,0.317,0.077,0.631,0.121,0.944c0.025,0.172,0.047,0.346,0.075,0.517c0.063,0.396,0.134,0.788,0.211,1.179  c0.011,0.052,0.02,0.102,0.031,0.154c0.507,2.475,1.313,4.847,2.408,7.06H56.315z M430.193,324.632v-34.63h25.491  c3.338,0,6.052,2.715,6.052,6.052v28.577L430.193,324.632L430.193,324.632z"/>
<path d="M346.712,379.271H165.287c-4.465,0-8.084,3.618-8.084,8.084s3.62,8.084,8.084,8.084h181.425  c4.466,0,8.084-3.618,8.084-8.084S351.178,379.271,346.712,379.271z"/>
<path d="M346.712,152.098H165.287c-4.465,0-8.084,3.618-8.084,8.084c0,4.466,3.62,8.084,8.084,8.084h181.425  c4.466,0,8.084-3.618,8.084-8.084C354.796,155.717,351.178,152.098,346.712,152.098z"/>
<path d="M346.712,415.863H165.287c-4.465,0-8.084,3.618-8.084,8.084c0,4.466,3.62,8.084,8.084,8.084h181.425  c4.466,0,8.084-3.618,8.084-8.084C354.796,419.481,351.178,415.863,346.712,415.863z"/>
<path d="M370.273,289.667H141.725c-12.252,0-22.221,9.968-22.221,22.221v36.661v104.848c0,12.254,9.968,22.222,22.221,22.222  h228.547c12.252,0,22.221-9.968,22.221-22.222V348.549v-36.66C392.494,299.635,382.526,289.667,370.273,289.667z M370.273,459.452  H141.725c-3.337,0-6.052-2.716-6.052-6.053v-96.764h26.94c4.465,0,8.084-3.618,8.084-8.084c0-4.466-3.62-8.084-8.084-8.084h-26.94  v-28.577c0-3.338,2.715-6.052,6.052-6.052h228.547c3.338,0,6.052,2.715,6.052,6.052v28.577H190.279  c-4.465,0-8.084,3.618-8.084,8.084c0,4.466,3.62,8.084,8.084,8.084h186.047v96.764C376.326,456.735,373.611,459.452,370.273,459.452  z"/>
<g>
</g>
<g>
</g>
<g>
</g>
<g>
</g>
<g>
</g>
<g>
</g>
<g>
</g>
<g>
</g>
<g>
</g>
<g>
</g>
<g>
</g>
<g>
</g>
<g>
</g>
<g>
</g>
<g>
</g>
</svg>
