<?xml version="1.0" encoding="iso-8859-1"?>
<!-- Generator: Adobe Illustrator 19.0.0, SVG Export Plug-In . SVG Version: 6.00 Build 0)  -->
<svg xmlns="http://www.w3.org/2000/svg" xmlns:xlink="http://www.w3.org/1999/xlink" version="1.1" id="Layer_1" x="0px" y="0px" viewBox="0 0 511.999 511.999" style="enable-background:new 0 0 511.999 511.999;" xml:space="preserve">
<g>
	<polygon style="fill:#D1755D;" points="447.635,115.093 97.88,115.093 97.88,170.776 375.66,170.776  "/>
	<path style="fill:#D1755D;" d="M476.061,385.673h-5.803H225.485H192.48l-71.977,55.682h104.982h244.773h5.803   c15.377,0,27.841-12.465,27.841-27.839C503.903,398.137,491.438,385.673,476.061,385.673z"/>
</g>
<path style="fill:#FFE8A5;" d="M155.883,170.776c-1.06,9.801-9.38,17.458-19.457,17.458H54.664c-10.794,0-19.575-8.783-19.575-19.58  v-51.444c0-10.792,8.781-19.575,19.575-19.575h81.762c10.08,0,18.398,7.657,19.459,17.458h27.057  c-1.111-24.697-21.547-44.45-46.516-44.45H54.664c-25.678,0-46.567,20.891-46.567,46.567v51.444  c0,25.68,20.889,46.571,46.567,46.571h81.762c24.967,0,45.403-19.75,46.516-44.45H155.883z"/>
<polygon style="fill:#E79275;" points="447.635,115.093 97.88,385.673 120.502,441.355 470.258,170.776 "/>
<g>
	<rect x="149.436" y="115.091" style="fill:#C16452;" width="46.065" height="55.682"/>
	<polygon style="fill:#C16452;" points="252.428,379.537 248.672,379.537 187.914,379.537 143.69,435.219 180.248,435.219  "/>
	<path style="fill:#C16452;" d="M125.983,158.162v-29.771c0-7.155,5.801-12.956,12.956-12.956h-22.19   c-7.155,0-12.956,5.801-12.956,12.956v29.771c0,7.155,5.801,12.956,12.956,12.956h22.19   C131.784,171.118,125.983,165.317,125.983,158.162z"/>
	<polygon style="fill:#C16452;" points="329.615,162.678 390.844,162.678 438.387,106.996 401.795,106.996  "/>
</g>
<path d="M230.722,405.416h-0.985c-4.473,0-8.097,3.624-8.097,8.097s3.624,8.097,8.097,8.097h0.985c4.473,0,8.097-3.624,8.097-8.097  S235.195,405.416,230.722,405.416z"/>
<path d="M276.121,405.416h-0.985c-4.473,0-8.097,3.624-8.097,8.097s3.624,8.097,8.097,8.097h0.985c4.473,0,8.097-3.624,8.097-8.097  S280.594,405.416,276.121,405.416z"/>
<path d="M321.518,405.416h-0.98c-4.473,0-8.097,3.624-8.097,8.097s3.624,8.097,8.097,8.097h0.98c4.473,0,8.097-3.624,8.097-8.097  S325.991,405.416,321.518,405.416z"/>
<path d="M366.918,405.416h-0.985c-4.473,0-8.097,3.624-8.097,8.097s3.624,8.097,8.097,8.097h0.985c4.473,0,8.097-3.624,8.097-8.097  S371.39,405.416,366.918,405.416z"/>
<path d="M412.317,405.416h-0.985c-4.473,0-8.097,3.624-8.097,8.097s3.624,8.097,8.097,8.097h0.985c4.473,0,8.097-3.624,8.097-8.097  S416.789,405.416,412.317,405.416z"/>
<path d="M476.061,377.575H216.178L475.213,177.18c2.873-2.223,3.915-6.087,2.547-9.452l-22.622-55.682  c-0.082-0.202-0.181-0.394-0.28-0.587c-0.033-0.067-0.062-0.137-0.096-0.203c-0.178-0.33-0.379-0.645-0.599-0.945  c-0.059-0.081-0.125-0.155-0.188-0.234c-0.174-0.22-0.358-0.431-0.553-0.631c-0.082-0.083-0.163-0.166-0.247-0.246  c-0.225-0.211-0.461-0.408-0.708-0.593c-0.052-0.039-0.1-0.083-0.153-0.121c-0.3-0.213-0.618-0.403-0.946-0.573  c-0.091-0.048-0.184-0.085-0.276-0.13c-0.25-0.119-0.507-0.225-0.771-0.317c-0.112-0.04-0.223-0.078-0.338-0.112  c-0.08-0.025-0.158-0.057-0.239-0.08c-0.22-0.059-0.444-0.098-0.666-0.138c-0.069-0.013-0.135-0.031-0.204-0.042  c-0.377-0.058-0.755-0.085-1.133-0.09c-0.035,0-0.068-0.009-0.104-0.009H195.499h-5.376c-4.784-25.466-27.033-44.45-53.698-44.45  H54.664C24.522,62.546,0,87.069,0,117.211v51.444c0,30.144,24.522,54.669,54.664,54.669h81.762c26.663,0,48.918-18.984,53.704-44.45  h5.369h156.461L92.925,379.268c-2.873,2.223-3.915,6.087-2.547,9.452l22.622,55.682c0.08,0.197,0.177,0.382,0.271,0.57  c0.037,0.074,0.068,0.152,0.107,0.225c0.177,0.328,0.377,0.639,0.595,0.937c0.062,0.084,0.131,0.162,0.195,0.244  c0.172,0.217,0.353,0.424,0.545,0.622c0.083,0.085,0.166,0.17,0.253,0.25c0.222,0.209,0.457,0.405,0.702,0.587  c0.054,0.04,0.103,0.085,0.158,0.124c0.3,0.213,0.618,0.402,0.945,0.572c0.091,0.048,0.185,0.086,0.277,0.13  c0.25,0.119,0.506,0.225,0.77,0.317c0.112,0.04,0.225,0.078,0.339,0.113c0.08,0.025,0.158,0.057,0.239,0.08  c0.177,0.048,0.356,0.071,0.534,0.107c0.132,0.026,0.261,0.059,0.395,0.079c0.392,0.057,0.784,0.093,1.177,0.093H476.06  c19.816,0,35.939-16.122,35.939-35.937C512,393.698,495.877,377.575,476.061,377.575z M187.401,162.678h-4.46h-25.41v-39.488h25.41  c0.006-0.001,0.015-0.001,0.022,0h4.438V162.678z M105.977,151.032h18.664c4.473,0,8.097-3.624,8.097-8.097  c0-4.473-3.624-8.097-8.097-8.097h-18.664v-11.646h35.359v39.488h-35.359C105.977,162.678,105.977,151.032,105.977,151.032z   M97.88,106.996c-4.473,0-8.097,3.624-8.097,8.097v19.744H43.186v-17.627c0-6.329,5.149-11.478,11.478-11.478h81.762  c1.883,0,3.663,0.457,5.239,1.263C141.664,106.996,97.88,106.996,97.88,106.996z M43.186,151.032h46.596v19.744  c0,4.472,3.624,8.097,8.097,8.097h43.782c-1.574,0.807-3.354,1.263-5.237,1.263H54.664c-6.329,0-11.478-5.151-11.478-11.482V151.032  z M136.425,207.128H54.664c-21.212,0-38.469-17.259-38.469-38.474v-51.444c0-21.211,17.257-38.469,38.469-38.469h81.762  c17.696,0,32.635,11.876,37.104,28.255h-11.373c-4.08-10.325-14.121-17.458-25.73-17.458H54.664  c-15.259,0-27.673,12.414-27.673,27.673v17.854c-3.564,0.849-6.217,4.045-6.217,7.869c0,3.824,2.653,7.02,6.217,7.869v17.851  c0,15.261,12.414,27.677,27.673,27.677h81.762c11.609,0,21.649-7.133,25.728-17.458h11.374  C169.059,195.253,154.118,207.128,136.425,207.128z M203.596,162.678v-39.488h220.339l-18.32,14.173l-32.723,25.316H203.596V162.678  z M380.606,177.186c0.003-0.002,0.007-0.003,0.01-0.006l62.823-48.602l0.711-0.551l16.293,40.105l-336.456,260.29l-16.293-40.105  L380.606,177.186z M476.061,433.258H144.203l51.042-39.488H476.06c10.887,0,19.744,8.858,19.744,19.746  C495.805,424.401,486.949,433.258,476.061,433.258z"/>
<g>
</g>
<g>
</g>
<g>
</g>
<g>
</g>
<g>
</g>
<g>
</g>
<g>
</g>
<g>
</g>
<g>
</g>
<g>
</g>
<g>
</g>
<g>
</g>
<g>
</g>
<g>
</g>
<g>
</g>
</svg>
