<?xml version="1.0" encoding="iso-8859-1"?>
<!-- Generator: Adobe Illustrator 19.0.0, SVG Export Plug-In . SVG Version: 6.00 Build 0)  -->
<svg xmlns="http://www.w3.org/2000/svg" xmlns:xlink="http://www.w3.org/1999/xlink" version="1.1" id="Layer_1" x="0px" y="0px" viewBox="0 0 512.001 512.001" style="enable-background:new 0 0 512.001 512.001;" xml:space="preserve">
<g>
	<path style="fill:#527A84;" d="M256.001,362.211c59.352,0,116.314-6.443,165.727-18.473c-8.421-59.5-38.858-242.88-92.779-230.437   c-33.503,7.733-52.572,14.452-72.948,14.396c-20.376,0.057-39.445-6.663-72.948-14.396   c-53.922-12.443-84.359,170.937-92.779,230.437C139.687,355.769,196.649,362.211,256.001,362.211z"/>
	<path style="fill:#527A84;" d="M120.626,387.929c-36.851-6.497-70.944-15.68-100.718-27.291   c-9.543-3.722-14.262-14.475-10.538-24.017c3.72-9.544,14.47-14.261,24.017-10.54C93.127,349.382,172.187,362.213,256,362.213   s162.873-12.83,222.614-36.132c9.543-3.719,20.296,0.998,24.017,10.54c3.723,9.542-0.996,20.295-10.538,24.017   c-63.936,24.934-147.78,38.666-236.093,38.666c-37.374,0-73.951-2.459-108.556-7.188"/>
</g>
<g>
	<path style="fill:#3C6268;" d="M495.93,335.359c-1.971,3.608-5.12,6.566-9.163,8.187c-62.163,24.934-143.682,38.666-229.546,38.666   c-36.337,0-71.9-2.459-105.545-7.188l-26.076-4.187c-35.828-6.497-68.975-15.68-97.925-27.292   c-4.043-1.621-7.192-4.579-9.163-8.188c-0.402,0.74-0.776,1.504-1.085,2.316c-3.619,9.542,0.968,20.295,10.247,24.017   C56.624,373.3,89.772,382.483,125.6,388.98l26.076,4.187c33.645,4.728,69.208,7.188,105.545,7.188   c85.864,0,167.384-13.732,229.546-38.666c9.279-3.722,13.865-14.475,10.246-24.017C496.706,336.862,496.332,336.098,495.93,335.359   z"/>
	<path style="fill:#3C6268;" d="M177.569,232.024c0-43.813,17.054-83.638,44.878-113.219c-9.054-2.252-19.237-4.902-31.298-7.686   c-53.922-12.442-84.359,170.937-92.779,230.438c42.048,10.238,89.57,16.411,139.371,18.029   C200.993,329.27,177.569,283.383,177.569,232.024z"/>
</g>
<path style="fill:#49BAED;" d="M339.843,303.022c-27,2.916-55.141,4.423-83.843,4.423c-55.952,0-109.775-5.726-157.158-16.46  c-3.893,21.222-6.747,39.886-8.568,52.754c49.413,12.03,106.375,18.473,165.727,18.473s116.313-6.443,165.726-18.474  c-1.821-12.868-4.672-31.532-8.568-52.754c-14.852,3.365-30.338,6.238-46.324,8.597"/>
<path style="fill:#37B1DB;" d="M193.134,302.112c-30.282-2.734-59.28-7.21-86.196-13.308c-3.893,21.222-6.747,39.886-8.568,52.754  c42.048,10.238,89.57,16.411,139.371,18.029C218.921,344.061,203.608,324.448,193.134,302.112z"/>
<path d="M510.165,333.683c-5.333-13.679-20.807-20.472-34.488-15.136c-14.631,5.706-30.451,10.773-47.234,15.169  c-4.678-31.473-13.534-83.246-26.781-129.316c-19.309-67.147-41.391-99.788-67.508-99.788c-2.329,0-4.693,0.273-7.024,0.811  c-9.11,2.102-17.239,4.151-24.412,5.956c-18.969,4.779-32.675,8.231-46.461,8.231h-0.514c-13.788,0.001-27.49-3.451-46.457-8.23  c-7.174-1.807-15.303-3.855-24.415-5.958c-2.331-0.538-4.694-0.811-7.024-0.811c-26.12,0-48.202,32.639-67.51,99.787  c-13.244,46.062-22.101,97.84-26.779,129.317c-16.785-4.395-32.605-9.463-47.236-15.17c-13.686-5.334-29.154,1.459-34.486,15.136  c-2.585,6.626-2.435,13.863,0.424,20.378c2.858,6.514,8.082,11.525,14.712,14.11c30.102,11.74,64.504,21.066,102.252,27.721  c4.395,0.779,8.591-2.162,9.366-6.559c0.776-4.398-2.16-8.591-6.559-9.366c-36.7-6.471-70.07-15.508-99.183-26.862  c-2.604-1.014-4.655-2.984-5.777-5.542c-1.123-2.558-1.183-5.401-0.165-8.006c2.093-5.371,8.174-8.04,13.544-5.945  c17.726,6.914,37.124,12.912,57.805,17.95c0.037,0.01,0.072,0.023,0.109,0.032c0.247,0.06,0.501,0.115,0.749,0.176  c2.741,0.663,5.5,1.31,8.285,1.939c0.227,0.052,0.453,0.105,0.68,0.155c3.101,0.696,6.228,1.371,9.38,2.025  c0.11,0.023,0.221,0.044,0.33,0.067c3.08,0.637,6.187,1.252,9.316,1.848c0.167,0.031,0.333,0.064,0.499,0.096  c29.585,5.613,61.235,9.39,94.038,11.185c0.141,0.008,0.284,0.015,0.426,0.023c3.442,0.187,6.895,0.353,10.363,0.496  c0.168,0.007,0.336,0.015,0.505,0.022c3.498,0.141,7.006,0.262,10.526,0.359c0.424,0.012,0.85,0.019,1.273,0.03  c2.907,0.075,5.821,0.134,8.74,0.179c0.838,0.013,1.674,0.026,2.513,0.037c3.331,0.041,6.668,0.068,10.015,0.068  c3.347,0,6.684-0.028,10.015-0.068c0.839-0.011,1.675-0.024,2.513-0.037c2.921-0.044,5.834-0.104,8.74-0.179  c0.425-0.011,0.85-0.019,1.273-0.03c3.52-0.097,7.029-0.217,10.526-0.359c0.168-0.006,0.336-0.015,0.505-0.022  c3.466-0.142,6.919-0.309,10.361-0.495c0.142-0.008,0.285-0.015,0.427-0.023c32.807-1.795,64.461-5.573,94.048-11.186  c0.158-0.03,0.316-0.06,0.474-0.091c3.142-0.598,6.262-1.216,9.356-1.855c0.098-0.02,0.197-0.04,0.295-0.06  c3.161-0.655,6.296-1.332,9.405-2.03c0.212-0.047,0.423-0.097,0.635-0.146c2.802-0.633,5.58-1.284,8.338-1.951  c0.24-0.058,0.487-0.112,0.728-0.17c0.036-0.009,0.07-0.022,0.106-0.031c20.681-5.038,40.079-11.036,57.806-17.95  c5.371-2.096,11.454,0.571,13.547,5.946c1.016,2.603,0.957,5.445-0.166,8.004c-1.122,2.558-3.174,4.527-5.776,5.542  c-63.023,24.578-145.825,38.114-233.156,38.114c-36.762,0-72.918-2.393-107.462-7.113c-4.423-0.607-8.502,2.491-9.106,6.916  c-0.606,4.424,2.493,8.502,6.916,9.106c35.269,4.819,72.161,7.262,109.651,7.262c89.292,0,174.18-13.928,239.031-39.219  c6.627-2.584,11.851-7.596,14.71-14.11C512.6,347.546,512.751,340.309,510.165,333.683z M125.879,208.867  c16.097-55.979,35.038-88.083,51.968-88.083c1.106,0,2.247,0.133,3.387,0.396c8.955,2.067,17.003,4.095,24.102,5.883  c20.096,5.063,34.614,8.721,50.407,8.72h0.514c15.792,0,30.314-3.658,50.411-8.721c7.099-1.789,15.146-3.815,24.099-5.882  c1.141-0.263,2.28-0.396,3.387-0.396c16.928,0,35.869,32.105,51.966,88.085c7.182,24.979,13.056,51.72,17.654,75.889  c-12.302,2.608-25.084,4.901-38.118,6.823c-4.418,0.651-7.471,4.762-6.819,9.18s4.764,7.474,9.18,6.819  c13.209-1.949,26.179-4.265,38.673-6.903c2.517,14.252,4.516,27.002,5.977,36.893c-29.062,6.655-60.633,11.368-93.478,14.024  c-1.491,0.121-2.985,0.234-4.481,0.345c-5.396,0.404-10.821,0.758-16.276,1.05c-7.003,0.375-14.051,0.661-21.133,0.85  c-0.59,0.015-1.179,0.028-1.77,0.042c-2.559,0.063-5.123,0.111-7.69,0.149c-0.809,0.012-1.617,0.026-2.427,0.035  c-3.132,0.037-6.268,0.06-9.41,0.06c-3.142,0-6.278-0.024-9.41-0.06c-0.81-0.01-1.618-0.023-2.427-0.035  c-2.567-0.038-5.132-0.086-7.69-0.149c-0.59-0.014-1.181-0.027-1.77-0.042c-7.111-0.19-14.185-0.477-21.217-0.854  c-5.059-0.272-10.089-0.598-15.096-0.966c-2.16-0.158-4.318-0.323-6.467-0.5c-32.525-2.668-63.789-7.354-92.587-13.948  c1.458-9.877,3.456-22.617,5.978-36.893c46.093,9.728,97.984,14.853,150.686,14.853c28.752,0,57.252-1.504,84.711-4.47  c4.44-0.48,7.65-4.469,7.17-8.908c-0.48-4.439-4.463-7.65-8.908-7.17c-26.884,2.904-54.8,4.377-82.974,4.377  c-51.767,0-102.66-5.045-147.772-14.604C112.826,260.584,118.698,233.842,125.879,208.867z"/>
<g>
</g>
<g>
</g>
<g>
</g>
<g>
</g>
<g>
</g>
<g>
</g>
<g>
</g>
<g>
</g>
<g>
</g>
<g>
</g>
<g>
</g>
<g>
</g>
<g>
</g>
<g>
</g>
<g>
</g>
</svg>
