<?xml version="1.0" encoding="iso-8859-1"?>
<!-- Generator: Adobe Illustrator 19.0.0, SVG Export Plug-In . SVG Version: 6.00 Build 0)  -->
<svg xmlns="http://www.w3.org/2000/svg" xmlns:xlink="http://www.w3.org/1999/xlink" version="1.1" id="Layer_1" x="0px" y="0px" viewBox="0 0 512 512" style="enable-background:new 0 0 512 512;" xml:space="preserve">
<path style="fill:#FFE8A5;" d="M64.161,387.83h383.68c0.703,0,1.397,0.044,2.085,0.106v-86.437  c0-107.101-86.822-193.924-193.925-193.924S62.076,194.396,62.076,301.497v86.437C62.765,387.874,63.458,387.83,64.161,387.83z"/>
<rect x="62.099" y="299.957" style="fill:#E03C2F;" width="385.746" height="87.87"/>
<path style="fill:#FF633E;" d="M344.982,250.886l-24.21-19.916l-64.772,53.125l-64.382-53.124l-64.577,53.124l-54.776-44.794  c-6.452,19.064-10.005,39.455-10.171,60.657l64.947,53.109l64.577-53.126l64.382,53.126l64.772-53.126l64.577,53.126l64.557-53.109  c-0.165-21.185-3.713-41.567-10.157-60.616l-54.4,44.754l-20.207-16.623"/>
<polygon style="fill:#FFE8A5;" points="243.024,387.83 191.621,345.412 140.059,387.83 "/>
<path style="fill:#F2D17E;" d="M147.141,297.863c0-84.303,50.721-156.75,123.307-188.521c-2.446-0.091-4.897-0.153-7.364-0.153  c-107.103,0-193.925,86.823-193.925,193.924v86.437c0.689-0.061,1.382-0.106,2.086-0.106h75.898v-91.582H147.141z"/>
<path style="fill:#CC2F27;" d="M69.178,301.574c-0.004,0.514-0.02,1.024-0.02,1.539v43.958l0.02-0.025l6.735,42.4h71.228v-87.871  H69.178V301.574z"/>
<path style="fill:#F2D17E;" d="M69.178,347.047h-0.02v42.505c0.689-0.061,1.382-0.106,2.086-0.106h49.787L69.178,347.047z"/>
<path style="fill:#E5432E;" d="M134.126,285.712l-54.776-44.794c-0.071,0.212-0.139,0.427-0.209,0.641  c-0.378,1.13-0.747,2.264-1.104,3.401c-0.166,0.528-0.326,1.058-0.486,1.588c-0.262,0.858-0.517,1.717-0.767,2.579  c-0.168,0.585-0.336,1.172-0.5,1.759c-0.232,0.832-0.456,1.669-0.678,2.505c-0.155,0.586-0.313,1.171-0.462,1.759  c-0.262,1.027-0.511,2.06-0.755,3.094c-0.217,0.913-0.424,1.828-0.626,2.745c-0.167,0.755-0.335,1.508-0.494,2.266  c-0.162,0.78-0.316,1.562-0.471,2.345c-0.116,0.605-0.234,1.21-0.347,1.818c-0.157,0.847-0.31,1.697-0.457,2.547  c-0.085,0.493-0.164,0.987-0.246,1.481c-0.552,3.361-1.02,6.75-1.396,10.168c-0.016,0.14-0.033,0.28-0.049,0.421  c-0.122,1.136-0.233,2.274-0.336,3.416c-0.022,0.237-0.042,0.473-0.063,0.71c-0.102,1.177-0.196,2.356-0.277,3.538  c-0.003,0.045-0.005,0.092-0.009,0.137c-0.261,3.884-0.411,7.795-0.441,11.738l47.114,38.526c0,0,14.671,12.252,30.849,3.225  v-45.463c0-8.12,0.475-16.129,1.39-24.004L134.126,285.712z"/>
<g>
	<path style="fill:#FFE8A5;" d="M62.095,345.43h-0.019v42.505c0.689-0.061,1.382-0.106,2.085-0.106h49.788L62.095,345.43z"/>
	<path style="fill:#FFE8A5;" d="M449.907,345.43l-51.541,42.4h49.475c0.703,0,1.397,0.044,2.085,0.106v-42.501L449.907,345.43z"/>
	<polygon style="fill:#FFE8A5;" points="372.334,387.83 320.773,345.412 269.057,387.83  "/>
</g>
<g>
	<circle style="fill:#FF633E;" cx="256.001" cy="57.868" r="49.788"/>
	<path style="fill:#FF633E;" d="M114.66,503.916H64.161c-13.038,0-23.61-10.571-23.61-23.61V411.44   c0-13.04,10.573-23.61,23.61-23.61h383.68c13.038,0,23.61,10.571,23.61,23.61v68.866c0,13.04-10.573,23.61-23.61,23.61H141.606"/>
</g>
<path style="fill:#E5432E;" d="M256.481,59.485c0-19.758,11.511-36.828,28.192-44.87c-6.531-3.15-13.854-4.914-21.59-4.914  c-27.497,0-49.785,22.291-49.785,49.784c0,27.495,22.288,49.786,49.785,49.786c7.736,0,15.059-1.765,21.59-4.914  C267.992,96.314,256.481,79.244,256.481,59.485z"/>
<path style="fill:#F95838;" d="M145.564,480.845v-68.866c0-13.04,10.573-23.61,23.61-23.61H71.243  c-13.038,0-23.61,10.571-23.61,23.61v68.866c0,13.04,10.573,23.61,23.61,23.61h50.499h26.946h20.486  C156.137,504.455,145.564,493.884,145.564,480.845z"/>
<path d="M283.672,467.656v-43.476c0-4.466-3.618-8.084-8.084-8.084s-8.084,3.618-8.084,8.084v43.476  c0,4.466,3.618,8.084,8.084,8.084S283.672,472.122,283.672,467.656z"/>
<path d="M322.845,467.656v-43.476c0-4.466-3.618-8.084-8.084-8.084s-8.084,3.618-8.084,8.084v43.476  c0,4.466,3.618,8.084,8.084,8.084S322.845,472.122,322.845,467.656z"/>
<path d="M362.017,467.656v-43.476c0-4.466-3.618-8.084-8.084-8.084s-8.084,3.618-8.084,8.084v43.476  c0,4.466,3.618,8.084,8.084,8.084C358.398,475.741,362.017,472.122,362.017,467.656z"/>
<path d="M440.363,467.656v-43.476c0-4.466-3.618-8.084-8.084-8.084s-8.084,3.618-8.084,8.084v43.476  c0,4.466,3.618,8.084,8.084,8.084C436.745,475.741,440.363,472.122,440.363,467.656z"/>
<path d="M401.19,467.656v-43.476c0-4.466-3.62-8.084-8.084-8.084c-4.466,0-8.084,3.618-8.084,8.084v43.476  c0,4.466,3.618,8.084,8.084,8.084C397.572,475.741,401.19,472.122,401.19,467.656z"/>
<path d="M458.01,381.428v-35.994v-43.937c0-0.534-0.016-1.063-0.021-1.595c0-0.002,0-0.004,0-0.006c0-0.028-0.001-0.056-0.001-0.084  c-0.031-3.839-0.172-7.653-0.416-11.439c-0.019-0.299-0.037-0.598-0.057-0.897c-0.072-1.048-0.153-2.092-0.241-3.136  c-0.042-0.507-0.089-1.013-0.136-1.519c-0.086-0.932-0.171-1.864-0.271-2.793c-0.091-0.855-0.193-1.706-0.293-2.559  c-0.098-0.824-0.195-1.646-0.303-2.466c-0.168-1.288-0.348-2.573-0.541-3.856c-0.056-0.366-0.115-0.732-0.172-1.098  c-0.204-1.307-0.42-2.613-0.65-3.915c-0.038-0.212-0.074-0.425-0.113-0.636c-1.752-9.753-4.211-19.357-7.387-28.747  c-0.08-0.235-0.179-0.459-0.278-0.683c-23.418-68.219-82.395-120.057-154.697-133.28c13.068-10.619,21.438-26.807,21.438-44.92  C313.869,25.959,287.91,0,256.001,0s-57.869,25.959-57.869,57.867c0,18.112,8.37,34.301,21.438,44.92  c-72.283,13.219-131.248,65.034-154.679,133.228c-0.101,0.227-0.203,0.456-0.283,0.695c-3.183,9.405-5.647,19.023-7.402,28.793  c-0.038,0.207-0.073,0.414-0.11,0.621c-0.231,1.31-0.448,2.621-0.654,3.935c-0.056,0.359-0.115,0.718-0.17,1.078  c-0.196,1.305-0.379,2.613-0.551,3.924c-0.105,0.793-0.197,1.59-0.293,2.386c-0.101,0.86-0.205,1.719-0.296,2.582  c-0.098,0.923-0.183,1.849-0.268,2.775c-0.047,0.512-0.094,1.025-0.137,1.538c-0.088,1.039-0.168,2.081-0.24,3.125  c-0.02,0.302-0.038,0.605-0.057,0.906c-0.244,3.787-0.385,7.6-0.416,11.44c0,0.028-0.001,0.056-0.001,0.084c0,0.002,0,0.004,0,0.006  c-0.004,0.532-0.02,1.062-0.02,1.595v43.933v35.998c-12.501,4.248-21.526,16.092-21.526,30.012v68.866  C32.466,497.783,46.685,512,64.161,512h50.499c4.466,0,8.084-3.618,8.084-8.084s-3.618-8.084-8.084-8.084H64.161  c-8.561,0-15.526-6.965-15.526-15.526V411.44c0-8.016,6.108-14.632,13.915-15.442c0.081-0.004,0.161-0.003,0.241-0.011  c0.07-0.006,0.122-0.009,0.188-0.014c0.391-0.03,0.784-0.06,1.182-0.06h49.788h26.111h102.965h26.032h103.276h26.031h49.475  c0.399,0,0.791,0.03,1.182,0.06c0.066,0.005,0.117,0.008,0.188,0.014c0.081,0.008,0.161,0.007,0.241,0.011  c7.806,0.81,13.915,7.426,13.915,15.442v68.866c0,8.561-6.965,15.526-15.526,15.526H141.606c-4.466,0-8.084,3.618-8.084,8.084  s3.618,8.084,8.084,8.084H447.84c17.477,0,31.694-14.217,31.694-31.694V411.44C479.536,397.52,470.512,385.676,458.01,381.428z   M375.231,379.746l-49.323-40.575c-2.98-2.451-7.278-2.453-10.263-0.008l-49.48,40.583h-20.236l-49.164-40.569  c-2.984-2.463-7.294-2.464-10.281-0.008l-49.323,40.575h-20.328L70.16,341.581v-24.586l51.765,42.33  c1.49,1.218,3.303,1.826,5.118,1.826c1.822,0,3.644-0.613,5.136-1.841l59.434-48.894l59.243,48.887  c2.981,2.461,7.287,2.465,10.271,0.015l59.638-48.915l59.448,48.907c2.984,2.454,7.289,2.454,10.271,0l51.357-42.25v24.535  l-46.374,38.15h-20.236V379.746z M214.302,57.867c0-22.993,18.706-41.698,41.699-41.698s41.699,18.706,41.699,41.698  c0,22.289-17.577,40.549-39.599,41.648c-0.701-0.008-1.399-0.027-2.102-0.027c-0.703,0-1.401,0.019-2.102,0.027  C231.879,98.416,214.302,80.157,214.302,57.867z M253.9,115.683c0.698,0.025,1.397,0.053,2.101,0.053s1.402-0.028,2.101-0.053  c78.799,0.878,145.976,51.038,172.09,121.052l-44.844,36.891l-15.071-12.398c-3.447-2.835-8.543-2.341-11.379,1.107  c-2.837,3.448-2.341,8.542,1.107,11.379l20.207,16.623c2.984,2.454,7.289,2.454,10.271,0l45.009-37.028  c1.579,5.876,2.875,11.863,3.876,17.951c0.14,0.857,0.284,1.713,0.412,2.572c0.098,0.651,0.184,1.305,0.275,1.959  c0.156,1.134,0.308,2.268,0.443,3.405c0.058,0.483,0.112,0.966,0.166,1.45c0.153,1.372,0.293,2.748,0.415,4.125  c0.026,0.289,0.053,0.578,0.078,0.868c0.295,3.504,0.497,7.024,0.595,10.557l-56.404,46.403l-59.442-48.901  c-2.98-2.451-7.28-2.453-10.263-0.008l-59.629,48.908l-59.252-48.893c-2.984-2.462-7.294-2.465-10.281-0.008l-59.457,48.914  l-56.779-46.43c0.051-1.826,0.128-3.649,0.233-5.467c0-0.004,0.001-0.01,0.001-0.014c0.097-1.696,0.221-3.387,0.363-5.075  c0.026-0.3,0.053-0.598,0.08-0.898c0.122-1.372,0.262-2.742,0.415-4.11c0.054-0.483,0.108-0.967,0.166-1.449  c0.137-1.143,0.289-2.282,0.446-3.421c0.089-0.647,0.176-1.295,0.273-1.939c0.128-0.863,0.274-1.724,0.415-2.585  c1.005-6.103,2.306-12.105,3.891-17.993l45.396,37.123c2.984,2.44,7.276,2.435,10.254-0.015l59.434-48.892l59.243,48.886  c2.981,2.46,7.287,2.465,10.271,0.015l59.638-48.913l19.081,15.697c3.448,2.836,8.543,2.341,11.379-1.107  c2.837-3.448,2.341-8.542-1.107-11.379l-24.21-19.916c-2.98-2.451-7.28-2.453-10.263-0.008l-59.629,48.906l-59.252-48.891  c-2.984-2.462-7.294-2.465-10.281-0.008l-59.457,48.912l-45.197-36.96C107.96,166.695,175.121,116.562,253.9,115.683z   M70.16,379.746v-17.279l21.131,17.279H70.16z M162.61,379.746l29.002-23.858l28.912,23.858H162.61z M291.661,379.746l29.104-23.871  l29.017,23.871H291.661z M420.918,379.746l20.924-17.214v17.214H420.918z"/>
<path d="M71.639,424.181v43.476c0,4.466,3.618,8.084,8.084,8.084s8.084-3.618,8.084-8.084v-43.476c0-4.466-3.618-8.084-8.084-8.084  C75.258,416.096,71.639,419.716,71.639,424.181z"/>
<path d="M118.896,416.096c-4.465,0-8.084,3.618-8.084,8.084v43.476c0,4.466,3.62,8.084,8.084,8.084c4.466,0,8.084-3.618,8.084-8.084  v-43.476C126.98,419.716,123.361,416.096,118.896,416.096z"/>
<path d="M166.154,467.656v-43.476c0-4.466-3.618-8.084-8.084-8.084s-8.084,3.618-8.084,8.084v43.476  c0,4.466,3.618,8.084,8.084,8.084C162.535,475.741,166.154,472.122,166.154,467.656z"/>
<path d="M205.326,467.656v-43.476c0-4.466-3.618-8.084-8.084-8.084c-4.466,0-8.084,3.618-8.084,8.084v43.476  c0,4.466,3.618,8.084,8.084,8.084C201.708,475.741,205.326,472.122,205.326,467.656z"/>
<path d="M244.499,467.656v-43.476c0-4.466-3.618-8.084-8.084-8.084s-8.084,3.618-8.084,8.084v43.476  c0,4.466,3.618,8.084,8.084,8.084C240.88,475.741,244.499,472.122,244.499,467.656z"/>
<g>
</g>
<g>
</g>
<g>
</g>
<g>
</g>
<g>
</g>
<g>
</g>
<g>
</g>
<g>
</g>
<g>
</g>
<g>
</g>
<g>
</g>
<g>
</g>
<g>
</g>
<g>
</g>
<g>
</g>
</svg>
