<?xml version="1.0" encoding="iso-8859-1"?>
<!-- Generator: Adobe Illustrator 19.0.0, SVG Export Plug-In . SVG Version: 6.00 Build 0)  -->
<svg xmlns="http://www.w3.org/2000/svg" xmlns:xlink="http://www.w3.org/1999/xlink" version="1.1" id="Layer_1" x="0px" y="0px" viewBox="0 0 511.999 511.999" style="enable-background:new 0 0 511.999 511.999;" xml:space="preserve">
<path style="fill:#FF633E;" d="M328.202,437.718l-18.455-19.872l0,0L186.414,285.035c-12.148-13.08-18.898-30.267-18.898-48.118  v-35.205v-98.165V51.686H75.41c-7.812,0-14.144,6.333-14.144,14.143v81.32v133.37c0,17.851,6.751,35.039,18.898,48.118  L221.951,481.32c13.933,15.005,32.853,22.597,51.834,22.595c17.219-0.001,34.488-6.255,48.101-18.897  c10.642-9.882,17.548-22.28,20.669-35.423C337.384,446.362,332.55,442.402,328.202,437.718z"/>
<g>
	<path style="fill:#FF8D40;" d="M111.255,295.303c0-27.608-22.38-49.987-49.987-49.987h-0.001v35.204   c0,17.851,6.751,35.039,18.898,48.118l8.103,8.724C102.09,328.47,111.255,312.962,111.255,295.303z"/>
	<path style="fill:#FF8D40;" d="M328.202,437.718l-18.455-19.872l0,0l-9.847-10.603c-4.71,11.697-11.999,22.571-21.852,31.722   c-17.045,15.83-38.666,23.66-60.226,23.66c-4.796,0.001-9.586-0.404-14.325-1.177l18.455,19.872   c13.933,15.005,32.853,22.597,51.834,22.595c17.219-0.001,34.488-6.255,48.101-18.897c10.642-9.882,17.548-22.28,20.669-35.423   C337.384,446.362,332.55,442.402,328.202,437.718z"/>
</g>
<path style="fill:#E5432E;" d="M302.745,492.059c-18.981,0.002-37.901-7.589-51.834-22.595L109.124,316.781  c-12.148-13.079-18.898-30.267-18.898-48.118v-133.37V53.972c0-1.959,0.399-3.824,1.119-5.52h-9.13  c-7.81,0-14.143,6.333-14.143,14.143v81.32v133.37c0,17.851,6.751,35.039,18.898,48.118l141.787,152.683  c13.933,15.005,32.853,22.597,51.834,22.595c12.575-0.001,25.173-3.352,36.358-10.077  C312.261,491.563,307.503,492.059,302.745,492.059z"/>
<g>
	<path style="fill:#F96A32;" d="M109.124,316.781c-12.148-13.079-18.898-30.267-18.898-48.118v-21.405   c-6.678-3.308-14.196-5.176-22.153-5.176h-0.001v35.204c0,17.851,6.751,35.039,18.898,48.118l8.103,8.724   c6.272-4.035,11.57-9.442,15.503-15.784L109.124,316.781z"/>
	<path style="fill:#F96A32;" d="M302.745,492.059c-18.981,0.002-37.901-7.589-51.834-22.595l-10.65-11.468   c-5.171,0.924-10.404,1.395-15.634,1.395c-4.796,0.001-9.587-0.404-14.325-1.177l18.455,19.872   c13.933,15.005,32.853,22.597,51.834,22.595c12.575-0.001,25.173-3.352,36.358-10.077   C312.261,491.563,307.503,492.059,302.745,492.059z"/>
</g>
<path style="fill:#FF633E;" d="M344.85,247.813l-35.906-38.665V20.076c-1.039-6.788-6.886-11.992-13.963-11.992h-113.32  c-7.812,0-14.144,6.332-14.144,14.142v81.321v133.37c0,17.851,6.751,35.038,18.898,48.118l141.787,152.682  c13.933,15.006,32.853,22.598,51.834,22.596c17.219-0.002,34.488-6.255,48.101-18.897c28.617-26.574,30.274-71.318,3.697-99.935  l-69.2-74.519"/>
<g>
	<path style="fill:#FF8D40;" d="M431.834,341.482l-19.871-21.398c3.183,27.097-6.141,55.291-27.664,75.278   c-17.045,15.83-38.666,23.66-60.226,23.661c-4.796,0-9.587-0.405-14.325-1.177l18.455,19.872   c13.933,15.006,32.853,22.598,51.834,22.596c17.219-0.002,34.488-6.255,48.101-18.897   C456.753,414.842,458.41,370.098,431.834,341.482z"/>
	<path style="fill:#FF8D40;" d="M217.505,251.701c0-27.608-22.38-49.988-49.987-49.988h-0.001v35.205   c0,17.851,6.751,35.038,18.898,48.118l8.103,8.724C208.341,284.867,217.505,269.361,217.505,251.701z"/>
</g>
<path style="fill:#F77552;" d="M431.834,341.482l-69.2-74.519l-17.783-19.15l-35.906-38.665V20.076  c-1.04-6.788-6.887-11.992-13.964-11.992h-98.404c-0.056,0.506-0.094,1.015-0.094,1.537v81.321v133.37  c0,17.851,6.751,35.038,18.898,48.118l141.787,152.682c13.933,15.006,32.853,22.598,51.834,22.596  c4.362-0.001,8.724-0.437,13.033-1.245c2.1-1.554,4.143-3.226,6.102-5.047C456.753,414.842,458.41,370.098,431.834,341.482z"/>
<g>
	<path style="fill:#FFA143;" d="M438.645,337.929l-19.87-21.397c3.183,27.097-6.141,55.29-27.664,75.277   c-12.817,11.904-28.225,19.281-44.247,22.21l10.304,11.094c13.933,15.006,32.853,22.598,51.834,22.596   c5.128-0.001,10.258-0.568,15.296-1.683c1.866-1.168,3.691-2.431,5.467-3.791c0.086-0.067,0.17-0.139,0.257-0.206   c0.797-0.614,1.587-1.243,2.362-1.897c0.868-0.733,1.724-1.489,2.564-2.269C463.566,411.288,465.222,366.546,438.645,337.929z"/>
	<path style="fill:#FFA143;" d="M196.483,203.335v20.978c0,17.851,6.751,35.038,18.898,48.118l1.608,1.731   c4.637-7.579,7.329-16.477,7.329-26.015C224.317,228.496,212.973,211.503,196.483,203.335z"/>
</g>
<path d="M437.758,335.981l-69.2-74.519c-3.04-3.272-8.152-3.462-11.426-0.424c-3.271,3.039-3.461,8.153-0.424,11.426l47.481,51.13  c2.087,24.588-7.294,49.037-25.393,65.844c-14.929,13.863-34.363,21.499-54.726,21.5c-3.402,0-6.871-0.238-10.347-0.69  L206.459,294.741c12.104-10.92,19.13-26.418,19.13-43.039c0-29.277-21.781-53.55-49.988-57.498V51.686v-29.46  c0-3.34,2.718-6.058,6.06-6.058h13.129v77.785c0,4.466,3.62,8.084,8.084,8.084c4.465,0,8.084-3.618,8.084-8.084V16.168h19.19v77.785  c0,4.466,3.62,8.084,8.084,8.084c4.465,0,8.084-3.618,8.084-8.084V16.168h19.189v77.785c0,4.466,3.618,8.084,8.084,8.084  c4.466,0,8.084-3.618,8.084-8.084V16.168h13.309c2.794,0,5.24,1.969,5.88,4.654v188.325c0,2.04,0.772,4.005,2.16,5.502  l35.906,38.665c3.04,3.272,8.152,3.461,11.426,0.424c3.271-3.037,3.461-8.153,0.424-11.426l-33.746-36.339V20.076  c0-0.41-0.031-0.819-0.094-1.224C315.261,7.928,306.029,0,294.981,0h-113.32c-12.257,0-22.228,9.971-22.228,22.226v21.376H75.41  c-12.257,0-22.228,9.972-22.228,22.227v179.487v35.204c0,19.956,7.478,38.998,21.059,53.619l141.786,152.683  c14.857,16,35.905,25.176,57.749,25.177h0.009c19.946-0.001,38.982-7.48,53.603-21.057c8.932-8.294,15.728-18.42,20.004-29.667  c9.916,4.512,20.749,6.983,31.813,7.1c0.275,0.003,0.549,0.022,0.824,0.022h0.001c0.002,0,0.005,0,0.009,0  c19.946-0.002,38.982-7.481,53.6-21.057c15.424-14.323,24.345-33.794,25.124-54.827C459.54,371.481,452.08,351.403,437.758,335.981z   M175.602,210.579c19.251,3.778,33.819,20.78,33.819,41.122c0,12.062-5.117,23.318-13.949,31.207l-3.133-3.374  c-10.793-11.622-16.738-26.757-16.738-42.617L175.602,210.579z M75.41,59.77h13.129v77.785c0,4.466,3.62,8.084,8.084,8.084  s8.084-3.618,8.084-8.084V59.77h19.19v77.785c0,4.466,3.62,8.084,8.084,8.084c4.465,0,8.084-3.618,8.084-8.084V59.77h19.368v141.943  v35.205c0,2.494,0.116,4.974,0.348,7.433c1.617,17.213,8.828,33.391,20.711,46.186l109.865,118.308  c-4.345,9.108-10.312,17.236-17.809,24.198c-14.929,13.863-34.363,21.499-54.744,21.499c-3.395,0-6.859-0.237-10.328-0.689  L100.208,338.343c12.104-10.919,19.13-26.417,19.13-43.039c0-29.277-21.782-53.549-49.988-57.497V65.829  C69.35,62.489,72.069,59.77,75.41,59.77z M69.35,280.52l0.001-26.338c19.251,3.777,33.819,20.78,33.819,41.121  c0,12.061-5.117,23.319-13.948,31.208l-3.135-3.375C75.294,311.516,69.35,296.381,69.35,280.52z M316.385,479.096  c-10.168,9.441-23.022,15.174-36.696,16.459c-1.953,0.183-3.924,0.277-5.905,0.277l-0.006,7.065v-7.066  c-17.364-0.001-34.094-7.295-45.902-20.011l-4.873-5.248c22.557-1.199,43.89-10.212,60.547-25.682  c7.434-6.904,13.627-14.759,18.5-23.452l18.117,19.508l2.112,2.273c0.005,0.005,0.011,0.011,0.016,0.016  c0.891,0.959,1.808,1.892,2.743,2.804c0.189,0.184,0.386,0.359,0.577,0.541c0.787,0.752,1.585,1.492,2.4,2.21  c0.137,0.12,0.277,0.235,0.414,0.354c0.914,0.793,1.845,1.566,2.793,2.315c0.027,0.022,0.054,0.042,0.082,0.064  c0.627,0.495,1.25,0.995,1.892,1.47C329.894,462.941,324.15,471.884,316.385,479.096z M442.604,391.917  c-0.193,5.223-1.019,10.327-2.437,15.221c-3.119,10.768-9.105,20.529-17.532,28.354c-8.714,8.094-19.403,13.46-30.89,15.638  c-3.829,0.727-7.747,1.098-11.71,1.098c-0.003,0-0.003,0-0.007,0c-13.017-0.001-25.678-4.1-36.175-11.51  c-0.427-0.302-0.839-0.625-1.259-0.937c-0.232-0.172-0.465-0.342-0.694-0.517c-0.323-0.249-0.649-0.493-0.967-0.748  c-0.527-0.42-1.043-0.854-1.558-1.291c-0.516-0.442-1.026-0.894-1.53-1.353c-0.374-0.341-0.751-0.679-1.118-1.029  c-0.888-0.852-1.762-1.721-2.603-2.627l-4.873-5.247c22.558-1.2,43.89-10.214,60.546-25.683  c17.173-15.947,27.814-37.617,30.291-60.57l5.82,6.267C437.293,359.241,443.223,375.199,442.604,391.917z"/>
<g>
</g>
<g>
</g>
<g>
</g>
<g>
</g>
<g>
</g>
<g>
</g>
<g>
</g>
<g>
</g>
<g>
</g>
<g>
</g>
<g>
</g>
<g>
</g>
<g>
</g>
<g>
</g>
<g>
</g>
</svg>
