<?xml version="1.0" encoding="iso-8859-1"?>
<!-- Generator: Adobe Illustrator 19.0.0, SVG Export Plug-In . SVG Version: 6.00 Build 0)  -->
<svg xmlns="http://www.w3.org/2000/svg" xmlns:xlink="http://www.w3.org/1999/xlink" version="1.1" id="Layer_1" x="0px" y="0px" viewBox="0 0 512.002 512.002" style="enable-background:new 0 0 512.002 512.002;" xml:space="preserve">
<polygon style="fill:#C62A22;" points="111.895,197.765 93.071,228.185 165.09,281.273 "/>
<path style="fill:#F7645C;" d="M489.964,404.893c1.145-0.52,2.302-1.064,3.454-1.601c19.806-10.148,5.498-24.038,5.41-24.124  c-18.136-16.149-52.137-42.372-96.725-58.516c0,0-76.222,78.568-199.351-11.726C79.625,218.632,18.646,172.898,18.646,172.898  S8.093,199.87,8.093,230.358c0,0,96.157,50.424,168.861,117.264c68.961,63.402,161.145,125.724,311.551,57.922  C488.963,405.33,489.45,405.112,489.964,404.893z"/>
<g>
	<path style="fill:#E03C2F;" d="M498.828,379.167c-18.136-16.149-52.137-42.372-96.725-58.516c0,0-45.482,46.851-122.919,26.583   l-0.013,0.013c0,0-0.06-0.023-0.154-0.057c-4.376-1.15-8.848-2.51-13.428-4.111c-21.799-5.665-63.04-11.807-71.682,19.619   c67.078,57.435,156.179,105.242,294.598,42.846c0.458-0.214,0.944-0.432,1.459-0.652c1.145-0.52,2.302-1.064,3.454-1.601   C513.225,393.143,498.915,379.252,498.828,379.167z"/>
	<path style="fill:#E03C2F;" d="M139.441,175.532L81.898,85.2c-5.219-8.193-16.092-10.604-24.287-5.386   c-8.192,5.221-10.603,16.093-5.385,24.285L165.09,281.273c11.833,8.701,24.386,17.916,37.662,27.653   c12.496,9.163,24.5,16.563,35.998,22.504l-85.816-134.718"/>
	<path style="fill:#E03C2F;" d="M83.637,349.944l9.434-67.781c-46.597-31.676-84.979-51.805-84.979-51.805   s34.789,100.741,34.789,204.573h28.925l8.282-59.49"/>
</g>
<g>
	<path style="fill:#CE302C;" d="M71.482,424.481c-0.013-0.463-0.022-0.925-0.033-1.387c0-0.015,0-0.029,0-0.029h-0.002   c-2.872-98.67-34.579-190.492-34.579-190.492c0-16.94,3.259-32.787,6.154-43.533c0.004-0.014,0.122-0.336,0.36-0.832   c-1.559-1.161-3.029-2.256-4.38-3.262c-12.637-9.395-17.531,4.007-17.562,4.095c-2.896,10.745-6.154,26.591-6.154,43.533   c0,0,31.706,91.822,34.579,190.492h0.002c0,0,0,0.015,0,0.029c0.013,0.462,0.022,0.924,0.033,1.387   c0.221,3.568,1.707,12.664,11.107,12.664h9.712h0.126h1.796c1.031-0.176,2.352-0.683,3.655-1.928   C72.455,432.351,71.64,427.023,71.482,424.481z"/>
	<path style="fill:#CE302C;" d="M69.479,92.611c-3.069-4.816-4.352-10.257-4.034-15.553c-1.68,0.454-3.319,1.165-4.862,2.148   c-8.192,5.221-10.603,16.093-5.385,24.285l112.861,177.173c11.834,8.701,24.387,17.916,37.662,27.653   c0.721,0.529,1.435,1.032,2.154,1.548L69.479,92.611z"/>
</g>
<path style="fill:#E03C2F;" d="M41.521,247.31c0,0-7.311-11.998,1.501-58.27c0.004-0.014,0.122-0.336,0.36-0.832  c-1.559-1.16-3.029-2.256-4.38-3.262c-12.637-9.395-17.531,4.007-17.562,4.095c-2.896,10.745-6.154,26.591-6.154,43.533  C15.286,232.574,25.394,237.875,41.521,247.31L41.521,247.31z"/>
<path d="M507.94,377.68c-1.575-2.397-3.094-3.947-3.462-4.308c-0.087-0.084-0.177-0.168-0.269-0.25  c-17.04-15.172-52.605-43.154-99.351-60.08c-0.374-0.136-0.754-0.242-1.136-0.32c-2.251-0.46-4.589,0.069-6.431,1.433  c-0.036,0.027-0.077,0.046-0.112,0.074c-0.212,0.162-0.405,0.351-0.601,0.534c-0.092,0.086-0.192,0.159-0.281,0.25  c-0.284,0.292-28.939,29.211-78.907,29.214c-11.764,0-23.929-1.623-36.156-4.823c-0.019-0.004-0.037-0.01-0.055-0.014  c-0.035-0.01-0.068-0.019-0.103-0.027c-4.264-1.122-8.576-2.442-12.817-3.925c-0.119-0.042-0.242-0.074-0.363-0.11  c-7.767-2.733-15.6-6.096-23.488-10.077l-84.651-132.887c-2.403-3.77-7.407-4.88-11.173-2.478c-3.77,2.401-4.878,7.403-2.478,11.173  l67.161,105.433c-0.16-0.112-0.32-0.224-0.48-0.337c-1.752-1.228-3.504-2.475-5.251-3.757  c-12.818-9.402-24.963-18.318-36.436-26.751l-13.557-21.284l-38.824-60.948c-0.002-0.003-0.005-0.006-0.008-0.01L59.053,99.751  c-2.812-4.417-1.507-10.299,2.906-13.111c4.419-2.814,10.301-1.509,13.114,2.907l57.542,90.333  c2.401,3.771,7.405,4.878,11.173,2.478c3.77-2.401,4.878-7.403,2.478-11.173L88.724,80.851  c-7.609-11.943-23.515-15.468-35.461-7.863c-11.942,7.611-15.468,23.517-7.861,35.458l56.937,89.381L90.814,216.45  c-44.411-32.86-66.946-49.751-67.312-50.027c-2.023-1.516-4.638-2.001-7.07-1.31c-2.432,0.693-4.402,2.481-5.323,4.835  C10.657,171.109,0,198.707,0,230.358c0,0.044,0.009,0.087,0.009,0.132c0.002,0.161,0.022,0.322,0.033,0.482  c0.017,0.229,0.036,0.455,0.072,0.68c0.025,0.158,0.064,0.312,0.098,0.468c0.051,0.228,0.107,0.452,0.176,0.673  c0.022,0.068,0.03,0.138,0.054,0.206c0.343,0.996,34.347,100.733,34.347,201.932c0,4.471,3.622,8.093,8.093,8.093h28.925  c4.038,0,7.459-2.977,8.016-6.977l8.282-59.49c0.615-4.427-2.473-8.516-6.901-9.132c-4.422-0.619-8.516,2.473-9.132,6.901  l-7.31,52.513H50.908c-1.239-75.037-19.281-146.27-29.044-179.58c14.669,8.396,37.208,21.836,62.49,38.825l-8.734,62.745  c-0.615,4.426,2.473,8.516,6.901,9.132c4.419,0.616,8.516-2.472,9.132-6.901l7.62-54.743c23.933,16.753,49.317,36.223,72.204,57.264  c35.208,32.369,77.135,65.262,130.441,80.577c0.21,0.06,0.419,0.123,0.629,0.182c1.55,0.44,3.113,0.861,4.682,1.271  c0.684,0.179,1.368,0.36,2.053,0.533c1.313,0.33,2.633,0.647,3.959,0.956c0.968,0.226,1.938,0.445,2.908,0.657  c0.534,0.117,1.073,0.228,1.609,0.341c1.762,0.373,3.527,0.726,5.297,1.056c0.413,0.077,0.828,0.151,1.242,0.227  c1.891,0.342,3.785,0.658,5.686,0.952c0.43,0.067,0.859,0.134,1.291,0.197c1.741,0.258,3.485,0.493,5.233,0.711  c0.618,0.077,1.233,0.159,1.854,0.231c0.969,0.112,1.94,0.216,2.911,0.316c0.997,0.104,1.998,0.197,3.003,0.288  c1.061,0.095,2.123,0.185,3.186,0.264c1.258,0.096,2.521,0.181,3.79,0.258c0.583,0.035,1.165,0.072,1.749,0.103  c1.755,0.092,3.52,0.162,5.296,0.215c0.41,0.012,0.82,0.021,1.23,0.031c1.915,0.046,3.838,0.079,5.778,0.079c0,0,0.006,0,0.014,0  c39.638,0,82.204-10.129,126.513-30.103c0.035-0.016,0.068-0.031,0.104-0.047c0.378-0.177,0.779-0.356,1.202-0.537  c0.059-0.025,0.117-0.051,0.176-0.077c0.929-0.423,1.867-0.861,2.805-1.298l0.721-0.336c0.091-0.042,0.181-0.086,0.271-0.133  c2.706-1.387,5.049-2.915,7.025-4.581c4.346-3.665,6.914-7.992,7.657-12.929c0.099-0.661,0.162-1.313,0.191-1.954  C512.228,385.546,510.033,380.862,507.94,377.68z M134.927,248.985l-31.047-22.886l8.116-13.114L134.927,248.985z M98.15,275.888  c-0.175-0.141-0.341-0.289-0.529-0.417c-37.372-25.406-69.868-43.635-81.345-49.896c0.588-15.732,3.93-30.206,6.57-39.434  c11.295,8.428,33.127,24.68,65.409,48.548c0.004,0.003,0.009,0.008,0.013,0.011l0.461,0.34  c27.314,20.196,62.082,45.821,104.21,76.725c1.664,1.22,3.339,2.449,5.026,3.687c1.447,1.062,2.894,2.099,4.339,3.123  c0.318,0.226,0.638,0.446,0.956,0.67c1.21,0.849,2.417,1.687,3.626,2.511c0.228,0.154,0.454,0.309,0.682,0.463  c4.725,3.203,9.443,6.209,14.15,9.012c-16.228,2.424-25.498,9.853-30.749,18.162c-2.892-2.573-5.737-5.151-8.539-7.727  C155.634,317.028,125.528,294.517,98.15,275.888z M489.852,396.024l-0.585,0.273c-0.859,0.401-1.717,0.802-2.569,1.189  c-0.55,0.236-1.072,0.47-1.566,0.7c-42.189,19.011-82.5,28.65-119.82,28.65h-0.014c-2.092,0-4.164-0.037-6.224-0.095  c-0.226-0.007-0.453-0.01-0.678-0.017c-1.902-0.06-3.789-0.15-5.663-0.258c-0.409-0.024-0.818-0.046-1.225-0.072  c-1.732-0.11-3.451-0.242-5.158-0.392c-0.575-0.051-1.148-0.106-1.721-0.161c-1.53-0.147-3.052-0.306-4.563-0.484  c-0.816-0.097-1.626-0.203-2.438-0.309c-0.816-0.106-1.627-0.218-2.438-0.332c-1.75-0.249-3.492-0.516-5.219-0.806  c-0.181-0.03-0.363-0.059-0.543-0.091c-49.804-8.503-90.096-33.889-124.142-62.114c-0.369-0.308-0.741-0.615-1.108-0.922  c-0.257-0.214-0.513-0.428-0.768-0.643c2.825-5.777,9.959-13.562,30.137-13.562c10.785,0,21.908,2.255,29.507,4.204  c18.386,6.413,36.534,9.648,54.331,9.648c46.093,0,76.14-21.607,86.523-30.467c6.528,2.509,12.814,5.239,18.835,8.111  c32.51,15.512,57.269,35.199,70.501,46.957c0.986,1.046,2.836,3.689,2.538,5.559C495.525,392.205,493.312,394.231,489.852,396.024z"/>
<g>
</g>
<g>
</g>
<g>
</g>
<g>
</g>
<g>
</g>
<g>
</g>
<g>
</g>
<g>
</g>
<g>
</g>
<g>
</g>
<g>
</g>
<g>
</g>
<g>
</g>
<g>
</g>
<g>
</g>
</svg>
