<?xml version="1.0" encoding="iso-8859-1"?>
<!-- Generator: Adobe Illustrator 19.0.0, SVG Export Plug-In . SVG Version: 6.00 Build 0)  -->
<svg xmlns="http://www.w3.org/2000/svg" xmlns:xlink="http://www.w3.org/1999/xlink" version="1.1" id="Layer_1" x="0px" y="0px" viewBox="0 0 512.001 512.001" style="enable-background:new 0 0 512.001 512.001;" xml:space="preserve">
<path style="fill:#FF738D;" d="M431.667,257.195c2.18-20.947,1.367-40.668-3.553-57.124l75.777-58.411  c0,0-68.471-99.711-92.977-99.711c-24.506,0-49.509,0-49.509,0s21.081,155.675-105.405,155.675S150.597,41.949,150.597,41.949  s-25.004,0-49.51,0c-24.505,0-92.977,99.711-92.977,99.711l75.777,58.411c-11.061,37.005-1.356,90.523,16.44,137.357  c21.081,55.479,0,132.626,0,132.626h155.675h155.675c0,0-21.082-77.146,0-132.626c6.457-16.994,11.848-34.866,15.568-52.513"/>
<path style="fill:#D82054;" d="M256.001,197.624c126.486,0,105.405-155.675,105.405-155.675s-15.983,69.44-105.405,69.44  s-105.404-69.44-105.404-69.44S129.515,197.624,256.001,197.624z"/>
<path style="fill:#F9AFBE;" d="M173.431,439.385H106.39c-2.697,18.339-6.064,30.671-6.064,30.671h155.675h155.675  c0,0-3.367-12.331-6.064-30.671H201.541"/>
<path style="fill:#BC154D;" d="M206.38,186.813c0.04,0,0.074-0.002,0.112-0.002c0.038,0,0.074,0.002,0.112,0.002  c69.994,0,94.791-47.67,102.984-90.254c35.624-20.395,43.503-54.61,43.503-54.61s21.082,155.675-105.404,155.675  c-0.038,0-0.074-0.002-0.112-0.002c-0.038,0-0.071,0.002-0.112,0.002c-20.717,0-37.472-4.179-51.014-11.163  C199.658,186.683,202.959,186.813,206.38,186.813z"/>
<g>
	<path style="fill:#EA5374;" d="M46.537,99.489c-0.116,0.142-0.213,0.28-0.328,0.422c0.12-0.155,0.241-0.308,0.361-0.463   C46.561,99.462,46.55,99.475,46.537,99.489z"/>
	<path style="fill:#EA5374;" d="M46.572,99.448c0.656-0.796,1.234-1.53,1.744-2.21C47.73,97.976,47.15,98.713,46.572,99.448z"/>
	<path style="fill:#EA5374;" d="M109.416,216.347c0.027-0.441,0.067-0.898,0.129-1.386c0.084-0.862,0.172-1.69,0.263-2.487   c1.783-21.068-8.97-31.427-11.929-33.856l-0.743-0.573h-0.001l0,0L48.43,140.473c0,0-21.545-16.672-2.22-40.563   c-6.722,8.569-12.86,16.768-17.855,23.595v-0.002l-18.293,13.811l20.591,15.504l59.384,45.775l1.415,1.09   c-4.92,16.456-5.733,36.177-3.554,57.124l4.424,27.721c3.72,17.646,9.112,35.518,15.568,52.513   c12.657,33.306,10.114,74.41,6.064,101.956h20.599c6.263-29.868,8.206-68.544-10.488-122.298   C108.241,271.192,107.673,236.09,109.416,216.347z"/>
</g>
<path style="fill:#F299AE;" d="M131.669,458.715c0.9-4.545,1.873-10.006,2.772-16.125h-5.676h-9.458h-5.676  c-0.199,1.341-0.399,2.643-0.602,3.918c-0.044,0.275-0.086,0.549-0.131,0.821c-0.086,0.527-0.171,1.049-0.255,1.562  c-0.059,0.35-0.118,0.695-0.175,1.039c-0.097,0.566-0.192,1.129-0.29,1.679c-0.106,0.605-0.211,1.201-0.317,1.785  c-0.059,0.327-0.116,0.642-0.175,0.961c-0.091,0.496-0.182,0.985-0.272,1.467c-0.049,0.262-0.099,0.524-0.148,0.783  c-0.137,0.722-0.275,1.43-0.41,2.111c0.157,5.918,3.062,14.546,18.692,14.546h5.676h9.46h5.676  C134.731,473.262,131.825,464.633,131.669,458.715z"/>
<path d="M510.576,137.071c-0.173-0.252-17.532-25.479-37.681-50.368c-37.931-46.854-53.048-52.863-61.98-52.863h-49.509  c-0.043,0-0.086,0.006-0.13,0.006c-0.201,0.003-0.401,0.014-0.6,0.032c-0.068,0.006-0.136,0.01-0.204,0.017  c-0.261,0.03-0.519,0.07-0.773,0.125c-0.007,0.001-0.014,0.002-0.021,0.003c-0.262,0.057-0.519,0.129-0.772,0.212  c-0.082,0.027-0.161,0.059-0.242,0.089c-0.16,0.058-0.318,0.118-0.474,0.186c-0.111,0.048-0.219,0.101-0.329,0.154  c-0.118,0.057-0.234,0.118-0.349,0.182c-0.121,0.066-0.241,0.134-0.359,0.207c-0.093,0.057-0.183,0.12-0.274,0.181  c-0.437,0.294-0.844,0.631-1.221,1.009c-0.08,0.08-0.16,0.159-0.236,0.242c-0.04,0.044-0.085,0.083-0.125,0.129  c-0.054,0.062-0.098,0.13-0.15,0.192c-0.082,0.099-0.161,0.201-0.238,0.304c-0.077,0.104-0.155,0.208-0.226,0.314  c-0.088,0.129-0.168,0.263-0.248,0.397c-0.052,0.089-0.109,0.175-0.158,0.265c-0.122,0.224-0.234,0.455-0.335,0.692  c-0.029,0.068-0.052,0.139-0.079,0.209c-0.07,0.177-0.136,0.357-0.194,0.541c-0.031,0.099-0.056,0.2-0.083,0.301  c-0.027,0.102-0.061,0.2-0.084,0.303c-0.146,0.631-15.485,63.15-97.504,63.15c-34.314,0-61.104-10.557-79.627-31.378  c-13.918-15.646-17.843-31.641-17.874-31.772c-0.026-0.111-0.061-0.217-0.091-0.326c-0.025-0.089-0.046-0.178-0.074-0.266  c-0.067-0.215-0.143-0.425-0.227-0.631c-0.015-0.038-0.027-0.076-0.042-0.114c-0.106-0.251-0.224-0.493-0.352-0.729  c-0.027-0.049-0.057-0.095-0.085-0.144c-0.105-0.182-0.214-0.36-0.332-0.532c-0.051-0.074-0.104-0.146-0.157-0.218  c-0.105-0.144-0.215-0.284-0.329-0.419c-0.038-0.044-0.069-0.093-0.108-0.137c-0.027-0.031-0.058-0.057-0.087-0.089  c-0.118-0.131-0.241-0.255-0.368-0.377c-0.067-0.066-0.132-0.134-0.201-0.197c-0.182-0.164-0.37-0.321-0.565-0.468  c-0.097-0.074-0.2-0.139-0.301-0.209c-0.112-0.077-0.224-0.154-0.339-0.225c-0.114-0.07-0.23-0.135-0.347-0.2  c-0.11-0.061-0.223-0.119-0.336-0.174c-0.12-0.058-0.24-0.117-0.363-0.169c-0.122-0.053-0.248-0.099-0.372-0.146  c-0.118-0.044-0.234-0.091-0.354-0.129c-0.231-0.075-0.467-0.139-0.706-0.194c-0.101-0.023-0.204-0.036-0.306-0.055  c-0.159-0.029-0.319-0.058-0.48-0.078c-0.114-0.014-0.227-0.022-0.342-0.03c-0.158-0.013-0.317-0.022-0.477-0.026  c-0.055-0.001-0.109-0.009-0.165-0.009h-49.507c-8.931,0-24.049,6.009-61.98,52.863C18.957,111.59,1.599,136.818,1.425,137.07  c-2.437,3.549-1.676,8.383,1.734,11.011l71.49,55.106c-11.912,49.186,8.487,111.824,18.098,137.121  c19.231,50.611,1.209,122.056-0.162,127.304c-0.05,0.188-0.078,0.295-0.081,0.306c-0.165,0.604-0.257,1.22-0.28,1.834  c0,0.004-0.001,0.01-0.001,0.014c-0.041,1.144,0.172,2.279,0.602,3.337c0.036,0.088,0.062,0.177,0.101,0.264  c0.253,0.565,0.573,1.106,0.957,1.608c1.281,1.678,3.157,2.764,5.212,3.081c0.405,0.063,0.816,0.106,1.232,0.106h311.349  c2.528,0,4.912-1.18,6.446-3.188c0.957-1.254,1.515-2.743,1.637-4.278l0,0c0.016-0.21,0.014-0.422,0.014-0.632  c0-0.098,0.01-0.197,0.007-0.295c-0.003-0.103-0.021-0.205-0.028-0.309c-0.038-0.516-0.112-1.03-0.251-1.537  c-0.005-0.022-0.118-0.438-0.312-1.202c-0.014-0.055-0.027-0.108-0.042-0.166c-0.015-0.059-0.031-0.123-0.046-0.186  c-2.743-10.969-18.164-77.846,0.157-126.059c6.854-18.041,12.211-36.114,15.924-53.721c0.923-4.382-1.879-8.683-6.262-9.607  c-4.382-0.921-8.681,1.88-9.607,6.262c-3.539,16.786-8.658,34.048-15.214,51.305c-11.945,31.435-11.123,68.835-7.8,96.728H201.541  c-4.478,0-8.108,3.629-8.108,8.108s3.63,8.108,8.108,8.108h197.095c0.954,5.642,1.927,10.546,2.772,14.454H110.594  c0.845-3.907,1.818-8.812,2.772-14.454h60.066c4.478,0,8.108-3.629,8.108-8.108s-3.63-8.108-8.108-8.108h-57.726  c3.322-27.892,4.145-65.292-7.799-96.728c-18.065-47.545-24.61-93.349-18.096-124.748l1.044-4.527  c0.254-0.975,0.52-1.937,0.802-2.88c0.191-0.639,0.278-1.289,0.308-1.935l9.817-42.561c1.007-4.363-1.715-8.717-6.078-9.724  c-4.363-1.008-8.717,1.715-9.724,6.078l-7.284,31.579l-59.497-45.863c6.328-8.919,18.752-26.065,32.513-43.064  c36.862-45.531,48.201-46.845,49.373-46.845h40.593c-0.001,0.009-0.001,0.019-0.002,0.028c-0.043,0.626-0.085,1.287-0.128,1.967  c-0.01,0.156-0.018,0.309-0.028,0.467c-0.04,0.687-0.079,1.395-0.116,2.132c-0.006,0.125-0.012,0.254-0.017,0.381  c-0.034,0.695-0.064,1.41-0.092,2.146c-0.004,0.122-0.01,0.239-0.014,0.361c-0.029,0.801-0.055,1.63-0.078,2.478  c-0.005,0.181-0.01,0.362-0.014,0.545c-0.022,0.872-0.04,1.762-0.052,2.68c-0.001,0.077-0.001,0.157-0.002,0.235  c-0.011,0.869-0.016,1.761-0.018,2.667c0,0.179-0.001,0.356-0.001,0.536c0,0.948,0.006,1.915,0.018,2.9  c0.002,0.199,0.005,0.4,0.009,0.6c0.014,0.992,0.034,1.998,0.062,3.026c0.001,0.043,0.002,0.084,0.003,0.128  c0.029,1.05,0.067,2.122,0.111,3.206c0.009,0.225,0.018,0.449,0.028,0.675c0.046,1.072,0.101,2.159,0.163,3.261  c0.011,0.179,0.023,0.361,0.032,0.541c0.062,1.039,0.131,2.089,0.209,3.15c0.012,0.156,0.022,0.309,0.034,0.466  c0.085,1.137,0.183,2.29,0.288,3.452c0.023,0.245,0.045,0.492,0.068,0.738c0.11,1.18,0.229,2.369,0.361,3.57  c0.013,0.115,0.027,0.23,0.04,0.345c0.126,1.132,0.264,2.273,0.411,3.422c0.029,0.225,0.056,0.45,0.085,0.676  c0.158,1.203,0.328,2.415,0.508,3.634c0.037,0.245,0.075,0.492,0.112,0.737c0.188,1.238,0.386,2.48,0.601,3.732  c0.005,0.032,0.011,0.065,0.016,0.097c0.218,1.266,0.455,2.54,0.701,3.816c0.051,0.262,0.101,0.522,0.152,0.784  c0.246,1.251,0.506,2.506,0.782,3.766c0.046,0.214,0.096,0.428,0.144,0.641c0.263,1.183,0.538,2.367,0.828,3.554  c0.041,0.17,0.08,0.339,0.122,0.509c0.314,1.269,0.647,2.54,0.992,3.81c0.075,0.274,0.15,0.547,0.226,0.821  c0.356,1.281,0.723,2.562,1.112,3.843c0.041,0.136,0.085,0.272,0.128,0.409c0.369,1.2,0.755,2.399,1.154,3.597  c0.078,0.234,0.154,0.468,0.234,0.702c0.427,1.258,0.872,2.514,1.335,3.766c0.096,0.259,0.194,0.517,0.291,0.776  c0.48,1.276,0.973,2.549,1.492,3.816c0.008,0.019,0.015,0.039,0.023,0.058c0.523,1.276,1.074,2.543,1.638,3.807  c0.116,0.259,0.23,0.518,0.348,0.776c0.559,1.229,1.135,2.453,1.735,3.669c0.106,0.214,0.215,0.427,0.322,0.641  c0.572,1.144,1.161,2.28,1.771,3.409c0.082,0.151,0.16,0.304,0.242,0.455c0.656,1.202,1.34,2.394,2.04,3.576  c0.151,0.256,0.304,0.511,0.457,0.765c0.712,1.183,1.443,2.358,2.202,3.518c0.089,0.135,0.181,0.267,0.269,0.402  c0.715,1.082,1.453,2.153,2.21,3.212c0.146,0.205,0.29,0.411,0.438,0.615c0.809,1.116,1.642,2.217,2.5,3.305  c0.179,0.227,0.361,0.453,0.543,0.679c0.895,1.118,1.808,2.226,2.757,3.312c2.455,2.811,5.038,5.448,7.746,7.912  c18.28,16.63,42.273,25.341,71.519,25.942c1.083,0.023,2.173,0.034,3.272,0.034c35.122,0,62.891-11.4,82.537-33.887  c0.949-1.087,1.862-2.195,2.758-3.313c0.181-0.226,0.363-0.451,0.542-0.678c0.857-1.089,1.691-2.19,2.5-3.306  c0.147-0.203,0.291-0.41,0.437-0.614c0.757-1.061,1.495-2.131,2.21-3.213c0.089-0.134,0.182-0.267,0.269-0.402  c0.759-1.16,1.49-2.335,2.202-3.518c0.154-0.255,0.306-0.51,0.457-0.767c0.701-1.183,1.384-2.374,2.04-3.576  c0.082-0.151,0.161-0.304,0.243-0.456c0.609-1.128,1.198-2.264,1.77-3.407c0.107-0.214,0.217-0.428,0.323-0.643  c0.599-1.215,1.176-2.439,1.735-3.668c0.118-0.258,0.232-0.518,0.348-0.777c0.564-1.264,1.115-2.531,1.638-3.807  c0.008-0.019,0.015-0.039,0.023-0.058c0.519-1.266,1.011-2.538,1.491-3.813c0.098-0.261,0.198-0.521,0.294-0.783  c0.462-1.251,0.907-2.504,1.333-3.76c0.08-0.235,0.156-0.469,0.235-0.705c0.4-1.198,0.786-2.397,1.155-3.598  c0.042-0.136,0.085-0.271,0.128-0.407c0.389-1.281,0.758-2.563,1.114-3.846c0.076-0.272,0.15-0.544,0.225-0.816  c0.346-1.274,0.68-2.546,0.994-3.816c0.041-0.166,0.079-0.332,0.12-0.497c0.291-1.189,0.566-2.377,0.83-3.562  c0.048-0.214,0.097-0.427,0.144-0.641c0.276-1.261,0.535-2.517,0.783-3.77c0.051-0.258,0.101-0.516,0.15-0.773  c0.246-1.279,0.483-2.555,0.702-3.823c0.005-0.032,0.011-0.065,0.016-0.097c0.215-1.252,0.413-2.496,0.602-3.735  c0.037-0.243,0.075-0.488,0.111-0.73c0.182-1.223,0.352-2.438,0.51-3.644c0.029-0.219,0.055-0.438,0.083-0.656  c0.148-1.158,0.287-2.308,0.414-3.448c0.012-0.108,0.026-0.217,0.038-0.326c0.133-1.207,0.252-2.4,0.362-3.585  c0.023-0.239,0.044-0.478,0.066-0.716c0.106-1.17,0.203-2.33,0.289-3.475c0.011-0.144,0.019-0.284,0.03-0.427  c0.079-1.082,0.15-2.153,0.213-3.211c0.01-0.163,0.021-0.328,0.03-0.491c0.064-1.117,0.119-2.217,0.165-3.304  c0.009-0.205,0.017-0.41,0.026-0.614c0.045-1.104,0.084-2.195,0.114-3.264c0-0.005,0-0.01,0-0.015  c0.029-1.076,0.05-2.129,0.064-3.167c0.002-0.172,0.005-0.344,0.008-0.514c0.013-1.011,0.018-2.001,0.019-2.973  c0-0.144-0.001-0.284-0.001-0.428c-0.001-0.972-0.008-1.929-0.019-2.859c0-0.024,0-0.048-0.001-0.071  c-0.013-0.956-0.031-1.882-0.054-2.789c-0.003-0.138-0.007-0.276-0.011-0.413c-0.024-0.893-0.051-1.764-0.082-2.606  c-0.002-0.046-0.003-0.091-0.005-0.137c-0.032-0.851-0.068-1.674-0.106-2.468c-0.002-0.046-0.004-0.093-0.007-0.139  c-0.039-0.805-0.082-1.577-0.125-2.323c-0.004-0.072-0.009-0.142-0.013-0.213c-0.044-0.742-0.091-1.46-0.137-2.137h40.592  c1.171,0,12.501,1.312,49.32,46.779c13.774,17.008,26.229,34.197,32.568,43.133l-59.496,45.861l-7.282-31.578  c-1.008-4.365-5.362-7.087-9.724-6.078c-4.363,1.007-7.086,5.359-6.079,9.724l9.817,42.564c0.031,0.645,0.118,1.293,0.308,1.932  c0.269,0.901,0.525,1.815,0.77,2.743l1.256,5.448c2.622,13.021,3.04,28.368,1.23,45.771c-0.464,4.454,2.773,8.441,7.226,8.904  c4.466,0.462,8.441-2.773,8.904-7.226c1.987-19.094,1.472-36.135-1.505-50.831c-0.012-0.056-0.017-0.111-0.03-0.168l-0.025-0.107  c-0.258-1.261-0.529-2.511-0.824-3.737l71.494-55.109C512.252,145.454,513.013,140.619,510.576,137.071z M256.001,189.515  c-1.889,0-3.75-0.037-5.587-0.111c-27.551-1.115-49.297-10.582-64.699-28.185c-0.631-0.721-1.245-1.455-1.85-2.196  c-0.196-0.24-0.386-0.485-0.578-0.728c-0.405-0.507-0.807-1.017-1.199-1.533c-0.218-0.286-0.431-0.575-0.645-0.864  c-0.359-0.484-0.715-0.971-1.064-1.463c-0.214-0.301-0.426-0.602-0.636-0.905c-0.346-0.501-0.687-1.004-1.023-1.511  c-0.194-0.291-0.388-0.582-0.578-0.875c-0.371-0.573-0.732-1.15-1.09-1.731c-0.142-0.229-0.286-0.455-0.426-0.685  c-0.489-0.808-0.967-1.622-1.432-2.442c-0.103-0.181-0.2-0.364-0.301-0.546c-0.361-0.647-0.718-1.295-1.065-1.948  c-0.161-0.304-0.318-0.611-0.476-0.917c-0.279-0.538-0.556-1.078-0.826-1.622c-0.166-0.336-0.331-0.674-0.494-1.011  c-0.254-0.524-0.504-1.052-0.75-1.58c-0.158-0.341-0.317-0.681-0.471-1.023c-0.25-0.55-0.492-1.104-0.733-1.657  c-0.137-0.316-0.277-0.629-0.411-0.946c-0.29-0.684-0.572-1.372-0.849-2.061c-0.075-0.186-0.154-0.37-0.227-0.556  c-0.344-0.867-0.677-1.738-1.001-2.612c-0.106-0.284-0.205-0.57-0.309-0.855c-0.218-0.6-0.434-1.201-0.643-1.804  c-0.121-0.35-0.239-0.701-0.357-1.051c-0.184-0.545-0.365-1.09-0.542-1.636c-0.118-0.367-0.235-0.733-0.35-1.1  c-0.17-0.542-0.336-1.084-0.499-1.627c-0.108-0.358-0.216-0.716-0.321-1.074c-0.171-0.585-0.336-1.17-0.499-1.755  c-0.088-0.314-0.177-0.626-0.263-0.94c-0.24-0.88-0.472-1.761-0.695-2.641c-0.037-0.144-0.07-0.289-0.106-0.432  c-0.188-0.754-0.372-1.506-0.549-2.26c-0.08-0.339-0.155-0.679-0.232-1.018c-0.128-0.558-0.253-1.117-0.374-1.675  c-0.08-0.371-0.158-0.741-0.236-1.111c-0.112-0.533-0.222-1.065-0.328-1.596c-0.075-0.372-0.148-0.743-0.219-1.114  c-0.104-0.539-0.205-1.078-0.304-1.615c-0.065-0.354-0.131-0.707-0.194-1.06c-0.107-0.602-0.209-1.201-0.309-1.801  c-0.048-0.282-0.097-0.564-0.143-0.845c-0.141-0.861-0.274-1.719-0.4-2.573c-0.04-0.266-0.076-0.53-0.114-0.796  c-0.088-0.608-0.174-1.214-0.255-1.818c-0.046-0.342-0.089-0.681-0.133-1.022c-0.068-0.528-0.135-1.054-0.199-1.577  c-0.043-0.355-0.084-0.708-0.125-1.062c-0.059-0.509-0.116-1.017-0.171-1.523c-0.038-0.348-0.076-0.695-0.111-1.041  c-0.055-0.532-0.107-1.061-0.157-1.588c-0.029-0.307-0.061-0.615-0.088-0.92c-0.062-0.671-0.118-1.338-0.173-2.001  c-0.013-0.156-0.027-0.312-0.04-0.468c-0.065-0.808-0.123-1.609-0.178-2.403c-0.018-0.271-0.035-0.538-0.052-0.809  c-0.035-0.535-0.069-1.07-0.099-1.599c-0.017-0.307-0.034-0.612-0.051-0.917c-0.026-0.484-0.051-0.965-0.074-1.443  c-0.015-0.315-0.029-0.627-0.043-0.938c-0.021-0.475-0.039-0.944-0.057-1.412c-0.006-0.187-0.014-0.374-0.021-0.559  c1.817,2.527,3.839,5.1,6.087,7.671c14.95,17.103,43.105,37.492,92.34,37.492s77.39-20.388,92.34-37.492  c2.26-2.585,4.29-5.17,6.115-7.711c-0.006,0.174-0.012,0.349-0.018,0.525c-0.017,0.485-0.037,0.974-0.058,1.467  c-0.013,0.294-0.026,0.59-0.04,0.888c-0.024,0.497-0.049,0.998-0.076,1.502c-0.015,0.286-0.03,0.573-0.046,0.862  c-0.032,0.56-0.068,1.127-0.105,1.695c-0.015,0.237-0.029,0.47-0.045,0.708c-0.055,0.802-0.114,1.612-0.178,2.428  c-0.011,0.137-0.024,0.277-0.035,0.414c-0.055,0.68-0.114,1.362-0.176,2.051c-0.027,0.296-0.056,0.596-0.085,0.894  c-0.051,0.537-0.104,1.076-0.159,1.617c-0.035,0.335-0.07,0.671-0.107,1.008c-0.056,0.518-0.115,1.039-0.174,1.561  c-0.04,0.343-0.08,0.684-0.121,1.028c-0.065,0.538-0.134,1.079-0.203,1.621c-0.042,0.325-0.083,0.65-0.126,0.976  c-0.085,0.639-0.176,1.28-0.269,1.923c-0.034,0.23-0.064,0.458-0.098,0.689c-0.128,0.862-0.262,1.725-0.403,2.594  c-0.043,0.266-0.091,0.533-0.135,0.8c-0.103,0.614-0.207,1.228-0.316,1.845c-0.061,0.344-0.125,0.689-0.188,1.032  c-0.101,0.545-0.202,1.091-0.307,1.638c-0.07,0.367-0.144,0.733-0.216,1.1c-0.107,0.537-0.218,1.076-0.332,1.615  c-0.076,0.361-0.151,0.723-0.23,1.085c-0.124,0.573-0.254,1.147-0.385,1.722c-0.074,0.323-0.146,0.648-0.222,0.971  c-0.181,0.771-0.369,1.543-0.562,2.315c-0.034,0.133-0.064,0.266-0.098,0.399c-0.222,0.877-0.454,1.755-0.692,2.631  c-0.084,0.308-0.173,0.616-0.258,0.925c-0.164,0.589-0.331,1.178-0.503,1.768c-0.104,0.354-0.211,0.707-0.317,1.061  c-0.165,0.548-0.333,1.096-0.505,1.644c-0.114,0.362-0.229,0.724-0.346,1.087c-0.177,0.55-0.36,1.098-0.545,1.647  c-0.117,0.347-0.234,0.694-0.352,1.04c-0.211,0.61-0.43,1.218-0.651,1.826c-0.102,0.279-0.199,0.558-0.302,0.836  c-0.324,0.875-0.657,1.747-1.002,2.615c-0.074,0.186-0.152,0.371-0.227,0.557c-0.278,0.69-0.559,1.378-0.85,2.064  c-0.133,0.314-0.271,0.626-0.407,0.938c-0.241,0.557-0.485,1.112-0.736,1.665c-0.155,0.341-0.311,0.68-0.469,1.02  c-0.246,0.531-0.498,1.061-0.754,1.588c-0.162,0.335-0.325,0.67-0.491,1.004c-0.271,0.546-0.549,1.089-0.83,1.63  c-0.158,0.305-0.314,0.61-0.475,0.912c-0.348,0.655-0.705,1.306-1.067,1.954c-0.101,0.181-0.198,0.363-0.299,0.543  c-0.466,0.822-0.945,1.638-1.435,2.447c-0.138,0.228-0.282,0.452-0.423,0.679c-0.36,0.583-0.722,1.163-1.095,1.74  c-0.19,0.294-0.385,0.584-0.578,0.876c-0.336,0.507-0.676,1.012-1.023,1.512c-0.211,0.305-0.424,0.608-0.639,0.909  c-0.348,0.49-0.702,0.976-1.061,1.46c-0.216,0.291-0.431,0.583-0.651,0.871c-0.394,0.517-0.795,1.027-1.2,1.535  c-0.192,0.242-0.382,0.486-0.577,0.727c-0.605,0.743-1.221,1.478-1.853,2.202C309.896,179.981,286.234,189.515,256.001,189.515z"/>
<g>
</g>
<g>
</g>
<g>
</g>
<g>
</g>
<g>
</g>
<g>
</g>
<g>
</g>
<g>
</g>
<g>
</g>
<g>
</g>
<g>
</g>
<g>
</g>
<g>
</g>
<g>
</g>
<g>
</g>
</svg>
